<svg width="372" height="177" viewBox="0 0 372 177" fill="none" xmlns="http://www.w3.org/2000/svg">
<path d="M45.7332 156.229C45.7332 153.529 44.9926 151.221 43.5113 149.303C42.03 147.388 38.7634 146.037 33.7114 145.252L25.0887 143.945C17.5107 142.726 11.7157 140.7 7.71088 137.87C3.70363 135.04 1.7 130.488 1.7 124.215C1.7 120.034 2.87471 116.463 5.22903 113.5C7.5809 110.54 10.7813 108.274 14.8327 106.705C18.8817 105.138 23.4333 104.353 28.4878 104.353C35.021 104.353 40.1588 105.182 43.9061 106.835C47.651 108.49 50.4394 110.712 52.2689 113.498C54.0984 116.286 55.4055 119.379 56.1903 122.775L45.8681 124.475C44.6468 120.816 42.9056 118.052 40.642 116.178C38.3759 114.307 34.457 113.37 28.8826 113.37C22.6118 113.37 18.32 114.415 16.0123 116.507C13.7046 118.596 12.5495 120.907 12.5495 123.433C12.5495 126.221 13.376 128.421 15.0314 130.032C16.6867 131.646 20.1275 132.887 25.3536 133.755L35.1535 135.322C43.0797 136.629 48.7644 138.895 52.2051 142.118C55.6459 145.34 57.365 150.046 57.365 156.229C57.365 161.891 55.099 166.617 50.5694 170.406C46.0397 174.195 39.2441 176.091 30.1873 176.091C24.7846 176.091 19.8651 175.392 15.4213 174.001C10.9775 172.608 7.38471 170.301 4.64045 167.076C1.8962 163.853 0.348721 159.584 0.00292969 154.269H10.98C11.7647 158.973 13.7438 162.262 16.9246 164.135C20.103 166.009 24.4388 166.943 29.9249 166.943C35.411 166.943 39.7444 165.962 42.1428 164.003C44.5389 162.043 45.7356 159.451 45.7356 156.229H45.7332Z" fill="#212121"/>
<path d="M71.8638 152.048V115.46H61.4116V106.442H71.8638V88.0173H83.2308V106.442H101.133V115.46H83.2308V155.052C83.2308 158.363 83.9714 161.018 85.4527 163.022C86.9339 165.026 89.1975 166.029 92.2483 166.029C94.1637 166.029 95.8632 165.877 97.3445 165.57C98.8233 165.266 100.13 164.94 101.266 164.589L103.225 173.344C101.482 173.955 99.5884 174.455 97.5406 174.848C95.4929 175.24 93.0748 175.436 90.2888 175.436C85.2369 175.436 81.3817 174.433 78.7232 172.43C76.0648 170.426 74.2574 167.66 73.3009 164.133C72.3396 160.604 71.8638 156.577 71.8638 152.048Z" fill="#212121"/>
<path d="M108.977 151.262V106.444H120.344V149.043C120.344 155.313 121.388 159.757 123.48 162.372C125.57 164.986 128.88 166.29 133.41 166.29C138.548 166.29 143.124 164.461 147.131 160.802C149.307 158.887 150.964 156.861 152.097 154.727C153.228 152.594 153.797 149.827 153.797 146.431V106.447H165.164V174.001H153.927V163.546C150.704 167.904 147.153 171.082 143.279 173.086C139.401 175.09 135.242 176.093 130.801 176.093C123.134 176.093 117.58 174.003 114.141 169.822C110.698 165.641 108.979 159.456 108.979 151.267L108.977 151.262Z" fill="#212121"/>
<path d="M176.532 140.547C176.532 129.398 179.211 120.577 184.569 114.088C189.925 107.599 197.263 104.354 206.587 104.354C210.158 104.354 213.772 105.073 217.431 106.51C221.09 107.947 224.487 110.672 227.624 114.676V80.7031H238.991V173.998H227.884V164.198C225.095 168.034 221.873 170.972 218.214 173.019C214.555 175.065 210.243 176.09 205.277 176.09C198.744 176.09 193.341 174.523 189.074 171.386C184.805 168.25 181.646 163.982 179.6 158.582C177.553 153.182 176.53 147.171 176.53 140.549L176.532 140.547ZM188.422 140.285C188.422 146.906 189.337 152.132 191.166 155.965C192.996 159.801 195.347 162.521 198.222 164.132C201.098 165.746 204.103 166.55 207.239 166.55C213.422 166.55 218.432 164.546 222.265 160.539C226.098 156.532 228.016 150.609 228.016 142.769V138.195C228.016 129.658 226.165 123.454 222.464 119.576C218.761 115.702 213.991 113.762 208.156 113.762C204.497 113.762 201.165 114.632 198.16 116.374C195.156 118.117 192.78 120.925 191.039 124.802C189.295 128.68 188.424 133.842 188.424 140.287L188.422 140.285Z" fill="#212121"/>
<path d="M252.706 80.7013H264.335V93.8977H252.706V80.7013ZM252.968 106.442H264.335V173.996H252.968V106.442Z" fill="#212121"/>
<path d="M275.97 140.418C275.97 133.014 277.319 126.633 280.019 121.274C282.719 115.916 286.552 111.759 291.518 108.797C296.484 105.836 302.275 104.353 308.896 104.353C315.518 104.353 321.504 105.79 326.34 108.664C331.174 111.538 334.899 115.634 337.511 120.946C340.125 126.26 341.432 132.575 341.432 139.893C341.432 147.211 340.103 153.7 337.447 159.101C334.789 164.503 331 168.685 326.08 171.645C321.158 174.605 315.302 176.088 308.506 176.088C298.226 176.088 290.233 172.91 284.529 166.549C278.822 160.192 275.97 151.478 275.97 140.416V140.418ZM287.989 140.156C287.989 147.91 289.6 154.267 292.825 159.233C296.045 164.199 301.318 166.681 308.636 166.681C313.514 166.681 317.477 165.55 320.528 163.284C323.576 161.021 325.82 157.862 327.257 153.811C328.694 149.762 329.413 145.166 329.413 140.026C329.413 132.274 327.78 125.959 324.513 121.078C321.246 116.2 315.954 113.76 308.636 113.76C301.318 113.76 296.158 116.222 292.892 121.142C289.625 126.064 287.992 132.401 287.992 140.153L287.989 140.156Z" fill="#212121"/>
<path d="M15.4085 40.1314C16.6519 51.3144 24.1073 57.649 35.1628 57.649C42.3704 57.649 46.5935 56.0328 52.3076 49.9459L65.1044 56.9035C56.6558 66.0976 46.9663 71.3163 34.9126 71.3163C12.7992 71.3163 0 55.9102 0 35.9058C0 15.9015 12.549 0 33.5442 0C54.5393 0 66.2202 15.1584 66.2202 34.042C66.2202 36.1536 66.0951 37.6446 65.7224 40.1289H15.4085V40.1314ZM15.7813 28.0777H51.0667C49.3279 18.013 42.1203 13.0444 33.424 13.0444C23.8571 13.0444 17.2724 19.1313 15.7813 28.0777Z" fill="#212121"/>
<path d="M105.608 69.8259H91.8161L64.4839 1.4917H80.6355L98.8987 49.8215L117.162 1.4917H132.941L105.606 69.8259H105.608Z" fill="#212121"/>
<path d="M131.825 35.7832C131.825 15.2835 144.622 0 165.497 0C186.372 0 199.166 15.281 199.166 35.7832C199.166 56.2854 186.122 71.3163 165.497 71.3163C144.872 71.3163 131.825 56.0353 131.825 35.7832ZM146.984 35.7832C146.984 48.5799 153.941 57.8992 165.497 57.8992C177.053 57.8992 183.885 48.5799 183.885 35.7832C183.885 22.9865 177.05 13.5447 165.497 13.5447C153.944 13.5447 146.984 22.7388 146.984 35.7832Z" fill="#212121"/>
<path d="M371.101 164.348V172.709H354.378V155.986H362.739C367.357 155.986 371.099 159.731 371.099 164.346L371.101 164.348Z" fill="#212121"/>
</svg>
