<svg width="372" height="177" viewBox="0 0 372 177" fill="none" xmlns="http://www.w3.org/2000/svg">
<path d="M45.7332 156.229C45.7332 153.529 44.9926 151.221 43.5113 149.303C42.0301 147.388 38.7635 146.037 33.7115 145.252L25.0887 143.945C17.5108 142.726 11.7157 140.7 7.71092 137.87C3.70367 135.04 1.7001 130.488 1.7001 124.215C1.7001 120.034 2.87473 116.463 5.22905 113.5C7.58092 110.54 10.7814 108.274 14.8328 106.705C18.8817 105.138 23.4334 104.353 28.4879 104.353C35.0211 104.353 40.1588 105.182 43.9061 106.835C47.651 108.49 50.4394 110.712 52.2689 113.498C54.0984 116.286 55.4056 119.379 56.1904 122.775L45.8681 124.475C44.6468 120.816 42.9056 118.052 40.6421 116.178C38.376 114.307 34.457 113.37 28.8827 113.37C22.6118 113.37 18.3201 114.415 16.0124 116.507C13.7047 118.596 12.5495 120.907 12.5495 123.433C12.5495 126.221 13.376 128.421 15.0314 130.032C16.6868 131.646 20.1275 132.887 25.3536 133.755L35.1535 135.322C43.0797 136.629 48.7645 138.895 52.2052 142.118C55.6459 145.34 57.3651 150.046 57.3651 156.229C57.3651 161.891 55.0991 166.617 50.5695 170.406C46.0398 174.195 39.2441 176.091 30.1873 176.091C24.7846 176.091 19.8651 175.392 15.4213 174.001C10.9775 172.609 7.38475 170.301 4.64049 167.076C1.89624 163.853 0.348721 159.584 0.00292969 154.269H10.98C11.7648 158.973 13.7438 162.262 16.9246 164.135C20.103 166.009 24.4389 166.943 29.9249 166.943C35.411 166.943 39.7444 165.962 42.1429 164.003C44.5389 162.043 45.7357 159.451 45.7357 156.229H45.7332Z" fill="#356BFF"/>
<path d="M71.8639 152.048V115.46H61.4116V106.442H71.8639V88.0173H83.2308V106.442H101.133V115.46H83.2308V155.052C83.2308 158.363 83.9715 161.018 85.4527 163.022C86.934 165.026 89.1976 166.029 92.2484 166.029C94.1637 166.029 95.8632 165.877 97.3445 165.57C98.8233 165.266 100.13 164.94 101.266 164.589L103.225 173.344C101.482 173.955 99.5885 174.455 97.5407 174.848C95.493 175.24 93.0748 175.436 90.2888 175.436C85.2369 175.436 81.3816 174.433 78.7232 172.43C76.0648 170.426 74.2574 167.66 73.3009 164.133C72.3396 160.604 71.8639 156.577 71.8639 152.048Z" fill="#356BFF"/>
<path d="M108.977 151.263V106.445H120.344V149.044C120.344 155.314 121.388 159.758 123.48 162.372C125.57 164.987 128.88 166.291 133.41 166.291C138.548 166.291 143.124 164.462 147.131 160.803C149.307 158.888 150.964 156.862 152.097 154.728C153.228 152.595 153.797 149.828 153.797 146.432V106.448H165.164V174.002H153.927V163.547C150.704 167.905 147.153 171.083 143.279 173.087C139.401 175.091 135.242 176.094 130.801 176.094C123.134 176.094 117.58 174.004 114.141 169.823C110.698 165.642 108.979 159.457 108.979 151.268L108.977 151.263Z" fill="#356BFF"/>
<path d="M176.532 140.548C176.532 129.399 179.21 120.577 184.569 114.088C189.925 107.599 197.263 104.355 206.587 104.355C210.158 104.355 213.772 105.073 217.431 106.51C221.09 107.948 224.487 110.672 227.624 114.677V80.7036H238.991V173.999H227.884V164.199C225.095 168.034 221.873 170.972 218.214 173.02C214.555 175.065 210.243 176.09 205.277 176.09C198.744 176.09 193.341 174.523 189.074 171.387C184.804 168.25 181.646 163.983 179.6 158.583C177.553 153.182 176.53 147.172 176.53 140.55L176.532 140.548ZM188.422 140.285C188.422 146.907 189.337 152.133 191.166 155.966C192.996 159.801 195.347 162.521 198.222 164.132C201.098 165.746 204.103 166.551 207.239 166.551C213.422 166.551 218.432 164.547 222.265 160.54C226.098 156.532 228.016 150.61 228.016 142.769V138.196C228.016 129.659 226.164 123.454 222.464 119.577C218.761 115.702 213.991 113.762 208.156 113.762C204.497 113.762 201.165 114.633 198.16 116.374C195.156 118.118 192.78 120.926 191.039 124.803C189.295 128.68 188.424 133.843 188.424 140.288L188.422 140.285Z" fill="#356BFF"/>
<path d="M252.706 80.7014H264.335V93.8979H252.706V80.7014ZM252.968 106.442H264.335V173.996H252.968V106.442Z" fill="#356BFF"/>
<path d="M275.97 140.418C275.97 133.014 277.319 126.633 280.019 121.274C282.719 115.916 286.552 111.759 291.518 108.797C296.484 105.837 302.275 104.353 308.896 104.353C315.518 104.353 321.504 105.79 326.34 108.664C331.174 111.538 334.899 115.634 337.511 120.946C340.125 126.26 341.432 132.575 341.432 139.893C341.432 147.211 340.103 153.7 337.447 159.101C334.789 164.503 331 168.685 326.08 171.645C321.158 174.605 315.302 176.088 308.506 176.088C298.226 176.088 290.233 172.91 284.529 166.549C278.822 160.192 275.97 151.478 275.97 140.416V140.418ZM287.989 140.156C287.989 147.91 289.6 154.267 292.825 159.233C296.045 164.199 301.318 166.681 308.636 166.681C313.514 166.681 317.477 165.55 320.528 163.284C323.576 161.021 325.82 157.862 327.257 153.811C328.694 149.762 329.413 145.166 329.413 140.026C329.413 132.274 327.78 125.959 324.513 121.078C321.246 116.2 315.954 113.76 308.636 113.76C301.318 113.76 296.158 116.223 292.892 121.142C289.625 126.064 287.992 132.401 287.992 140.153L287.989 140.156Z" fill="#356BFF"/>
<path d="M15.4084 40.1314C16.6518 51.3144 24.1072 57.649 35.1627 57.649C42.3704 57.649 46.5934 56.0329 52.3075 49.946L65.1043 56.9035C56.6557 66.0976 46.9662 71.3163 34.9126 71.3163C12.7991 71.3163 0 55.9102 0 35.9059C0 15.9015 12.5514 0 33.5465 0C54.5417 0 66.2226 15.1584 66.2226 34.042C66.2226 36.1536 66.0976 37.6446 65.7248 40.1289H15.406L15.4084 40.1314ZM15.7812 28.0777H51.0667C49.3279 18.013 42.1202 13.0444 33.4239 13.0444C23.857 13.0444 17.2723 19.1313 15.7812 28.0777Z" fill="#356BFF"/>
<path d="M105.608 69.8255H91.816L64.4839 1.49133H80.6355L98.8986 49.8211L117.162 1.49133H132.941L105.606 69.8255H105.608Z" fill="#356BFF"/>
<path d="M131.825 35.7832C131.825 15.2835 144.622 0 165.497 0C186.372 0 199.166 15.281 199.166 35.7832C199.166 56.2855 186.122 71.3163 165.497 71.3163C144.872 71.3163 131.825 56.0353 131.825 35.7832ZM146.984 35.7832C146.984 48.58 153.941 57.8992 165.497 57.8992C177.053 57.8992 183.885 48.58 183.885 35.7832C183.885 22.9865 177.05 13.5447 165.497 13.5447C153.944 13.5447 146.984 22.7388 146.984 35.7832Z" fill="#356BFF"/>
<path d="M371.102 164.349V172.71H354.378V155.987H362.739C367.357 155.987 371.099 159.731 371.099 164.347L371.102 164.349Z" fill="#356BFF"/>
</svg>
