<svg width="372" height="177" viewBox="0 0 372 177" fill="none" xmlns="http://www.w3.org/2000/svg">
<path d="M45.7332 156.23C45.7332 153.53 44.9926 151.222 43.5113 149.304C42.0301 147.389 38.7635 146.037 33.7115 145.253L25.0887 143.946C17.5108 142.727 11.7157 140.701 7.71092 137.871C3.70367 135.041 1.7001 130.489 1.7001 124.216C1.7001 120.034 2.87473 116.464 5.22905 113.501C7.58092 110.541 10.7814 108.275 14.8328 106.706C18.8817 105.139 23.4334 104.354 28.4879 104.354C35.0211 104.354 40.1588 105.183 43.9061 106.836C47.651 108.491 50.4394 110.713 52.2689 113.499C54.0984 116.287 55.4056 119.38 56.1904 122.776L45.8681 124.476C44.6468 120.817 42.9056 118.053 40.6421 116.179C38.376 114.308 34.457 113.371 28.8827 113.371C22.6118 113.371 18.3201 114.416 16.0124 116.508C13.7047 118.597 12.5495 120.908 12.5495 123.434C12.5495 126.222 13.376 128.422 15.0314 130.033C16.6868 131.647 20.1275 132.888 25.3536 133.756L35.1535 135.323C43.0797 136.63 48.7645 138.896 52.2052 142.119C55.6459 145.341 57.3651 150.047 57.3651 156.23C57.3651 161.892 55.0991 166.618 50.5695 170.407C46.0398 174.196 39.2441 176.092 30.1873 176.092C24.7846 176.092 19.8651 175.393 15.4213 174.002C10.9775 172.609 7.38475 170.302 4.64049 167.077C1.89624 163.854 0.348721 159.585 0.00292969 154.27H10.98C11.7648 158.974 13.7438 162.263 16.9246 164.136C20.103 166.01 24.4389 166.944 29.9249 166.944C35.411 166.944 39.7444 165.963 42.1429 164.004C44.5389 162.044 45.7357 159.452 45.7357 156.23H45.7332Z" fill="#64C4FF"/>
<path d="M71.8639 152.048V115.461H61.4116V106.443H71.8639V88.0183H83.2308V106.443H101.133V115.461H83.2308V155.053C83.2308 158.363 83.9715 161.019 85.4527 163.023C86.934 165.027 89.1976 166.03 92.2484 166.03C94.1637 166.03 95.8632 165.878 97.3445 165.571C98.8233 165.267 100.13 164.941 101.266 164.59L103.225 173.345C101.482 173.956 99.5885 174.456 97.5407 174.849C95.493 175.241 93.0748 175.437 90.2888 175.437C85.2369 175.437 81.3816 174.434 78.7232 172.431C76.0648 170.427 74.2574 167.661 73.3009 164.134C72.3396 160.605 71.8639 156.578 71.8639 152.048Z" fill="#64C4FF"/>
<path d="M108.977 151.263V106.445H120.344V149.044C120.344 155.314 121.388 159.758 123.48 162.372C125.57 164.987 128.88 166.291 133.41 166.291C138.548 166.291 143.124 164.462 147.131 160.803C149.307 158.888 150.964 156.862 152.097 154.728C153.228 152.595 153.797 149.828 153.797 146.432V106.447H165.164V174.002H153.927V163.547C150.704 167.905 147.153 171.083 143.279 173.087C139.401 175.091 135.242 176.094 130.801 176.094C123.134 176.094 117.58 174.004 114.141 169.823C110.698 165.642 108.979 159.457 108.979 151.268L108.977 151.263Z" fill="#64C4FF"/>
<path d="M176.532 140.548C176.532 129.399 179.21 120.578 184.569 114.089C189.925 107.6 197.263 104.355 206.587 104.355C210.158 104.355 213.772 105.074 217.431 106.511C221.09 107.948 224.487 110.673 227.624 114.677V80.7041H238.991V173.999H227.884V164.199C225.095 168.035 221.873 170.973 218.214 173.02C214.555 175.066 210.243 176.091 205.277 176.091C198.744 176.091 193.341 174.524 189.074 171.387C184.804 168.251 181.646 163.983 179.6 158.583C177.553 153.183 176.53 147.172 176.53 140.55L176.532 140.548ZM188.422 140.286C188.422 146.907 189.337 152.133 191.166 155.966C192.996 159.802 195.347 162.522 198.222 164.133C201.098 165.747 204.103 166.551 207.239 166.551C213.422 166.551 218.432 164.547 222.265 160.54C226.098 156.533 228.016 150.61 228.016 142.77V138.196C228.016 129.659 226.164 123.455 222.464 119.577C218.761 115.703 213.991 113.763 208.156 113.763C204.497 113.763 201.165 114.633 198.16 116.375C195.156 118.118 192.78 120.926 191.039 124.803C189.295 128.681 188.424 133.843 188.424 140.288L188.422 140.286Z" fill="#64C4FF"/>
<path d="M252.706 80.7024H264.335V93.8988H252.706V80.7024ZM252.968 106.443H264.335V173.997H252.968V106.443Z" fill="#64C4FF"/>
<path d="M275.97 140.419C275.97 133.015 277.319 126.634 280.019 121.275C282.719 115.917 286.552 111.76 291.518 108.798C296.484 105.837 302.275 104.354 308.896 104.354C315.518 104.354 321.504 105.791 326.34 108.665C331.174 111.539 334.899 115.635 337.511 120.947C340.125 126.261 341.432 132.576 341.432 139.894C341.432 147.212 340.103 153.701 337.447 159.102C334.789 164.504 331 168.686 326.08 171.646C321.158 174.606 315.302 176.089 308.506 176.089C298.226 176.089 290.233 172.911 284.529 166.549C278.822 160.193 275.97 151.479 275.97 140.417V140.419ZM287.989 140.157C287.989 147.911 289.6 154.268 292.825 159.234C296.045 164.2 301.318 166.682 308.636 166.682C313.514 166.682 317.477 165.551 320.528 163.285C323.576 161.022 325.82 157.863 327.257 153.812C328.694 149.763 329.413 145.167 329.413 140.027C329.413 132.275 327.78 125.96 324.513 121.079C321.246 116.201 315.954 113.761 308.636 113.761C301.318 113.761 296.158 116.223 292.892 121.143C289.625 126.065 287.992 132.402 287.992 140.154L287.989 140.157Z" fill="#64C4FF"/>
<path d="M15.4084 40.1314C16.6518 51.3144 24.1072 57.649 35.1627 57.649C42.3704 57.649 46.5934 56.0329 52.3075 49.946L65.1043 56.9035C56.6557 66.0976 46.9662 71.3163 34.9126 71.3163C12.7991 71.3163 0 55.9102 0 35.9059C0 15.9015 12.5514 0 33.5465 0C54.5417 0 66.2226 15.1584 66.2226 34.042C66.2226 36.1536 66.0976 37.6446 65.7248 40.1289H15.406L15.4084 40.1314ZM15.7812 28.0777H51.0667C49.3279 18.013 42.1202 13.0444 33.4239 13.0444C23.857 13.0444 17.2723 19.1313 15.7812 28.0777Z" fill="#64C4FF"/>
<path d="M105.608 69.8259H91.816L64.4839 1.4917H80.6355L98.8986 49.8215L117.162 1.4917H132.941L105.606 69.8259H105.608Z" fill="#64C4FF"/>
<path d="M131.825 35.7832C131.825 15.2835 144.622 0 165.497 0C186.372 0 199.166 15.281 199.166 35.7832C199.166 56.2855 186.122 71.3163 165.497 71.3163C144.872 71.3163 131.825 56.0353 131.825 35.7832ZM146.984 35.7832C146.984 48.58 153.941 57.8992 165.497 57.8992C177.053 57.8992 183.885 48.58 183.885 35.7832C183.885 22.9865 177.05 13.5447 165.497 13.5447C153.944 13.5447 146.984 22.7388 146.984 35.7832Z" fill="#64C4FF"/>
<path d="M371.102 164.35V172.71H354.378V155.987H362.739C367.357 155.987 371.099 159.732 371.099 164.347L371.102 164.35Z" fill="#64C4FF"/>
</svg>
