<svg width="372" height="177" viewBox="0 0 372 177" fill="none" xmlns="http://www.w3.org/2000/svg">
<path d="M45.7332 156.228C45.7332 153.528 44.9925 151.22 43.5113 149.302C42.03 147.387 38.7634 146.036 33.7114 145.251L25.0887 143.944C17.5108 142.725 11.7157 140.699 7.71087 137.869C3.70361 135.039 1.70001 130.487 1.70001 124.214C1.70001 120.033 2.8747 116.462 5.22902 113.499C7.58089 110.539 10.7813 108.273 14.8327 106.704C18.8816 105.137 23.4333 104.352 28.4878 104.352C35.021 104.352 40.1588 105.181 43.9061 106.834C47.651 108.489 50.4393 110.711 52.2688 113.497C54.0984 116.285 55.4055 119.378 56.1903 122.774L45.8681 124.474C44.6468 120.815 42.9055 118.051 40.642 116.177C38.3759 114.306 34.457 113.369 28.8826 113.369C22.6118 113.369 18.3201 114.414 16.0123 116.506C13.7046 118.596 12.5495 120.906 12.5495 123.432C12.5495 126.22 13.376 128.42 15.0314 130.031C16.6867 131.645 20.1274 132.886 25.3536 133.754L35.1535 135.321C43.0797 136.628 48.7644 138.894 52.2051 142.117C55.6459 145.339 57.365 150.045 57.365 156.228C57.365 161.891 55.099 166.616 50.5693 170.405C46.0397 174.194 39.2441 176.09 30.1873 176.09C24.7846 176.09 19.865 175.391 15.4213 174.001C10.9775 172.608 7.38472 170.3 4.64046 167.075C1.89621 163.853 0.348721 159.583 0.00292969 154.268H10.98C11.7647 158.972 13.7438 162.261 16.9246 164.135C20.103 166.008 24.4388 166.943 29.9249 166.943C35.411 166.943 39.7444 165.962 42.1429 164.002C44.5389 162.043 45.7356 159.45 45.7356 156.228H45.7332Z" fill="#F5F5F5"/>
<path d="M71.8658 152.047V115.459H61.4135V106.442H71.8658V88.0165H83.2327V106.442H101.135V115.459H83.2327V155.051C83.2327 158.362 83.9733 161.018 85.4546 163.021C86.9359 165.025 89.1994 166.028 92.2502 166.028C94.1656 166.028 95.8651 165.876 97.3464 165.569C98.8252 165.265 100.132 164.939 101.268 164.588L103.227 173.344C101.484 173.954 99.5903 174.454 97.5426 174.847C95.4948 175.239 93.0767 175.435 90.2908 175.435C85.2388 175.435 81.3836 174.432 78.7252 172.429C76.0668 170.425 74.2593 167.659 73.3029 164.132C72.3415 160.603 71.8658 156.576 71.8658 152.047Z" fill="#F5F5F5"/>
<path d="M108.977 151.261V106.443H120.343V149.042C120.343 155.313 121.388 159.756 123.48 162.371C125.57 164.985 128.88 166.29 133.41 166.29C138.548 166.29 143.124 164.46 147.131 160.801C149.307 158.886 150.964 156.86 152.097 154.726C153.228 152.593 153.797 149.827 153.797 146.43V106.446H165.164V174H153.927V163.545C150.704 167.903 147.153 171.082 143.278 173.085C139.401 175.089 135.242 176.092 130.801 176.092C123.134 176.092 117.58 174.002 114.141 169.821C110.698 165.64 108.979 159.455 108.979 151.266L108.977 151.261Z" fill="#F5F5F5"/>
<path d="M176.532 140.546C176.532 129.397 179.21 120.576 184.569 114.087C189.925 107.598 197.263 104.353 206.587 104.353C210.158 104.353 213.772 105.072 217.431 106.509C221.09 107.946 224.487 110.671 227.624 114.676V80.7023H238.991V173.997H227.884V164.197C225.095 168.033 221.873 170.971 218.214 173.019C214.555 175.064 210.243 176.089 205.277 176.089C198.744 176.089 193.341 174.522 189.074 171.385C184.804 168.249 181.646 163.981 179.6 158.581C177.553 153.181 176.53 147.17 176.53 140.549L176.532 140.546ZM188.422 140.284C188.422 146.905 189.337 152.131 191.166 155.965C192.996 159.8 195.347 162.52 198.222 164.131C201.098 165.745 204.103 166.549 207.239 166.549C213.422 166.549 218.432 164.546 222.265 160.538C226.098 156.531 228.016 150.608 228.016 142.768V138.194C228.016 129.657 226.165 123.453 222.464 119.576C218.761 115.701 213.991 113.761 208.156 113.761C204.497 113.761 201.165 114.631 198.16 116.373C195.156 118.116 192.78 120.924 191.038 124.802C189.295 128.679 188.424 133.841 188.424 140.286L188.422 140.284Z" fill="#F5F5F5"/>
<path d="M252.707 80.7006H264.337V93.897H252.707V80.7006ZM252.97 106.441H264.337V173.995H252.97V106.441Z" fill="#F5F5F5"/>
<path d="M275.97 140.417C275.97 133.013 277.319 126.632 280.019 121.274C282.719 115.915 286.552 111.758 291.518 108.796C296.484 105.836 302.275 104.352 308.896 104.352C315.518 104.352 321.504 105.789 326.34 108.663C331.174 111.538 334.899 115.633 337.511 120.945C340.125 126.259 341.432 132.574 341.432 139.892C341.432 147.21 340.103 153.7 337.447 159.1C334.789 164.502 331 168.684 326.08 171.644C321.158 174.604 315.302 176.088 308.506 176.088C298.226 176.088 290.233 172.909 284.529 166.548C278.822 160.191 275.97 151.478 275.97 140.415V140.417ZM287.989 140.155C287.989 147.909 289.6 154.266 292.825 159.232C296.045 164.198 301.318 166.68 308.636 166.68C313.514 166.68 317.477 165.55 320.528 163.284C323.576 161.02 325.82 157.861 327.257 153.81C328.694 149.761 329.413 145.165 329.413 140.025C329.413 132.273 327.78 125.958 324.513 121.077C321.246 116.2 315.954 113.759 308.636 113.759C301.318 113.759 296.158 116.222 292.892 121.141C289.625 126.063 287.992 132.4 287.992 140.152L287.989 140.155Z" fill="#F5F5F5"/>
<path d="M15.4086 40.1314C16.6519 51.3144 24.1073 57.649 35.1628 57.649C42.3705 57.649 46.5935 56.0328 52.3076 49.9459L65.1043 56.9035C56.6558 66.0976 46.9663 71.3163 34.9127 71.3163C12.7992 71.3163 0 55.9102 0 35.9058C0 15.9015 12.549 0 33.5442 0C54.5393 0 66.2202 15.1584 66.2202 34.042C66.2202 36.1536 66.0951 37.6446 65.7224 40.1289H15.4037L15.4086 40.1314ZM15.7813 28.0777H51.0667C49.3279 18.013 42.1203 13.0444 33.424 13.0444C23.8571 13.0444 17.2724 19.1313 15.7813 28.0777Z" fill="#F5F5F5"/>
<path d="M105.609 69.8259H91.8161L64.4839 1.4917H80.6355L98.8987 49.8215L117.162 1.4917H132.941L105.606 69.8259H105.609Z" fill="#F5F5F5"/>
<path d="M131.825 35.7832C131.825 15.2835 144.622 0 165.497 0C186.372 0 199.166 15.281 199.166 35.7832C199.166 56.2854 186.122 71.3163 165.497 71.3163C144.872 71.3163 131.825 56.0353 131.825 35.7832ZM146.984 35.7832C146.984 48.5799 153.941 57.8992 165.497 57.8992C177.053 57.8992 183.885 48.5799 183.885 35.7832C183.885 22.9865 177.051 13.5447 165.497 13.5447C153.944 13.5447 146.984 22.7388 146.984 35.7832Z" fill="#F5F5F5"/>
<path d="M371.101 164.349V172.709H354.378V155.986H362.738C367.356 155.986 371.098 159.731 371.098 164.347L371.101 164.349Z" fill="#F5F5F5"/>
</svg>
