<svg width="5203" height="2693" viewBox="0 0 5203 2693" fill="none" xmlns="http://www.w3.org/2000/svg">
<g clip-path="url(#clip0_4061_3413)">
<path d="M851.504 1481.74V1313.88H1177.79V1649.61H1014.65C1000.51 1649.61 986.741 1647.68 973.723 1644.31C965.949 1642.19 958.457 1639.58 951.152 1636.4C943.847 1633.22 936.823 1629.56 929.986 1625.32C925.491 1622.62 921.183 1619.54 917.062 1616.26C914.908 1614.72 912.847 1612.99 910.787 1611.35C902.639 1604.61 895.334 1596.99 888.685 1588.61C886.999 1586.49 885.407 1584.37 883.908 1582.15C880.724 1577.91 877.727 1573.48 875.105 1568.95C873.794 1566.54 872.482 1564.23 871.171 1561.82C863.585 1547.56 857.966 1531.95 854.782 1515.57C852.628 1504.68 851.504 1493.4 851.504 1481.74Z" fill="#356BFF"/>
<path d="M1440.21 1313.88H1603.36V1649.61H1277.07V1481.74C1277.07 1470.09 1278.19 1458.81 1280.34 1447.92C1284 1428.84 1291.02 1410.73 1300.67 1394.63C1300.67 1394.63 1300.67 1394.6 1300.67 1394.54C1310.13 1378.45 1322.21 1364.09 1336.35 1352.24C1338.41 1350.5 1340.47 1348.86 1342.62 1347.32C1346.75 1344.14 1351.05 1341.06 1355.45 1338.26C1357.8 1336.91 1360.04 1335.57 1362.39 1334.22C1376.25 1326.41 1391.42 1320.63 1407.34 1317.35C1417.92 1315.14 1428.88 1313.98 1440.21 1313.98V1313.88Z" fill="#356BFF"/>
<path d="M1603.36 1211.74V1043.88C1603.36 1029.33 1601.48 1015.16 1598.21 1001.77C1596.15 993.772 1593.62 986.063 1590.53 978.547C1588.47 973.44 1586.13 968.622 1583.69 963.9C1580.04 956.769 1575.82 949.928 1570.95 943.568C1569.45 941.352 1567.77 939.232 1566.18 937.112C1559.62 928.728 1552.22 921.212 1544.07 914.371C1542.01 912.636 1539.95 910.998 1537.8 909.456C1533.68 906.18 1529.37 903.096 1524.88 900.398C1518.13 896.158 1511.01 892.497 1503.71 889.317C1496.4 886.137 1488.91 883.535 1481.14 881.415C1468.12 878.042 1454.35 876.115 1440.21 876.115H1277.07V1211.84H1603.36V1211.74Z" fill="#356BFF"/>
<path d="M851.504 876.019H1177.79V1211.74H1014.65C1003.32 1211.74 992.36 1210.58 981.777 1208.37C965.856 1205.09 950.684 1199.31 936.823 1191.51C934.481 1190.25 932.234 1188.9 929.892 1187.46C925.491 1184.57 921.183 1181.58 917.062 1178.4C914.908 1176.86 912.847 1175.12 910.787 1173.49C890.558 1156.53 874.543 1134.56 864.335 1109.41C861.15 1101.79 858.622 1094.08 856.655 1086.09C853.377 1072.69 851.504 1058.53 851.504 1043.98V876.115V876.019Z" fill="#F5F5F5"/>
<path d="M851.504 168.15V336.011H1177.79V0.289062H1014.65C1000.51 0.289062 986.741 2.21628 973.723 5.58892C965.949 7.70887 958.457 10.3106 951.152 13.4905C943.847 16.6705 936.823 20.3322 929.986 24.5721C925.491 27.2702 921.183 30.3537 917.062 33.63C914.908 35.1718 912.847 36.9063 910.787 38.5444C902.639 45.2897 895.334 52.9022 888.685 61.2856C886.999 63.4056 885.407 65.5255 883.908 67.7418C880.724 71.9817 877.727 76.4143 875.105 80.9433C873.794 83.3523 872.482 85.665 871.171 88.074C863.585 102.335 857.966 117.946 854.782 134.327C852.628 145.216 851.504 156.49 851.504 168.15Z" fill="#356BFF"/>
<path d="M1440.21 336.011H1603.36V0.289062H1277.07V168.15C1277.07 179.81 1278.19 191.084 1280.34 201.973C1284 221.052 1291.02 239.168 1300.67 255.261C1300.67 255.261 1300.67 255.293 1300.67 255.357C1310.13 271.449 1322.21 285.807 1336.35 297.659C1338.41 299.394 1340.47 301.032 1342.62 302.574C1346.75 305.754 1351.05 308.837 1355.45 311.632C1357.8 312.981 1360.04 314.33 1362.39 315.679C1376.25 323.484 1391.42 329.266 1407.34 332.542C1417.92 334.758 1428.88 335.915 1440.21 335.915V336.011Z" fill="#F5F5F5"/>
<path d="M1603.36 438.154V606.015C1603.36 620.566 1601.48 634.731 1598.21 648.125C1596.15 656.123 1593.62 663.832 1590.53 671.348C1588.47 676.455 1586.13 681.273 1583.69 685.995C1580.04 693.125 1575.82 699.967 1570.95 706.327C1569.45 708.543 1567.77 710.663 1566.18 712.783C1559.62 721.167 1552.22 728.683 1544.07 735.524C1542.01 737.259 1539.95 738.897 1537.8 740.439C1533.68 743.715 1529.37 746.799 1524.88 749.497C1518.13 753.737 1511.01 757.398 1503.71 760.578C1496.4 763.758 1488.91 766.36 1481.14 768.48C1468.12 771.852 1454.35 773.78 1440.21 773.78H1277.07V438.058H1603.36V438.154Z" fill="#356BFF"/>
<path d="M851.504 773.876H1177.79V438.154H1014.65C1003.32 438.154 992.36 439.31 981.777 441.526C965.856 444.803 950.684 450.584 936.823 458.39C934.481 459.642 932.234 460.991 929.892 462.437C925.491 465.328 921.183 468.315 917.062 471.495C914.908 473.037 912.847 474.771 910.787 476.409C890.558 493.369 874.543 515.339 864.335 540.489C861.15 548.102 858.622 555.811 856.655 563.809C853.377 577.203 851.504 591.368 851.504 605.919V773.78V773.876Z" fill="#356BFF"/>
<path d="M0 1481.74V1313.88H326.291V1649.61H163.146C149.004 1649.61 135.237 1647.68 122.219 1644.31C114.445 1642.19 106.953 1639.58 99.648 1636.4C92.343 1633.22 85.3189 1629.56 78.4822 1625.32C73.9868 1622.62 69.6787 1619.54 65.5579 1616.26C63.4039 1614.72 61.3435 1612.99 59.2831 1611.35C51.1352 1604.61 43.8301 1596.99 37.1807 1588.61C35.4949 1586.49 33.9028 1584.37 32.4043 1582.15C29.2201 1577.91 26.2232 1573.48 23.6008 1568.95C22.2897 1566.54 20.9785 1564.23 19.6674 1561.82C12.0814 1547.56 6.46214 1531.95 3.27789 1515.57C1.12385 1504.68 0 1493.4 0 1481.74Z" fill="#356BFF"/>
<path d="M588.708 1313.88H751.854V1649.61H425.562V1481.74C425.562 1470.09 426.686 1458.81 428.84 1447.92C432.493 1428.84 439.517 1410.73 449.163 1394.63C449.163 1394.63 449.163 1394.6 449.163 1394.54C458.622 1378.45 470.704 1364.09 484.846 1352.24C486.906 1350.5 488.966 1348.86 491.12 1347.32C495.241 1344.14 499.549 1341.06 503.951 1338.26C506.292 1336.91 508.54 1335.57 510.881 1334.22C524.742 1326.41 539.914 1320.63 555.835 1317.35C566.418 1315.14 577.376 1313.98 588.708 1313.98V1313.88Z" fill="#356BFF"/>
<path d="M751.854 1211.74V1043.88C751.854 1029.33 749.98 1015.16 746.703 1001.77C744.642 993.772 742.114 986.063 739.023 978.547C736.963 973.44 734.621 968.622 732.186 963.9C728.534 956.769 724.319 949.928 719.449 943.568C717.951 941.352 716.265 939.232 714.673 937.112C708.117 928.728 700.718 921.212 692.57 914.371C690.51 912.636 688.45 910.998 686.296 909.456C682.175 906.18 677.867 903.096 673.371 900.398C666.628 896.158 659.511 892.497 652.206 889.317C644.9 886.137 637.408 883.535 629.635 881.415C616.617 878.042 602.85 876.115 588.708 876.115H425.562V1211.84H751.854V1211.74Z" fill="#356BFF"/>
<path d="M0 876.019H326.291V1211.74H163.146C151.813 1211.74 140.856 1210.58 130.273 1208.37C114.352 1205.09 99.1797 1199.31 85.3189 1191.51C82.9776 1190.25 80.7299 1188.9 78.3885 1187.46C73.9868 1184.57 69.6787 1181.58 65.5579 1178.4C63.4039 1176.86 61.3435 1175.12 59.2831 1173.49C39.0538 1156.53 23.0389 1134.56 12.8306 1109.41C9.64638 1101.79 7.11771 1094.08 5.15098 1086.09C1.87308 1072.6 0 1058.43 0 1043.88V876.019Z" fill="#F5F5F5"/>
<path d="M0 168.15V336.011H326.291V0.289062H163.146C149.004 0.289062 135.237 2.21628 122.219 5.58892C114.445 7.70887 106.953 10.3106 99.648 13.4905C92.343 16.6705 85.3189 20.3322 78.4822 24.5721C73.9868 27.2702 69.6787 30.3537 65.5579 33.63C63.4039 35.1718 61.3435 36.9063 59.2831 38.5444C51.1352 45.2897 43.8301 52.9022 37.1807 61.2856C35.4949 63.4056 33.9028 65.5255 32.4043 67.7418C29.2201 71.9817 26.2232 76.4143 23.6008 80.9433C22.2897 83.3523 20.9785 85.665 19.6674 88.074C12.0814 102.335 6.46214 117.946 3.27789 134.327C1.12385 145.216 0 156.49 0 168.15Z" fill="#356BFF"/>
<path d="M588.708 336.011H751.854V0.289062H425.562V168.15C425.562 179.81 426.686 191.084 428.84 201.973C432.493 221.052 439.517 239.168 449.163 255.261C449.163 255.261 449.163 255.293 449.163 255.357C458.622 271.449 470.704 285.807 484.846 297.659C486.906 299.394 488.966 301.032 491.12 302.574C495.241 305.754 499.549 308.837 503.951 311.632C506.292 312.981 508.54 314.33 510.881 315.679C524.742 323.484 539.914 329.266 555.835 332.542C566.418 334.758 577.376 335.915 588.708 335.915V336.011Z" fill="#F5F5F5"/>
<path d="M751.854 438.154V606.015C751.854 620.566 749.98 634.731 746.703 648.125C744.642 656.123 742.114 663.832 739.023 671.348C736.963 676.455 734.621 681.273 732.186 685.995C728.534 693.125 724.319 699.967 719.449 706.327C717.951 708.543 716.265 710.663 714.673 712.783C708.117 721.167 700.718 728.683 692.57 735.524C690.51 737.259 688.45 738.897 686.296 740.439C682.175 743.715 677.867 746.799 673.371 749.497C666.628 753.737 659.511 757.398 652.206 760.578C644.9 763.758 637.408 766.36 629.635 768.48C616.617 771.852 602.85 773.78 588.708 773.78H425.562V438.058H751.854V438.154Z" fill="#356BFF"/>
<path d="M0 773.876H326.291V438.154H163.146C151.813 438.154 140.856 439.31 130.273 441.526C114.352 444.803 99.1797 450.584 85.3189 458.39C82.9776 459.642 80.7299 460.991 78.3885 462.437C73.9868 465.328 69.6787 468.315 65.5579 471.495C63.4039 473.037 61.3435 474.771 59.2831 476.409C39.0538 493.369 23.0389 515.339 12.8306 540.489C9.64638 548.102 7.11771 555.811 5.15098 563.809C1.87308 577.299 0 591.464 0 606.015V773.876Z" fill="#356BFF"/>
<path d="M2454.58 1481.46V1313.59H2128.29V1649.32H2291.43C2305.58 1649.32 2319.34 1647.39 2332.36 1644.02C2340.13 1641.9 2347.63 1639.3 2354.93 1636.12C2362.24 1632.94 2369.26 1629.27 2376.1 1625.03C2380.59 1622.34 2384.9 1619.25 2389.02 1615.98C2391.18 1614.43 2393.24 1612.7 2395.3 1611.06C2403.44 1604.32 2410.75 1596.7 2417.4 1588.32C2419.09 1586.2 2420.68 1584.08 2422.18 1581.86C2425.36 1577.62 2428.36 1573.19 2430.98 1568.66C2432.29 1566.25 2433.6 1563.94 2434.91 1561.53C2442.5 1547.27 2448.12 1531.66 2451.3 1515.28C2453.46 1504.39 2454.58 1493.12 2454.58 1481.46Z" fill="#356BFF"/>
<path d="M1865.87 1313.59H1702.73V1649.32H2029.02V1481.46C2029.02 1469.8 2027.89 1458.52 2025.74 1447.63C2022.09 1428.55 2015.06 1410.44 2005.42 1394.35C2005.42 1394.35 2005.42 1394.31 2005.42 1394.25C1995.96 1378.16 1983.88 1363.8 1969.73 1351.95C1967.67 1350.21 1965.61 1348.57 1963.46 1347.03C1959.34 1343.85 1955.03 1340.77 1950.63 1337.97C1948.29 1336.63 1946.04 1335.28 1943.7 1333.93C1929.84 1326.12 1914.67 1320.34 1898.74 1317.06C1888.16 1314.85 1877.2 1313.69 1865.87 1313.69V1313.59Z" fill="#356BFF"/>
<path d="M1702.73 1211.45V1043.59C1702.73 1029.04 1704.6 1014.88 1707.88 1001.48C1709.94 993.483 1712.47 985.774 1715.56 978.258C1717.62 973.151 1719.96 968.333 1722.39 963.611C1726.05 956.48 1730.26 949.639 1735.13 943.279C1736.63 941.063 1738.32 938.943 1739.91 936.823C1746.46 928.439 1753.86 920.923 1762.01 914.082C1764.07 912.347 1766.13 910.709 1768.28 909.167C1772.41 905.891 1776.71 902.807 1781.21 900.109C1787.95 895.869 1795.07 892.208 1802.37 889.028C1809.68 885.848 1817.17 883.246 1824.95 881.126C1837.96 877.753 1851.73 875.826 1865.87 875.826H2029.02V1211.55H1702.73V1211.45Z" fill="#356BFF"/>
<path d="M2454.58 875.729H2128.29V1211.45H2291.43C2302.77 1211.45 2313.72 1210.3 2324.31 1208.08C2340.23 1204.8 2355.4 1199.02 2369.26 1191.22C2371.6 1189.96 2373.85 1188.61 2376.19 1187.17C2380.59 1184.28 2384.9 1181.29 2389.02 1178.11C2391.18 1176.57 2393.24 1174.83 2395.3 1173.2C2415.53 1156.24 2431.54 1134.27 2441.75 1109.12C2444.93 1101.5 2447.46 1093.79 2449.43 1085.8C2452.71 1072.4 2454.58 1058.24 2454.58 1043.69V875.826V875.729Z" fill="#F5F5F5"/>
<path d="M2454.58 167.861V335.722H2128.29V0H2291.43C2305.58 0 2319.34 1.92722 2332.36 5.29986C2340.13 7.41981 2347.63 10.0216 2354.93 13.2015C2362.24 16.3814 2369.26 20.0431 2376.1 24.283C2380.59 26.9811 2384.9 30.0647 2389.02 33.3409C2391.18 34.8827 2393.24 36.6172 2395.3 38.2554C2403.44 45.0006 2410.75 52.6132 2417.4 60.9966C2419.09 63.1165 2420.68 65.2365 2422.18 67.4528C2425.36 71.6927 2428.36 76.1253 2430.98 80.6543C2432.29 83.0633 2433.6 85.3759 2434.91 87.785C2442.5 102.046 2448.12 117.657 2451.3 134.038C2453.46 144.927 2454.58 156.201 2454.58 167.861Z" fill="#356BFF"/>
<path d="M1865.87 335.722H1702.73V0H2029.02V167.861C2029.02 179.521 2027.89 190.795 2025.74 201.684C2022.09 220.763 2015.06 238.879 2005.42 254.971C2005.42 254.971 2005.42 255.004 2005.42 255.068C1995.96 271.16 1983.88 285.518 1969.73 297.37C1967.67 299.105 1965.61 300.743 1963.46 302.285C1959.34 305.465 1955.03 308.548 1950.63 311.343C1948.29 312.692 1946.04 314.041 1943.7 315.39C1929.84 323.195 1914.67 328.977 1898.74 332.253C1888.16 334.469 1877.2 335.626 1865.87 335.626V335.722Z" fill="#F5F5F5"/>
<path d="M1702.73 437.865V605.726C1702.73 620.277 1704.6 634.442 1707.88 647.836C1709.94 655.834 1712.47 663.543 1715.56 671.059C1717.62 676.166 1719.96 680.984 1722.39 685.706C1726.05 692.836 1730.26 699.678 1735.13 706.038C1736.63 708.254 1738.32 710.374 1739.91 712.494C1746.46 720.878 1753.86 728.394 1762.01 735.235C1764.07 736.97 1766.13 738.608 1768.28 740.15C1772.41 743.426 1776.71 746.51 1781.21 749.208C1787.95 753.448 1795.07 757.109 1802.37 760.289C1809.68 763.469 1817.17 766.071 1824.95 768.191C1837.96 771.563 1851.73 773.491 1865.87 773.491H2029.02V437.769H1702.73V437.865Z" fill="#356BFF"/>
<path d="M2454.58 773.587H2128.29V437.865H2291.43C2302.77 437.865 2313.72 439.021 2324.31 441.237C2340.23 444.514 2355.4 450.295 2369.26 458.101C2371.6 459.353 2373.85 460.702 2376.19 462.148C2380.59 465.039 2384.9 468.026 2389.02 471.206C2391.18 472.747 2393.24 474.482 2395.3 476.12C2415.53 493.08 2431.54 515.05 2441.75 540.2C2444.93 547.813 2447.46 555.522 2449.43 563.52C2452.71 576.914 2454.58 591.079 2454.58 605.629V773.49V773.587Z" fill="#356BFF"/>
<path d="M3306.09 1481.46V1313.59H2979.79V1649.32H3142.94C3157.08 1649.32 3170.85 1647.39 3183.87 1644.02C3191.64 1641.9 3199.13 1639.3 3206.44 1636.12C3213.74 1632.94 3220.77 1629.27 3227.6 1625.03C3232.1 1622.34 3236.41 1619.25 3240.53 1615.98C3242.68 1614.43 3244.74 1612.7 3246.8 1611.06C3254.95 1604.32 3262.26 1596.7 3268.9 1588.32C3270.59 1586.2 3272.18 1584.08 3273.68 1581.86C3276.87 1577.62 3279.86 1573.19 3282.48 1568.66C3283.8 1566.25 3285.11 1563.94 3286.42 1561.53C3294 1547.27 3299.62 1531.66 3302.81 1515.28C3304.96 1504.39 3306.09 1493.12 3306.09 1481.46Z" fill="#356BFF"/>
<path d="M2717.38 1313.59H2554.23V1649.32H2880.52V1481.46C2880.52 1469.8 2879.4 1458.52 2877.24 1447.63C2873.59 1428.55 2866.57 1410.44 2856.92 1394.35C2856.92 1394.35 2856.92 1394.31 2856.92 1394.25C2847.46 1378.16 2835.38 1363.8 2821.24 1351.95C2819.18 1350.21 2817.12 1348.57 2814.96 1347.03C2810.84 1343.85 2806.54 1340.77 2802.13 1337.97C2799.79 1336.63 2797.54 1335.28 2795.2 1333.93C2781.34 1326.12 2766.17 1320.34 2750.25 1317.06C2739.67 1314.85 2728.71 1313.69 2717.38 1313.69V1313.59Z" fill="#356BFF"/>
<path d="M2554.23 1211.45V1043.59C2554.23 1029.04 2556.1 1014.88 2559.38 1001.48C2561.44 993.483 2563.97 985.774 2567.06 978.258C2569.12 973.151 2571.46 968.333 2573.9 963.611C2577.55 956.48 2581.77 949.639 2586.64 943.279C2588.13 941.063 2589.82 938.943 2591.41 936.823C2597.97 928.439 2605.37 920.923 2613.51 914.082C2615.57 912.347 2617.64 910.709 2619.79 909.167C2623.91 905.891 2628.22 902.807 2632.71 900.109C2639.46 895.869 2646.57 892.208 2653.88 889.028C2661.18 885.848 2668.68 883.246 2676.45 881.126C2689.47 877.753 2703.24 875.826 2717.38 875.826H2880.52V1211.55H2554.23V1211.45Z" fill="#356BFF"/>
<path d="M3306.09 875.729H2979.79V1211.45H3142.94C3154.27 1211.45 3165.23 1210.3 3175.81 1208.08C3191.73 1204.8 3206.91 1199.02 3220.77 1191.22C3223.11 1189.96 3225.36 1188.61 3227.7 1187.17C3232.1 1184.28 3236.41 1181.29 3240.53 1178.11C3242.68 1176.57 3244.74 1174.83 3246.8 1173.2C3267.03 1156.24 3283.05 1134.27 3293.25 1109.12C3296.44 1101.5 3298.97 1093.79 3300.93 1085.8C3304.21 1072.4 3306.09 1058.24 3306.09 1043.69V875.826V875.729Z" fill="#F5F5F5"/>
<path d="M3306.09 167.861V335.722H2979.79V0H3142.94C3157.08 0 3170.85 1.92722 3183.87 5.29986C3191.64 7.41981 3199.13 10.0216 3206.44 13.2015C3213.74 16.3814 3220.77 20.0431 3227.6 24.283C3232.1 26.9811 3236.41 30.0647 3240.53 33.3409C3242.68 34.8827 3244.74 36.6172 3246.8 38.2554C3254.95 45.0006 3262.26 52.6132 3268.9 60.9966C3270.59 63.1165 3272.18 65.2365 3273.68 67.4528C3276.87 71.6927 3279.86 76.1253 3282.48 80.6543C3283.8 83.0633 3285.11 85.3759 3286.42 87.785C3294 102.046 3299.62 117.657 3302.81 134.038C3304.96 144.927 3306.09 156.201 3306.09 167.861Z" fill="#356BFF"/>
<path d="M2717.38 335.722H2554.23V0H2880.52V167.861C2880.52 179.521 2879.4 190.795 2877.24 201.684C2873.59 220.763 2866.57 238.879 2856.92 254.971C2856.92 254.971 2856.92 255.004 2856.92 255.068C2847.46 271.16 2835.38 285.518 2821.24 297.37C2819.18 299.105 2817.12 300.743 2814.96 302.285C2810.84 305.465 2806.54 308.548 2802.13 311.343C2799.79 312.692 2797.54 314.041 2795.2 315.39C2781.34 323.195 2766.17 328.977 2750.25 332.253C2739.67 334.469 2728.71 335.626 2717.38 335.626V335.722Z" fill="#F5F5F5"/>
<path d="M2554.23 437.865V605.726C2554.23 620.277 2556.1 634.442 2559.38 647.836C2561.44 655.834 2563.97 663.543 2567.06 671.059C2569.12 676.166 2571.46 680.984 2573.9 685.706C2577.55 692.836 2581.77 699.678 2586.64 706.038C2588.13 708.254 2589.82 710.374 2591.41 712.494C2597.97 720.878 2605.37 728.394 2613.51 735.235C2615.57 736.97 2617.64 738.608 2619.79 740.15C2623.91 743.426 2628.22 746.51 2632.71 749.208C2639.46 753.448 2646.57 757.109 2653.88 760.289C2661.18 763.469 2668.68 766.071 2676.45 768.191C2689.47 771.563 2703.24 773.491 2717.38 773.491H2880.52V437.769H2554.23V437.865Z" fill="#356BFF"/>
<path d="M3306.09 773.587H2979.79V437.865H3142.94C3154.27 437.865 3165.23 439.021 3175.81 441.237C3191.73 444.514 3206.91 450.295 3220.77 458.101C3223.11 459.353 3225.36 460.702 3227.7 462.148C3232.1 465.039 3236.41 468.026 3240.53 471.206C3242.68 472.747 3244.74 474.482 3246.8 476.12C3267.03 493.08 3283.05 515.05 3293.25 540.2C3296.44 547.813 3298.97 555.522 3300.93 563.52C3304.21 576.914 3306.09 591.079 3306.09 605.629V773.49V773.587Z" fill="#356BFF"/>
<path d="M1603.36 2963.2V2795.34C1603.36 2780.79 1601.48 2766.62 1598.21 2753.23C1596.15 2745.23 1593.62 2737.52 1590.53 2730.01C1588.47 2724.9 1586.13 2720.08 1583.69 2715.36C1580.04 2708.23 1575.82 2701.39 1570.95 2695.03C1569.45 2692.81 1567.77 2690.69 1566.18 2688.57C1559.62 2680.19 1552.22 2672.67 1544.07 2665.83C1542.01 2664.1 1539.95 2662.46 1537.8 2660.92C1533.68 2657.64 1529.37 2654.56 1524.88 2651.86C1518.13 2647.62 1511.01 2643.96 1503.71 2640.78C1496.4 2637.6 1488.91 2634.99 1481.14 2632.87C1468.12 2629.5 1454.35 2627.57 1440.21 2627.57H1277.07V2963.3H1603.36V2963.2Z" fill="#356BFF"/>
<path d="M851.504 2627.48H1177.79V2963.2H1014.65C1003.32 2963.2 992.36 2962.04 981.777 2959.83C965.856 2956.55 950.684 2950.77 936.823 2942.96C934.481 2941.71 932.234 2940.36 929.892 2938.92C925.491 2936.03 921.183 2933.04 917.062 2929.86C914.908 2928.32 912.847 2926.58 910.787 2924.95C890.558 2907.99 874.543 2886.02 864.335 2860.87C861.15 2853.25 858.622 2845.54 856.655 2837.55C853.377 2824.15 851.504 2809.99 851.504 2795.44V2627.57V2627.48Z" fill="#F5F5F5"/>
<path d="M851.504 1919.61V2087.47H1177.79V1751.75H1014.65C1000.51 1751.75 986.741 1753.68 973.723 1757.05C965.949 1759.17 958.457 1761.77 951.152 1764.95C943.847 1768.13 936.823 1771.79 929.986 1776.03C925.491 1778.73 921.183 1781.81 917.062 1785.09C914.908 1786.63 912.847 1788.37 910.787 1790C902.639 1796.75 895.334 1804.36 888.685 1812.75C886.999 1814.87 885.407 1816.99 883.908 1819.2C880.724 1823.44 877.727 1827.87 875.105 1832.4C873.794 1834.81 872.482 1837.12 871.171 1839.53C863.585 1853.79 857.966 1869.41 854.782 1885.79C852.628 1896.68 851.504 1907.95 851.504 1919.61Z" fill="#356BFF"/>
<path d="M1440.21 2087.47H1603.36V1751.75H1277.07V1919.61C1277.07 1931.27 1278.19 1942.54 1280.34 1953.43C1284 1972.51 1291.02 1990.63 1300.67 2006.72C1300.67 2006.72 1300.67 2006.75 1300.67 2006.82C1310.13 2022.91 1322.21 2037.27 1336.35 2049.12C1338.41 2050.85 1340.47 2052.49 1342.62 2054.03C1346.75 2057.21 1351.05 2060.3 1355.45 2063.09C1357.8 2064.44 1360.04 2065.79 1362.39 2067.14C1376.25 2074.94 1391.42 2080.73 1407.34 2084C1417.92 2086.22 1428.88 2087.37 1440.21 2087.37V2087.47Z" fill="#F5F5F5"/>
<path d="M1603.36 2189.61V2357.47C1603.36 2372.02 1601.48 2386.19 1598.21 2399.58C1596.15 2407.58 1593.62 2415.29 1590.53 2422.81C1588.47 2427.91 1586.13 2432.73 1583.69 2437.45C1580.04 2444.58 1575.82 2451.43 1570.95 2457.79C1569.45 2460 1567.77 2462.12 1566.18 2464.24C1559.62 2472.63 1552.22 2480.14 1544.07 2486.98C1542.01 2488.72 1539.95 2490.36 1537.8 2491.9C1533.68 2495.17 1529.37 2498.26 1524.88 2500.96C1518.13 2505.2 1511.01 2508.86 1503.71 2512.04C1496.4 2515.22 1488.91 2517.82 1481.14 2519.94C1468.12 2523.31 1454.35 2525.24 1440.21 2525.24H1277.07V2189.52H1603.36V2189.61Z" fill="#356BFF"/>
<path d="M851.504 2525.34H1177.79V2189.61H1014.65C1003.32 2189.61 992.36 2190.77 981.777 2192.99C965.856 2196.26 950.684 2202.04 936.823 2209.85C934.481 2211.1 932.234 2212.45 929.892 2213.9C925.491 2216.79 921.183 2219.77 917.062 2222.95C914.908 2224.5 912.847 2226.23 910.787 2227.87C890.558 2244.83 874.543 2266.8 864.335 2291.95C861.15 2299.56 858.622 2307.27 856.655 2315.27C853.377 2328.66 851.504 2342.83 851.504 2357.38V2525.24V2525.34Z" fill="#356BFF"/>
<path d="M751.854 2963.2V2795.34C751.854 2780.79 749.98 2766.62 746.703 2753.23C744.642 2745.23 742.114 2737.52 739.023 2730.01C736.963 2724.9 734.621 2720.08 732.186 2715.36C728.534 2708.23 724.319 2701.39 719.449 2695.03C717.951 2692.81 716.265 2690.69 714.673 2688.57C708.117 2680.19 700.718 2672.67 692.57 2665.83C690.51 2664.1 688.45 2662.46 686.296 2660.92C682.175 2657.64 677.867 2654.56 673.371 2651.86C666.628 2647.62 659.511 2643.96 652.206 2640.78C644.9 2637.6 637.408 2634.99 629.635 2632.87C616.617 2629.5 602.85 2627.57 588.708 2627.57H425.562V2963.3H751.854V2963.2Z" fill="#356BFF"/>
<path d="M0 2627.48H326.291V2963.2H163.146C151.813 2963.2 140.856 2962.04 130.273 2959.83C114.352 2956.55 99.1797 2950.77 85.3189 2942.96C82.9776 2941.71 80.7299 2940.36 78.3885 2938.92C73.9868 2936.03 69.6787 2933.04 65.5579 2929.86C63.4039 2928.32 61.3435 2926.58 59.2831 2924.95C39.0538 2907.99 23.0389 2886.02 12.8306 2860.87C9.64638 2853.25 7.11771 2845.54 5.15098 2837.55C1.87308 2824.06 0 2809.89 0 2795.34V2627.48Z" fill="#F5F5F5"/>
<path d="M0 1919.61V2087.47H326.291V1751.75H163.146C149.004 1751.75 135.237 1753.68 122.219 1757.05C114.445 1759.17 106.953 1761.77 99.648 1764.95C92.343 1768.13 85.3189 1771.79 78.4822 1776.03C73.9868 1778.73 69.6787 1781.81 65.5579 1785.09C63.4039 1786.63 61.3435 1788.37 59.2831 1790C51.1352 1796.75 43.8301 1804.36 37.1807 1812.75C35.4949 1814.87 33.9028 1816.99 32.4043 1819.2C29.2201 1823.44 26.2232 1827.87 23.6008 1832.4C22.2897 1834.81 20.9785 1837.12 19.6674 1839.53C12.0814 1853.79 6.46214 1869.41 3.27789 1885.79C1.12385 1896.68 0 1908.05 0 1919.61Z" fill="#356BFF"/>
<path d="M588.708 2087.47H751.854V1751.75H425.562V1919.61C425.562 1931.27 426.686 1942.54 428.84 1953.43C432.493 1972.51 439.517 1990.63 449.163 2006.72C449.163 2006.72 449.163 2006.75 449.163 2006.82C458.622 2022.91 470.704 2037.27 484.846 2049.12C486.906 2050.85 488.966 2052.49 491.12 2054.03C495.241 2057.21 499.549 2060.3 503.951 2063.09C506.292 2064.44 508.54 2065.79 510.881 2067.14C524.742 2074.94 539.914 2080.73 555.835 2084C566.418 2086.22 577.376 2087.37 588.708 2087.37V2087.47Z" fill="#F5F5F5"/>
<path d="M751.854 2189.61V2357.47C751.854 2372.02 749.98 2386.19 746.703 2399.58C744.642 2407.58 742.114 2415.29 739.023 2422.81C736.963 2427.91 734.621 2432.73 732.186 2437.45C728.534 2444.58 724.319 2451.43 719.449 2457.79C717.951 2460 716.265 2462.12 714.673 2464.24C708.117 2472.63 700.718 2480.14 692.57 2486.98C690.51 2488.72 688.45 2490.36 686.296 2491.9C682.175 2495.17 677.867 2498.26 673.371 2500.96C666.628 2505.2 659.511 2508.86 652.206 2512.04C644.9 2515.22 637.408 2517.82 629.635 2519.94C616.617 2523.31 602.85 2525.24 588.708 2525.24H425.562V2189.52H751.854V2189.61Z" fill="#356BFF"/>
<path d="M0 2525.34H326.291V2189.61H163.146C151.813 2189.61 140.856 2190.77 130.273 2192.99C114.352 2196.26 99.1797 2202.04 85.3189 2209.85C82.9776 2211.1 80.7299 2212.45 78.3885 2213.9C73.9868 2216.79 69.6787 2219.77 65.5579 2222.95C63.4039 2224.5 61.3435 2226.23 59.2831 2227.87C39.0538 2244.83 23.0389 2266.8 12.8306 2291.95C9.64638 2299.56 7.11771 2307.27 5.15098 2315.27C1.87308 2328.76 0 2342.92 0 2357.47V2525.34Z" fill="#356BFF"/>
<path d="M1702.73 2962.91V2795.05C1702.73 2780.5 1704.6 2766.33 1707.88 2752.94C1709.94 2744.94 1712.47 2737.23 1715.56 2729.72C1717.62 2724.61 1719.96 2719.79 1722.39 2715.07C1726.05 2707.94 1730.26 2701.1 1735.13 2694.74C1736.63 2692.52 1738.32 2690.4 1739.91 2688.28C1746.46 2679.9 1753.86 2672.38 1762.01 2665.54C1764.07 2663.81 1766.13 2662.17 1768.28 2660.63C1772.41 2657.35 1776.71 2654.27 1781.21 2651.57C1787.95 2647.33 1795.07 2643.67 1802.37 2640.49C1809.68 2637.31 1817.17 2634.71 1824.95 2632.59C1837.96 2629.21 1851.73 2627.29 1865.87 2627.29H2029.02V2963.01H1702.73V2962.91Z" fill="#356BFF"/>
<path d="M2454.58 2627.19H2128.29V2962.91H2291.43C2302.77 2962.91 2313.72 2961.76 2324.31 2959.54C2340.23 2956.26 2355.4 2950.48 2369.26 2942.68C2371.6 2941.42 2373.85 2940.07 2376.19 2938.63C2380.59 2935.74 2384.9 2932.75 2389.02 2929.57C2391.18 2928.03 2393.24 2926.29 2395.3 2924.66C2415.53 2907.7 2431.54 2885.73 2441.75 2860.58C2444.93 2852.96 2447.46 2845.25 2449.43 2837.26C2452.71 2823.86 2454.58 2809.7 2454.58 2795.15V2627.29V2627.19Z" fill="#F5F5F5"/>
<path d="M2454.58 1919.32V2087.18H2128.29V1751.46H2291.43C2305.58 1751.46 2319.34 1753.39 2332.36 1756.76C2340.13 1758.88 2347.63 1761.48 2354.93 1764.66C2362.24 1767.84 2369.26 1771.5 2376.1 1775.74C2380.59 1778.44 2384.9 1781.52 2389.02 1784.8C2391.18 1786.34 2393.24 1788.08 2395.3 1789.71C2403.44 1796.46 2410.75 1804.07 2417.4 1812.46C2419.09 1814.58 2420.68 1816.7 2422.18 1818.91C2425.36 1823.15 2428.36 1827.58 2430.98 1832.11C2432.29 1834.52 2433.6 1836.84 2434.91 1839.24C2442.5 1853.51 2448.12 1869.12 2451.3 1885.5C2453.46 1896.39 2454.58 1907.66 2454.58 1919.32Z" fill="#356BFF"/>
<path d="M1865.87 2087.18H1702.73V1751.46H2029.02V1919.32C2029.02 1930.98 2027.89 1942.25 2025.74 1953.14C2022.09 1972.22 2015.06 1990.34 2005.42 2006.43C2005.42 2006.43 2005.42 2006.46 2005.42 2006.53C1995.96 2022.62 1983.88 2036.98 1969.73 2048.83C1967.67 2050.56 1965.61 2052.2 1963.46 2053.74C1959.34 2056.92 1955.03 2060.01 1950.63 2062.8C1948.29 2064.15 1946.04 2065.5 1943.7 2066.85C1929.84 2074.65 1914.67 2080.44 1898.74 2083.71C1888.16 2085.93 1877.2 2087.09 1865.87 2087.09V2087.18Z" fill="#F5F5F5"/>
<path d="M1702.73 2189.32V2357.19C1702.73 2371.74 1704.6 2385.9 1707.88 2399.3C1709.94 2407.29 1712.47 2415 1715.56 2422.52C1717.62 2427.63 1719.96 2432.44 1722.39 2437.17C1726.05 2444.3 1730.26 2451.14 1735.13 2457.5C1736.63 2459.71 1738.32 2461.83 1739.91 2463.95C1746.46 2472.34 1753.86 2479.85 1762.01 2486.69C1764.07 2488.43 1766.13 2490.07 1768.28 2491.61C1772.41 2494.89 1776.71 2497.97 1781.21 2500.67C1787.95 2504.91 1795.07 2508.57 1802.37 2511.75C1809.68 2514.93 1817.17 2517.53 1824.95 2519.65C1837.96 2523.02 1851.73 2524.95 1865.87 2524.95H2029.02V2189.23H1702.73V2189.32Z" fill="#356BFF"/>
<path d="M2454.58 2525.05H2128.29V2189.32H2291.43C2302.77 2189.32 2313.72 2190.48 2324.31 2192.7C2340.23 2195.97 2355.4 2201.75 2369.26 2209.56C2371.6 2210.81 2373.85 2212.16 2376.19 2213.61C2380.59 2216.5 2384.9 2219.49 2389.02 2222.67C2391.18 2224.21 2393.24 2225.94 2395.3 2227.58C2415.53 2244.54 2431.54 2266.51 2441.75 2291.66C2444.93 2299.27 2447.46 2306.98 2449.43 2314.98C2452.71 2328.37 2454.58 2342.54 2454.58 2357.09V2524.95V2525.05Z" fill="#356BFF"/>
<path d="M2554.23 2962.91V2795.05C2554.23 2780.5 2556.1 2766.33 2559.38 2752.94C2561.44 2744.94 2563.97 2737.23 2567.06 2729.72C2569.12 2724.61 2571.46 2719.79 2573.9 2715.07C2577.55 2707.94 2581.77 2701.1 2586.64 2694.74C2588.13 2692.52 2589.82 2690.4 2591.41 2688.28C2597.97 2679.9 2605.37 2672.38 2613.51 2665.54C2615.57 2663.81 2617.64 2662.17 2619.79 2660.63C2623.91 2657.35 2628.22 2654.27 2632.71 2651.57C2639.46 2647.33 2646.57 2643.67 2653.88 2640.49C2661.18 2637.31 2668.68 2634.71 2676.45 2632.59C2689.47 2629.21 2703.24 2627.29 2717.38 2627.29H2880.52V2963.01H2554.23V2962.91Z" fill="#356BFF"/>
<path d="M3306.09 2627.19H2979.79V2962.91H3142.94C3154.27 2962.91 3165.23 2961.76 3175.81 2959.54C3191.73 2956.26 3206.91 2950.48 3220.77 2942.68C3223.11 2941.42 3225.36 2940.07 3227.7 2938.63C3232.1 2935.74 3236.41 2932.75 3240.53 2929.57C3242.68 2928.03 3244.74 2926.29 3246.8 2924.66C3267.03 2907.7 3283.05 2885.73 3293.25 2860.58C3296.44 2852.96 3298.97 2845.25 3300.93 2837.26C3304.21 2823.86 3306.09 2809.7 3306.09 2795.15V2627.29V2627.19Z" fill="#F5F5F5"/>
<path d="M3306.09 1919.32V2087.18H2979.79V1751.46H3142.94C3157.08 1751.46 3170.85 1753.39 3183.87 1756.76C3191.64 1758.88 3199.13 1761.48 3206.44 1764.66C3213.74 1767.84 3220.77 1771.5 3227.6 1775.74C3232.1 1778.44 3236.41 1781.52 3240.53 1784.8C3242.68 1786.34 3244.74 1788.08 3246.8 1789.71C3254.95 1796.46 3262.26 1804.07 3268.9 1812.46C3270.59 1814.58 3272.18 1816.7 3273.68 1818.91C3276.87 1823.15 3279.86 1827.58 3282.48 1832.11C3283.8 1834.52 3285.11 1836.84 3286.42 1839.24C3294 1853.51 3299.62 1869.12 3302.81 1885.5C3304.96 1896.39 3306.09 1907.66 3306.09 1919.32Z" fill="#356BFF"/>
<path d="M2717.38 2087.18H2554.23V1751.46H2880.52V1919.32C2880.52 1930.98 2879.4 1942.25 2877.24 1953.14C2873.59 1972.22 2866.57 1990.34 2856.92 2006.43C2856.92 2006.43 2856.92 2006.46 2856.92 2006.53C2847.46 2022.62 2835.38 2036.98 2821.24 2048.83C2819.18 2050.56 2817.12 2052.2 2814.96 2053.74C2810.84 2056.92 2806.54 2060.01 2802.13 2062.8C2799.79 2064.15 2797.54 2065.5 2795.2 2066.85C2781.34 2074.65 2766.17 2080.44 2750.25 2083.71C2739.67 2085.93 2728.71 2087.09 2717.38 2087.09V2087.18Z" fill="#F5F5F5"/>
<path d="M2554.23 2189.32V2357.19C2554.23 2371.74 2556.1 2385.9 2559.38 2399.3C2561.44 2407.29 2563.97 2415 2567.06 2422.52C2569.12 2427.63 2571.46 2432.44 2573.9 2437.17C2577.55 2444.3 2581.77 2451.14 2586.64 2457.5C2588.13 2459.71 2589.82 2461.83 2591.41 2463.95C2597.97 2472.34 2605.37 2479.85 2613.51 2486.69C2615.57 2488.43 2617.64 2490.07 2619.79 2491.61C2623.91 2494.89 2628.22 2497.97 2632.71 2500.67C2639.46 2504.91 2646.57 2508.57 2653.88 2511.75C2661.18 2514.93 2668.68 2517.53 2676.45 2519.65C2689.47 2523.02 2703.24 2524.95 2717.38 2524.95H2880.52V2189.23H2554.23V2189.32Z" fill="#356BFF"/>
<path d="M3306.09 2525.05H2979.79V2189.32H3142.94C3154.27 2189.32 3165.23 2190.48 3175.81 2192.7C3191.73 2195.97 3206.91 2201.75 3220.77 2209.56C3223.11 2210.81 3225.36 2212.16 3227.7 2213.61C3232.1 2216.5 3236.41 2219.49 3240.53 2222.67C3242.68 2224.21 3244.74 2225.94 3246.8 2227.58C3267.03 2244.54 3283.05 2266.51 3293.25 2291.66C3296.44 2299.27 3298.97 2306.98 3300.93 2314.98C3304.21 2328.37 3306.09 2342.54 3306.09 2357.09V2524.95V2525.05Z" fill="#356BFF"/>
<path d="M4256.68 1481.74V1313.88H4582.97V1649.61H4419.82C4405.68 1649.61 4391.91 1647.68 4378.89 1644.31C4371.12 1642.19 4363.63 1639.58 4356.32 1636.4C4349.02 1633.22 4341.99 1629.56 4335.16 1625.32C4330.66 1622.62 4326.35 1619.54 4322.23 1616.26C4320.08 1614.72 4318.02 1612.99 4315.96 1611.35C4307.81 1604.61 4300.51 1596.99 4293.86 1588.61C4292.17 1586.49 4290.58 1584.37 4289.08 1582.15C4285.9 1577.91 4282.9 1573.48 4280.28 1568.95C4278.97 1566.54 4277.65 1564.23 4276.34 1561.82C4268.76 1547.56 4263.14 1531.95 4259.95 1515.57C4257.8 1504.68 4256.68 1493.4 4256.68 1481.74Z" fill="#356BFF"/>
<path d="M4845.38 1313.88H5008.53V1649.61H4682.24V1481.74C4682.24 1470.09 4683.36 1458.81 4685.52 1447.92C4689.17 1428.84 4696.19 1410.73 4705.84 1394.63C4705.84 1394.63 4705.84 1394.6 4705.84 1394.54C4715.3 1378.45 4727.38 1364.09 4741.52 1352.24C4743.58 1350.5 4745.64 1348.86 4747.8 1347.32C4751.92 1344.14 4756.23 1341.06 4760.63 1338.26C4762.97 1336.91 4765.22 1335.57 4767.56 1334.22C4781.42 1326.41 4796.59 1320.63 4812.51 1317.35C4823.09 1315.14 4834.05 1313.98 4845.38 1313.98V1313.88Z" fill="#356BFF"/>
<path d="M5008.53 1211.74V1043.88C5008.53 1029.33 5006.66 1015.16 5003.38 1001.77C5001.32 993.772 4998.79 986.063 4995.7 978.547C4993.64 973.44 4991.3 968.622 4988.86 963.9C4985.21 956.769 4981 949.928 4976.13 943.568C4974.63 941.352 4972.94 939.232 4971.35 937.112C4964.79 928.728 4957.39 921.212 4949.25 914.371C4947.19 912.636 4945.13 910.998 4942.97 909.456C4938.85 906.18 4934.54 903.096 4930.05 900.398C4923.3 896.158 4916.19 892.497 4908.88 889.317C4901.58 886.137 4894.08 883.535 4886.31 881.415C4873.29 878.042 4859.53 876.115 4845.38 876.115H4682.24V1211.84H5008.53V1211.74Z" fill="#356BFF"/>
<path d="M4256.68 876.019H4582.97V1211.74H4419.82C4408.49 1211.74 4397.53 1210.58 4386.95 1208.37C4371.03 1205.09 4355.86 1199.31 4341.99 1191.51C4339.65 1190.25 4337.41 1188.9 4335.06 1187.46C4330.66 1184.57 4326.35 1181.58 4322.23 1178.4C4320.08 1176.86 4318.02 1175.12 4315.96 1173.49C4295.73 1156.53 4279.71 1134.56 4269.51 1109.41C4266.32 1101.79 4263.79 1094.08 4261.83 1086.09C4258.55 1072.69 4256.68 1058.53 4256.68 1043.98V876.115V876.019Z" fill="#F5F5F5"/>
<path d="M4256.68 168.15V336.011H4582.97V0.289062H4419.82C4405.68 0.289062 4391.91 2.21628 4378.89 5.58892C4371.12 7.70887 4363.63 10.3106 4356.32 13.4905C4349.02 16.6705 4341.99 20.3322 4335.16 24.5721C4330.66 27.2702 4326.35 30.3537 4322.23 33.63C4320.08 35.1718 4318.02 36.9063 4315.96 38.5444C4307.81 45.2897 4300.51 52.9022 4293.86 61.2856C4292.17 63.4056 4290.58 65.5255 4289.08 67.7418C4285.9 71.9817 4282.9 76.4143 4280.28 80.9433C4278.97 83.3523 4277.65 85.665 4276.34 88.074C4268.76 102.335 4263.14 117.946 4259.95 134.327C4257.8 145.216 4256.68 156.49 4256.68 168.15Z" fill="#356BFF"/>
<path d="M4845.38 336.011H5008.53V0.289062H4682.24V168.15C4682.24 179.81 4683.36 191.084 4685.52 201.973C4689.17 221.052 4696.19 239.168 4705.84 255.261C4705.84 255.261 4705.84 255.293 4705.84 255.357C4715.3 271.449 4727.38 285.807 4741.52 297.659C4743.58 299.394 4745.64 301.032 4747.8 302.574C4751.92 305.754 4756.23 308.837 4760.63 311.632C4762.97 312.981 4765.22 314.33 4767.56 315.679C4781.42 323.484 4796.59 329.266 4812.51 332.542C4823.09 334.758 4834.05 335.915 4845.38 335.915V336.011Z" fill="#F5F5F5"/>
<path d="M5008.53 438.154V606.015C5008.53 620.566 5006.66 634.731 5003.38 648.125C5001.32 656.123 4998.79 663.832 4995.7 671.348C4993.64 676.455 4991.3 681.273 4988.86 685.995C4985.21 693.125 4981 699.967 4976.13 706.327C4974.63 708.543 4972.94 710.663 4971.35 712.783C4964.79 721.167 4957.39 728.683 4949.25 735.524C4947.19 737.259 4945.13 738.897 4942.97 740.439C4938.85 743.715 4934.54 746.799 4930.05 749.497C4923.3 753.737 4916.19 757.398 4908.88 760.578C4901.58 763.758 4894.08 766.36 4886.31 768.48C4873.29 771.852 4859.53 773.78 4845.38 773.78H4682.24V438.058H5008.53V438.154Z" fill="#356BFF"/>
<path d="M4256.68 773.876H4582.97V438.154H4419.82C4408.49 438.154 4397.53 439.31 4386.95 441.526C4371.03 444.803 4355.86 450.584 4341.99 458.39C4339.65 459.642 4337.41 460.991 4335.06 462.437C4330.66 465.328 4326.35 468.315 4322.23 471.495C4320.08 473.037 4318.02 474.771 4315.96 476.409C4295.73 493.369 4279.71 515.339 4269.51 540.489C4266.32 548.102 4263.79 555.811 4261.83 563.809C4258.55 577.203 4256.68 591.368 4256.68 605.919V773.78V773.876Z" fill="#356BFF"/>
<path d="M3405.17 1481.74V1313.88H3731.46V1649.61H3568.32C3554.18 1649.61 3540.41 1647.68 3527.39 1644.31C3519.62 1642.19 3512.13 1639.58 3504.82 1636.4C3497.51 1633.22 3490.49 1629.56 3483.65 1625.32C3479.16 1622.62 3474.85 1619.54 3470.73 1616.26C3468.58 1614.72 3466.52 1612.99 3464.46 1611.35C3456.31 1604.61 3449 1596.99 3442.35 1588.61C3440.67 1586.49 3439.07 1584.37 3437.58 1582.15C3434.39 1577.91 3431.39 1573.48 3428.77 1568.95C3427.46 1566.54 3426.15 1564.23 3424.84 1561.82C3417.25 1547.56 3411.63 1531.95 3408.45 1515.57C3406.3 1504.68 3405.17 1493.4 3405.17 1481.74Z" fill="#356BFF"/>
<path d="M3993.79 1313.88H4156.94V1649.61H3830.64V1481.74C3830.64 1470.09 3831.77 1458.81 3833.92 1447.92C3837.57 1428.84 3844.6 1410.73 3854.25 1394.63C3854.25 1394.63 3854.25 1394.6 3854.25 1394.54C3863.7 1378.45 3875.79 1364.09 3889.93 1352.24C3891.99 1350.5 3894.05 1348.86 3896.2 1347.32C3900.32 1344.14 3904.63 1341.06 3909.03 1338.26C3911.37 1336.91 3913.62 1335.57 3915.96 1334.22C3929.82 1326.41 3945 1320.63 3960.92 1317.35C3971.5 1315.14 3982.46 1313.98 3993.79 1313.98V1313.88Z" fill="#356BFF"/>
<path d="M4156.94 1211.74V1043.88C4156.94 1029.33 4155.06 1015.16 4151.78 1001.77C4149.72 993.772 4147.2 986.063 4144.1 978.547C4142.04 973.44 4139.7 968.621 4137.27 963.9C4133.62 956.769 4129.4 949.927 4124.53 943.568C4123.03 941.351 4121.35 939.231 4119.75 937.111C4113.2 928.728 4105.8 921.212 4097.65 914.37C4095.59 912.636 4093.53 910.997 4091.38 909.456C4087.26 906.179 4082.95 903.096 4078.45 900.398C4071.71 896.158 4064.59 892.496 4057.29 889.316C4049.98 886.136 4042.49 883.535 4034.72 881.415C4021.7 878.042 4007.93 876.115 3993.79 876.115H3830.64V1211.84H4156.94V1211.74Z" fill="#356BFF"/>
<path d="M3405.17 876.019H3731.46V1211.74H3568.32C3556.99 1211.74 3546.03 1210.58 3535.44 1208.37C3519.52 1205.09 3504.35 1199.31 3490.49 1191.5C3488.15 1190.25 3485.9 1188.9 3483.56 1187.46C3479.16 1184.57 3474.85 1181.58 3470.73 1178.4C3468.58 1176.86 3466.52 1175.12 3464.46 1173.49C3444.23 1156.53 3428.21 1134.56 3418 1109.41C3414.82 1101.79 3412.29 1094.08 3410.32 1086.09C3407.05 1072.69 3405.17 1058.53 3405.17 1043.98V876.115V876.019Z" fill="#F5F5F5"/>
<path d="M3405.17 168.15V336.011H3731.46V0.289062H3568.32C3554.18 0.289062 3540.41 2.21628 3527.39 5.58892C3519.62 7.70887 3512.13 10.3106 3504.82 13.4905C3497.51 16.6705 3490.49 20.3322 3483.65 24.5721C3479.16 27.2702 3474.85 30.3537 3470.73 33.63C3468.58 35.1718 3466.52 36.9063 3464.46 38.5444C3456.31 45.2897 3449 52.9022 3442.35 61.2856C3440.67 63.4056 3439.07 65.5255 3437.58 67.7418C3434.39 71.9817 3431.39 76.4143 3428.77 80.9433C3427.46 83.3523 3426.15 85.665 3424.84 88.074C3417.25 102.335 3411.63 117.946 3408.45 134.327C3406.3 145.216 3405.17 156.49 3405.17 168.15Z" fill="#356BFF"/>
<path d="M3993.79 336.011H4156.94V0.289062H3830.64V168.15C3830.64 179.81 3831.77 191.084 3833.92 201.973C3837.57 221.052 3844.6 239.168 3854.25 255.261C3854.25 255.261 3854.25 255.293 3854.25 255.357C3863.7 271.449 3875.79 285.807 3889.93 297.659C3891.99 299.394 3894.05 301.032 3896.2 302.574C3900.32 305.754 3904.63 308.837 3909.03 311.632C3911.37 312.981 3913.62 314.33 3915.96 315.679C3929.82 323.484 3945 329.266 3960.92 332.542C3971.5 334.758 3982.46 335.915 3993.79 335.915V336.011Z" fill="#F5F5F5"/>
<path d="M4156.94 438.154V606.015C4156.94 620.566 4155.06 634.731 4151.78 648.125C4149.72 656.123 4147.2 663.832 4144.1 671.348C4142.04 676.455 4139.7 681.273 4137.27 685.995C4133.62 693.125 4129.4 699.967 4124.53 706.327C4123.03 708.543 4121.35 710.663 4119.75 712.783C4113.2 721.167 4105.8 728.683 4097.65 735.524C4095.59 737.259 4093.53 738.897 4091.38 740.439C4087.26 743.715 4082.95 746.799 4078.45 749.497C4071.71 753.737 4064.59 757.398 4057.29 760.578C4049.98 763.758 4042.49 766.36 4034.72 768.48C4021.7 771.852 4007.93 773.78 3993.79 773.78H3830.64V438.058H4156.94V438.154Z" fill="#356BFF"/>
<path d="M3405.17 773.876H3731.46V438.154H3568.32C3556.99 438.154 3546.03 439.31 3535.44 441.526C3519.52 444.803 3504.35 450.584 3490.49 458.39C3488.15 459.642 3485.9 460.991 3483.56 462.437C3479.16 465.328 3474.85 468.315 3470.73 471.495C3468.58 473.037 3466.52 474.771 3464.46 476.409C3444.23 493.369 3428.21 515.339 3418 540.489C3414.82 548.102 3412.29 555.811 3410.32 563.809C3407.05 577.203 3405.17 591.368 3405.17 605.919V773.78V773.876Z" fill="#356BFF"/>
<path d="M5270.95 1313.59H5107.8V1649.32H5434.09V1481.46C5434.09 1469.8 5432.97 1458.52 5430.81 1447.63C5427.16 1428.55 5420.14 1410.44 5410.49 1394.35C5410.49 1394.35 5410.49 1394.31 5410.49 1394.25C5401.03 1378.16 5388.95 1363.8 5374.81 1351.95C5372.75 1350.21 5370.69 1348.57 5368.53 1347.03C5364.41 1343.85 5360.11 1340.77 5355.7 1337.97C5353.36 1336.63 5351.11 1335.28 5348.77 1333.93C5334.91 1326.12 5319.74 1320.34 5303.82 1317.06C5293.24 1314.85 5282.28 1313.69 5270.95 1313.69V1313.59Z" fill="#356BFF"/>
<path d="M5107.9 1211.45V1043.59C5107.9 1029.04 5109.77 1014.88 5113.05 1001.48C5115.11 993.483 5117.64 985.774 5120.73 978.258C5122.79 973.151 5125.13 968.333 5127.56 963.611C5131.22 956.48 5135.43 949.639 5140.3 943.279C5141.8 941.063 5143.48 938.943 5145.08 936.823C5151.63 928.439 5159.03 920.923 5167.18 914.082C5169.24 912.347 5171.3 910.709 5173.45 909.167C5177.58 905.891 5181.88 902.807 5186.38 900.109C5193.12 895.869 5200.24 892.208 5207.54 889.028C5214.85 885.848 5222.34 883.246 5230.12 881.126C5243.13 877.753 5256.9 875.826 5271.04 875.826H5434.19V1211.55H5107.9V1211.45Z" fill="#356BFF"/>
<path d="M5270.95 335.722H5107.8V0H5434.09V167.861C5434.09 179.521 5432.97 190.795 5430.81 201.684C5427.16 220.763 5420.14 238.879 5410.49 254.971C5410.49 254.971 5410.49 255.004 5410.49 255.068C5401.03 271.16 5388.95 285.518 5374.81 297.37C5372.75 299.105 5370.69 300.743 5368.53 302.285C5364.41 305.465 5360.11 308.548 5355.7 311.343C5353.36 312.692 5351.11 314.041 5348.77 315.39C5334.91 323.195 5319.74 328.977 5303.82 332.253C5293.24 334.469 5282.28 335.626 5270.95 335.626V335.722Z" fill="#F5F5F5"/>
<path d="M5107.9 437.865V605.726C5107.9 620.277 5109.77 634.442 5113.05 647.836C5115.11 655.834 5117.64 663.543 5120.73 671.059C5122.79 676.166 5125.13 680.984 5127.56 685.706C5131.22 692.836 5135.43 699.678 5140.3 706.038C5141.8 708.254 5143.48 710.374 5145.08 712.494C5151.63 720.878 5159.03 728.394 5167.18 735.235C5169.24 736.97 5171.3 738.608 5173.45 740.15C5177.58 743.426 5181.88 746.51 5186.38 749.208C5193.12 753.448 5200.24 757.109 5207.54 760.289C5214.85 763.469 5222.34 766.071 5230.12 768.191C5243.13 771.563 5256.9 773.491 5271.04 773.491H5434.19V437.769H5107.9V437.865Z" fill="#356BFF"/>
<path d="M5008.53 2963.2V2795.34C5008.53 2780.79 5006.66 2766.62 5003.38 2753.23C5001.32 2745.23 4998.79 2737.52 4995.7 2730.01C4993.64 2724.9 4991.3 2720.08 4988.86 2715.36C4985.21 2708.23 4981 2701.39 4976.13 2695.03C4974.63 2692.81 4972.94 2690.69 4971.35 2688.57C4964.79 2680.19 4957.39 2672.67 4949.25 2665.83C4947.19 2664.1 4945.13 2662.46 4942.97 2660.92C4938.85 2657.64 4934.54 2654.56 4930.05 2651.86C4923.3 2647.62 4916.19 2643.96 4908.88 2640.78C4901.58 2637.6 4894.08 2634.99 4886.31 2632.87C4873.29 2629.5 4859.53 2627.57 4845.38 2627.57H4682.24V2963.3H5008.53V2963.2Z" fill="#356BFF"/>
<path d="M4256.68 2627.48H4582.97V2963.2H4419.82C4408.49 2963.2 4397.53 2962.04 4386.95 2959.83C4371.03 2956.55 4355.86 2950.77 4341.99 2942.96C4339.65 2941.71 4337.41 2940.36 4335.06 2938.92C4330.66 2936.03 4326.35 2933.04 4322.23 2929.86C4320.08 2928.32 4318.02 2926.58 4315.96 2924.95C4295.73 2907.99 4279.71 2886.02 4269.51 2860.87C4266.32 2853.25 4263.79 2845.54 4261.83 2837.55C4258.55 2824.15 4256.68 2809.99 4256.68 2795.44V2627.57V2627.48Z" fill="#F5F5F5"/>
<path d="M4256.68 1919.61V2087.47H4582.97V1751.75H4419.82C4405.68 1751.75 4391.91 1753.68 4378.89 1757.05C4371.12 1759.17 4363.63 1761.77 4356.32 1764.95C4349.02 1768.13 4341.99 1771.79 4335.16 1776.03C4330.66 1778.73 4326.35 1781.81 4322.23 1785.09C4320.08 1786.63 4318.02 1788.37 4315.96 1790C4307.81 1796.75 4300.51 1804.36 4293.86 1812.75C4292.17 1814.87 4290.58 1816.99 4289.08 1819.2C4285.9 1823.44 4282.9 1827.87 4280.28 1832.4C4278.97 1834.81 4277.65 1837.12 4276.34 1839.53C4268.76 1853.79 4263.14 1869.41 4259.95 1885.79C4257.8 1896.68 4256.68 1907.95 4256.68 1919.61Z" fill="#356BFF"/>
<path d="M4845.38 2087.47H5008.53V1751.75H4682.24V1919.61C4682.24 1931.27 4683.36 1942.54 4685.52 1953.43C4689.17 1972.51 4696.19 1990.63 4705.84 2006.72C4705.84 2006.72 4705.84 2006.75 4705.84 2006.82C4715.3 2022.91 4727.38 2037.27 4741.52 2049.12C4743.58 2050.85 4745.64 2052.49 4747.8 2054.03C4751.92 2057.21 4756.23 2060.3 4760.63 2063.09C4762.97 2064.44 4765.22 2065.79 4767.56 2067.14C4781.42 2074.94 4796.59 2080.73 4812.51 2084C4823.09 2086.22 4834.05 2087.37 4845.38 2087.37V2087.47Z" fill="#F5F5F5"/>
<path d="M5008.53 2189.61V2357.47C5008.53 2372.02 5006.66 2386.19 5003.38 2399.58C5001.32 2407.58 4998.79 2415.29 4995.7 2422.81C4993.64 2427.91 4991.3 2432.73 4988.86 2437.45C4985.21 2444.58 4981 2451.43 4976.13 2457.79C4974.63 2460 4972.94 2462.12 4971.35 2464.24C4964.79 2472.63 4957.39 2480.14 4949.25 2486.98C4947.19 2488.72 4945.13 2490.36 4942.97 2491.9C4938.85 2495.17 4934.54 2498.26 4930.05 2500.96C4923.3 2505.2 4916.19 2508.86 4908.88 2512.04C4901.58 2515.22 4894.08 2517.82 4886.31 2519.94C4873.29 2523.31 4859.53 2525.24 4845.38 2525.24H4682.24V2189.52H5008.53V2189.61Z" fill="#356BFF"/>
<path d="M4256.68 2525.34H4582.97V2189.61H4419.82C4408.49 2189.61 4397.53 2190.77 4386.95 2192.99C4371.03 2196.26 4355.86 2202.04 4341.99 2209.85C4339.65 2211.1 4337.41 2212.45 4335.06 2213.9C4330.66 2216.79 4326.35 2219.77 4322.23 2222.95C4320.08 2224.5 4318.02 2226.23 4315.96 2227.87C4295.73 2244.83 4279.71 2266.8 4269.51 2291.95C4266.32 2299.56 4263.79 2307.27 4261.83 2315.27C4258.55 2328.66 4256.68 2342.83 4256.68 2357.38V2525.24V2525.34Z" fill="#356BFF"/>
<path d="M4156.94 2963.2V2795.34C4156.94 2780.79 4155.06 2766.62 4151.78 2753.23C4149.72 2745.23 4147.2 2737.52 4144.1 2730.01C4142.04 2724.9 4139.7 2720.08 4137.27 2715.36C4133.62 2708.23 4129.4 2701.39 4124.53 2695.03C4123.03 2692.81 4121.35 2690.69 4119.75 2688.57C4113.2 2680.19 4105.8 2672.67 4097.65 2665.83C4095.59 2664.1 4093.53 2662.46 4091.38 2660.92C4087.26 2657.64 4082.95 2654.56 4078.45 2651.86C4071.71 2647.62 4064.59 2643.96 4057.29 2640.78C4049.98 2637.6 4042.49 2634.99 4034.72 2632.87C4021.7 2629.5 4007.93 2627.57 3993.79 2627.57H3830.64V2963.3H4156.94V2963.2Z" fill="#356BFF"/>
<path d="M3405.17 2627.48H3731.46V2963.2H3568.32C3556.99 2963.2 3546.03 2962.04 3535.44 2959.83C3519.52 2956.55 3504.35 2950.77 3490.49 2942.96C3488.15 2941.71 3485.9 2940.36 3483.56 2938.92C3479.16 2936.03 3474.85 2933.04 3470.73 2929.86C3468.58 2928.32 3466.52 2926.58 3464.46 2924.95C3444.23 2907.99 3428.21 2886.02 3418 2860.87C3414.82 2853.25 3412.29 2845.54 3410.32 2837.55C3407.05 2824.15 3405.17 2809.99 3405.17 2795.44V2627.57V2627.48Z" fill="#F5F5F5"/>
<path d="M3405.17 1919.61V2087.47H3731.46V1751.75H3568.32C3554.18 1751.75 3540.41 1753.68 3527.39 1757.05C3519.62 1759.17 3512.13 1761.77 3504.82 1764.95C3497.51 1768.13 3490.49 1771.79 3483.65 1776.03C3479.16 1778.73 3474.85 1781.81 3470.73 1785.09C3468.58 1786.63 3466.52 1788.37 3464.46 1790C3456.31 1796.75 3449 1804.36 3442.35 1812.75C3440.67 1814.87 3439.07 1816.99 3437.58 1819.2C3434.39 1823.44 3431.39 1827.87 3428.77 1832.4C3427.46 1834.81 3426.15 1837.12 3424.84 1839.53C3417.25 1853.79 3411.63 1869.41 3408.45 1885.79C3406.3 1896.68 3405.17 1907.95 3405.17 1919.61Z" fill="#356BFF"/>
<path d="M3993.79 2087.47H4156.94V1751.75H3830.64V1919.61C3830.64 1931.27 3831.77 1942.54 3833.92 1953.43C3837.57 1972.51 3844.6 1990.63 3854.25 2006.72C3854.25 2006.72 3854.25 2006.75 3854.25 2006.82C3863.7 2022.91 3875.79 2037.27 3889.93 2049.12C3891.99 2050.85 3894.05 2052.49 3896.2 2054.03C3900.32 2057.21 3904.63 2060.3 3909.03 2063.09C3911.37 2064.44 3913.62 2065.79 3915.96 2067.14C3929.82 2074.94 3945 2080.73 3960.92 2084C3971.5 2086.22 3982.46 2087.37 3993.79 2087.37V2087.47Z" fill="#F5F5F5"/>
<path d="M4156.94 2189.61V2357.47C4156.94 2372.02 4155.06 2386.19 4151.78 2399.58C4149.72 2407.58 4147.2 2415.29 4144.1 2422.81C4142.04 2427.91 4139.7 2432.73 4137.27 2437.45C4133.62 2444.58 4129.4 2451.43 4124.53 2457.79C4123.03 2460 4121.35 2462.12 4119.75 2464.24C4113.2 2472.63 4105.8 2480.14 4097.65 2486.98C4095.59 2488.72 4093.53 2490.36 4091.38 2491.9C4087.26 2495.17 4082.95 2498.26 4078.45 2500.96C4071.71 2505.2 4064.59 2508.86 4057.29 2512.04C4049.98 2515.22 4042.49 2517.82 4034.72 2519.94C4021.7 2523.31 4007.93 2525.24 3993.79 2525.24H3830.64V2189.52H4156.94V2189.61Z" fill="#356BFF"/>
<path d="M3405.17 2525.34H3731.46V2189.61H3568.32C3556.99 2189.61 3546.03 2190.77 3535.44 2192.99C3519.52 2196.26 3504.35 2202.04 3490.49 2209.85C3488.15 2211.1 3485.9 2212.45 3483.56 2213.9C3479.16 2216.79 3474.85 2219.77 3470.73 2222.95C3468.58 2224.5 3466.52 2226.23 3464.46 2227.87C3444.23 2244.83 3428.21 2266.8 3418 2291.95C3414.82 2299.56 3412.29 2307.27 3410.32 2315.27C3407.05 2328.66 3405.17 2342.83 3405.17 2357.38V2525.24V2525.34Z" fill="#356BFF"/>
<path d="M5107.9 2962.91V2795.05C5107.9 2780.5 5109.77 2766.33 5113.05 2752.94C5115.11 2744.94 5117.64 2737.23 5120.73 2729.72C5122.79 2724.61 5125.13 2719.79 5127.56 2715.07C5131.22 2707.94 5135.43 2701.1 5140.3 2694.74C5141.8 2692.52 5143.48 2690.4 5145.08 2688.28C5151.63 2679.9 5159.03 2672.38 5167.18 2665.54C5169.24 2663.81 5171.3 2662.17 5173.45 2660.63C5177.58 2657.35 5181.88 2654.27 5186.38 2651.57C5193.12 2647.33 5200.24 2643.67 5207.54 2640.49C5214.85 2637.31 5222.34 2634.71 5230.12 2632.59C5243.13 2629.21 5256.9 2627.29 5271.04 2627.29H5434.19V2963.01H5107.9V2962.91Z" fill="#356BFF"/>
<path d="M5270.95 2087.18H5107.8V1751.46H5434.09V1919.32C5434.09 1930.98 5432.97 1942.25 5430.81 1953.14C5427.16 1972.22 5420.14 1990.34 5410.49 2006.43C5410.49 2006.43 5410.49 2006.46 5410.49 2006.53C5401.03 2022.62 5388.95 2036.98 5374.81 2048.83C5372.75 2050.56 5370.69 2052.2 5368.53 2053.74C5364.41 2056.92 5360.11 2060.01 5355.7 2062.8C5353.36 2064.15 5351.11 2065.5 5348.77 2066.85C5334.91 2074.65 5319.74 2080.44 5303.82 2083.71C5293.24 2085.93 5282.28 2087.09 5270.95 2087.09V2087.18Z" fill="#F5F5F5"/>
<path d="M5107.9 2189.32V2357.19C5107.9 2371.74 5109.77 2385.9 5113.05 2399.3C5115.11 2407.29 5117.64 2415 5120.73 2422.52C5122.79 2427.63 5125.13 2432.44 5127.56 2437.17C5131.22 2444.3 5135.43 2451.14 5140.3 2457.5C5141.8 2459.71 5143.48 2461.83 5145.08 2463.95C5151.63 2472.34 5159.03 2479.85 5167.18 2486.69C5169.24 2488.43 5171.3 2490.07 5173.45 2491.61C5177.58 2494.89 5181.88 2497.97 5186.38 2500.67C5193.12 2504.91 5200.24 2508.57 5207.54 2511.75C5214.85 2514.93 5222.34 2517.53 5230.12 2519.65C5243.13 2523.02 5256.9 2524.95 5271.04 2524.95H5434.19V2189.23H5107.9V2189.32Z" fill="#356BFF"/>
</g>
<defs>
<clipPath id="clip0_4061_3413">
<rect width="5203" height="2693" fill="white"/>
</clipPath>
</defs>
</svg>
