<svg width="5203" height="2693" viewBox="0 0 5203 2693" fill="none" xmlns="http://www.w3.org/2000/svg">
<g clip-path="url(#clip0_4073_960)">
<path d="M1172.79 1318.88V1644.61H1014.65C1000.97 1644.61 987.631 1642.74 974.998 1639.47C967.456 1637.41 960.205 1634.89 953.147 1631.82C946.058 1628.73 939.248 1625.18 932.621 1621.07L932.591 1621.05L932.56 1621.04L931.761 1620.55C927.777 1618.11 923.916 1615.33 920.174 1612.35L920.074 1612.27L919.972 1612.2L919.223 1611.65C917.505 1610.38 915.866 1609 913.959 1607.49C906.113 1600.99 899.053 1593.64 892.602 1585.5L892.598 1585.5C890.967 1583.45 889.458 1581.43 888.051 1579.35L887.98 1579.25L887.906 1579.15C884.827 1575.05 881.953 1570.8 879.451 1566.48C878.799 1565.28 878.148 1564.11 877.509 1562.96C876.859 1561.79 876.222 1560.64 875.586 1559.47C868.228 1545.64 862.777 1530.5 859.689 1514.61L859.688 1514.61L859.687 1514.6L859.307 1512.61C857.464 1502.66 856.504 1492.37 856.504 1481.75V1318.88H1172.79Z" stroke="#F5F5F5" stroke-width="10"/>
<path d="M1598.36 1318.88V1644.61H1282.07V1481.75C1282.07 1470.41 1283.16 1459.46 1285.25 1448.89L1285.25 1448.88L1285.25 1448.86C1288.8 1430.37 1295.61 1412.8 1304.96 1397.21L1305.67 1396.02V1395.91C1314.74 1380.77 1326.21 1367.26 1339.56 1356.07L1339.57 1356.06C1341.56 1354.38 1343.52 1352.83 1345.53 1351.39L1345.61 1351.33L1345.68 1351.28C1349.68 1348.19 1353.84 1345.22 1358.06 1342.53C1359.22 1341.87 1360.35 1341.2 1361.45 1340.55C1362.6 1339.88 1363.72 1339.22 1364.86 1338.56C1378.28 1331.01 1392.96 1325.42 1408.35 1322.25L1408.36 1322.25L1408.36 1322.25C1418.61 1320.1 1429.22 1318.98 1440.21 1318.98H1445.21V1318.88H1598.36Z" stroke="#F5F5F5" stroke-width="10"/>
<path d="M1440.21 881.115C1453.88 881.115 1467.2 882.974 1479.82 886.238V886.239C1487.38 888.3 1494.64 890.824 1501.71 893.901C1508.82 896.996 1515.71 900.543 1522.21 904.631L1522.3 904.686C1526.57 907.246 1530.7 910.196 1534.69 913.37L1534.79 913.448L1534.89 913.522C1536.91 914.967 1538.86 916.519 1540.85 918.195L1540.86 918.2C1548.76 924.83 1555.9 932.088 1562.21 940.16C1563.9 942.409 1565.41 944.303 1566.81 946.368L1566.89 946.491L1566.98 946.607C1571.65 952.699 1575.71 959.281 1579.24 966.18L1579.25 966.192C1581.65 970.848 1583.91 975.513 1585.89 980.418L1585.9 980.434L1585.9 980.448C1588.9 987.729 1591.35 995.211 1593.36 1002.99C1596.54 1016.02 1598.36 1029.77 1598.36 1043.88V1206.84H1282.07V881.115H1440.21Z" stroke="#F5F5F5" stroke-width="10"/>
<path d="M1172.79 881.019V1206.74H1014.65C1003.66 1206.74 993.046 1205.62 982.802 1203.47L982.784 1203.47L981.343 1203.17C966.469 1199.95 952.28 1194.47 939.276 1187.15L939.229 1187.12L939.182 1187.1L938.357 1186.65C936.458 1185.6 934.581 1184.48 932.578 1183.24C928.264 1180.4 924.087 1177.51 920.116 1174.44L920.045 1174.39L919.972 1174.33L919.223 1173.79C917.508 1172.51 915.871 1171.14 913.968 1169.63C894.387 1153.2 878.867 1131.91 868.968 1107.52L868.957 1107.5L868.947 1107.48C866.057 1100.57 863.725 1093.58 861.874 1086.34L861.511 1084.89C858.322 1071.86 856.504 1058.1 856.504 1043.98V881.019H1172.79Z" stroke="#F5F5F5" stroke-width="10"/>
<path d="M1014.65 5.28906H1172.79V331.011H856.504V168.15C856.504 156.814 857.596 145.865 859.687 135.298L859.688 135.289L859.689 135.281C862.777 119.396 868.228 104.254 875.586 90.4219L875.585 90.4209C876.221 89.253 876.86 88.1055 877.509 86.9365C878.151 85.7803 878.804 84.6026 879.459 83.3994C881.958 79.0882 884.831 74.8388 887.906 70.7441L887.98 70.6455L888.051 70.542C889.458 68.4612 890.967 66.4476 892.598 64.3975L892.602 64.3926C899.053 56.2583 906.113 48.906 913.96 42.4082C916.142 40.6719 917.973 39.1267 919.972 37.6963L920.074 37.6221L920.174 37.5439C924.166 34.3702 928.293 31.4202 932.56 28.8594L932.591 28.8408L932.621 28.8213C939.248 24.7118 946.058 21.1615 953.147 18.0752C960.218 14.9973 967.482 12.4738 975.038 10.4131L975.037 10.4121C987.658 7.14741 1000.98 5.28906 1014.65 5.28906Z" stroke="#F5F5F5" stroke-width="10"/>
<path d="M1598.36 5.28906V331.011H1445.21V330.915H1440.21C1429.22 330.915 1418.61 329.794 1408.36 327.648L1408.35 327.645C1392.96 324.477 1378.28 318.887 1364.86 311.335C1363.72 310.677 1362.6 310.017 1361.45 309.345C1360.35 308.693 1359.22 308.03 1358.06 307.364C1353.84 304.68 1349.68 301.705 1345.68 298.615L1345.61 298.561L1345.53 298.508C1343.52 297.063 1341.56 295.511 1339.57 293.834L1339.56 293.827L1338.28 292.744C1325.47 281.767 1314.45 268.637 1305.67 253.981V253.877L1304.96 252.689C1295.61 237.093 1288.8 219.529 1285.25 201.033L1285.25 201.018L1285.25 201.003L1284.87 199.017C1283.03 189.065 1282.07 178.778 1282.07 168.15V5.28906H1598.36Z" stroke="#F5F5F5" stroke-width="10"/>
<path d="M1598.36 443.058V606.015C1598.36 620.125 1596.54 633.879 1593.36 646.902C1591.35 654.684 1588.9 662.165 1585.9 669.446L1585.9 669.462L1585.89 669.478C1583.91 674.382 1581.65 679.047 1579.25 683.703L1579.24 683.715C1575.71 690.613 1571.65 697.195 1566.98 703.287L1566.89 703.404L1566.81 703.526C1565.41 705.591 1563.9 707.484 1562.21 709.732C1555.9 717.805 1548.76 725.065 1540.86 731.695L1540.85 731.699C1538.86 733.376 1536.91 734.928 1534.89 736.373L1534.79 736.446L1534.69 736.525C1530.7 739.699 1526.57 742.649 1522.3 745.21L1522.26 745.236L1522.21 745.264C1515.71 749.351 1508.82 752.9 1501.71 755.994C1494.66 759.066 1487.41 761.586 1479.86 763.645C1467.23 766.916 1453.89 768.779 1440.21 768.779H1282.07V443.058H1598.36Z" stroke="#F5F5F5" stroke-width="10"/>
<path d="M1014.65 443.154H1172.79V768.876H856.504V605.919C856.504 591.798 858.322 578.034 861.511 565.003C863.417 557.251 865.865 549.788 868.947 542.419L868.957 542.395L868.968 542.37C878.867 517.98 894.386 496.692 913.968 480.267C916.146 478.533 917.976 476.99 919.972 475.562L920.045 475.509L920.116 475.454C924.087 472.39 928.263 469.489 932.578 466.654C934.87 465.24 936.997 463.968 939.182 462.799L939.229 462.773L939.276 462.747C952.7 455.188 967.385 449.593 982.784 446.424L982.793 446.423L982.802 446.421C993.046 444.276 1003.66 443.154 1014.65 443.154Z" stroke="#F5F5F5" stroke-width="10"/>
<path d="M321.291 1318.88V1644.61H163.146C149.465 1644.61 136.127 1642.74 123.494 1639.47C115.952 1637.41 108.702 1634.89 101.644 1631.82C94.5536 1628.73 87.7437 1625.18 81.1172 1621.07L81.0869 1621.05L81.0557 1621.04L80.2568 1620.55C76.2734 1618.11 72.4122 1615.33 68.6699 1612.35L68.5703 1612.27L68.4678 1612.2L67.7188 1611.65C66.0016 1610.38 64.3622 1609 62.4551 1607.49C54.609 1600.99 47.5491 1593.64 41.0977 1585.5L41.0938 1585.5C39.4635 1583.45 37.9537 1581.43 36.5469 1579.35L36.4766 1579.25L36.4023 1579.15C33.3235 1575.05 30.4486 1570.8 27.9473 1566.48C27.2948 1565.28 26.6442 1564.11 26.0049 1562.96C25.3555 1561.79 24.7182 1560.64 24.082 1559.47C16.7245 1545.64 11.2734 1530.5 8.18555 1514.61L8.18457 1514.61L8.18262 1514.6L7.80273 1512.61C5.96033 1502.66 5.00002 1492.37 5 1481.75V1318.88H321.291Z" stroke="#F5F5F5" stroke-width="10"/>
<path d="M746.854 1318.88V1644.61H430.562V1481.75C430.562 1470.41 431.655 1459.46 433.745 1448.89L433.748 1448.88L433.751 1448.86C437.292 1430.37 444.103 1412.8 453.452 1397.21L454.163 1396.02V1395.91C463.234 1380.77 474.703 1367.26 488.058 1356.07L488.065 1356.06C490.057 1354.38 492.012 1352.83 494.03 1351.39L494.104 1351.33L494.175 1351.28C498.179 1348.19 502.336 1345.22 506.558 1342.53C507.712 1341.87 508.841 1341.2 509.95 1340.55C511.094 1339.88 512.216 1339.22 513.357 1338.56C526.774 1331.01 541.453 1325.42 556.843 1322.25L556.852 1322.25L556.86 1322.25C567.105 1320.1 577.719 1318.98 588.708 1318.98H593.708V1318.88H746.854Z" stroke="#F5F5F5" stroke-width="10"/>
<path d="M588.708 881.115C602.374 881.115 615.699 882.974 628.319 886.238V886.239C635.875 888.3 643.139 890.824 650.21 893.901C657.319 896.996 664.209 900.543 670.71 904.631L670.798 904.686C675.064 907.246 679.192 910.196 683.184 913.37L683.283 913.448L683.386 913.522C685.404 914.967 687.359 916.519 689.351 918.195L689.355 918.2C697.251 924.83 704.394 932.088 710.71 940.16C712.4 942.409 713.91 944.303 715.307 946.368L715.39 946.491L715.479 946.607C720.144 952.699 724.203 959.281 727.736 966.18L727.742 966.192C730.143 970.848 732.407 975.513 734.386 980.418L734.393 980.434L734.398 980.448C737.392 987.729 739.848 995.21 741.854 1002.99C745.038 1016.01 746.854 1029.77 746.854 1043.88V1206.84H430.562V881.115H588.708Z" stroke="#F5F5F5" stroke-width="10"/>
<path d="M321.291 881.019V1206.74H163.146C152.156 1206.74 141.542 1205.62 131.298 1203.47L131.28 1203.47L129.839 1203.17C114.965 1199.95 100.776 1194.47 87.7725 1187.15L87.7256 1187.12L87.6777 1187.1L86.8535 1186.65C84.9536 1185.6 83.0774 1184.48 81.0742 1183.24C76.7598 1180.4 72.5828 1177.51 68.6123 1174.44L68.541 1174.39L68.4678 1174.33L67.7188 1173.79C66.0042 1172.51 64.3674 1171.14 62.4639 1169.63C42.8827 1153.2 27.3634 1131.91 17.4639 1107.52L17.4531 1107.5L17.4434 1107.48L16.873 1106.09C14.059 1099.18 11.7964 1092.17 10.0098 1084.91C6.81806 1071.77 5.00002 1058 5 1043.88V881.019H321.291Z" stroke="#F5F5F5" stroke-width="10"/>
<path d="M163.146 5.28906H321.291V331.011H5V168.15C5 156.814 6.09227 145.865 8.18262 135.298L8.18457 135.289L8.18555 135.281C11.2734 119.396 16.7245 104.254 24.082 90.4219L24.0811 90.4209C24.717 89.253 25.3557 88.1055 26.0049 86.9365C26.647 85.7803 27.2998 84.6026 27.9551 83.3994C30.4544 79.0883 33.3272 74.8388 36.4023 70.7441L36.4766 70.6455L36.5469 70.542C37.9537 68.4612 39.4635 66.4476 41.0938 64.3975L41.0977 64.3926C47.5495 56.2583 54.6095 48.906 62.4561 42.4082C64.6378 40.6719 66.4694 39.1267 68.4678 37.6963L68.5703 37.6221L68.6699 37.5439C72.6618 34.3701 76.7891 31.4202 81.0557 28.8594L81.0869 28.8408L81.1172 28.8213C87.7436 24.7118 94.5536 21.1615 101.644 18.0752C108.714 14.9973 115.978 12.4738 123.534 10.4131L123.533 10.4121C136.154 7.14742 149.479 5.28906 163.146 5.28906Z" stroke="#F5F5F5" stroke-width="10"/>
<path d="M746.854 5.28906V331.011H593.708V330.915H588.708C577.719 330.915 567.105 329.794 556.86 327.648L556.843 327.645C541.452 324.477 526.775 318.887 513.357 311.335C512.216 310.677 511.094 310.017 509.95 309.345C508.842 308.693 507.712 308.03 506.559 307.364C502.337 304.68 498.179 301.705 494.175 298.615L494.104 298.561L494.03 298.508C492.012 297.063 490.057 295.511 488.065 293.834L488.058 293.827L486.779 292.744C473.97 281.767 462.943 268.637 454.163 253.981V253.877L453.452 252.689C444.103 237.093 437.292 219.529 433.751 201.033L433.748 201.018L433.745 201.003L433.365 199.017C431.523 189.065 430.563 178.778 430.562 168.15V5.28906H746.854Z" stroke="#F5F5F5" stroke-width="10"/>
<path d="M746.854 443.058V606.015C746.854 620.125 745.038 633.88 741.854 646.903C739.848 654.685 737.392 662.165 734.398 669.446L734.393 669.462L734.386 669.478C732.407 674.382 730.143 679.047 727.742 683.703L727.736 683.715C724.203 690.613 720.144 697.195 715.479 703.287L715.39 703.404L715.307 703.526C713.911 705.591 712.4 707.484 710.71 709.732C704.394 717.805 697.252 725.065 689.355 731.695L689.351 731.699C687.359 733.376 685.404 734.928 683.386 736.373L683.283 736.446L683.184 736.525C679.192 739.699 675.064 742.649 670.798 745.21L670.754 745.236L670.71 745.264C664.209 749.351 657.319 752.9 650.21 755.994C643.152 759.066 635.902 761.586 628.36 763.645C615.727 766.916 602.389 768.779 588.708 768.779H430.562V443.058H746.854Z" stroke="#F5F5F5" stroke-width="10"/>
<path d="M163.146 443.154H321.291V768.876H5V606.016C5 591.894 6.81804 578.125 10.0098 564.989L10.0088 564.988C11.9146 557.241 14.3629 549.783 17.4434 542.419L17.4531 542.395L17.4639 542.37C27.3635 517.98 42.8824 496.692 62.4639 480.267C64.642 478.533 66.4719 476.99 68.4678 475.562L68.541 475.509L68.6123 475.454C72.583 472.39 76.7595 469.489 81.0742 466.654C83.3661 465.24 85.4928 463.968 87.6777 462.799L87.7256 462.773L87.7725 462.747C101.196 455.188 115.881 449.593 131.28 446.424L131.289 446.423L131.298 446.421C141.542 444.276 152.156 443.154 163.146 443.154Z" stroke="#F5F5F5" stroke-width="10"/>
<path d="M2449.58 1318.59V1481.46C2449.58 1492.79 2448.49 1503.74 2446.4 1514.31L2446.39 1514.32C2443.31 1530.19 2437.87 1545.32 2430.52 1559.14C2429.88 1560.32 2429.23 1561.49 2428.58 1562.67C2427.94 1563.82 2427.28 1564.99 2426.63 1566.19C2424.13 1570.51 2421.26 1574.76 2418.18 1578.86L2418.1 1578.96L2418.03 1579.06C2416.63 1581.14 2415.12 1583.16 2413.49 1585.21L2413.48 1585.21C2407.03 1593.35 2399.97 1600.7 2392.12 1607.2C2389.94 1608.93 2388.11 1610.48 2386.11 1611.91L2386.01 1611.98L2385.91 1612.06C2381.92 1615.24 2377.79 1618.19 2373.52 1620.75L2373.49 1620.77L2373.46 1620.78C2366.84 1624.89 2360.03 1628.44 2352.94 1631.53V1631.53C2345.88 1634.6 2338.63 1637.12 2331.09 1639.18C2318.45 1642.45 2305.12 1644.32 2291.43 1644.32H2133.29V1318.59H2449.58Z" stroke="#F5F5F5" stroke-width="10"/>
<path d="M1860.87 1318.59V1318.69H1865.87C1876.86 1318.69 1887.48 1319.81 1897.72 1321.96L1897.74 1321.96C1913.13 1325.13 1927.81 1330.72 1941.22 1338.27C1942.36 1338.93 1943.49 1339.59 1944.63 1340.26C1945.74 1340.91 1946.87 1341.58 1948.02 1342.24C1952.24 1344.93 1956.4 1347.9 1960.41 1350.99L1960.48 1351.04L1960.55 1351.1C1962.06 1352.18 1963.54 1353.33 1965.03 1354.54L1966.51 1355.77L1966.52 1355.78C1979.88 1366.97 1991.35 1380.48 2000.42 1395.62V1395.73L2001.13 1396.92C2010.48 1412.51 2017.29 1430.08 2020.83 1448.57L2020.83 1448.59L2020.83 1448.6C2022.93 1459.17 2024.02 1470.12 2024.02 1481.46V1644.32H1707.73V1318.59H1860.87Z" stroke="#F5F5F5" stroke-width="10"/>
<path d="M1865.87 880.826H2024.02V1206.55H1707.73V1043.59C1707.73 1029.48 1709.54 1015.73 1712.73 1002.7C1714.73 994.921 1717.19 987.44 1720.18 980.159L1720.19 980.145L1720.19 980.129C1722.17 975.224 1724.44 970.559 1726.84 965.903L1726.84 965.891C1730.38 958.992 1734.44 952.41 1739.1 946.318L1739.19 946.202L1739.27 946.079C1740.67 944.014 1742.18 942.12 1743.87 939.871C1750.19 931.799 1757.33 924.541 1765.22 917.911L1765.23 917.906C1767.22 916.23 1769.18 914.678 1771.19 913.233L1771.3 913.159L1771.4 913.081C1775.39 909.907 1779.52 906.957 1783.78 904.396L1783.87 904.342C1790.37 900.254 1797.26 896.707 1804.37 893.612C1811.44 890.534 1818.7 888.011 1826.26 885.95L1826.26 885.949C1838.88 882.685 1852.21 880.826 1865.87 880.826Z" stroke="#F5F5F5" stroke-width="10"/>
<path d="M2449.58 880.729V1043.69C2449.58 1057.81 2447.76 1071.58 2444.57 1084.61C2442.67 1092.36 2440.22 1099.82 2437.14 1107.19L2437.13 1107.21L2437.12 1107.24C2427.22 1131.63 2411.7 1152.91 2392.12 1169.34C2389.94 1171.07 2388.11 1172.62 2386.11 1174.04L2386.04 1174.1L2385.97 1174.15C2382 1177.22 2377.82 1180.12 2373.5 1182.95C2371.21 1184.36 2369.09 1185.64 2366.9 1186.81L2366.85 1186.83L2366.81 1186.86C2353.38 1194.42 2338.7 1200.01 2323.3 1203.18L2323.29 1203.18L2323.28 1203.19C2313.04 1205.33 2302.42 1206.45 2291.43 1206.45H2133.29V880.729H2449.58Z" stroke="#F5F5F5" stroke-width="10"/>
<path d="M2291.43 5C2305.1 5 2318.43 6.85849 2331.05 10.123V10.124C2338.6 12.1847 2345.87 14.7083 2352.94 17.7861C2360.03 20.8724 2366.84 24.4228 2373.46 28.5322L2373.49 28.5518L2373.52 28.5703C2377.79 31.1311 2381.92 34.0811 2385.91 37.2549L2386.01 37.333L2386.11 37.4072C2388.11 38.8375 2389.94 40.383 2392.12 42.1191C2399.97 48.617 2407.03 55.9691 2413.48 64.1035L2413.49 64.1084C2415.12 66.1586 2416.63 68.1722 2418.03 70.2529L2418.1 70.3564L2418.18 70.4551C2421.25 74.5496 2424.12 78.7994 2426.62 83.1104C2427.28 84.3136 2427.93 85.4911 2428.58 86.6475C2429.23 87.8304 2429.88 88.9923 2430.52 90.1748C2437.87 103.995 2443.31 119.123 2446.39 134.992L2446.4 135L2446.4 135.009C2448.49 145.576 2449.58 156.525 2449.58 167.861V330.722H2133.29V5H2291.43Z" stroke="#F5F5F5" stroke-width="10"/>
<path d="M2024.02 5V167.861C2024.02 179.198 2022.93 190.147 2020.83 200.714L2020.83 200.729L2020.83 200.744C2017.29 219.24 2010.48 236.804 2001.13 252.4L2000.42 253.588V253.692C1991.35 268.834 1979.88 282.346 1966.52 293.538L1966.51 293.545C1964.52 295.221 1962.57 296.774 1960.55 298.219L1960.48 298.271L1960.41 298.326C1956.4 301.42 1952.23 304.397 1948.01 307.084C1946.86 307.747 1945.73 308.407 1944.63 309.056C1943.49 309.728 1942.36 310.388 1941.22 311.046C1927.8 318.598 1913.13 324.188 1897.74 327.355L1897.72 327.359C1887.48 329.505 1876.86 330.626 1865.87 330.626H1860.87V330.722H1707.73V5H2024.02Z" stroke="#F5F5F5" stroke-width="10"/>
<path d="M2024.02 442.769V768.49H1865.87C1852.19 768.49 1838.85 766.627 1826.22 763.355C1818.68 761.297 1811.43 758.777 1804.37 755.705C1797.26 752.61 1790.37 749.062 1783.87 744.975L1783.83 744.947L1783.78 744.921L1782.98 744.436C1779 741.99 1775.14 739.212 1771.4 736.236L1771.3 736.157L1771.19 736.084L1770.44 735.537C1768.69 734.249 1766.97 732.877 1765.23 731.41L1765.22 731.406L1763.75 730.154C1756.44 723.864 1749.79 717.012 1743.87 709.444C1742.18 707.196 1740.67 705.302 1739.27 703.237L1739.19 703.115L1739.1 702.998L1738.23 701.85C1733.93 696.082 1730.16 689.893 1726.84 683.426L1726.84 683.414L1725.94 681.667C1723.88 677.588 1721.93 673.48 1720.19 669.188L1720.19 669.173L1720.18 669.157L1719.63 667.788C1716.88 660.939 1714.61 653.908 1712.73 646.613C1709.54 633.59 1707.73 619.836 1707.73 605.726V442.769H2024.02Z" stroke="#F5F5F5" stroke-width="10"/>
<path d="M2291.43 442.865C2302.42 442.865 2313.04 443.986 2323.28 446.132L2323.29 446.134L2323.3 446.136C2338.7 449.305 2353.38 454.899 2366.81 462.458L2366.85 462.484L2366.9 462.51C2369.09 463.679 2371.21 464.951 2373.5 466.365C2377.82 469.2 2382 472.101 2385.97 475.165L2386.04 475.22L2386.11 475.272C2388.11 476.701 2389.94 478.244 2392.12 479.978C2411.7 496.403 2427.22 517.691 2437.12 542.081L2437.13 542.105L2437.14 542.13C2440.22 549.497 2442.67 556.958 2444.57 564.708V564.709C2447.76 577.742 2449.58 591.507 2449.58 605.63V768.587H2133.29V442.865H2291.43Z" stroke="#F5F5F5" stroke-width="10"/>
<path d="M3301.09 1318.59V1481.46C3301.09 1492.79 3299.99 1503.74 3297.9 1514.31L3297.9 1514.32C3294.81 1530.19 3289.37 1545.32 3282.03 1559.14C3281.38 1560.32 3280.74 1561.49 3280.08 1562.67C3279.44 1563.83 3278.78 1565.01 3278.12 1566.22C3275.62 1570.52 3272.76 1574.77 3269.68 1578.86L3269.61 1578.96L3269.54 1579.06C3268.13 1581.14 3266.62 1583.16 3264.99 1585.21L3264.99 1585.21C3258.54 1593.35 3251.48 1600.7 3243.63 1607.2C3241.45 1608.93 3239.62 1610.48 3237.62 1611.91L3237.52 1611.98L3237.42 1612.06C3233.42 1615.24 3229.3 1618.19 3225.03 1620.75L3225 1620.77L3224.97 1620.78C3218.34 1624.89 3211.53 1628.44 3204.44 1631.53V1631.53C3197.38 1634.6 3190.13 1637.12 3182.59 1639.18C3169.96 1642.45 3156.62 1644.32 3142.94 1644.32H2984.79V1318.59H3301.09Z" stroke="#F5F5F5" stroke-width="10"/>
<path d="M2712.38 1318.59V1318.69H2717.38C2728.37 1318.69 2738.98 1319.81 2749.22 1321.96L2749.23 1321.96L2749.24 1321.96C2764.63 1325.13 2779.31 1330.72 2792.73 1338.27C2793.87 1338.93 2794.99 1339.59 2796.13 1340.26C2797.24 1340.91 2798.37 1341.58 2799.53 1342.24C2803.75 1344.93 2807.91 1347.9 2811.91 1350.99L2811.98 1351.04L2812.05 1351.1C2813.57 1352.18 2815.05 1353.33 2816.53 1354.54L2818.02 1355.77L2818.03 1355.78C2831.38 1366.97 2842.85 1380.48 2851.92 1395.62V1395.73L2852.63 1396.92C2861.98 1412.51 2868.79 1430.08 2872.33 1448.57L2872.34 1448.59L2872.34 1448.6C2874.43 1459.17 2875.52 1470.12 2875.52 1481.46V1644.32H2559.23V1318.59H2712.38Z" stroke="#F5F5F5" stroke-width="10"/>
<path d="M2717.38 880.826H2875.52V1206.55H2559.23V1043.59C2559.23 1029.48 2561.05 1015.73 2564.23 1002.7C2566.24 994.921 2568.69 987.44 2571.69 980.159L2571.69 980.145L2571.7 980.129C2573.68 975.224 2575.94 970.559 2578.34 965.903L2578.35 965.891C2581.88 958.992 2585.94 952.41 2590.61 946.318L2590.7 946.202L2590.78 946.079C2592.17 944.014 2593.68 942.12 2595.37 939.871C2601.69 931.799 2608.83 924.541 2616.73 917.911L2616.73 917.906C2618.73 916.23 2620.68 914.678 2622.7 913.233L2622.8 913.159L2622.9 913.081C2626.89 909.907 2631.02 906.957 2635.29 904.396L2635.33 904.369L2635.38 904.342C2641.88 900.254 2648.77 896.707 2655.88 893.612C2662.95 890.535 2670.21 888.01 2677.76 885.949C2690.39 882.685 2703.71 880.826 2717.38 880.826Z" stroke="#F5F5F5" stroke-width="10"/>
<path d="M3301.09 880.729V1043.69C3301.09 1057.81 3299.27 1071.57 3296.08 1084.6C3294.17 1092.35 3291.72 1099.82 3288.64 1107.19L3288.63 1107.21L3288.62 1107.24C3278.72 1131.63 3263.2 1152.91 3243.62 1169.34C3241.44 1171.07 3239.61 1172.62 3237.62 1174.04L3237.54 1174.1L3237.47 1174.15C3233.5 1177.22 3229.32 1180.12 3225.01 1182.95C3222.72 1184.36 3220.59 1185.64 3218.41 1186.81L3218.36 1186.83L3218.31 1186.86C3204.89 1194.42 3190.2 1200.01 3174.8 1203.18L3174.8 1203.18L3174.79 1203.19C3164.54 1205.33 3153.93 1206.45 3142.94 1206.45H2984.79V880.729H3301.09Z" stroke="#F5F5F5" stroke-width="10"/>
<path d="M3142.94 5C3156.61 5.00002 3169.93 6.85848 3182.55 10.123V10.124C3190.11 12.1847 3197.37 14.7083 3204.44 17.7861C3211.53 20.8724 3218.34 24.4228 3224.97 28.5322L3225 28.5518L3225.03 28.5703C3229.3 31.1311 3233.42 34.0811 3237.42 37.2549L3237.52 37.333L3237.62 37.4072C3239.62 38.8375 3241.45 40.3828 3243.63 42.1191C3251.48 48.617 3258.54 55.9691 3264.99 64.1035L3264.99 64.1084C3266.62 66.1584 3268.13 68.172 3269.54 70.2529L3269.61 70.3564L3269.68 70.4551C3272.75 74.5415 3275.62 78.7828 3278.11 83.085C3278.77 84.2974 3279.43 85.4828 3280.08 86.6475C3280.74 87.8305 3281.38 88.9924 3282.03 90.1748C3289.37 103.995 3294.81 119.123 3297.9 134.992L3297.9 135L3297.9 135.009C3299.99 145.576 3301.09 156.525 3301.09 167.861V330.722H2984.79V5H3142.94Z" stroke="#F5F5F5" stroke-width="10"/>
<path d="M2875.52 5V167.861C2875.52 179.198 2874.43 190.147 2872.34 200.714L2872.34 200.729L2872.33 200.744C2868.79 219.24 2861.98 236.804 2852.63 252.4L2851.92 253.588V253.692C2842.85 268.834 2831.38 282.346 2818.03 293.538L2818.02 293.545C2816.03 295.222 2814.07 296.774 2812.05 298.219L2811.98 298.271L2811.91 298.326C2807.9 301.42 2803.74 304.397 2799.51 307.084C2798.36 307.747 2797.24 308.407 2796.13 309.056C2794.99 309.728 2793.87 310.388 2792.73 311.046C2779.31 318.598 2764.63 324.188 2749.24 327.355L2749.23 327.357L2749.22 327.359C2738.98 329.505 2728.37 330.626 2717.38 330.626H2712.38V330.722H2559.23V5H2875.52Z" stroke="#F5F5F5" stroke-width="10"/>
<path d="M2875.52 442.769V768.49H2717.38C2703.7 768.49 2690.36 766.627 2677.72 763.355C2670.18 761.297 2662.93 758.777 2655.88 755.705C2648.77 752.61 2641.88 749.062 2635.38 744.975L2635.33 744.947L2635.29 744.921L2634.49 744.436C2630.5 741.99 2626.64 739.212 2622.9 736.236L2622.8 736.157L2622.7 736.084L2621.95 735.537C2620.19 734.249 2618.48 732.877 2616.73 731.41L2616.73 731.406L2615.26 730.154C2607.94 723.864 2601.3 717.012 2595.37 709.444C2593.68 707.196 2592.17 705.302 2590.78 703.237L2590.7 703.115L2590.61 702.998L2589.74 701.85C2585.44 696.082 2581.66 689.893 2578.35 683.426L2578.34 683.414L2577.45 681.667C2575.38 677.588 2573.43 673.48 2571.7 669.188L2571.69 669.173L2571.69 669.157L2571.13 667.788C2568.39 660.939 2566.11 653.909 2564.23 646.614C2561.05 633.591 2559.23 619.836 2559.23 605.726V442.769H2875.52Z" stroke="#F5F5F5" stroke-width="10"/>
<path d="M3142.94 442.865C3153.93 442.865 3164.54 443.986 3174.79 446.132L3174.8 446.134L3174.8 446.136C3190.2 449.305 3204.89 454.899 3218.31 462.458L3218.36 462.484L3218.41 462.51C3220.59 463.679 3222.72 464.951 3225.01 466.365C3229.33 469.2 3233.5 472.101 3237.47 475.165L3237.54 475.22L3237.62 475.272C3239.61 476.701 3241.44 478.244 3243.62 479.978C3263.2 496.403 3278.72 517.691 3288.62 542.081L3288.63 542.105L3288.64 542.13C3291.72 549.499 3294.17 556.962 3296.08 564.714C3299.27 577.745 3301.09 591.509 3301.09 605.63V768.587H2984.79V442.865H3142.94Z" stroke="#F5F5F5" stroke-width="10"/>
<path d="M1440.21 2632.57C1453.89 2632.57 1467.23 2634.44 1479.86 2637.71C1487.41 2639.77 1494.66 2642.29 1501.71 2645.36C1508.82 2648.45 1515.71 2652 1522.21 2656.09L1522.26 2656.12L1522.3 2656.14C1526.57 2658.71 1530.7 2661.66 1534.69 2664.83L1534.79 2664.91L1534.89 2664.98C1536.91 2666.43 1538.86 2667.98 1540.85 2669.65L1540.86 2669.66C1548.27 2675.88 1555.02 2682.66 1561.04 2690.14L1562.24 2691.65C1563.92 2693.89 1565.42 2695.77 1566.81 2697.83L1566.89 2697.95L1566.98 2698.07C1571.65 2704.16 1575.71 2710.74 1579.24 2717.64L1579.25 2717.65C1581.65 2722.31 1583.91 2726.97 1585.89 2731.88L1585.9 2731.89L1585.9 2731.91C1588.9 2739.19 1591.35 2746.67 1593.36 2754.45C1596.54 2767.47 1598.36 2781.23 1598.36 2795.34V2958.3H1282.07V2632.57H1440.21Z" stroke="#F5F5F5" stroke-width="10"/>
<path d="M1172.79 2632.48V2958.2H1014.65C1003.66 2958.2 993.046 2957.08 982.802 2954.93L982.793 2954.93L982.784 2954.93L981.343 2954.63C966.469 2951.41 952.28 2945.93 939.276 2938.61L939.229 2938.58L939.182 2938.56L938.357 2938.11C936.458 2937.06 934.581 2935.94 932.578 2934.7C928.264 2931.86 924.087 2928.97 920.116 2925.9L920.045 2925.85L919.972 2925.79L919.223 2925.25C917.508 2923.97 915.871 2922.6 913.968 2921.09C894.387 2904.66 878.867 2883.37 868.968 2858.98L868.957 2858.96L868.947 2858.94C866.058 2852.03 863.725 2845.04 861.874 2837.8L861.511 2836.35C858.322 2823.32 856.504 2809.56 856.504 2795.44V2632.48H1172.79Z" stroke="#F5F5F5" stroke-width="10"/>
<path d="M1014.65 1756.75H1172.79V2082.47H856.504V1919.61C856.504 1908.27 857.596 1897.32 859.687 1886.76L859.688 1886.75L859.689 1886.74C862.777 1870.85 868.228 1855.71 875.586 1841.88L875.585 1841.88C876.221 1840.71 876.86 1839.56 877.509 1838.4C878.148 1837.24 878.799 1836.07 879.451 1834.87C881.953 1830.56 884.828 1826.3 887.906 1822.2L887.98 1822.1L888.051 1822C889.458 1819.92 890.967 1817.91 892.598 1815.86L892.602 1815.85C899.053 1807.72 906.113 1800.36 913.96 1793.87C916.142 1792.13 917.973 1790.59 919.972 1789.16L920.074 1789.08L920.174 1789C924.166 1785.83 928.293 1782.88 932.56 1780.32L932.591 1780.3L932.621 1780.28C939.248 1776.17 946.058 1772.62 953.147 1769.53C960.218 1766.46 967.482 1763.93 975.038 1761.87L975.037 1761.87C987.658 1758.61 1000.98 1756.75 1014.65 1756.75Z" stroke="#F5F5F5" stroke-width="10"/>
<path d="M1598.36 1756.75V2082.47H1445.21V2082.37H1440.21C1429.22 2082.37 1418.61 2081.25 1408.36 2079.11L1408.35 2079.1C1392.96 2075.94 1378.28 2070.35 1364.86 2062.79C1363.72 2062.14 1362.6 2061.48 1361.45 2060.8C1360.35 2060.15 1359.22 2059.49 1358.06 2058.82C1353.84 2056.14 1349.68 2053.16 1345.68 2050.07L1345.61 2050.02L1345.53 2049.97C1343.52 2048.52 1341.56 2046.97 1339.57 2045.29L1339.56 2045.29L1338.28 2044.2C1325.47 2033.23 1314.45 2020.1 1305.67 2005.44V2005.34L1304.96 2004.15C1295.61 1988.55 1288.8 1970.99 1285.25 1952.49L1285.25 1952.48L1285.25 1952.46L1284.87 1950.48C1283.03 1940.52 1282.07 1930.24 1282.07 1919.61V1756.75H1598.36Z" stroke="#F5F5F5" stroke-width="10"/>
<path d="M1598.36 2194.52V2357.47C1598.36 2371.58 1596.54 2385.34 1593.36 2398.36C1591.35 2406.14 1588.9 2413.62 1585.9 2420.91L1585.9 2420.92L1585.89 2420.94C1583.91 2425.84 1581.65 2430.51 1579.25 2435.16L1579.24 2435.17C1575.71 2442.07 1571.65 2448.65 1566.98 2454.75L1566.89 2454.86L1566.81 2454.99C1565.41 2457.05 1563.9 2458.94 1562.21 2461.19C1555.9 2469.26 1548.76 2476.52 1540.86 2483.15L1540.85 2483.16C1538.86 2484.83 1536.91 2486.39 1534.89 2487.83L1534.79 2487.91L1534.69 2487.98C1530.7 2491.16 1526.57 2494.11 1522.3 2496.67L1522.26 2496.7L1522.21 2496.72C1515.71 2500.81 1508.82 2504.36 1501.71 2507.45C1494.66 2510.53 1487.41 2513.04 1479.86 2515.1C1467.23 2518.37 1453.89 2520.24 1440.21 2520.24H1282.07V2194.52H1598.36Z" stroke="#F5F5F5" stroke-width="10"/>
<path d="M1014.65 2194.61H1172.79V2520.34H856.504V2357.38C856.504 2343.26 858.322 2329.49 861.511 2316.46C863.417 2308.71 865.865 2301.25 868.947 2293.88L868.957 2293.85L868.968 2293.83C878.867 2269.44 894.386 2248.15 913.968 2231.73C916.146 2229.99 917.976 2228.45 919.972 2227.02L920.045 2226.97L920.116 2226.91C924.081 2223.85 928.251 2220.96 932.559 2218.13C934.858 2216.71 936.99 2215.43 939.182 2214.26L939.229 2214.23L939.276 2214.21C952.7 2206.65 967.385 2201.05 982.784 2197.88L982.802 2197.88C993.046 2195.73 1003.66 2194.61 1014.65 2194.61Z" stroke="#F5F5F5" stroke-width="10"/>
<path d="M588.708 2632.57C602.388 2632.57 615.727 2634.44 628.359 2637.71C635.901 2639.77 643.152 2642.29 650.21 2645.36C657.319 2648.45 664.209 2652 670.71 2656.09L670.754 2656.12L670.798 2656.14C675.064 2658.71 679.192 2661.66 683.184 2664.83L683.283 2664.91L683.386 2664.98C685.404 2666.43 687.359 2667.98 689.351 2669.65L689.355 2669.66C696.767 2675.88 703.515 2682.66 709.539 2690.14L710.734 2691.65C712.415 2693.89 713.917 2695.77 715.307 2697.83L715.39 2697.95L715.479 2698.07C720.144 2704.16 724.203 2710.74 727.736 2717.64L727.742 2717.65C730.143 2722.31 732.407 2726.97 734.386 2731.88L734.393 2731.89L734.398 2731.91C737.392 2739.19 739.848 2746.67 741.854 2754.45C745.038 2767.47 746.854 2781.23 746.854 2795.34V2958.3H430.562V2632.57H588.708Z" stroke="#F5F5F5" stroke-width="10"/>
<path d="M321.291 2632.48V2958.2H163.146C152.156 2958.2 141.542 2957.08 131.298 2954.93L131.289 2954.93L131.28 2954.93L129.839 2954.63C114.965 2951.41 100.776 2945.93 87.7725 2938.61L87.7256 2938.58L87.6777 2938.56L86.8535 2938.11C84.9539 2937.06 83.0774 2935.94 81.0742 2934.7C76.7598 2931.86 72.5828 2928.97 68.6123 2925.9L68.541 2925.85L68.4678 2925.79L67.7188 2925.25C66.0043 2923.97 64.367 2922.6 62.4639 2921.09C42.8827 2904.66 27.3634 2883.37 17.4639 2858.98L17.4531 2858.96L17.4434 2858.94L16.873 2857.55C14.059 2850.64 11.7964 2843.63 10.0098 2836.37C6.81807 2823.23 5.00004 2809.46 5 2795.34V2632.48H321.291Z" stroke="#F5F5F5" stroke-width="10"/>
<path d="M163.146 1756.75H321.291V2082.47H5V1919.61C5 1908.37 6.09254 1897.32 8.18262 1886.76L8.18457 1886.75L8.18555 1886.74C11.2734 1870.85 16.7245 1855.71 24.082 1841.88L24.0811 1841.88C24.717 1840.71 25.3557 1839.56 26.0049 1838.4C26.6443 1837.24 27.2947 1836.07 27.9473 1834.87C30.4486 1830.56 33.3236 1826.3 36.4023 1822.2L36.4766 1822.1L36.5469 1822C37.9537 1819.92 39.4635 1817.91 41.0938 1815.86L41.0977 1815.85C47.5495 1807.72 54.6095 1800.36 62.4561 1793.87C64.6377 1792.13 66.4694 1790.59 68.4678 1789.16L68.5703 1789.08L68.6699 1789C72.6618 1785.83 76.7891 1782.88 81.0557 1780.32L81.0869 1780.3L81.1172 1780.28C87.7436 1776.17 94.5536 1772.62 101.644 1769.53C108.714 1766.46 115.978 1763.93 123.534 1761.87L123.533 1761.87C136.154 1758.61 149.479 1756.75 163.146 1756.75Z" stroke="#F5F5F5" stroke-width="10"/>
<path d="M746.854 1756.75V2082.47H593.708V2082.37H588.708C577.719 2082.37 567.104 2081.25 556.86 2079.11L556.843 2079.1C541.452 2075.94 526.775 2070.35 513.357 2062.79C512.216 2062.14 511.094 2061.48 509.95 2060.8C508.841 2060.15 507.712 2059.49 506.558 2058.82C502.336 2056.14 498.179 2053.16 494.175 2050.07L494.104 2050.02L494.03 2049.97C492.012 2048.52 490.057 2046.97 488.065 2045.29L488.058 2045.29L486.779 2044.2C473.97 2033.23 462.943 2020.1 454.163 2005.44V2005.34L453.452 2004.15C444.103 1988.55 437.292 1970.99 433.751 1952.49L433.748 1952.48L433.745 1952.46L433.365 1950.48C431.523 1940.52 430.563 1930.24 430.562 1919.61V1756.75H746.854Z" stroke="#F5F5F5" stroke-width="10"/>
<path d="M746.854 2194.52V2357.47C746.854 2371.58 745.038 2385.34 741.854 2398.36C739.848 2406.14 737.392 2413.62 734.398 2420.91L734.393 2420.92L734.386 2420.94C732.407 2425.84 730.143 2430.51 727.742 2435.16L727.736 2435.17C724.203 2442.07 720.144 2448.65 715.479 2454.75L715.39 2454.86L715.307 2454.99C713.911 2457.05 712.4 2458.94 710.71 2461.19C704.394 2469.26 697.252 2476.52 689.355 2483.15L689.351 2483.16C687.359 2484.83 685.404 2486.39 683.386 2487.83L683.283 2487.91L683.184 2487.98C679.192 2491.16 675.064 2494.11 670.798 2496.67L670.754 2496.7L670.71 2496.72C664.209 2500.81 657.319 2504.36 650.21 2507.45C643.152 2510.53 635.902 2513.04 628.36 2515.1C615.727 2518.37 602.389 2520.24 588.708 2520.24H430.562V2194.52H746.854Z" stroke="#F5F5F5" stroke-width="10"/>
<path d="M163.146 2194.61H321.291V2520.34H5V2357.47C5 2343.35 6.81706 2329.58 10.0088 2316.45C11.9146 2308.7 14.3628 2301.24 17.4434 2293.88L17.4531 2293.85L17.4639 2293.83C27.3635 2269.44 42.8824 2248.15 62.4639 2231.73C64.642 2229.99 66.4719 2228.45 68.4678 2227.02L68.541 2226.97L68.6123 2226.91C72.577 2223.85 76.7469 2220.96 81.0547 2218.13C83.3541 2216.71 85.4864 2215.43 87.6777 2214.26L87.7256 2214.23L87.7725 2214.21C101.196 2206.65 115.881 2201.05 131.28 2197.88L131.298 2197.88C141.542 2195.73 152.156 2194.61 163.146 2194.61Z" stroke="#F5F5F5" stroke-width="10"/>
<path d="M1865.87 2632.29H2024.02V2958.01H1707.73V2795.05C1707.73 2780.94 1709.54 2767.19 1712.73 2754.16C1714.73 2746.38 1717.19 2738.9 1720.18 2731.62L1720.19 2731.6L1720.19 2731.59C1722.17 2726.68 1724.44 2722.02 1726.84 2717.36L1726.84 2717.35C1730.38 2710.45 1734.44 2703.87 1739.1 2697.78L1739.19 2697.66L1739.27 2697.54C1740.66 2695.48 1742.17 2693.6 1743.85 2691.36C1750.17 2683.28 1757.32 2676.01 1765.22 2669.37L1765.23 2669.37C1767.22 2667.69 1769.18 2666.14 1771.19 2664.69L1771.3 2664.62L1771.4 2664.54C1775.39 2661.37 1779.52 2658.42 1783.78 2655.86L1783.83 2655.83L1783.87 2655.8C1790.37 2651.71 1797.26 2648.17 1804.37 2645.07C1811.43 2642 1818.68 2639.48 1826.22 2637.42C1838.85 2634.15 1852.19 2632.29 1865.87 2632.29Z" stroke="#F5F5F5" stroke-width="10"/>
<path d="M2449.58 2632.19V2795.15C2449.58 2809.27 2447.76 2823.04 2444.57 2836.07C2442.67 2843.82 2440.22 2851.28 2437.14 2858.65L2437.13 2858.67L2437.12 2858.7C2427.22 2883.09 2411.7 2904.37 2392.12 2920.8C2389.94 2922.53 2388.11 2924.08 2386.11 2925.5L2386.04 2925.56L2385.97 2925.61C2382 2928.68 2377.82 2931.58 2373.5 2934.41C2371.21 2935.82 2369.09 2937.1 2366.9 2938.27L2366.85 2938.29L2366.81 2938.32C2353.38 2945.88 2338.7 2951.47 2323.3 2954.64L2323.29 2954.64L2323.28 2954.64C2313.04 2956.79 2302.42 2957.91 2291.43 2957.91H2133.29V2632.19H2449.58Z" stroke="#F5F5F5" stroke-width="10"/>
<path d="M2291.43 1756.46C2305.1 1756.46 2318.43 1758.32 2331.05 1761.58V1761.58C2338.6 1763.64 2345.87 1766.17 2352.94 1769.25C2360.03 1772.33 2366.84 1775.88 2373.46 1779.99L2373.49 1780.01L2373.52 1780.03C2377.79 1782.59 2381.92 1785.54 2385.91 1788.71L2386.01 1788.79L2386.11 1788.87C2388.11 1790.3 2389.94 1791.84 2392.12 1793.58C2399.97 1800.08 2407.03 1807.43 2413.48 1815.56L2413.49 1815.57C2415.12 1817.62 2416.63 1819.63 2418.03 1821.71L2418.1 1821.82L2418.18 1821.91C2421.26 1826.01 2424.13 1830.27 2426.63 1834.58C2427.28 1835.78 2427.94 1836.95 2428.58 1838.11C2429.23 1839.29 2429.88 1840.45 2430.52 1841.63C2437.87 1855.45 2443.31 1870.58 2446.39 1886.45L2446.4 1886.46L2446.4 1886.47C2448.49 1897.03 2449.58 1907.98 2449.58 1919.32V2082.18H2133.29V1756.46H2291.43Z" stroke="#F5F5F5" stroke-width="10"/>
<path d="M2024.02 1756.46V1919.32C2024.02 1930.66 2022.93 1941.61 2020.83 1952.17L2020.83 1952.19L2020.83 1952.2C2017.29 1970.7 2010.48 1988.26 2001.13 2003.86L2000.42 2005.05V2005.15C1991.35 2020.29 1979.88 2033.8 1966.52 2045L1966.51 2045C1964.52 2046.68 1962.57 2048.23 1960.55 2049.68L1960.48 2049.73L1960.41 2049.79C1956.4 2052.88 1952.24 2055.85 1948.02 2058.53C1946.87 2059.2 1945.74 2059.86 1944.63 2060.52C1943.49 2061.19 1942.36 2061.85 1941.22 2062.5C1927.8 2070.06 1913.13 2075.65 1897.74 2078.81L1897.72 2078.82C1887.48 2080.96 1876.86 2082.08 1865.87 2082.08H1860.87V2082.18H1707.73V1756.46H2024.02Z" stroke="#F5F5F5" stroke-width="10"/>
<path d="M2024.02 2194.23V2519.95H1865.87C1852.19 2519.95 1838.85 2518.09 1826.22 2514.81C1818.68 2512.76 1811.43 2510.24 1804.37 2507.16C1797.26 2504.07 1790.37 2500.52 1783.87 2496.43L1783.83 2496.41L1783.78 2496.38L1782.98 2495.89C1779 2493.45 1775.14 2490.67 1771.4 2487.7L1771.3 2487.62L1771.19 2487.54L1770.44 2487C1768.69 2485.71 1766.97 2484.34 1765.23 2482.87L1765.22 2482.87L1763.75 2481.61C1756.44 2475.32 1749.79 2468.47 1743.87 2460.9C1742.18 2458.65 1740.67 2456.76 1739.27 2454.7L1739.19 2454.57L1739.1 2454.46L1738.23 2453.31C1733.93 2447.54 1730.16 2441.35 1726.84 2434.88L1726.84 2434.87L1725.94 2433.13C1723.88 2429.05 1721.93 2424.94 1720.19 2420.65L1720.19 2420.63L1720.18 2420.62L1719.63 2419.25C1716.88 2412.4 1714.61 2405.37 1712.73 2398.07C1709.54 2385.05 1707.73 2371.29 1707.73 2357.18V2194.23H2024.02Z" stroke="#F5F5F5" stroke-width="10"/>
<path d="M2291.43 2194.32C2302.42 2194.32 2313.04 2195.45 2323.28 2197.59L2323.29 2197.59L2323.3 2197.59C2338.7 2200.76 2353.38 2206.36 2366.81 2213.92L2366.85 2213.94L2366.9 2213.97C2369.09 2215.14 2371.23 2216.42 2373.52 2217.84C2377.83 2220.67 2382 2223.56 2385.97 2226.62L2386.04 2226.68L2386.11 2226.73C2388.11 2228.16 2389.94 2229.7 2392.12 2231.44C2411.7 2247.86 2427.22 2269.15 2437.12 2293.54L2437.13 2293.56L2437.14 2293.59C2440.22 2300.96 2442.67 2308.42 2444.57 2316.17V2316.17C2447.76 2329.2 2449.58 2342.97 2449.58 2357.09V2520.05H2133.29V2194.32H2291.43Z" stroke="#F5F5F5" stroke-width="10"/>
<path d="M2717.38 2632.29H2875.52V2958.01H2559.23V2795.05C2559.23 2780.94 2561.05 2767.18 2564.23 2754.16C2566.24 2746.38 2568.69 2738.9 2571.69 2731.62L2571.69 2731.6L2571.7 2731.59C2573.68 2726.68 2575.94 2722.02 2578.34 2717.36L2578.35 2717.35C2581.88 2710.45 2585.94 2703.87 2590.61 2697.78L2590.7 2697.66L2590.78 2697.54C2592.17 2695.48 2593.67 2693.6 2595.35 2691.36C2601.67 2683.28 2608.82 2676.01 2616.73 2669.37L2616.73 2669.37C2618.73 2667.69 2620.68 2666.14 2622.7 2664.69L2622.8 2664.62L2622.9 2664.54C2626.89 2661.37 2631.02 2658.42 2635.29 2655.86L2635.33 2655.83L2635.38 2655.8C2641.88 2651.71 2648.77 2648.17 2655.88 2645.07C2662.93 2642 2670.18 2639.48 2677.72 2637.42C2690.36 2634.15 2703.7 2632.29 2717.38 2632.29Z" stroke="#F5F5F5" stroke-width="10"/>
<path d="M3301.09 2632.19V2795.15C3301.09 2809.27 3299.27 2823.03 3296.08 2836.06C3294.17 2843.81 3291.72 2851.28 3288.64 2858.65L3288.63 2858.67L3288.62 2858.7C3278.72 2883.08 3263.2 2904.37 3243.62 2920.8C3241.44 2922.53 3239.61 2924.08 3237.62 2925.5L3237.54 2925.56L3237.47 2925.61C3233.5 2928.68 3229.32 2931.58 3225.01 2934.41C3222.72 2935.82 3220.59 2937.1 3218.41 2938.27L3218.36 2938.29L3218.31 2938.32C3204.89 2945.88 3190.2 2951.47 3174.8 2954.64L3174.8 2954.64L3174.79 2954.64C3164.54 2956.79 3153.93 2957.91 3142.94 2957.91H2984.79V2632.19H3301.09Z" stroke="#F5F5F5" stroke-width="10"/>
<path d="M3142.94 1756.46C3156.61 1756.46 3169.93 1758.32 3182.55 1761.58V1761.58C3190.11 1763.64 3197.37 1766.17 3204.44 1769.25C3211.53 1772.33 3218.34 1775.88 3224.97 1779.99L3225 1780.01L3225.03 1780.03C3229.3 1782.59 3233.42 1785.54 3237.42 1788.71L3237.52 1788.79L3237.62 1788.87C3239.62 1790.3 3241.45 1791.84 3243.63 1793.58C3251.48 1800.08 3258.54 1807.43 3264.99 1815.56L3264.99 1815.57C3266.62 1817.62 3268.13 1819.63 3269.54 1821.71L3269.61 1821.82L3269.68 1821.91C3272.76 1826 3275.62 1830.25 3278.12 1834.56C3278.78 1835.77 3279.44 1836.95 3280.08 1838.11C3280.74 1839.29 3281.38 1840.45 3282.03 1841.63C3289.37 1855.45 3294.81 1870.58 3297.9 1886.45L3297.9 1886.46L3297.9 1886.47C3299.99 1897.03 3301.09 1907.98 3301.09 1919.32V2082.18H2984.79V1756.46H3142.94Z" stroke="#F5F5F5" stroke-width="10"/>
<path d="M2875.52 1756.46V1919.32C2875.52 1930.66 2874.43 1941.61 2872.34 1952.17L2872.34 1952.19L2872.33 1952.2C2868.79 1970.7 2861.98 1988.26 2852.63 2003.86L2851.92 2005.05V2005.15C2842.85 2020.29 2831.38 2033.8 2818.03 2045L2818.02 2045C2816.03 2046.68 2814.07 2048.23 2812.05 2049.68L2811.98 2049.73L2811.91 2049.79C2807.91 2052.88 2803.75 2055.85 2799.53 2058.53C2798.37 2059.2 2797.24 2059.86 2796.13 2060.52C2794.99 2061.19 2793.87 2061.85 2792.73 2062.5C2779.31 2070.06 2764.63 2075.65 2749.24 2078.81L2749.23 2078.82L2749.22 2078.82C2738.98 2080.96 2728.37 2082.08 2717.38 2082.08H2712.38V2082.18H2559.23V1756.46H2875.52Z" stroke="#F5F5F5" stroke-width="10"/>
<path d="M2875.52 2194.23V2519.95H2717.38C2703.7 2519.95 2690.36 2518.09 2677.72 2514.81C2670.18 2512.76 2662.93 2510.24 2655.88 2507.16C2648.77 2504.07 2641.88 2500.52 2635.38 2496.43L2635.33 2496.41L2635.29 2496.38L2634.49 2495.89C2630.5 2493.45 2626.64 2490.67 2622.9 2487.7L2622.8 2487.62L2622.7 2487.54L2621.95 2487C2620.19 2485.71 2618.48 2484.34 2616.73 2482.87L2616.73 2482.87L2615.26 2481.61C2607.94 2475.32 2601.3 2468.47 2595.37 2460.9C2593.68 2458.65 2592.17 2456.76 2590.78 2454.7L2590.7 2454.57L2590.61 2454.46L2589.74 2453.31C2585.44 2447.54 2581.66 2441.35 2578.35 2434.88L2578.34 2434.87L2577.45 2433.13C2575.38 2429.05 2573.43 2424.94 2571.7 2420.65L2571.69 2420.63L2571.69 2420.62L2571.13 2419.25C2568.39 2412.4 2566.11 2405.37 2564.23 2398.07C2561.05 2385.05 2559.23 2371.3 2559.23 2357.18V2194.23H2875.52Z" stroke="#F5F5F5" stroke-width="10"/>
<path d="M3142.94 2194.32C3153.93 2194.32 3164.54 2195.45 3174.79 2197.59L3174.8 2197.59L3174.8 2197.59C3190.2 2200.76 3204.89 2206.36 3218.31 2213.92L3218.36 2213.94L3218.41 2213.97C3220.6 2215.14 3222.73 2216.42 3225.03 2217.84C3229.34 2220.67 3233.51 2223.56 3237.47 2226.62L3237.54 2226.68L3237.62 2226.73C3239.61 2228.16 3241.44 2229.7 3243.62 2231.44C3263.2 2247.86 3278.72 2269.15 3288.62 2293.54L3288.63 2293.56L3288.64 2293.59C3291.72 2300.96 3294.17 2308.42 3296.08 2316.17C3299.27 2329.2 3301.09 2342.97 3301.09 2357.09V2520.05H2984.79V2194.32H3142.94Z" stroke="#F5F5F5" stroke-width="10"/>
<path d="M4577.97 1318.88V1644.61H4419.82C4406.14 1644.61 4392.8 1642.74 4380.17 1639.47C4372.63 1637.41 4365.38 1634.89 4358.32 1631.82C4351.23 1628.73 4344.42 1625.18 4337.79 1621.07L4337.76 1621.05L4337.73 1621.04L4336.93 1620.55C4332.95 1618.11 4329.09 1615.33 4325.35 1612.35L4325.25 1612.27L4325.14 1612.2L4324.39 1611.65C4322.68 1610.38 4321.04 1609 4319.13 1607.49C4311.28 1600.99 4304.22 1593.64 4297.77 1585.5L4297.77 1585.5C4296.14 1583.45 4294.63 1581.43 4293.22 1579.35L4293.15 1579.25L4293.08 1579.15L4291.93 1577.6C4289.28 1573.98 4286.81 1570.25 4284.62 1566.48C4283.97 1565.28 4283.32 1564.11 4282.68 1562.96C4282.35 1562.37 4282.03 1561.78 4281.7 1561.19L4280.73 1559.43C4273.39 1545.61 4267.95 1530.48 4264.86 1514.61L4264.86 1514.61L4264.86 1514.6L4264.48 1512.61C4262.64 1502.66 4261.68 1492.37 4261.68 1481.75V1318.88H4577.97Z" stroke="#F5F5F5" stroke-width="10"/>
<path d="M5003.53 1318.88V1644.61H4687.24V1481.75C4687.24 1470.41 4688.33 1459.46 4690.42 1448.89L4690.42 1448.88L4690.43 1448.86C4693.97 1430.37 4700.78 1412.8 4710.13 1397.21L4710.84 1396.02V1395.91C4719.91 1380.77 4731.38 1367.26 4744.73 1356.07L4744.74 1356.06C4746.73 1354.38 4748.69 1352.83 4750.71 1351.39L4750.78 1351.33L4750.85 1351.28C4754.86 1348.19 4759.01 1345.22 4763.23 1342.53C4764.39 1341.87 4765.52 1341.2 4766.63 1340.55C4767.77 1339.88 4768.89 1339.22 4770.03 1338.56C4783.45 1331.01 4798.13 1325.42 4813.52 1322.25L4813.53 1322.25L4813.54 1322.25C4823.78 1320.1 4834.39 1318.98 4845.38 1318.98H4850.38V1318.88H5003.53Z" stroke="#F5F5F5" stroke-width="10"/>
<path d="M4845.38 881.115C4859.05 881.115 4872.37 882.974 4885 886.238V886.239C4892.55 888.3 4899.82 890.824 4906.89 893.901C4914 896.996 4920.89 900.543 4927.39 904.631L4927.47 904.686C4931.74 907.246 4935.87 910.196 4939.86 913.37L4939.96 913.448L4940.06 913.522C4942.08 914.968 4944.04 916.519 4946.03 918.195L4946.03 918.2C4953.93 924.83 4961.07 932.088 4967.39 940.16C4969.08 942.409 4970.59 944.303 4971.98 946.368L4972.07 946.491L4972.16 946.607C4976.82 952.699 4980.88 959.281 4984.41 966.18L4984.42 966.192C4986.82 970.848 4989.08 975.513 4991.06 980.418L4991.07 980.434L4991.07 980.448C4994.07 987.729 4996.52 995.211 4998.53 1002.99C5001.71 1016.02 5003.53 1029.77 5003.53 1043.88V1206.84H4687.24V881.115H4845.38Z" stroke="#F5F5F5" stroke-width="10"/>
<path d="M4577.97 881.019V1206.74H4419.82C4408.83 1206.74 4398.22 1205.62 4387.97 1203.47L4387.96 1203.47L4386.51 1203.17C4371.64 1199.95 4357.45 1194.47 4344.45 1187.15L4344.4 1187.12L4344.35 1187.1L4343.53 1186.65C4341.63 1185.6 4339.75 1184.48 4337.75 1183.24C4333.44 1180.4 4329.26 1177.51 4325.29 1174.44L4325.22 1174.39L4325.14 1174.33L4324.39 1173.79C4322.68 1172.51 4321.04 1171.14 4319.14 1169.63C4299.56 1153.2 4284.04 1131.91 4274.14 1107.52L4274.13 1107.5L4274.12 1107.48L4273.55 1106.09C4270.73 1099.17 4268.47 1092.16 4266.68 1084.9C4263.49 1071.86 4261.68 1058.1 4261.68 1043.98V881.019H4577.97Z" stroke="#F5F5F5" stroke-width="10"/>
<path d="M4419.82 5.28906H4577.97V331.011H4261.68V168.15C4261.68 156.814 4262.77 145.865 4264.86 135.298L4264.86 135.289L4264.86 135.281C4267.95 119.412 4273.39 104.285 4280.73 90.4639C4281.38 89.2813 4282.02 88.1197 4282.68 86.9365C4283.32 85.7803 4283.98 84.6026 4284.63 83.3994C4287.13 79.0883 4290 74.8388 4293.08 70.7441L4293.15 70.6455L4293.22 70.542C4294.63 68.4611 4296.14 66.4478 4297.77 64.3975L4297.77 64.3926C4304.23 56.2583 4311.29 48.906 4319.13 42.4082C4321.31 40.672 4323.15 39.1267 4325.14 37.6963L4325.25 37.6221L4325.35 37.5439C4329.34 34.3702 4333.46 31.4202 4337.73 28.8594L4337.76 28.8408L4337.79 28.8213C4344.42 24.7118 4351.23 21.1615 4358.32 18.0752C4365.39 14.9974 4372.65 12.4728 4380.21 10.4121C4392.83 7.14743 4406.16 5.28906 4419.82 5.28906Z" stroke="#F5F5F5" stroke-width="10"/>
<path d="M5003.53 5.28906V331.011H4850.38V330.915H4845.38C4834.39 330.915 4823.78 329.794 4813.54 327.648L4813.52 327.645C4798.13 324.477 4783.45 318.887 4770.03 311.335C4768.89 310.677 4767.77 310.017 4766.63 309.345C4765.52 308.693 4764.39 308.03 4763.23 307.364C4759.01 304.68 4754.86 301.705 4750.85 298.615L4750.78 298.561L4750.71 298.508C4748.69 297.063 4746.73 295.511 4744.74 293.834L4744.73 293.827L4743.46 292.744C4730.65 281.767 4719.62 268.637 4710.84 253.981V253.877L4710.13 252.689C4700.78 237.093 4693.97 219.529 4690.43 201.033L4690.42 201.018L4690.42 201.003L4690.04 199.017C4688.2 189.065 4687.24 178.778 4687.24 168.15V5.28906H5003.53Z" stroke="#F5F5F5" stroke-width="10"/>
<path d="M5003.53 443.058V606.015C5003.53 620.125 5001.71 633.88 4998.53 646.902C4996.52 654.684 4994.07 662.165 4991.07 669.446L4991.07 669.462L4991.06 669.478C4989.33 673.769 4987.38 677.877 4985.31 681.956L4984.42 683.703L4984.41 683.715C4980.88 690.613 4976.82 697.195 4972.16 703.287L4972.07 703.404L4971.98 703.526C4970.59 705.591 4969.08 707.485 4967.39 709.733C4961.07 717.806 4953.93 725.065 4946.03 731.695L4946.03 731.699C4944.04 733.376 4942.08 734.928 4940.06 736.373L4939.96 736.446L4939.86 736.525C4935.87 739.699 4931.74 742.649 4927.47 745.21L4927.43 745.236L4927.39 745.264C4920.89 749.351 4914 752.9 4906.89 755.994C4899.83 759.066 4892.58 761.586 4885.04 763.645C4872.4 766.916 4859.07 768.779 4845.38 768.779H4687.24V443.058H5003.53Z" stroke="#F5F5F5" stroke-width="10"/>
<path d="M4419.82 443.154H4577.97V768.876H4261.68V605.919C4261.68 591.796 4263.49 578.03 4266.68 564.997C4268.59 557.247 4271.04 549.786 4274.12 542.419L4274.13 542.395L4274.14 542.37C4284.04 517.98 4299.56 496.692 4319.14 480.267C4321.32 478.533 4323.15 476.99 4325.14 475.562L4325.22 475.509L4325.29 475.454C4329.26 472.39 4333.44 469.489 4337.75 466.654C4340.04 465.24 4342.17 463.968 4344.35 462.799L4344.4 462.773L4344.45 462.747C4357.87 455.188 4372.56 449.593 4387.96 446.424L4387.96 446.423L4387.97 446.421C4398.22 444.276 4408.83 443.154 4419.82 443.154Z" stroke="#F5F5F5" stroke-width="10"/>
<path d="M3726.46 1318.88V1644.61H3568.32C3554.64 1644.61 3541.3 1642.74 3528.67 1639.47C3521.12 1637.41 3513.87 1634.89 3506.82 1631.82C3499.73 1628.73 3492.92 1625.18 3486.29 1621.07L3486.26 1621.05L3486.23 1621.04L3485.43 1620.55C3481.45 1618.11 3477.58 1615.33 3473.84 1612.35L3473.74 1612.27L3473.64 1612.2L3472.89 1611.65C3471.17 1610.38 3469.53 1609 3467.63 1607.49C3459.78 1600.99 3452.72 1593.64 3446.27 1585.5L3446.27 1585.5C3444.64 1583.45 3443.12 1581.43 3441.72 1579.35L3441.65 1579.25L3441.57 1579.15L3440.43 1577.6C3437.78 1573.98 3435.31 1570.25 3433.12 1566.48C3432.47 1565.28 3431.82 1564.11 3431.18 1562.96C3430.85 1562.37 3430.52 1561.78 3430.2 1561.19L3429.23 1559.43C3421.89 1545.61 3416.44 1530.48 3413.36 1514.61L3413.35 1514.6L3412.97 1512.61C3411.13 1502.66 3410.17 1492.37 3410.17 1481.75V1318.88H3726.46Z" stroke="#F5F5F5" stroke-width="10"/>
<path d="M4151.94 1318.88V1644.61H3835.64V1481.75C3835.64 1470.41 3836.74 1459.46 3838.83 1448.89L3838.83 1448.88L3838.83 1448.86C3842.37 1430.37 3849.18 1412.8 3858.53 1397.21L3859.24 1396.02V1395.91C3868.32 1380.77 3879.78 1367.26 3893.14 1356.07L3893.15 1356.06C3895.14 1354.38 3897.09 1352.83 3899.11 1351.39L3899.19 1351.33L3899.26 1351.28C3903.26 1348.19 3907.42 1345.22 3911.64 1342.53C3912.79 1341.87 3913.92 1341.2 3915.03 1340.55C3916.18 1339.88 3917.3 1339.22 3918.44 1338.56C3931.86 1331.01 3946.53 1325.42 3961.92 1322.25L3961.93 1322.25L3961.94 1322.25C3972.19 1320.1 3982.8 1318.98 3993.79 1318.98H3998.79V1318.88H4151.94Z" stroke="#F5F5F5" stroke-width="10"/>
<path d="M3993.79 881.115C4007.46 881.115 4020.78 882.974 4033.4 886.238V886.239C4040.96 888.3 4048.22 890.824 4055.29 893.901C4062.4 896.996 4069.29 900.543 4075.79 904.631L4075.84 904.658L4075.88 904.686C4080.15 907.246 4084.27 910.196 4088.27 913.37L4088.36 913.448L4088.47 913.522C4090.49 914.967 4092.44 916.519 4094.43 918.195L4094.44 918.2C4102.33 924.83 4109.48 932.088 4115.79 940.16C4117.48 942.409 4118.99 944.303 4120.39 946.368L4120.47 946.491L4120.56 946.607C4125.23 952.699 4129.28 959.281 4132.82 966.18L4132.82 966.192C4135.22 970.848 4137.49 975.513 4139.47 980.418L4139.47 980.434L4139.48 980.448C4142.47 987.729 4144.93 995.21 4146.94 1002.99C4150.12 1016.01 4151.94 1029.77 4151.94 1043.88V1206.84H3835.64V881.115H3993.79Z" stroke="#F5F5F5" stroke-width="10"/>
<path d="M3726.46 881.019V1206.74H3568.32C3557.33 1206.74 3546.71 1205.62 3536.47 1203.47L3536.45 1203.47L3535.01 1203.17C3520.14 1199.95 3505.95 1194.47 3492.94 1187.15L3492.9 1187.12L3492.85 1187.1C3490.66 1185.93 3488.54 1184.65 3486.25 1183.24C3481.93 1180.4 3477.75 1177.51 3473.78 1174.44L3473.71 1174.39L3473.64 1174.33L3472.89 1173.79C3471.18 1172.51 3469.54 1171.14 3467.64 1169.63C3448.05 1153.2 3432.54 1131.91 3422.64 1107.52L3422.62 1107.5L3422.62 1107.48L3422.04 1106.09C3419.42 1099.63 3417.27 1093.09 3415.54 1086.34L3415.18 1084.89C3411.99 1071.86 3410.17 1058.1 3410.17 1043.98V881.019H3726.46Z" stroke="#F5F5F5" stroke-width="10"/>
<path d="M3568.32 5.28906H3726.46V331.011H3410.17V168.15C3410.17 156.814 3411.26 145.865 3413.35 135.298L3413.36 135.289L3413.36 135.281C3416.44 119.412 3421.89 104.285 3429.23 90.4639C3429.88 89.2814 3430.52 88.1195 3431.18 86.9365C3431.82 85.7803 3432.47 84.6025 3433.13 83.3994C3435.63 79.0883 3438.5 74.8388 3441.57 70.7441L3441.65 70.6455L3441.72 70.542C3443.12 68.4611 3444.64 66.4478 3446.27 64.3975L3446.27 64.3926C3452.72 56.2584 3459.78 48.906 3467.63 42.4082C3469.81 40.6717 3471.64 39.1267 3473.64 37.6963L3473.74 37.6221L3473.84 37.5439C3477.83 34.3702 3481.96 31.4202 3486.23 28.8594L3486.26 28.8408L3486.29 28.8213C3492.92 24.7119 3499.73 21.1615 3506.82 18.0752C3513.89 14.9974 3521.15 12.4738 3528.71 10.4131L3528.71 10.4121C3541.33 7.1474 3554.65 5.28907 3568.32 5.28906Z" stroke="#F5F5F5" stroke-width="10"/>
<path d="M4151.94 5.28906V331.011H3998.79V330.915H3993.79C3982.8 330.915 3972.19 329.794 3961.94 327.648L3961.92 327.645C3946.53 324.477 3931.86 318.887 3918.44 311.335C3917.3 310.677 3916.18 310.017 3915.03 309.345C3913.93 308.696 3912.8 308.036 3911.65 307.373C3907.43 304.687 3903.27 301.709 3899.26 298.615L3899.19 298.561L3899.11 298.508C3897.09 297.063 3895.14 295.511 3893.15 293.834L3893.14 293.827L3891.86 292.744C3879.05 281.767 3868.02 268.637 3859.24 253.981V253.877L3858.53 252.689C3849.18 237.093 3842.37 219.529 3838.83 201.033L3838.83 201.018L3838.83 201.003L3838.45 199.017C3836.6 189.065 3835.64 178.778 3835.64 168.15V5.28906H4151.94Z" stroke="#F5F5F5" stroke-width="10"/>
<path d="M4151.94 443.058V606.015C4151.94 620.125 4150.12 633.88 4146.94 646.903C4144.93 654.685 4142.47 662.165 4139.48 669.446L4139.47 669.462L4139.47 669.478C4137.49 674.382 4135.22 679.047 4132.82 683.703L4132.82 683.715C4129.28 690.613 4125.23 697.195 4120.56 703.287L4120.47 703.404L4120.39 703.526C4118.99 705.591 4117.48 707.484 4115.79 709.732C4109.48 717.805 4102.33 725.065 4094.44 731.695L4094.43 731.699C4092.44 733.376 4090.49 734.928 4088.47 736.373L4088.36 736.446L4088.27 736.525C4084.27 739.699 4080.15 742.649 4075.88 745.21L4075.84 745.236L4075.79 745.264C4069.29 749.351 4062.4 752.9 4055.29 755.994C4048.23 759.066 4040.98 761.586 4033.44 763.645C4020.81 766.916 4007.47 768.779 3993.79 768.779H3835.64V443.058H4151.94Z" stroke="#F5F5F5" stroke-width="10"/>
<path d="M3568.32 443.154H3726.46V768.876H3410.17V605.919C3410.17 591.798 3411.99 578.034 3415.18 565.003C3417.09 557.251 3419.53 549.788 3422.62 542.419L3422.62 542.395L3422.64 542.37C3432.54 517.98 3448.05 496.692 3467.64 480.267C3469.81 478.533 3471.64 476.99 3473.64 475.562L3473.71 475.509L3473.78 475.454C3477.75 472.39 3481.93 469.489 3486.25 466.654C3488.54 465.24 3490.66 463.968 3492.85 462.799L3492.9 462.773L3492.94 462.747C3506.37 455.188 3521.05 449.593 3536.45 446.424L3536.46 446.423L3536.47 446.421C3546.71 444.276 3557.33 443.154 3568.32 443.154Z" stroke="#F5F5F5" stroke-width="10"/>
<path d="M5265.95 1318.59V1318.69H5270.95C5281.94 1318.69 5292.55 1319.81 5302.79 1321.96L5302.8 1321.96L5302.81 1321.96C5318.2 1325.13 5332.88 1330.72 5346.3 1338.27C5347.44 1338.93 5348.56 1339.59 5349.7 1340.26C5350.81 1340.91 5351.94 1341.58 5353.1 1342.24C5357.32 1344.93 5361.48 1347.9 5365.48 1350.99L5365.55 1351.04L5365.62 1351.1C5367.14 1352.18 5368.62 1353.33 5370.1 1354.54L5371.59 1355.77L5371.6 1355.78C5384.95 1366.97 5396.42 1380.48 5405.49 1395.62V1395.73L5406.2 1396.92C5415.55 1412.51 5422.36 1430.08 5425.9 1448.57L5425.91 1448.59L5425.91 1448.6C5428 1459.17 5429.09 1470.12 5429.09 1481.46V1644.32H5112.8V1318.59H5265.95Z" stroke="#F5F5F5" stroke-width="10"/>
<path d="M5271.04 880.826H5429.19V1206.55H5112.9V1043.59C5112.9 1029.48 5114.71 1015.73 5117.9 1002.7C5119.9 994.921 5122.36 987.44 5125.35 980.159L5125.36 980.145L5125.36 980.129C5127.34 975.224 5129.61 970.559 5132.01 965.903L5132.01 965.891C5135.55 958.992 5139.61 952.41 5144.27 946.318L5144.36 946.202L5144.44 946.079C5145.84 944.014 5147.35 942.12 5149.04 939.871C5155.36 931.799 5162.5 924.541 5170.39 917.911L5170.4 917.906C5172.39 916.23 5174.35 914.678 5176.36 913.233L5176.47 913.159L5176.57 913.081C5180.56 909.907 5184.69 906.957 5188.95 904.396L5189.04 904.342C5195.54 900.254 5202.43 896.707 5209.54 893.612C5216.61 890.535 5223.87 888.01 5231.43 885.949C5244.05 882.685 5257.38 880.826 5271.04 880.826Z" stroke="#F5F5F5" stroke-width="10"/>
<path d="M5429.09 5V167.861C5429.09 179.198 5428 190.147 5425.91 200.714L5425.91 200.729L5425.9 200.744C5422.36 219.24 5415.55 236.804 5406.2 252.4L5405.49 253.588V253.692C5396.42 268.834 5384.95 282.346 5371.6 293.538L5371.59 293.545C5369.6 295.221 5367.64 296.774 5365.62 298.219L5365.55 298.271L5365.48 298.326C5361.47 301.42 5357.31 304.398 5353.08 307.084C5351.93 307.747 5350.81 308.407 5349.7 309.056C5348.56 309.728 5347.44 310.388 5346.3 311.046C5332.88 318.598 5318.2 324.188 5302.81 327.355L5302.8 327.357L5302.79 327.359C5292.55 329.505 5281.94 330.626 5270.95 330.626H5265.95V330.722H5112.8V5H5429.09Z" stroke="#F5F5F5" stroke-width="10"/>
<path d="M5429.19 442.769V768.49H5271.04C5257.36 768.49 5244.02 766.627 5231.39 763.355C5223.85 761.297 5216.6 758.777 5209.54 755.705C5202.43 752.611 5195.54 749.062 5189.04 744.975L5189 744.947L5188.95 744.921L5188.15 744.436C5184.17 741.99 5180.31 739.212 5176.57 736.236L5176.47 736.157L5176.36 736.084L5175.61 735.537C5173.86 734.249 5172.14 732.877 5170.4 731.41L5170.39 731.406L5168.92 730.154C5161.61 723.864 5154.96 717.012 5149.04 709.444C5147.35 707.196 5145.84 705.302 5144.44 703.237L5144.36 703.115L5144.27 702.998L5143.4 701.85C5139.1 696.082 5135.33 689.893 5132.01 683.426L5132.01 683.414L5131.11 681.667C5129.05 677.588 5127.1 673.48 5125.36 669.188L5125.36 669.173L5125.35 669.157L5124.8 667.788C5122.05 660.939 5119.78 653.909 5117.9 646.614C5114.71 633.591 5112.9 619.836 5112.9 605.726V442.769H5429.19Z" stroke="#F5F5F5" stroke-width="10"/>
<path d="M4845.38 2632.57C4859.06 2632.57 4872.4 2634.44 4885.04 2637.71C4892.58 2639.77 4899.83 2642.29 4906.89 2645.36C4914 2648.45 4920.89 2652 4927.39 2656.09L4927.43 2656.12L4927.47 2656.14C4931.74 2658.71 4935.87 2661.66 4939.86 2664.83L4939.96 2664.91L4940.06 2664.98C4942.08 2666.43 4944.04 2667.98 4946.03 2669.65L4946.03 2669.66C4953.44 2675.88 4960.19 2682.66 4966.22 2690.14L4967.41 2691.65C4969.09 2693.89 4970.59 2695.77 4971.98 2697.83L4972.07 2697.95L4972.16 2698.07C4976.82 2704.16 4980.88 2710.74 4984.41 2717.64L4984.42 2717.65C4986.82 2722.31 4989.08 2726.97 4991.06 2731.88L4991.07 2731.89L4991.07 2731.91C4994.07 2739.19 4996.52 2746.67 4998.53 2754.45C5001.71 2767.47 5003.53 2781.23 5003.53 2795.34V2958.3H4687.24V2632.57H4845.38Z" stroke="#F5F5F5" stroke-width="10"/>
<path d="M4577.97 2632.48V2958.2H4419.82C4408.83 2958.2 4398.22 2957.08 4387.97 2954.93L4387.96 2954.93L4387.96 2954.93L4386.51 2954.63C4371.64 2951.41 4357.45 2945.93 4344.45 2938.61L4344.4 2938.58L4344.35 2938.56L4343.53 2938.11C4341.63 2937.06 4339.75 2935.94 4337.75 2934.7C4333.44 2931.86 4329.26 2928.97 4325.29 2925.9L4325.22 2925.85L4325.14 2925.79L4324.39 2925.25C4322.68 2923.97 4321.04 2922.6 4319.14 2921.09C4299.56 2904.66 4284.04 2883.37 4274.14 2858.98L4274.13 2858.96L4274.12 2858.94L4273.55 2857.55C4270.73 2850.63 4268.47 2843.62 4266.68 2836.36C4263.49 2823.32 4261.68 2809.56 4261.68 2795.44V2632.48H4577.97Z" stroke="#F5F5F5" stroke-width="10"/>
<path d="M4419.82 1756.75H4577.97V2082.47H4261.68V1919.61C4261.68 1908.27 4262.77 1897.32 4264.86 1886.76L4264.86 1886.75L4264.86 1886.74C4267.95 1870.87 4273.39 1855.74 4280.73 1841.92C4281.38 1840.74 4282.02 1839.58 4282.68 1838.4C4283.32 1837.24 4283.97 1836.07 4284.62 1834.88C4287.12 1830.56 4290 1826.3 4293.08 1822.2L4293.15 1822.1L4293.22 1822C4294.63 1819.92 4296.14 1817.91 4297.77 1815.86L4297.77 1815.85C4304.23 1807.72 4311.29 1800.36 4319.13 1793.87C4321.31 1792.13 4323.15 1790.59 4325.14 1789.16L4325.25 1789.08L4325.35 1789C4329.34 1785.83 4333.46 1782.88 4337.73 1780.32L4337.76 1780.3L4337.79 1780.28C4344.42 1776.17 4351.23 1772.62 4358.32 1769.53C4365.39 1766.46 4372.65 1763.93 4380.21 1761.87C4392.83 1758.61 4406.16 1756.75 4419.82 1756.75Z" stroke="#F5F5F5" stroke-width="10"/>
<path d="M5003.53 1756.75V2082.47H4850.38V2082.37H4845.38C4834.39 2082.37 4823.78 2081.25 4813.54 2079.11L4813.52 2079.1C4798.13 2075.94 4783.45 2070.35 4770.03 2062.79C4768.89 2062.14 4767.77 2061.48 4766.63 2060.8C4765.52 2060.15 4764.39 2059.49 4763.23 2058.82C4759.01 2056.14 4754.86 2053.16 4750.85 2050.07L4750.78 2050.02L4750.71 2049.97C4748.69 2048.52 4746.73 2046.97 4744.74 2045.29L4744.73 2045.29L4743.46 2044.2C4730.65 2033.23 4719.62 2020.1 4710.84 2005.44V2005.34L4710.13 2004.15C4700.78 1988.55 4693.97 1970.99 4690.43 1952.49L4690.42 1952.48L4690.42 1952.46L4690.04 1950.48C4688.2 1940.52 4687.24 1930.24 4687.24 1919.61V1756.75H5003.53Z" stroke="#F5F5F5" stroke-width="10"/>
<path d="M5003.53 2194.52V2357.47C5003.53 2371.58 5001.71 2385.34 4998.53 2398.36C4996.52 2406.14 4994.07 2413.62 4991.07 2420.91L4991.07 2420.92L4991.06 2420.94C4989.33 2425.23 4987.38 2429.34 4985.31 2433.42L4984.42 2435.16L4984.41 2435.17C4980.88 2442.07 4976.82 2448.65 4972.16 2454.75L4972.07 2454.86L4971.98 2454.99C4970.59 2457.05 4969.08 2458.94 4967.39 2461.19C4961.07 2469.26 4953.93 2476.52 4946.03 2483.15L4946.03 2483.16C4944.04 2484.83 4942.08 2486.39 4940.06 2487.83L4939.96 2487.91L4939.86 2487.98C4935.87 2491.16 4931.74 2494.11 4927.47 2496.67L4927.43 2496.7L4927.39 2496.72C4920.89 2500.81 4914 2504.36 4906.89 2507.45C4899.83 2510.53 4892.58 2513.04 4885.04 2515.1C4872.4 2518.37 4859.07 2520.24 4845.38 2520.24H4687.24V2194.52H5003.53Z" stroke="#F5F5F5" stroke-width="10"/>
<path d="M4419.82 2194.61H4577.97V2520.34H4261.68V2357.38C4261.68 2343.26 4263.49 2329.49 4266.68 2316.46C4268.59 2308.71 4271.04 2301.25 4274.12 2293.88L4274.13 2293.85L4274.14 2293.83C4284.04 2269.44 4299.56 2248.15 4319.14 2231.73C4321.32 2229.99 4323.15 2228.45 4325.14 2227.02L4325.22 2226.97L4325.29 2226.91C4329.25 2223.85 4333.42 2220.96 4337.73 2218.13C4340.03 2216.71 4342.16 2215.43 4344.35 2214.26L4344.4 2214.23L4344.45 2214.21C4357.87 2206.65 4372.56 2201.05 4387.96 2197.88L4387.97 2197.88C4398.22 2195.73 4408.83 2194.61 4419.82 2194.61Z" stroke="#F5F5F5" stroke-width="10"/>
<path d="M3993.79 2632.57C4007.47 2632.57 4020.81 2634.44 4033.44 2637.71C4040.98 2639.77 4048.23 2642.29 4055.29 2645.36C4062.4 2648.45 4069.29 2652 4075.79 2656.09L4075.84 2656.12L4075.88 2656.14C4080.15 2658.71 4084.27 2661.66 4088.27 2664.83L4088.36 2664.91L4088.47 2664.98C4090.49 2666.43 4092.44 2667.98 4094.43 2669.65L4094.44 2669.66C4101.85 2675.88 4108.6 2682.66 4114.62 2690.14L4115.82 2691.65C4117.5 2693.89 4119 2695.77 4120.39 2697.83L4120.47 2697.95L4120.56 2698.07C4125.23 2704.16 4129.28 2710.74 4132.82 2717.64L4132.82 2717.65C4135.22 2722.31 4137.49 2726.97 4139.47 2731.88L4139.47 2731.89L4139.48 2731.91C4142.47 2739.19 4144.93 2746.67 4146.94 2754.45C4150.12 2767.47 4151.94 2781.23 4151.94 2795.34V2958.3H3835.64V2632.57H3993.79Z" stroke="#F5F5F5" stroke-width="10"/>
<path d="M3726.46 2632.48V2958.2H3568.32C3557.33 2958.2 3546.71 2957.08 3536.47 2954.93L3536.46 2954.93L3536.45 2954.93L3535.01 2954.63C3520.14 2951.41 3505.95 2945.93 3492.94 2938.61L3492.9 2938.58L3492.85 2938.56C3490.66 2937.39 3488.54 2936.11 3486.25 2934.7C3481.93 2931.86 3477.75 2928.97 3473.78 2925.9L3473.71 2925.85L3473.64 2925.79L3472.89 2925.25C3471.18 2923.97 3469.54 2922.6 3467.64 2921.09C3448.05 2904.66 3432.54 2883.37 3422.64 2858.98L3422.62 2858.96L3422.62 2858.94L3422.04 2857.55C3419.42 2851.09 3417.27 2844.55 3415.54 2837.8L3415.18 2836.35C3411.99 2823.32 3410.17 2809.56 3410.17 2795.44V2632.48H3726.46Z" stroke="#F5F5F5" stroke-width="10"/>
<path d="M3568.32 1756.75H3726.46V2082.47H3410.17V1919.61C3410.17 1908.27 3411.26 1897.32 3413.35 1886.76L3413.36 1886.75L3413.36 1886.74C3416.44 1870.87 3421.89 1855.74 3429.23 1841.92C3429.88 1840.74 3430.52 1839.58 3431.18 1838.4C3431.82 1837.24 3432.47 1836.07 3433.12 1834.87C3435.62 1830.56 3438.5 1826.3 3441.57 1822.2L3441.65 1822.1L3441.72 1822C3443.12 1819.92 3444.64 1817.91 3446.27 1815.86L3446.27 1815.85C3452.72 1807.72 3459.78 1800.36 3467.63 1793.87C3469.81 1792.13 3471.64 1790.59 3473.64 1789.16L3473.74 1789.08L3473.84 1789C3477.83 1785.83 3481.96 1782.88 3486.23 1780.32L3486.26 1780.3L3486.29 1780.28C3492.92 1776.17 3499.73 1772.62 3506.82 1769.53C3513.89 1766.46 3521.15 1763.93 3528.71 1761.87L3528.71 1761.87C3541.33 1758.61 3554.65 1756.75 3568.32 1756.75Z" stroke="#F5F5F5" stroke-width="10"/>
<path d="M4151.94 1756.75V2082.47H3998.79V2082.37H3993.79C3982.8 2082.37 3972.19 2081.25 3961.94 2079.11L3961.92 2079.1C3946.53 2075.94 3931.86 2070.35 3918.44 2062.79C3917.3 2062.14 3916.18 2061.48 3915.03 2060.8C3913.92 2060.15 3912.79 2059.49 3911.64 2058.82C3907.42 2056.14 3903.26 2053.16 3899.26 2050.07L3899.19 2050.02L3899.11 2049.97C3897.09 2048.52 3895.14 2046.97 3893.15 2045.29L3893.14 2045.29L3891.86 2044.2C3879.05 2033.23 3868.02 2020.1 3859.24 2005.44V2005.34L3858.53 2004.15C3849.18 1988.55 3842.37 1970.99 3838.83 1952.49L3838.83 1952.48L3838.83 1952.46L3838.45 1950.48C3836.6 1940.52 3835.64 1930.24 3835.64 1919.61V1756.75H4151.94Z" stroke="#F5F5F5" stroke-width="10"/>
<path d="M4151.94 2194.52V2357.47C4151.94 2371.58 4150.12 2385.34 4146.94 2398.36C4144.93 2406.14 4142.47 2413.62 4139.48 2420.91L4139.47 2420.92L4139.47 2420.94C4137.49 2425.84 4135.22 2430.51 4132.82 2435.16L4132.82 2435.17C4129.28 2442.07 4125.23 2448.65 4120.56 2454.75L4120.47 2454.86L4120.39 2454.99C4118.99 2457.05 4117.48 2458.94 4115.79 2461.19C4109.48 2469.26 4102.33 2476.52 4094.44 2483.15L4094.43 2483.16C4092.44 2484.83 4090.49 2486.39 4088.47 2487.83L4088.36 2487.91L4088.27 2487.98C4084.27 2491.16 4080.15 2494.11 4075.88 2496.67L4075.84 2496.7L4075.79 2496.72C4069.29 2500.81 4062.4 2504.36 4055.29 2507.45C4048.23 2510.53 4040.98 2513.04 4033.44 2515.1C4020.81 2518.37 4007.47 2520.24 3993.79 2520.24H3835.64V2194.52H4151.94Z" stroke="#F5F5F5" stroke-width="10"/>
<path d="M3568.32 2194.61H3726.46V2520.34H3410.17V2357.38C3410.17 2343.26 3411.99 2329.49 3415.18 2316.46C3417.09 2308.71 3419.53 2301.25 3422.62 2293.88L3422.62 2293.85L3422.64 2293.83C3432.54 2269.44 3448.05 2248.15 3467.64 2231.73C3469.81 2229.99 3471.64 2228.45 3473.64 2227.02L3473.71 2226.97L3473.78 2226.91C3477.75 2223.85 3481.92 2220.96 3486.23 2218.13C3488.53 2216.71 3490.66 2215.43 3492.85 2214.26L3492.9 2214.23L3492.94 2214.21C3506.37 2206.65 3521.05 2201.05 3536.45 2197.88L3536.47 2197.88C3546.71 2195.73 3557.33 2194.61 3568.32 2194.61Z" stroke="#F5F5F5" stroke-width="10"/>
<path d="M5271.04 2632.29H5429.19V2958.01H5112.9V2795.05C5112.9 2780.94 5114.71 2767.18 5117.9 2754.16C5119.9 2746.38 5122.36 2738.9 5125.35 2731.62L5125.36 2731.6L5125.36 2731.59C5127.34 2726.68 5129.61 2722.02 5132.01 2717.36L5132.01 2717.35C5135.55 2710.45 5139.61 2703.87 5144.27 2697.78L5144.36 2697.66L5144.44 2697.54C5145.83 2695.48 5147.33 2693.6 5149.02 2691.36C5155.34 2683.28 5162.49 2676.01 5170.39 2669.37L5170.4 2669.37C5172.39 2667.69 5174.35 2666.14 5176.36 2664.69L5176.47 2664.62L5176.57 2664.54C5180.56 2661.37 5184.69 2658.42 5188.95 2655.86L5189 2655.83L5189.04 2655.8C5195.54 2651.71 5202.43 2648.17 5209.54 2645.07C5216.6 2642 5223.85 2639.48 5231.39 2637.42C5244.02 2634.15 5257.36 2632.29 5271.04 2632.29Z" stroke="#F5F5F5" stroke-width="10"/>
<path d="M5429.09 1756.46V1919.32C5429.09 1930.66 5428 1941.61 5425.91 1952.17L5425.91 1952.19L5425.9 1952.2C5422.36 1970.7 5415.55 1988.26 5406.2 2003.86L5405.49 2005.05V2005.15C5396.42 2020.29 5384.95 2033.8 5371.6 2045L5371.59 2045C5369.6 2046.68 5367.64 2048.23 5365.62 2049.68L5365.55 2049.73L5365.48 2049.79C5361.48 2052.87 5357.32 2055.85 5353.1 2058.53C5351.94 2059.2 5350.81 2059.86 5349.7 2060.52C5348.56 2061.19 5347.44 2061.85 5346.3 2062.5C5332.88 2070.06 5318.2 2075.65 5302.81 2078.81L5302.8 2078.82L5302.79 2078.82C5292.55 2080.96 5281.94 2082.08 5270.95 2082.08H5265.95V2082.18H5112.8V1756.46H5429.09Z" stroke="#F5F5F5" stroke-width="10"/>
<path d="M5429.19 2194.23V2519.95H5271.04C5257.36 2519.95 5244.02 2518.09 5231.39 2514.81C5223.85 2512.76 5216.6 2510.24 5209.54 2507.16C5202.43 2504.07 5195.54 2500.52 5189.04 2496.43L5189 2496.41L5188.95 2496.38L5188.15 2495.89C5184.17 2493.45 5180.31 2490.67 5176.57 2487.7L5176.47 2487.62L5176.36 2487.54L5175.61 2487C5173.86 2485.71 5172.14 2484.34 5170.4 2482.87L5170.39 2482.87L5168.92 2481.61C5161.61 2475.32 5154.96 2468.47 5149.04 2460.9C5147.35 2458.65 5145.84 2456.76 5144.44 2454.7L5144.36 2454.57L5144.27 2454.46L5143.4 2453.31C5139.1 2447.54 5135.33 2441.35 5132.01 2434.88L5132.01 2434.87L5131.11 2433.13C5129.05 2429.05 5127.1 2424.94 5125.36 2420.65L5125.36 2420.63L5125.35 2420.62L5124.8 2419.25C5122.05 2412.4 5119.78 2405.37 5117.9 2398.07C5114.71 2385.05 5112.9 2371.3 5112.9 2357.18V2194.23H5429.19Z" stroke="#F5F5F5" stroke-width="10"/>
</g>
<defs>
<clipPath id="clip0_4073_960">
<rect width="5203" height="2693" fill="white"/>
</clipPath>
</defs>
</svg>
