<svg width="320" height="320" viewBox="0 0 320 320" fill="none" xmlns="http://www.w3.org/2000/svg">
<path d="M226.172 0H93.8307C42.0083 0 0 42.0107 0 93.8307V226.169C0 277.992 42.0108 320 93.8307 320H226.169C277.992 320 320 277.989 320 226.169V93.8307C320 42.0083 277.989 0 226.169 0H226.172ZM101.033 258.282H81.3753C70.5228 258.282 61.72 249.48 61.72 238.627V81.3777C61.72 70.5252 70.5228 61.7225 81.3753 61.7225H179.656V101.035H101.033V258.282ZM179.656 140.346V179.656H140.346V140.346H179.656ZM258.28 238.627C258.28 249.48 249.477 258.282 238.625 258.282H140.344L179.654 218.969L258.28 140.346V238.627ZM258.28 101.033H218.967V61.72H238.625C249.477 61.72 258.28 70.5228 258.28 81.3753V101.033Z" fill="#212121"/>
</svg>
