<svg width="320" height="319" viewBox="0 0 320 319" fill="none" xmlns="http://www.w3.org/2000/svg">
<path d="M226.169 0H93.8308C42.0083 0 0 41.8795 0 93.5375V225.462C0 277.123 42.0108 319 93.8308 319H226.169C277.992 319 320 277.121 320 225.462V93.5375C320 41.877 277.989 0 226.169 0ZM101.031 257.475H81.3729C70.5204 257.475 61.7176 248.7 61.7176 237.881V81.121C61.7176 70.3024 70.5204 61.5271 81.3729 61.5271H179.654V100.717H101.031V257.473V257.475ZM179.654 139.907V179.095H140.344V139.907H179.654ZM258.278 237.881C258.278 248.7 249.475 257.475 238.622 257.475H140.341L179.652 218.285L258.278 139.907V237.881ZM258.278 100.717H218.964V61.5271H238.622C249.475 61.5271 258.278 70.3024 258.278 81.121V100.717Z" fill="#356BFF"/>
</svg>
