<svg width="320" height="320" viewBox="0 0 320 320" fill="none" xmlns="http://www.w3.org/2000/svg">
<path d="M226.169 0H93.8308C42.0083 0 0 42.0108 0 93.8307V226.169C0 277.992 42.0108 320 93.8308 320H226.169C277.992 320 320 277.989 320 226.169V93.8307C320 42.0083 277.989 0 226.169 0ZM101.031 258.282H81.3729C70.5204 258.282 61.7176 249.48 61.7176 238.627V81.3753C61.7176 70.5228 70.5204 61.72 81.3729 61.72H179.654V101.033H101.031V258.28V258.282ZM179.654 140.346V179.656H140.344V140.346H179.654ZM258.278 238.627C258.278 249.48 249.475 258.282 238.622 258.282H140.341L179.652 218.969L258.278 140.346V238.627ZM258.278 101.033H218.964V61.72H238.622C249.475 61.72 258.278 70.5228 258.278 81.3753V101.033Z" fill="#64C4FF"/>
</svg>
