<svg width="323" height="323" viewBox="0 0 323 323" fill="none" xmlns="http://www.w3.org/2000/svg">
<path d="M228.21 0H94.6773C42.3873 0 0 42.3898 0 94.6773V228.21C0 280.5 42.3898 322.887 94.6773 322.887H228.21C280.5 322.887 322.887 280.498 322.887 228.21V94.6773C322.887 42.3873 280.498 0 228.21 0ZM101.942 260.613H82.107C71.1566 260.613 62.2744 251.731 62.2744 240.78V82.112C62.2744 71.1616 71.1566 62.2794 82.107 62.2794H181.275V101.947H101.942V260.613ZM181.275 141.612V181.278H141.61V141.612H181.275ZM260.608 240.78C260.608 251.731 251.726 260.613 240.775 260.613H141.607L181.273 220.945L260.608 141.612V240.78ZM260.608 101.945H220.94V62.2769H240.775C251.726 62.2769 260.608 71.1591 260.608 82.1095V101.945Z" fill="#F5F5F5"/>
</svg>
