<svg width="790" height="239" viewBox="0 0 790 239" fill="none" xmlns="http://www.w3.org/2000/svg">
<path d="M143.23 0V47.7253H47.7453V238.62H23.8725C10.6933 238.62 0 227.937 0 214.758V23.8626C0 10.683 10.6873 0 23.8725 0H143.23Z" fill="#212121"/>
<path d="M238.72 23.8626V47.7253H190.974V0H214.847C228.026 0 238.72 10.683 238.72 23.8626Z" fill="#212121"/>
<path d="M143.231 95.4449H95.4854V143.17H143.231V95.4449Z" fill="#212121"/>
<path d="M238.72 95.4449V214.752C238.72 227.926 228.033 238.615 214.848 238.615H95.4907L238.72 95.4449Z" fill="#212121"/>
<path d="M348.46 211.704C348.46 208.049 347.457 204.916 345.446 202.317C343.434 199.724 339.009 197.888 332.158 196.825L320.468 195.055C310.195 193.404 302.336 190.656 296.908 186.821C291.474 182.986 288.76 176.816 288.76 168.317C288.76 162.652 290.351 157.815 293.545 153.799C296.734 149.79 301.075 146.717 306.563 144.593C312.05 142.468 318.223 141.406 325.074 141.406C333.93 141.406 340.895 142.528 345.974 144.773C351.054 147.018 354.83 150.024 357.31 153.805C359.79 157.587 361.561 161.776 362.624 166.379L348.628 168.684C346.971 163.726 344.611 159.981 341.543 157.442C338.469 154.904 333.155 153.637 325.602 153.637C317.1 153.637 311.282 155.054 308.154 157.887C305.025 160.719 303.458 163.846 303.458 167.273C303.458 171.054 304.581 174.031 306.827 176.216C309.072 178.4 313.738 180.081 320.823 181.263L334.11 183.388C344.851 185.158 352.561 188.231 357.226 192.594C361.891 196.963 364.221 203.337 364.221 211.716C364.221 219.392 361.147 225.789 355.01 230.927C348.868 236.064 339.658 238.627 327.379 238.627C320.054 238.627 313.383 237.679 307.361 235.794C301.339 233.91 296.469 230.777 292.747 226.408C289.024 222.044 286.929 216.259 286.461 209.057H301.339C302.402 215.431 305.085 219.89 309.396 222.429C313.707 224.967 319.58 226.234 327.019 226.234C334.458 226.234 340.33 224.907 343.578 222.248C346.827 219.596 348.448 216.085 348.448 211.716L348.46 211.704Z" fill="#212121"/>
<path d="M383.889 206.037V156.457H369.719V144.237H383.889V119.271H399.302V144.237H423.571V156.457H399.302V210.106C399.302 214.595 400.305 218.19 402.316 220.909C404.322 223.627 407.39 224.984 411.526 224.984C414.12 224.984 416.426 224.78 418.437 224.366C420.443 223.952 422.214 223.513 423.751 223.039L426.405 234.905C424.039 235.733 421.475 236.411 418.702 236.939C415.928 237.467 412.649 237.737 408.873 237.737C402.022 237.737 396.798 236.381 393.196 233.662C389.593 230.95 387.143 227.199 385.847 222.421C384.544 217.638 383.895 212.182 383.895 206.043L383.889 206.037Z" fill="#212121"/>
<path d="M434.201 204.976V144.245H449.614V201.969C449.614 210.467 451.031 216.487 453.865 220.028C456.699 223.569 461.184 225.34 467.326 225.34C474.291 225.34 480.494 222.861 485.927 217.903C488.875 215.311 491.121 212.562 492.658 209.669C494.195 206.776 494.964 203.031 494.964 198.428V144.245H510.376V235.788H495.144V221.624C490.773 227.53 485.957 231.839 480.704 234.552C475.45 237.265 469.812 238.627 463.79 238.627C453.397 238.627 445.867 235.794 441.202 230.129C436.537 224.463 434.207 216.085 434.207 204.982L434.201 204.976Z" fill="#212121"/>
<path d="M525.781 190.457C525.781 175.351 529.413 163.395 536.672 154.603C543.937 145.811 553.88 141.411 566.519 141.411C571.358 141.411 576.264 142.384 581.223 144.334C586.183 146.285 590.788 149.97 595.039 155.401V109.362H610.452V235.788H595.393V222.506C591.61 227.703 587.245 231.688 582.286 234.461C577.326 237.234 571.478 238.62 564.748 238.62C555.892 238.62 548.566 236.496 542.784 232.247C536.996 227.997 532.716 222.218 529.942 214.896C527.168 207.58 525.781 199.435 525.781 190.463V190.457ZM541.896 190.103C541.896 199.075 543.139 206.157 545.618 211.349C548.098 216.546 551.287 220.231 555.183 222.416C559.08 224.6 563.157 225.693 567.408 225.693C575.79 225.693 582.58 222.98 587.78 217.548C592.98 212.117 595.573 204.093 595.573 193.47V187.27C595.573 175.705 593.064 167.291 588.044 162.039C583.025 156.788 576.558 154.159 568.645 154.159C563.685 154.159 559.164 155.341 555.093 157.7C551.022 160.065 547.798 163.87 545.438 169.121C543.079 174.372 541.896 181.37 541.896 190.103Z" fill="#212121"/>
<path d="M629.053 109.362H644.82V127.247H629.053V109.362ZM629.407 144.244H644.82V235.788H629.407V144.244Z" fill="#212121"/>
<path d="M660.581 190.278C660.581 180.243 662.406 171.594 666.069 164.338C669.726 157.076 674.925 151.441 681.656 147.426C688.387 143.417 696.24 141.406 705.216 141.406C714.193 141.406 722.31 143.357 728.867 147.252C735.418 151.147 740.467 156.698 744.009 163.894C747.552 171.096 749.323 179.655 749.323 189.569C749.323 199.484 747.522 208.283 743.919 215.599C740.317 222.921 735.177 228.586 728.507 232.595C721.836 236.604 713.892 238.615 704.682 238.615C690.746 238.615 679.909 234.306 672.175 225.687C664.442 217.075 660.575 205.264 660.575 190.272L660.581 190.278ZM676.877 189.924C676.877 200.432 679.062 209.045 683.433 215.773C687.798 222.501 694.949 225.867 704.868 225.867C711.479 225.867 716.853 224.337 720.989 221.264C725.12 218.197 728.164 213.918 730.11 208.427C732.061 202.941 733.034 196.711 733.034 189.749C733.034 179.247 730.818 170.688 726.393 164.074C721.968 157.466 714.793 154.16 704.868 154.16C694.943 154.16 687.954 157.496 683.523 164.164C679.092 170.832 676.877 179.421 676.877 189.929V189.924Z" fill="#212121"/>
<path d="M307.349 54.3811C309.036 69.5353 319.141 78.1177 334.134 78.1177C343.903 78.1177 349.631 75.9271 357.376 67.6808L374.722 77.1094C363.272 89.5689 350.135 96.6388 333.792 96.6388C303.813 96.6388 286.461 75.759 286.461 48.6555C286.461 21.552 303.47 0 331.936 0C360.402 0 376.235 20.5377 376.235 46.1288C376.235 48.9916 376.067 51.0142 375.563 54.3811H307.349ZM307.853 38.0506H355.689C353.329 24.4148 343.56 17.6809 331.774 17.6809C318.805 17.6809 309.877 25.9332 307.853 38.0506Z" fill="#212121"/>
<path d="M410.934 94.6228L373.882 2.02307H395.779L420.541 67.5133L445.302 2.02307H466.695L429.637 94.6228H410.934Z" fill="#212121"/>
<path d="M465.169 48.4875C465.169 20.7058 482.515 0 510.812 0C539.11 0 556.456 20.7058 556.456 48.4875C556.456 76.2692 538.774 96.6388 510.812 96.6388C482.851 96.6388 465.169 75.9331 465.169 48.4875ZM485.721 48.4875C485.721 65.8263 495.154 78.4538 510.819 78.4538C526.483 78.4538 535.748 65.8263 535.748 48.4875C535.748 31.1487 526.483 18.3531 510.819 18.3531C495.154 18.3531 485.721 30.8126 485.721 48.4875Z" fill="#212121"/>
<path d="M789.55 222.709V234.04H766.879V211.377H778.215C784.471 211.377 789.55 216.449 789.55 222.709Z" fill="#212121"/>
</svg>
