<svg width="790" height="239" viewBox="0 0 790 239" fill="none" xmlns="http://www.w3.org/2000/svg">
<path d="M143.23 0V47.7253H47.7453V238.62H23.8726C10.6935 238.62 0 227.937 0 214.758V23.8626C0 10.683 10.6875 0 23.8726 0H143.23Z" fill="#356BFF"/>
<path d="M238.72 23.8626V47.7253H190.974V0H214.847C228.026 0 238.72 10.683 238.72 23.8626Z" fill="#356BFF"/>
<path d="M143.231 95.4445H95.4854V143.17H143.231V95.4445Z" fill="#356BFF"/>
<path d="M238.721 95.4445V214.752C238.721 227.925 228.033 238.614 214.848 238.614H95.4907L238.721 95.4445Z" fill="#356BFF"/>
<path d="M348.46 211.703C348.46 208.048 347.457 204.915 345.446 202.317C343.434 199.724 339.009 197.887 332.158 196.825L320.468 195.055C310.195 193.404 302.336 190.655 296.908 186.82C291.474 182.985 288.76 176.815 288.76 168.317C288.76 162.652 290.351 157.814 293.545 153.799C296.734 149.79 301.075 146.717 306.563 144.593C312.05 142.468 318.223 141.406 325.073 141.406C333.93 141.406 340.894 142.528 345.974 144.773C351.053 147.017 354.83 150.024 357.31 153.805C359.79 157.586 361.561 161.775 362.624 166.379L348.628 168.683C346.971 163.726 344.611 159.981 341.543 157.442C338.469 154.903 333.155 153.637 325.602 153.637C317.1 153.637 311.282 155.053 308.154 157.886C305.025 160.719 303.458 163.846 303.458 167.273C303.458 171.054 304.581 174.031 306.827 176.215C309.072 178.4 313.738 180.08 320.823 181.263L334.11 183.387C344.851 185.158 352.561 188.231 357.226 192.594C361.891 196.963 364.221 203.337 364.221 211.715C364.221 219.391 361.147 225.789 355.01 230.926C348.868 236.064 339.658 238.627 327.379 238.627C320.054 238.627 313.383 237.678 307.361 235.794C301.339 233.909 296.47 230.776 292.747 226.407C289.024 222.044 286.929 216.258 286.461 209.056H301.339C302.402 215.43 305.086 219.889 309.397 222.428C313.708 224.967 319.58 226.233 327.019 226.233C334.458 226.233 340.33 224.907 343.578 222.248C346.827 219.595 348.448 216.084 348.448 211.715L348.46 211.703Z" fill="#356BFF"/>
<path d="M383.889 206.038V156.458H369.719V144.238H383.889V119.271H399.302V144.238H423.571V156.458H399.302V210.107C399.302 214.596 400.305 218.191 402.316 220.91C404.322 223.628 407.39 224.985 411.526 224.985C414.12 224.985 416.426 224.781 418.437 224.367C420.443 223.953 422.214 223.514 423.751 223.04L426.405 234.906C424.039 235.734 421.475 236.412 418.702 236.94C415.928 237.468 412.649 237.738 408.873 237.738C402.022 237.738 396.798 236.382 393.196 233.663C389.593 230.951 387.143 227.199 385.847 222.422C384.544 217.639 383.895 212.183 383.895 206.044L383.889 206.038Z" fill="#356BFF"/>
<path d="M434.201 204.975V144.245H449.614V201.969C449.614 210.467 451.031 216.487 453.865 220.028C456.699 223.569 461.184 225.339 467.327 225.339C474.291 225.339 480.494 222.86 485.928 217.903C488.876 215.31 491.121 212.562 492.658 209.669C494.195 206.776 494.964 203.031 494.964 198.428V144.245H510.377V235.788H495.144V221.624C490.773 227.53 485.958 231.839 480.704 234.552C475.45 237.264 469.812 238.627 463.79 238.627C453.397 238.627 445.868 235.794 441.202 230.128C436.537 224.463 434.207 216.084 434.207 204.981L434.201 204.975Z" fill="#356BFF"/>
<path d="M525.781 190.457C525.781 175.351 529.413 163.396 536.672 154.603C543.937 145.811 553.88 141.411 566.519 141.411C571.358 141.411 576.264 142.384 581.223 144.334C586.183 146.285 590.788 149.97 595.039 155.401V109.363H610.452V235.788H595.393V222.506C591.61 227.703 587.246 231.689 582.286 234.461C577.327 237.234 571.479 238.62 564.748 238.62C555.892 238.62 548.567 236.496 542.785 232.247C536.997 227.998 532.716 222.218 529.942 214.896C527.168 207.58 525.781 199.436 525.781 190.463V190.457ZM541.896 190.103C541.896 199.075 543.139 206.157 545.618 211.349C548.098 216.546 551.286 220.231 555.183 222.416C559.08 224.601 563.157 225.693 567.408 225.693C575.79 225.693 582.58 222.98 587.78 217.549C592.979 212.117 595.573 204.093 595.573 193.47V187.27C595.573 175.705 593.063 167.291 588.044 162.039C583.025 156.788 576.558 154.159 568.645 154.159C563.685 154.159 559.164 155.341 555.093 157.7C551.022 160.065 547.798 163.87 545.438 169.121C543.079 174.373 541.896 181.371 541.896 190.103Z" fill="#356BFF"/>
<path d="M629.053 109.363H644.82V127.248H629.053V109.363ZM629.407 144.244H644.82V235.788H629.407V144.244Z" fill="#356BFF"/>
<path d="M660.581 190.277C660.581 180.242 662.407 171.594 666.069 164.338C669.726 157.076 674.925 151.44 681.656 147.425C688.387 143.416 696.24 141.406 705.216 141.406C714.193 141.406 722.31 143.356 728.867 147.251C735.417 151.146 740.467 156.698 744.009 163.894C747.552 171.096 749.323 179.654 749.323 189.569C749.323 199.484 747.522 208.282 743.919 215.598C740.317 222.92 735.177 228.586 728.507 232.595C721.836 236.604 713.892 238.615 704.682 238.615C690.746 238.615 679.909 234.305 672.175 225.687C664.442 217.075 660.575 205.263 660.575 190.271L660.581 190.277ZM676.877 189.923C676.877 200.432 679.062 209.044 683.433 215.772C687.798 222.5 694.949 225.867 704.868 225.867C711.479 225.867 716.853 224.337 720.989 221.264C725.12 218.197 728.164 213.918 730.11 208.426C732.061 202.941 733.034 196.711 733.034 189.749C733.034 179.246 730.818 170.688 726.393 164.074C721.968 157.466 714.793 154.159 704.868 154.159C694.943 154.159 687.954 157.496 683.523 164.164C679.092 170.832 676.877 179.42 676.877 189.929V189.923Z" fill="#356BFF"/>
<path d="M307.349 54.3811C309.036 69.5353 319.141 78.1177 334.134 78.1177C343.903 78.1177 349.631 75.9271 357.376 67.6808L374.722 77.1094C363.272 89.5689 350.135 96.6388 333.791 96.6388C303.813 96.6388 286.461 75.759 286.461 48.6555C286.461 21.552 303.476 0 331.936 0C360.396 0 376.235 20.5377 376.235 46.1288C376.235 48.9916 376.067 51.0142 375.563 54.3811H307.349ZM307.853 38.0506H355.689C353.329 24.4148 343.56 17.6809 331.774 17.6809C318.805 17.6809 309.877 25.9332 307.853 38.0506Z" fill="#356BFF"/>
<path d="M410.934 94.6233L373.882 2.02356H395.78L420.541 67.5138L445.302 2.02356H466.695L429.637 94.6233H410.934Z" fill="#356BFF"/>
<path d="M465.169 48.4875C465.169 20.7058 482.515 0 510.813 0C539.11 0 556.456 20.7058 556.456 48.4875C556.456 76.2692 538.774 96.6388 510.813 96.6388C482.851 96.6388 465.169 75.9331 465.169 48.4875ZM485.721 48.4875C485.721 65.8263 495.154 78.4538 510.819 78.4538C526.484 78.4538 535.748 65.8263 535.748 48.4875C535.748 31.1487 526.484 18.3531 510.819 18.3531C495.154 18.3531 485.721 30.8126 485.721 48.4875Z" fill="#356BFF"/>
<path d="M789.55 222.711V234.042H766.879V211.38H778.215C784.471 211.38 789.55 216.451 789.55 222.711Z" fill="#356BFF"/>
</svg>
