<svg width="790" height="239" viewBox="0 0 790 239" fill="none" xmlns="http://www.w3.org/2000/svg">
<path d="M143.23 0.000244141V47.7255H47.7453V238.621H23.8725C10.6933 238.621 0 227.938 0 214.758V23.8629C0 10.6832 10.6873 0.000244141 23.8725 0.000244141H143.23Z" fill="#64C4FF"/>
<path d="M238.72 23.8629V47.7255H190.974V0.000244141H214.847C228.026 0.000244141 238.72 10.6832 238.72 23.8629Z" fill="#64C4FF"/>
<path d="M143.231 95.4451H95.4854V143.17H143.231V95.4451Z" fill="#64C4FF"/>
<path d="M238.72 95.4451V214.752C238.72 227.926 228.033 238.615 214.848 238.615H95.4907L238.72 95.4451Z" fill="#64C4FF"/>
<path d="M348.46 211.704C348.46 208.049 347.457 204.916 345.446 202.318C343.434 199.725 339.009 197.888 332.158 196.826L320.468 195.056C310.195 193.405 302.336 190.656 296.908 186.821C291.474 182.986 288.76 176.817 288.76 168.318C288.76 162.653 290.351 157.815 293.545 153.8C296.734 149.791 301.075 146.718 306.563 144.594C312.05 142.469 318.223 141.407 325.074 141.407C333.93 141.407 340.895 142.529 345.974 144.774C351.054 147.018 354.83 150.025 357.31 153.806C359.79 157.587 361.561 161.776 362.624 166.38L348.628 168.684C346.971 163.727 344.611 159.982 341.543 157.443C338.469 154.904 333.155 153.638 325.602 153.638C317.1 153.638 311.282 155.055 308.154 157.887C305.025 160.72 303.458 163.847 303.458 167.274C303.458 171.055 304.581 174.032 306.827 176.216C309.072 178.401 313.738 180.081 320.823 181.264L334.11 183.388C344.851 185.159 352.561 188.232 357.226 192.595C361.891 196.964 364.221 203.338 364.221 211.716C364.221 219.392 361.147 225.79 355.01 230.928C348.868 236.065 339.658 238.628 327.379 238.628C320.054 238.628 313.383 237.679 307.361 235.795C301.339 233.91 296.469 230.778 292.747 226.408C289.024 222.045 286.929 216.26 286.461 209.058H301.339C302.402 215.431 305.085 219.891 309.396 222.429C313.707 224.968 319.58 226.234 327.019 226.234C334.458 226.234 340.33 224.908 343.578 222.249C346.827 219.596 348.448 216.085 348.448 211.716L348.46 211.704Z" fill="#64C4FF"/>
<path d="M383.889 206.037V156.458H369.719V144.238H383.889V119.271H399.302V144.238H423.571V156.458H399.302V210.106C399.302 214.596 400.305 218.191 402.316 220.909C404.322 223.628 407.39 224.985 411.526 224.985C414.12 224.985 416.426 224.781 418.437 224.366C420.443 223.952 422.214 223.514 423.751 223.04L426.405 234.905C424.039 235.734 421.475 236.412 418.702 236.94C415.928 237.468 412.649 237.738 408.873 237.738C402.022 237.738 396.798 236.382 393.196 233.663C389.593 230.95 387.143 227.199 385.847 222.422C384.544 217.639 383.895 212.183 383.895 206.043L383.889 206.037Z" fill="#64C4FF"/>
<path d="M434.201 204.976V144.246H449.614V201.97C449.614 210.468 451.031 216.488 453.865 220.029C456.699 223.57 461.184 225.34 467.326 225.34C474.291 225.34 480.494 222.861 485.927 217.904C488.875 215.311 491.121 212.563 492.658 209.67C494.195 206.777 494.964 203.032 494.964 198.429V144.246H510.376V235.789H495.144V221.625C490.773 227.531 485.957 231.84 480.704 234.553C475.45 237.265 469.812 238.628 463.79 238.628C453.397 238.628 445.867 235.795 441.202 230.129C436.537 224.464 434.207 216.086 434.207 204.982L434.201 204.976Z" fill="#64C4FF"/>
<path d="M525.781 190.458C525.781 175.352 529.413 163.396 536.672 154.604C543.937 145.811 553.88 141.412 566.519 141.412C571.358 141.412 576.264 142.384 581.223 144.335C586.183 146.286 590.788 149.971 595.039 155.402V109.363H610.452V235.788H595.393V222.507C591.61 227.704 587.245 231.689 582.286 234.462C577.326 237.235 571.478 238.621 564.748 238.621C555.892 238.621 548.566 236.497 542.784 232.247C536.996 227.998 532.716 222.219 529.942 214.897C527.168 207.581 525.781 199.436 525.781 190.464V190.458ZM541.896 190.104C541.896 199.076 543.139 206.158 545.618 211.35C548.098 216.547 551.287 220.232 555.183 222.417C559.08 224.601 563.157 225.694 567.408 225.694C575.79 225.694 582.58 222.981 587.78 217.549C592.98 212.118 595.573 204.094 595.573 193.471V187.271C595.573 175.706 593.064 167.291 588.044 162.04C583.025 156.788 576.558 154.16 568.645 154.16C563.685 154.16 559.164 155.342 555.093 157.701C551.022 160.065 547.798 163.87 545.438 169.122C543.079 174.373 541.896 181.371 541.896 190.104Z" fill="#64C4FF"/>
<path d="M629.053 109.363H644.82V127.248H629.053V109.363ZM629.407 144.245H644.82V235.788H629.407V144.245Z" fill="#64C4FF"/>
<path d="M660.581 190.278C660.581 180.244 662.406 171.595 666.069 164.339C669.726 157.077 674.925 151.442 681.656 147.426C688.387 143.417 696.24 141.407 705.216 141.407C714.193 141.407 722.31 143.357 728.867 147.252C735.418 151.147 740.467 156.699 744.009 163.895C747.552 171.097 749.323 179.655 749.323 189.57C749.323 199.485 747.522 208.283 743.919 215.599C740.317 222.921 735.177 228.587 728.507 232.596C721.836 236.605 713.892 238.616 704.682 238.616C690.746 238.616 679.909 234.307 672.175 225.688C664.442 217.076 660.575 205.264 660.575 190.272L660.581 190.278ZM676.877 189.924C676.877 200.433 679.062 209.046 683.433 215.773C687.798 222.501 694.949 225.868 704.868 225.868C711.479 225.868 716.853 224.338 720.989 221.265C725.12 218.198 728.164 213.919 730.11 208.427C732.061 202.942 733.034 196.712 733.034 189.75C733.034 179.247 730.818 170.689 726.393 164.075C721.968 157.467 714.793 154.16 704.868 154.16C694.943 154.16 687.954 157.497 683.523 164.165C679.092 170.833 676.877 179.421 676.877 189.93V189.924Z" fill="#64C4FF"/>
<path d="M307.349 54.3811C309.036 69.5353 319.141 78.1177 334.134 78.1177C343.903 78.1177 349.631 75.9271 357.376 67.6808L374.722 77.1094C363.272 89.5689 350.135 96.6388 333.792 96.6388C303.813 96.6388 286.461 75.759 286.461 48.6555C286.461 21.552 303.47 0 331.936 0C360.402 0 376.235 20.5377 376.235 46.1288C376.235 48.9916 376.067 51.0142 375.563 54.3811H307.349ZM307.853 38.0506H355.689C353.329 24.4148 343.56 17.6809 331.774 17.6809C318.805 17.6809 309.877 25.9332 307.853 38.0506Z" fill="#64C4FF"/>
<path d="M410.934 94.6228L373.882 2.02307H395.779L420.541 67.5133L445.302 2.02307H466.695L429.637 94.6228H410.934Z" fill="#64C4FF"/>
<path d="M465.169 48.4875C465.169 20.7058 482.515 0 510.812 0C539.11 0 556.456 20.7058 556.456 48.4875C556.456 76.2692 538.774 96.6388 510.812 96.6388C482.851 96.6388 465.169 75.9331 465.169 48.4875ZM485.721 48.4875C485.721 65.8263 495.154 78.4538 510.819 78.4538C526.483 78.4538 535.748 65.8263 535.748 48.4875C535.748 31.1487 526.483 18.3531 510.819 18.3531C495.154 18.3531 485.721 30.8126 485.721 48.4875Z" fill="#64C4FF"/>
<path d="M789.55 222.711V234.042H766.879V211.379H778.215C784.471 211.379 789.55 216.451 789.55 222.711Z" fill="#64C4FF"/>
</svg>
