<svg width="790" height="239" viewBox="0 0 790 239" fill="none" xmlns="http://www.w3.org/2000/svg">
<path d="M143.23 0.00292969V47.7282H47.7453V238.623H23.8726C10.6935 238.623 0 227.94 0 214.761V23.8656C0 10.6859 10.6875 0.00292969 23.8726 0.00292969H143.23Z" fill="#F5F5F5"/>
<path d="M238.72 23.8656V47.7282H190.974V0.00292969H214.847C228.026 0.00292969 238.72 10.6859 238.72 23.8656Z" fill="#F5F5F5"/>
<path d="M143.231 95.4479H95.4854V143.173H143.231V95.4479Z" fill="#F5F5F5"/>
<path d="M238.72 95.4479V214.755C238.72 227.929 228.033 238.618 214.848 238.618H95.4907L238.72 95.4479Z" fill="#F5F5F5"/>
<path d="M348.462 211.705C348.462 208.05 347.459 204.917 345.447 202.319C343.436 199.726 339.011 197.889 332.16 196.827L320.47 195.057C310.197 193.406 302.338 190.657 296.91 186.822C291.476 182.987 288.762 176.818 288.762 168.319C288.762 162.654 290.353 157.816 293.547 153.801C296.736 149.792 301.077 146.719 306.565 144.595C312.052 142.47 318.225 141.408 325.075 141.408C333.932 141.408 340.897 142.53 345.976 144.775C351.056 147.019 354.832 150.026 357.312 153.807C359.792 157.588 361.563 161.777 362.626 166.381L348.63 168.685C346.973 163.728 344.613 159.983 341.545 157.444C338.471 154.905 333.157 153.639 325.604 153.639C317.102 153.639 311.284 155.055 308.156 157.888C305.027 160.721 303.46 163.848 303.46 167.275C303.46 171.056 304.583 174.033 306.829 176.217C309.074 178.402 313.74 180.082 320.824 181.265L334.112 183.389C344.853 185.16 352.563 188.233 357.228 192.596C361.893 196.965 364.223 203.339 364.223 211.717C364.223 219.393 361.149 225.791 355.012 230.929C348.87 236.066 339.66 238.629 327.381 238.629C320.056 238.629 313.385 237.68 307.363 235.796C301.341 233.911 296.471 230.779 292.749 226.409C289.026 222.046 286.931 216.26 286.463 209.059H301.341C302.404 215.432 305.087 219.892 309.398 222.43C313.709 224.969 319.582 226.235 327.021 226.235C334.46 226.235 340.332 224.909 343.58 222.25C346.829 219.597 348.45 216.086 348.45 211.717L348.462 211.705Z" fill="#F5F5F5"/>
<path d="M383.891 206.039V156.46H369.721V144.24H383.891V119.273H399.304V144.24H423.573V156.46H399.304V210.108C399.304 214.598 400.307 218.193 402.318 220.911C404.323 223.63 407.392 224.987 411.528 224.987C414.122 224.987 416.428 224.783 418.439 224.368C420.445 223.954 422.216 223.516 423.753 223.042L426.407 234.907C424.041 235.736 421.477 236.414 418.703 236.942C415.93 237.47 412.651 237.74 408.875 237.74C402.024 237.74 396.8 236.384 393.198 233.665C389.595 230.952 387.145 227.201 385.848 222.424C384.546 217.641 383.897 212.185 383.897 206.045L383.891 206.039Z" fill="#F5F5F5"/>
<path d="M434.203 204.978V144.247H449.616V201.971C449.616 210.469 451.033 216.489 453.867 220.03C456.701 223.571 461.186 225.341 467.328 225.341C474.293 225.341 480.496 222.863 485.929 217.905C488.877 215.312 491.123 212.564 492.66 209.671C494.197 206.778 494.966 203.033 494.966 198.43V144.247H510.378V235.79H495.146V221.626C490.775 227.532 485.959 231.841 480.706 234.554C475.452 237.267 469.814 238.629 463.792 238.629C453.399 238.629 445.869 235.796 441.204 230.131C436.539 224.465 434.209 216.087 434.209 204.984L434.203 204.978Z" fill="#F5F5F5"/>
<path d="M525.783 190.459C525.783 175.352 529.415 163.397 536.674 154.605C543.939 145.812 553.882 141.413 566.521 141.413C571.36 141.413 576.266 142.385 581.225 144.336C586.185 146.286 590.79 149.971 595.041 155.403V109.364H610.454V235.789H595.395V222.508C591.612 227.705 587.247 231.69 582.288 234.463C577.328 237.236 571.48 238.622 564.75 238.622C555.893 238.622 548.568 236.497 542.786 232.248C536.998 227.999 532.718 222.219 529.944 214.897C527.17 207.581 525.783 199.437 525.783 190.465V190.459ZM541.898 190.105C541.898 199.077 543.141 206.159 545.62 211.35C548.1 216.548 551.289 220.233 555.185 222.418C559.082 224.602 563.159 225.694 567.41 225.694C575.792 225.694 582.582 222.982 587.782 217.55C592.982 212.119 595.575 204.094 595.575 193.471V187.272C595.575 175.707 593.066 167.292 588.046 162.041C583.027 156.789 576.56 154.161 568.647 154.161C563.687 154.161 559.166 155.343 555.095 157.702C551.024 160.066 547.8 163.871 545.44 169.123C543.081 174.374 541.898 181.372 541.898 190.105Z" fill="#F5F5F5"/>
<path d="M629.053 109.364H644.82V127.249H629.053V109.364ZM629.407 144.246H644.82V235.789H629.407V144.246Z" fill="#F5F5F5"/>
<path d="M660.583 190.279C660.583 180.245 662.408 171.596 666.071 164.34C669.727 157.078 674.927 151.443 681.658 147.427C688.388 143.418 696.242 141.408 705.218 141.408C714.195 141.408 722.312 143.358 728.869 147.253C735.419 151.148 740.469 156.7 744.011 163.896C747.554 171.098 749.325 179.656 749.325 189.571C749.325 199.486 747.524 208.284 743.921 215.6C740.319 222.922 735.179 228.588 728.509 232.597C721.838 236.606 713.894 238.617 704.684 238.617C690.748 238.617 679.911 234.308 672.177 225.689C664.444 217.077 660.577 205.265 660.577 190.273L660.583 190.279ZM676.878 189.925C676.878 200.434 679.064 209.047 683.435 215.774C687.8 222.502 694.951 225.869 704.87 225.869C711.481 225.869 716.854 224.339 720.991 221.266C725.122 218.199 728.166 213.92 730.112 208.428C732.063 202.943 733.036 196.713 733.036 189.751C733.036 179.248 730.82 170.69 726.395 164.076C721.97 157.468 714.795 154.161 704.87 154.161C694.945 154.161 687.956 157.498 683.525 164.166C679.094 170.834 676.878 179.422 676.878 189.931V189.925Z" fill="#F5F5F5"/>
<path d="M307.351 54.3811C309.038 69.5353 319.143 78.1177 334.136 78.1177C343.904 78.1177 349.632 75.9271 357.378 67.6808L374.724 77.1094C363.274 89.5689 350.137 96.6388 333.794 96.6388C303.815 96.6388 286.463 75.759 286.463 48.6555C286.463 21.552 303.472 0 331.938 0C360.404 0 376.237 20.5377 376.237 46.1288C376.237 48.9916 376.069 51.0142 375.565 54.3811H307.351ZM307.855 38.0506H355.691C353.331 24.4148 343.562 17.6809 331.776 17.6809C318.807 17.6809 309.879 25.9332 307.855 38.0506Z" fill="#F5F5F5"/>
<path d="M410.936 94.6223L373.884 2.02258H395.781L420.543 67.5128L445.304 2.02258H466.697L429.639 94.6223H410.936Z" fill="#F5F5F5"/>
<path d="M465.171 48.4875C465.171 20.7058 482.517 0 510.814 0C539.112 0 556.458 20.7058 556.458 48.4875C556.458 76.2692 538.776 96.6388 510.814 96.6388C482.853 96.6388 465.171 75.9331 465.171 48.4875ZM485.723 48.4875C485.723 65.8263 495.156 78.4538 510.82 78.4538C526.485 78.4538 535.75 65.8263 535.75 48.4875C535.75 31.1487 526.485 18.3531 510.82 18.3531C495.156 18.3531 485.723 30.8126 485.723 48.4875Z" fill="#F5F5F5"/>
<path d="M789.552 222.71V234.041H766.881V211.379H778.217C784.473 211.379 789.552 216.451 789.552 222.71Z" fill="#F5F5F5"/>
</svg>
