<svg width="1169" height="200" viewBox="0 0 1169 200" fill="none" xmlns="http://www.w3.org/2000/svg">
<path d="M162.704 68.2344C167.301 65.8454 172.416 62.4809 178.048 58.121C183.68 53.781 188.914 49.0826 193.77 44.0458C198.626 39.009 202.626 34.0717 205.79 29.2141C208.935 24.3564 210.268 20.2155 209.751 16.8112C209.233 13.4069 206.467 11.1373 201.432 10.0224C196.397 8.90758 188.178 9.64419 176.754 12.1925C155.281 16.9705 135.021 23.8388 116.015 32.7777C97.0093 41.7364 78.899 53.124 61.6644 66.9205C59.9528 68.2941 58.1617 69.9465 56.291 71.9175C54.4202 73.8884 52.7087 76.0186 51.1763 78.308C49.6439 80.6174 48.41 83.0064 47.4747 85.475C46.5393 87.9437 46.0617 90.2929 46.0617 92.5027C47.9324 95.2301 50.9176 96.8427 55.0173 97.3603C59.117 97.8779 63.8336 97.6589 69.207 96.7232C74.5804 95.7875 80.2523 94.2944 86.2028 92.2439C92.1732 90.1933 98.0044 88.0233 103.716 85.7139C109.428 83.4046 114.722 81.1549 119.577 78.9252C124.433 76.7154 128.394 74.9236 131.479 73.5499C132.334 74.9236 132.673 75.8195 132.494 76.2376C132.314 76.6556 132.653 77.5515 133.508 78.9252C132.653 79.6021 130.265 80.7966 126.344 82.5087C122.423 84.2208 117.468 86.3908 111.517 89.0386C105.547 91.6864 98.8999 94.7523 91.5762 98.2562C84.2525 101.76 76.7496 105.682 69.0677 110.022C61.3857 114.362 53.8431 119.1 46.4398 124.217C39.0166 129.333 32.3297 134.708 26.3592 140.342C19.7122 146.653 14.896 152.845 11.9108 158.897C8.9256 164.949 8.06984 170.145 9.36343 174.505C10.6371 178.845 14.299 182.011 20.3689 183.962C26.419 185.932 35.2353 185.873 46.8378 183.842C55.1964 182.468 64.351 180.04 74.3217 176.556C84.2923 173.072 94.3425 168.971 104.492 164.272C114.642 159.574 124.513 154.517 134.165 149.042C143.798 143.587 152.494 138.093 160.256 132.538C168.018 127.004 174.406 121.668 179.441 116.552C184.476 111.436 187.501 106.837 188.516 102.736C190.904 104.607 192.476 106.319 193.253 107.852C194.029 109.385 193.471 111.515 191.581 114.243C190.208 116.293 188.377 118.423 186.088 120.633C183.779 122.843 181.312 125.033 178.665 127.163C176.018 129.293 173.371 131.304 170.744 133.175C168.097 135.047 165.749 136.679 163.719 138.033C148.196 148.266 132.295 157.603 116.035 166.044C99.7557 174.485 82.6604 181.354 64.769 186.629C60.1718 188.003 54.8382 189.357 48.7882 190.73C42.7381 192.104 36.7279 192.781 30.7575 192.781C24.787 192.781 19.2544 191.766 14.1398 189.715C9.02511 187.665 5.10453 184.001 2.37804 178.706C-0.348457 173.43 -0.726584 167.995 1.22376 162.461C3.17409 156.926 6.21901 151.551 10.2988 146.355C14.3985 141.159 18.9957 136.42 24.1104 132.16C29.225 127.9 33.6631 124.396 37.4045 121.668C41.5042 118.762 45.6238 115.915 49.8031 113.108C53.9824 110.301 58.1219 107.434 62.2017 104.547C56.5696 104.209 51.7933 103.094 47.8727 101.223C43.9521 99.3511 41.2256 96.9223 39.6932 93.9361C38.1608 90.9498 38.0414 87.5455 39.3151 83.7032C40.5888 79.8609 43.5342 75.7399 48.1314 71.3003C64.6695 55.4334 83.0385 42.2739 103.238 31.7823C123.438 21.2906 144.534 13.1481 166.525 7.35473C169.769 6.49867 173.311 5.70234 177.132 4.92591C180.973 4.14949 184.794 3.65178 188.635 3.39297C192.476 3.13416 196.218 3.31334 199.88 3.91059C203.542 4.50784 207.004 5.66252 210.228 7.35473C214.149 9.56455 216.836 12.949 218.289 17.4682C219.741 21.9874 219.343 26.2079 217.134 30.1299C215.602 33.0365 212.736 36.6598 208.577 40.9998C204.397 45.3398 199.76 49.6201 194.646 53.781C189.531 57.9617 184.456 61.585 179.421 64.6509C174.386 67.7168 170.247 69.5085 167.022 70.0262L162.684 68.2344H162.704Z" fill="#356BFF"/>
<path d="M318.194 123.239C316.661 124.434 314.134 125.887 310.651 127.579C307.148 129.292 303.109 130.944 298.511 132.557C293.914 134.189 289.058 135.722 283.943 137.155C278.829 138.609 273.834 139.724 268.978 140.48C264.122 141.257 259.644 141.595 255.544 141.495C251.444 141.416 248.121 140.679 245.574 139.325C240.797 142.909 236.021 146.492 231.244 150.076C226.468 153.659 221.174 156.646 215.383 159.035C211.801 160.408 208.517 159.97 205.532 157.76C202.547 155.551 201.313 152.485 201.83 148.543C202.169 145.298 203.363 141.416 205.412 136.897C207.462 132.377 209.85 127.779 212.577 123.08C215.303 118.382 218.11 113.922 221.015 109.642C223.921 105.382 226.389 101.798 228.438 98.8916C230.827 99.7476 232.14 100.643 232.399 101.579C232.658 102.515 232.359 103.928 231.503 105.8C227.583 112.967 223.364 120.472 218.846 128.316C214.328 136.16 211.224 144.004 209.512 151.848C211.562 151.33 213.811 150.534 216.299 149.419C218.766 148.304 221.234 147.11 223.722 145.835C226.19 144.561 228.458 143.267 230.508 141.993C232.558 140.719 234.09 139.564 235.105 138.549C238.17 135.822 240.14 133.612 240.996 131.9C241.852 130.187 242.31 128.655 242.409 127.301C242.489 125.947 242.529 124.494 242.529 122.961C242.529 121.428 243.205 119.477 244.578 117.068C246.29 113.823 248.539 110.339 251.365 106.576C254.171 102.833 257.256 99.2499 260.579 95.8257C263.903 92.4213 267.366 89.3555 270.928 86.6081C274.51 83.8807 278.092 81.7505 281.675 80.2175C285.595 78.5054 288.58 78.0077 290.63 78.6846C292.68 79.3615 293.954 80.7352 294.471 82.7857C294.989 84.8363 294.77 87.1854 293.834 89.8134C292.899 92.4612 291.406 94.89 289.357 97.0998C287.148 99.668 284.401 102.555 281.177 105.8C277.933 109.045 274.53 112.33 270.948 115.654C267.366 118.979 263.923 122.224 260.599 125.37C257.276 128.535 254.33 131.382 251.783 133.93C255.703 134.786 260.44 134.906 265.972 134.308C271.505 133.711 277.316 132.636 283.366 131.103C289.416 129.57 295.466 127.739 301.516 125.609C307.566 123.478 313.059 121.308 318.015 119.079L318.273 123.18L318.194 123.239ZM250.171 125.788C255.803 121.01 261.117 115.893 266.152 110.438C271.187 104.984 275.187 100.245 278.172 96.2437C281.157 92.2422 282.769 89.3356 283.028 87.5438C283.287 85.7521 281.535 86.0507 277.794 88.4397C275.406 90.1518 272.6 92.7001 269.356 96.1044C266.112 99.5087 263.047 103.092 260.141 106.855C257.236 110.598 254.808 114.241 252.857 117.725C250.887 121.229 249.992 123.916 250.171 125.788Z" fill="#356BFF"/>
<path d="M399.51 122.463C397.978 121.786 396.306 121.487 394.515 121.567C392.724 121.646 390.634 121.865 388.246 122.204C385.34 122.721 382.156 123.438 378.654 124.374C375.151 125.309 371.628 126.345 368.046 127.44C364.464 128.554 360.961 129.649 357.558 130.764C354.155 131.879 351.17 132.855 348.602 133.711C347.926 133.89 346.175 135.164 343.368 137.553C340.562 139.942 337.358 142.63 333.776 145.616C330.194 148.602 326.572 151.509 322.91 154.316C319.248 157.123 316.223 159.054 313.835 160.069C310.929 161.443 308.043 161.304 305.138 159.691C302.232 158.078 300.361 155.988 299.506 153.42C298.312 149.16 299.426 143.705 302.829 137.055C306.232 130.406 310.85 124.015 316.641 117.864C319.885 114.28 323.367 110.995 327.129 108.009C330.87 105.023 334.632 102.594 338.373 100.723C342.115 98.8512 345.697 97.6965 349.12 97.2785C352.523 96.8604 355.588 97.4975 358.334 99.1897C360.722 100.723 362.295 102.435 363.071 104.306C363.847 106.177 364.126 108.188 363.966 110.318C363.787 112.449 363.369 114.579 362.693 116.709C362.016 118.839 361.32 120.85 360.643 122.721C362.852 122.383 365.678 121.825 369.081 121.049C372.484 120.292 376.027 119.556 379.688 118.879C383.35 118.202 386.853 117.685 390.177 117.346C393.5 117.008 396.346 117.008 398.734 117.346C399.411 117.525 400.087 117.824 400.784 118.242C401.461 118.66 402.237 119.138 403.093 119.655L399.51 122.463ZM323.825 133.97C328.602 132.257 333.04 130.605 337.119 128.973C341.219 127.36 344.702 125.489 347.607 123.338C350.513 121.208 352.762 118.56 354.394 115.415C356.006 112.269 356.742 108.128 356.563 103.012C351.448 104.207 345.956 106.715 340.065 110.557C334.174 114.4 328.82 118.839 323.945 123.856C319.089 128.893 315.128 134.129 312.044 139.584C308.979 145.039 307.705 149.896 308.203 154.157C312.302 152.444 316.183 150.274 319.845 147.627C323.507 144.979 326.791 142.212 329.696 139.305C328.84 138.29 327.945 137.354 327.009 136.498C326.074 135.642 324.999 134.786 323.805 133.93L323.825 133.97Z" fill="#356BFF"/>
<path d="M599.48 76.4155C602.545 76.9331 606.545 75.9975 611.5 73.6085C616.436 71.2195 621.69 67.9744 627.223 63.8932C632.755 59.7921 638.168 55.2928 643.462 50.3356C648.736 45.3983 653.174 40.7 656.756 36.2604C661.015 31.144 663.662 26.7641 664.677 23.0811C665.692 19.418 665.394 16.4715 663.782 14.2617C662.15 12.0519 659.443 10.5189 655.602 9.66289C651.761 8.80683 647.044 8.54802 641.412 8.88647C631.86 9.40408 621.033 11.5343 608.933 15.277C596.833 19.0397 584.673 23.9372 572.494 29.9893C560.294 36.0414 548.791 42.9496 537.965 50.7139C527.138 58.4781 518.223 66.541 511.237 74.8826C509.705 76.754 507.914 79.0633 505.864 81.7908C503.814 84.5182 502.162 87.4248 500.868 90.4907C499.575 93.5566 498.958 96.5428 498.958 99.4495C498.958 102.356 500.152 104.825 502.54 106.875C505.784 109.603 510.003 111.653 515.198 113.007C520.392 114.381 526.024 115.396 532.074 116.073C538.124 116.75 544.433 117.267 551 117.606C557.568 117.944 563.916 118.581 570.046 119.517C576.175 120.453 581.847 121.866 587.042 123.738C592.236 125.609 596.634 128.257 600.216 131.661C603.122 134.568 604.953 137.594 605.709 140.739C606.465 143.905 606.605 146.931 606.087 149.818C605.57 152.724 604.635 155.412 603.281 157.88C601.908 160.349 600.475 162.36 598.943 163.893C592.972 170.542 585.768 176.515 577.33 181.81C568.892 187.106 560.155 191.267 551.12 194.352C542.084 197.418 533.169 199.25 524.392 199.847C515.615 200.444 507.814 199.29 500.988 196.403C498.261 195.388 496.51 193.417 495.754 190.51C494.978 187.604 494.679 184.279 494.858 180.536C499.794 186.509 507.336 189.953 517.486 190.888C527.636 191.824 538.502 190.51 550.085 186.927C554.184 185.732 558.941 183.721 564.414 180.914C569.867 178.107 575.161 174.942 580.275 171.458C585.39 167.974 589.868 164.171 593.709 160.07C597.55 155.969 599.878 151.968 600.734 148.046C601.59 144.124 600.475 140.421 597.41 136.917C594.345 133.433 588.455 130.487 579.758 128.098C573.966 126.565 567.777 125.629 561.21 125.29C554.642 124.952 548.035 124.614 541.388 124.275C534.741 123.937 528.213 123.339 521.825 122.483C515.436 121.627 509.426 120.015 503.794 117.626C501.068 116.272 498.898 114.301 497.266 111.733C495.654 109.165 494.321 106.198 493.306 102.774C491.594 97.3193 492.112 91.5259 494.838 85.3743C497.565 79.2425 501.864 73.051 507.754 66.8197C513.645 60.5884 520.71 54.4964 528.989 48.5239C537.248 42.5514 546.124 36.8776 555.578 31.5222C565.031 26.147 574.762 21.3292 584.733 17.0688C594.704 12.8084 604.256 9.26472 613.371 6.45765C622.486 3.65057 630.845 1.71947 638.427 0.704141C646.01 -0.311184 652.279 -0.231551 657.214 0.962949C664.717 2.83433 669.493 5.78077 671.543 9.78234C673.593 13.7839 673.752 18.3031 672.061 23.3399C670.349 28.3767 667.244 33.6922 662.727 39.3263C658.209 44.9604 653.055 50.3356 647.263 55.4521C641.472 60.5685 635.541 65.2071 629.491 69.3879C623.441 73.5686 617.988 76.8137 613.132 79.1032C608.276 81.4125 604.475 82.4278 601.749 82.169C599.022 81.9102 598.246 79.999 599.44 76.4155H599.48Z" fill="#356BFF"/>
<path d="M642.189 155.472C643.9 157.523 647.303 158.339 652.418 157.901C657.533 157.483 663.503 156.289 670.329 154.318C677.155 152.367 684.399 149.799 692.062 146.633C699.743 143.488 707.067 140.203 714.053 136.778C721.038 133.374 727.307 130.089 732.859 126.924C738.392 123.778 742.352 121.17 744.741 119.12L746.532 121.688C742.432 125.271 736.382 129.412 728.382 134.091C720.361 138.789 711.844 143.308 702.808 147.648C693.773 151.988 684.897 155.831 676.22 159.155C667.523 162.48 660.458 164.491 654.985 165.168C652.08 165.506 649.313 165.128 646.666 164.013C644.02 162.898 641.771 161.325 639.88 159.275C638.009 157.224 636.596 154.835 635.661 152.108C634.726 149.38 634.606 146.573 635.283 143.667C636.298 138.55 638.009 133.095 640.397 127.302C642.786 121.509 645.552 115.755 648.716 110.042C651.861 104.328 655.184 98.8332 658.687 93.5376C662.17 88.2619 665.473 83.5635 668.538 79.4624C660.697 81.3338 652.896 83.4241 645.134 85.7335C637.372 88.0429 629.491 89.9541 621.471 91.487C619.939 91.8255 618.526 91.7856 617.252 91.3676C615.978 90.9495 615.003 89.7152 614.307 87.6646C617.551 86.4701 622.486 85.0168 629.133 83.3246C635.78 81.6125 642.567 79.7809 649.472 77.8299C656.378 75.8789 662.727 73.8681 668.518 71.8176C674.309 69.767 678.15 67.816 680.021 65.9247C681.036 64.7302 683.265 62.3412 686.668 58.7577C690.071 55.1742 693.693 51.3916 697.534 47.3702C701.375 43.3686 704.858 39.7851 708.022 36.6197C711.167 33.4741 713.097 31.7222 713.774 31.3838C714.63 31.2245 715.426 31.1648 716.202 31.2643C716.978 31.344 717.695 31.6426 718.371 32.1602C718.71 32.8371 719.088 33.4741 719.525 34.0714C719.943 34.6686 720.003 35.3057 719.645 35.9826C719.645 36.1618 719.048 36.9979 717.854 38.5508C716.66 40.0837 715.386 41.8356 714.013 43.7867C712.64 45.7576 711.286 47.5892 709.913 49.2814C708.54 50.9935 707.704 52.0088 707.346 52.3472C705.973 52.0088 704.48 52.3472 702.868 53.3626C701.236 54.3779 699.624 55.7516 698.012 57.4637C696.38 59.1758 694.907 60.868 693.534 62.5801C692.161 64.2922 690.967 65.646 689.952 66.6812C692.161 67.1989 694.947 67.3183 698.271 67.0595C701.594 66.8007 704.838 66.7211 707.983 66.8007C711.127 66.8803 713.953 67.3581 716.421 68.2142C718.889 69.0702 720.56 70.862 721.396 73.5894C715.426 72.0565 709.157 71.6782 702.609 72.4347C696.042 73.2112 690.032 74.4455 684.579 76.1377C682.37 76.8146 679.762 78.905 676.777 82.4088C673.792 85.9127 670.648 90.1731 667.324 95.19C664.001 100.227 660.757 105.761 657.612 111.813C654.448 117.866 651.682 123.719 649.293 129.333C646.905 134.967 645.034 140.123 643.661 144.802C642.308 149.5 641.791 153.024 642.129 155.413L642.189 155.472Z" fill="#356BFF"/>
<path d="M859.812 123.241C855.892 125.63 850.697 128.656 844.209 132.319C837.722 135.982 831.214 139.605 824.646 143.189C818.079 146.772 812.148 149.918 806.874 152.645C801.581 155.373 798.177 156.906 796.645 157.244C794.078 158.618 791.829 159.036 789.859 158.518C787.888 158.001 786.316 156.985 785.122 155.452C783.928 153.919 783.112 152.008 782.694 149.699C782.276 147.389 782.316 144.961 782.814 142.412C783.49 139.167 784.605 135.683 786.137 131.921C787.669 128.178 788.864 125.192 789.719 122.962C782.893 128.417 775.948 134.35 768.883 140.74C761.798 147.131 754.514 152.466 747.011 156.727C743.767 158.439 740.702 158.697 737.797 157.503C734.891 156.308 732.941 153.76 731.906 149.818C730.891 145.717 731.309 141.417 733.179 136.898C735.05 132.379 737.518 127.899 740.603 123.46C743.667 119.02 746.951 114.859 750.454 110.917C753.937 106.995 756.882 103.75 759.27 101.202C761.837 102.058 763.41 103.034 764.007 104.149C764.604 105.263 764.723 106.239 764.385 107.095C763.529 108.966 762.415 110.798 761.061 112.59C759.688 114.381 758.116 116.293 756.325 118.343C754.534 120.394 752.663 122.604 750.693 124.993C748.722 127.382 746.812 130.109 744.941 133.175C742.553 136.758 740.762 140.163 739.568 143.408C738.374 146.653 738.075 148.942 738.672 150.316C739.269 151.69 741.021 151.729 743.906 150.435C746.792 149.141 751.329 145.797 757.459 140.322C760.703 137.595 764.484 134.19 768.843 130.089C773.181 125.988 778.336 121.051 784.306 115.257C785.5 114.063 786.694 113.167 787.888 112.57C789.083 111.973 790.197 111.415 791.212 110.917C792.406 110.241 793.759 110.061 795.312 110.4C796.844 110.738 798.217 111.335 799.411 112.192C800.605 113.048 801.461 114.162 801.979 115.516C802.496 116.89 802.397 118.323 801.72 119.856C800.864 121.728 799.71 123.997 798.277 126.645C796.824 129.293 795.371 132.02 793.938 134.827C792.486 137.634 791.212 140.322 790.097 142.89C788.983 145.458 788.267 147.589 787.928 149.281C788.943 151.331 792.187 151.451 797.64 149.659C803.093 147.867 809.481 145.219 816.825 141.736C824.149 138.252 831.691 134.369 839.453 130.089C847.215 125.829 853.822 122.245 859.275 119.339L859.792 123.181L859.812 123.241Z" fill="#356BFF"/>
<path d="M1001.75 121.689C995.102 124.258 988.276 127.284 981.29 130.768C974.305 134.271 967.22 137.636 960.055 140.881C952.891 144.126 945.607 147.013 938.184 149.581C930.761 152.129 923.317 153.762 915.815 154.439C913.247 154.777 911.038 154.697 909.168 154.18C907.297 153.662 905.545 152.945 903.933 152.01C902.302 151.074 900.65 149.88 898.938 148.426C897.227 146.973 895.356 145.48 893.306 143.947C892.968 144.464 891.595 145.599 889.206 147.391C886.818 149.183 884.211 151.094 881.405 153.145C878.599 155.195 875.912 157.146 873.345 159.037C870.778 160.909 869.086 162.103 868.23 162.621C866.698 163.636 864.986 164.632 863.116 165.567C861.245 166.503 859.275 167.2 857.225 167.618C855.175 168.036 853.046 167.996 850.836 167.498C848.627 166.981 846.239 165.707 843.672 163.656C840.428 160.929 838.935 157.226 839.194 152.527C839.453 147.829 840.906 142.892 843.533 137.696C846.18 132.5 849.722 127.383 854.14 122.346C858.578 117.31 863.255 113.049 868.21 109.565C873.146 106.081 878.062 103.732 882.918 102.538C887.774 101.343 892.072 102.02 895.834 104.588C896.172 103.573 896.65 102.637 897.247 101.781C897.844 100.925 898.401 100.089 898.898 99.2327C905.884 86.9493 913.645 75.7011 922.163 65.4682C930.681 55.2353 940.652 45.8585 952.075 37.3377C954.463 35.4664 956.931 33.8936 959.498 32.5996C962.066 31.3055 964.693 29.9916 967.419 28.6378C968.951 27.9609 970.563 27.8614 972.275 28.379C973.986 28.8966 975.559 29.7925 977.011 31.0666C978.464 32.3407 979.579 33.8339 980.335 35.546C981.111 37.2581 981.231 38.8707 980.713 40.4036C978.842 48.5859 975.081 56.8678 969.469 65.2094C963.837 73.5709 957.409 81.7134 950.164 89.6369C942.92 97.5604 935.497 105.026 927.915 112.014C920.332 119.002 913.725 125.153 908.093 130.429C907.575 130.947 906.779 131.703 905.665 132.738C904.55 133.754 903.456 134.829 902.341 135.944C901.227 137.059 900.292 138.213 899.535 139.388C898.759 140.582 898.56 141.518 898.898 142.195C899.575 144.405 901.147 145.938 903.635 146.794C906.103 147.65 908.789 148.068 911.695 148.068C914.601 148.068 917.367 147.849 920.014 147.431C922.661 147.013 924.492 146.615 925.507 146.276C927.556 145.599 930.581 144.484 934.582 142.951C938.582 141.418 943.139 139.706 948.254 137.835C953.369 135.964 958.643 133.993 964.115 131.942C969.568 129.892 974.763 127.98 979.718 126.189C984.654 124.397 988.972 122.824 992.634 121.45C996.296 120.097 998.903 119.141 1000.44 118.643C1000.77 118.484 1000.95 118.604 1000.95 119.022C1000.95 119.44 1001.21 120.336 1001.73 121.709L1001.75 121.689ZM894.082 108.391C891.515 107.535 888.41 107.913 884.749 109.545C881.087 111.178 877.325 113.507 873.504 116.573C869.683 119.639 866.001 123.262 862.499 127.443C858.996 131.624 856.031 135.804 853.543 139.985C851.075 144.166 849.364 148.128 848.428 151.89C847.493 155.633 847.712 158.719 849.065 161.108C852.13 159.396 855.931 157.305 860.449 154.837C864.966 152.368 869.365 149.641 873.624 146.654C877.883 143.668 881.544 140.423 884.629 136.939C887.694 133.455 889.306 129.911 889.485 126.328C889.644 123.421 890.241 120.395 891.276 117.25C892.291 114.104 893.227 111.158 894.082 108.43V108.391ZM971.559 37.0192C967.638 38.2137 963.16 40.5231 958.125 43.9274C953.09 47.3317 947.975 51.5125 942.781 56.4696C937.587 61.4268 932.432 66.8817 927.318 72.8343C922.203 78.8068 917.606 84.9386 913.506 91.2495C909.406 97.5604 906.003 103.871 903.277 110.182C900.55 116.493 899.018 122.287 898.68 127.582C902.6 124.855 907.277 120.853 912.75 115.558C918.203 110.282 923.835 104.429 929.626 98.0382C935.418 91.6477 941.089 85.0381 946.622 78.2095C952.155 71.381 956.971 65.07 961.07 59.2767C965.17 53.4834 968.235 48.5262 970.285 44.445C972.335 40.3439 972.753 37.8753 971.559 37.0192Z" fill="#356BFF"/>
<path d="M1013.51 117.607C1009.75 122.385 1005.93 127.92 1002.01 134.231C998.086 140.542 995.28 146.673 993.569 152.646C994.424 155.194 997.629 155.632 1003.16 153.92C1008.69 152.228 1015.56 149.441 1023.74 145.598C1031.92 141.756 1040.87 137.456 1050.59 132.678C1060.3 127.9 1069.85 123.639 1079.22 119.897C1080.58 119.22 1081.91 118.961 1083.18 119.12C1084.46 119.299 1085.53 120.394 1086.39 122.445C1085.37 122.783 1082.81 123.898 1078.71 125.77C1074.61 127.641 1069.75 129.95 1064.14 132.678C1058.51 135.405 1052.46 138.272 1045.99 141.238C1039.5 144.225 1033.37 147.091 1027.58 149.799C1021.79 152.526 1016.61 154.915 1012.12 156.966C1007.6 159.016 1004.57 160.291 1003.04 160.808C1000.65 161.664 998.266 161.784 995.877 161.186C993.489 160.589 991.479 159.514 989.867 157.981C988.255 156.448 987.061 154.517 986.285 152.228C985.529 149.918 985.648 147.49 986.663 144.941C987.001 144.085 987.638 142.373 988.573 139.825C989.509 137.257 990.703 134.489 992.156 131.503C993.609 128.517 995.141 125.61 996.753 122.803C998.385 119.996 1000.04 117.826 1001.75 116.273C1003.8 114.402 1005.89 113.586 1008.02 113.844C1010.15 114.103 1011.98 115.338 1013.51 117.547V117.607ZM1028.6 99.6896C1027.58 100.367 1026.43 101.362 1025.15 102.636C1023.88 103.91 1022.55 105.105 1021.19 106.22C1019.82 107.334 1018.58 108.131 1017.49 108.648C1016.38 109.166 1015.48 108.907 1014.8 107.872C1013.61 106.001 1013.61 103.691 1014.8 100.964C1016 98.2363 1017.53 96.3649 1019.4 95.3297C1020.93 94.4736 1022.51 94.5134 1024.14 95.4491C1025.75 96.3848 1027.24 97.7983 1028.62 99.6697L1028.6 99.6896Z" fill="#356BFF"/>
<path d="M1165.4 122.463C1163.87 121.786 1162.19 121.487 1160.42 121.567C1158.63 121.646 1156.54 121.865 1154.15 122.204C1151.25 122.721 1148.06 123.438 1144.56 124.374C1141.06 125.309 1137.54 126.345 1133.95 127.44C1130.37 128.554 1126.87 129.649 1123.47 130.764C1120.06 131.879 1117.08 132.855 1114.51 133.711C1113.83 133.89 1112.08 135.164 1109.28 137.553C1106.47 139.942 1103.27 142.63 1099.68 145.616C1096.1 148.602 1092.48 151.509 1088.82 154.316C1085.16 157.123 1082.13 159.054 1079.74 160.069C1076.84 161.443 1073.95 161.304 1071.05 159.691C1068.14 158.078 1066.27 155.988 1065.41 153.42C1064.22 149.16 1065.33 143.705 1068.74 137.055C1072.14 130.406 1076.76 124.015 1082.55 117.864C1085.79 114.28 1089.27 110.995 1093.04 108.009C1096.78 105.023 1100.54 102.594 1104.28 100.723C1108.02 98.8512 1111.6 97.6965 1115.03 97.2785C1118.43 96.8604 1121.5 97.4975 1124.24 99.1897C1126.63 100.723 1128.2 102.435 1128.98 104.306C1129.75 106.177 1130.03 108.188 1129.87 110.318C1129.69 112.449 1129.28 114.579 1128.6 116.709C1127.92 118.839 1127.23 120.85 1126.55 122.721C1128.76 122.383 1131.59 121.825 1134.99 121.049C1138.39 120.292 1141.93 119.556 1145.6 118.879C1149.26 118.202 1152.76 117.685 1156.08 117.346C1159.41 117.008 1162.25 117.008 1164.64 117.346C1165.32 117.525 1165.99 117.824 1166.69 118.242C1167.37 118.66 1168.14 119.138 1169 119.655L1165.42 122.463H1165.4ZM1089.71 133.97C1094.49 132.257 1098.93 130.605 1103.01 128.973C1107.11 127.36 1110.59 125.489 1113.49 123.338C1116.4 121.208 1118.65 118.56 1120.28 115.415C1121.89 112.269 1122.63 108.128 1122.45 103.012C1117.34 104.207 1111.84 106.715 1105.95 110.557C1100.06 114.4 1094.71 118.839 1089.83 123.856C1084.98 128.893 1081.02 134.129 1077.95 139.584C1074.89 145.039 1073.61 149.896 1074.11 154.157C1078.21 152.444 1082.07 150.274 1085.75 147.627C1089.41 144.979 1092.7 142.212 1095.6 139.305C1094.75 138.29 1093.85 137.354 1092.92 136.498C1091.98 135.642 1090.91 134.786 1089.71 133.93V133.97Z" fill="#356BFF"/>
</svg>
