<svg width="1169" height="200" viewBox="0 0 1169 200" fill="none" xmlns="http://www.w3.org/2000/svg">
<path d="M162.597 68.166C167.191 65.7794 172.303 62.4182 177.931 58.0627C183.559 53.727 188.79 49.0334 193.643 44.0016C198.496 38.9699 202.493 34.0375 205.655 29.1848C208.798 24.332 210.13 20.1952 209.613 16.7943C209.096 13.3934 206.332 11.1261 201.3 10.0124C196.268 8.89864 188.054 9.63451 176.638 12.1802C155.179 16.9534 134.932 23.8149 115.939 32.7448C96.9457 41.6946 78.8472 53.0707 61.6239 66.8533C59.9135 68.2256 58.1236 69.8764 56.2541 71.8453C54.3846 73.8143 52.6742 75.9423 51.1427 78.2295C49.6113 80.5365 48.3783 82.9231 47.4435 85.3893C46.5088 87.8555 46.0314 90.2023 46.0314 92.4099C47.9009 95.1346 50.8842 96.7456 54.9812 97.2627C59.0782 97.7798 63.7917 97.561 69.1616 96.6262C74.5315 95.6915 80.1996 94.1998 86.1463 92.1513C92.1128 90.1028 97.9401 87.935 103.648 85.628C109.356 83.3209 114.646 81.0735 119.499 78.846C124.352 76.6384 128.31 74.8485 131.392 73.4762C132.248 74.8485 132.586 75.7434 132.407 76.1611C132.228 76.5788 132.566 77.4737 133.421 78.846C132.566 79.5222 130.179 80.7155 126.261 82.4259C122.343 84.1363 117.391 86.3042 111.444 88.9493C105.478 91.5945 98.8351 94.6573 91.5161 98.1576C84.1972 101.658 76.6993 105.576 69.0224 109.912C61.3455 114.247 53.8078 118.981 46.4093 124.092C38.991 129.203 32.3085 134.573 26.342 140.202C19.6992 146.506 14.8863 152.692 11.903 158.738C8.91975 164.784 8.06455 169.975 9.35729 174.33C10.6301 178.666 14.2896 181.828 20.3556 183.777C26.4016 185.746 35.2122 185.686 46.8071 183.658C55.1602 182.285 64.3088 179.859 74.2729 176.379C84.237 172.898 94.2806 168.801 104.424 164.107C114.567 159.414 124.431 154.362 134.077 148.893C143.703 143.443 152.394 137.954 160.151 132.405C167.907 126.876 174.292 121.546 179.323 116.435C184.355 111.324 187.378 106.73 188.392 102.633C190.779 104.502 192.35 106.212 193.126 107.744C193.901 109.275 193.345 111.403 191.455 114.128C190.083 116.176 188.253 118.305 185.966 120.512C183.659 122.72 181.193 124.907 178.548 127.036C175.902 129.164 173.257 131.172 170.632 133.042C167.987 134.911 165.64 136.542 163.611 137.895C148.099 148.117 132.208 157.445 115.959 165.878C99.6903 174.31 82.6061 181.172 64.7265 186.442C60.1323 187.814 54.8022 189.167 48.7561 190.539C42.7101 191.911 36.7038 192.588 30.7373 192.588C24.7708 192.588 19.2418 191.573 14.1305 189.525C9.01919 187.476 5.10118 183.817 2.37648 178.527C-0.348228 173.256 -0.726108 167.827 1.22295 162.298C3.17201 156.769 6.21493 151.399 10.292 146.208C14.3891 141.017 18.9833 136.284 24.0946 132.028C29.2059 127.771 33.641 124.271 37.38 121.546C41.477 118.643 45.5939 115.799 49.7705 112.994C53.947 110.19 58.0838 107.326 62.1609 104.442C56.5325 104.104 51.7593 102.991 47.8413 101.121C43.9233 99.2515 41.1986 96.8251 39.6672 93.8419C38.1358 90.8586 38.0164 87.4577 39.2893 83.6192C40.5621 79.7808 43.5056 75.6639 48.0998 71.2288C64.6271 55.3778 82.984 42.2315 103.171 31.7504C123.357 21.2692 144.439 13.1349 166.416 7.34735C169.658 6.49215 173.198 5.69662 177.016 4.92097C180.855 4.14532 184.673 3.64811 188.512 3.38957C192.35 3.13102 196.089 3.31001 199.749 3.90666C203.408 4.50331 206.869 5.65684 210.091 7.34735C214.009 9.55496 216.694 12.936 218.145 17.4506C219.597 21.9653 219.199 26.1816 216.992 30.0996C215.46 33.0033 212.597 36.623 208.44 40.9587C204.263 45.2944 199.629 49.5704 194.518 53.727C189.407 57.9036 184.335 61.5233 179.303 64.5861C174.272 67.6489 170.135 69.4388 166.913 69.9559L162.577 68.166H162.597Z" fill="#64C4FF"/>
<path d="M317.985 123.116C316.454 124.309 313.928 125.761 310.447 127.452C306.947 129.162 302.91 130.813 298.315 132.424C293.721 134.054 288.868 135.586 283.757 137.018C278.646 138.47 273.654 139.583 268.801 140.339C263.948 141.115 259.474 141.453 255.377 141.353C251.28 141.274 247.958 140.538 245.412 139.186C240.639 142.766 235.866 146.345 231.093 149.925C226.32 153.505 221.029 156.489 215.242 158.875C211.662 160.247 208.38 159.81 205.397 157.602C202.414 155.395 201.181 152.332 201.698 148.394C202.036 145.152 203.229 141.274 205.278 136.759C207.326 132.245 209.713 127.65 212.438 122.957C215.162 118.263 217.966 113.808 220.87 109.532C223.774 105.276 226.24 101.696 228.289 98.7924C230.675 99.6476 231.988 100.543 232.246 101.477C232.505 102.412 232.207 103.824 231.351 105.694C227.433 112.853 223.217 120.351 218.702 128.187C214.188 136.023 211.085 143.859 209.375 151.695C211.423 151.178 213.671 150.383 216.157 149.269C218.623 148.155 221.089 146.962 223.575 145.689C226.041 144.416 228.308 143.124 230.357 141.851C232.405 140.578 233.937 139.424 234.951 138.41C238.014 135.685 239.983 133.478 240.838 131.767C241.693 130.057 242.151 128.525 242.25 127.173C242.33 125.821 242.37 124.369 242.37 122.837C242.37 121.306 243.046 119.357 244.418 116.95C246.128 113.709 248.376 110.228 251.2 106.469C254.004 102.73 257.087 99.1504 260.408 95.7296C263.73 92.3287 267.19 89.2658 270.75 86.5213C274.33 83.7965 277.91 81.6685 281.49 80.1371C285.408 78.4267 288.391 77.9295 290.44 78.6057C292.488 79.2819 293.761 80.6542 294.278 82.7027C294.795 84.7512 294.576 87.098 293.642 89.7233C292.707 92.3684 291.215 94.7948 289.167 97.0024C286.959 99.568 284.215 102.452 280.993 105.694C277.751 108.935 274.35 112.217 270.77 115.538C267.19 118.86 263.75 122.102 260.428 125.244C257.107 128.406 254.163 131.25 251.618 133.796C255.536 134.651 260.269 134.77 265.798 134.174C271.327 133.577 277.134 132.503 283.18 130.972C289.227 129.44 295.273 127.611 301.319 125.483C307.365 123.354 312.854 121.187 317.806 118.959L318.065 123.056L317.985 123.116ZM250.007 125.662C255.635 120.888 260.945 115.777 265.977 110.328C271.009 104.878 275.006 100.145 277.99 96.1472C280.973 92.1497 282.584 89.246 282.842 87.456C283.101 85.6661 281.351 85.9644 277.612 88.351C275.225 90.0614 272.421 92.6071 269.179 96.008C265.937 99.4089 262.874 102.989 259.971 106.748C257.067 110.487 254.641 114.126 252.692 117.607C250.723 121.107 249.828 123.792 250.007 125.662Z" fill="#64C4FF"/>
<path d="M399.248 122.34C397.717 121.663 396.046 121.365 394.256 121.445C392.466 121.524 390.378 121.743 387.991 122.081C385.088 122.598 381.906 123.314 378.405 124.249C374.905 125.184 371.385 126.218 367.805 127.312C364.225 128.426 360.725 129.519 357.324 130.633C353.923 131.747 350.939 132.721 348.374 133.577C347.698 133.756 345.947 135.028 343.143 137.415C340.339 139.802 337.137 142.487 333.557 145.47C329.977 148.453 326.357 151.357 322.698 154.161C319.039 156.965 316.015 158.895 313.629 159.909C310.725 161.281 307.841 161.142 304.938 159.531C302.034 157.92 300.164 155.832 299.309 153.266C298.116 149.01 299.23 143.561 302.631 136.918C306.032 130.275 310.646 123.891 316.433 117.745C319.675 114.166 323.155 110.884 326.914 107.901C330.653 104.917 334.412 102.491 338.151 100.622C341.89 98.7521 345.47 97.5985 348.891 97.1809C352.292 96.7632 355.355 97.3997 358.099 99.0902C360.486 100.622 362.057 102.332 362.833 104.201C363.608 106.071 363.887 108.08 363.728 110.208C363.549 112.336 363.131 114.464 362.455 116.592C361.779 118.72 361.083 120.729 360.406 122.598C362.614 122.26 365.438 121.703 368.839 120.928C372.24 120.172 375.78 119.436 379.439 118.76C383.099 118.084 386.599 117.566 389.921 117.228C393.242 116.89 396.086 116.89 398.473 117.228C399.149 117.407 399.825 117.706 400.521 118.123C401.197 118.541 401.973 119.018 402.828 119.535L399.248 122.34ZM323.613 133.835C328.386 132.125 332.821 130.474 336.898 128.843C340.995 127.232 344.476 125.363 347.379 123.215C350.283 121.087 352.531 118.442 354.161 115.299C355.772 112.157 356.508 108.02 356.329 102.909C351.218 104.102 345.729 106.608 339.842 110.446C333.955 114.285 328.605 118.72 323.732 123.732C318.879 128.764 314.922 133.994 311.839 139.444C308.776 144.893 307.503 149.746 308 154.002C312.097 152.292 315.976 150.124 319.635 147.479C323.295 144.833 326.576 142.069 329.48 139.165C328.625 138.151 327.73 137.216 326.795 136.361C325.86 135.506 324.786 134.651 323.593 133.795L323.613 133.835Z" fill="#64C4FF"/>
<path d="M599.087 76.3389C602.15 76.856 606.147 75.9212 611.099 73.5346C616.032 71.148 621.282 67.9062 626.811 63.8291C632.34 59.7321 637.75 55.2373 643.04 50.2851C648.311 45.3528 652.746 40.6592 656.326 36.2241C660.582 31.1127 663.227 26.7373 664.241 23.058C665.255 19.3985 664.957 16.455 663.346 14.2474C661.715 12.0398 659.01 10.5084 655.172 9.6532C651.334 8.798 646.62 8.53945 640.992 8.87755C631.445 9.39465 620.626 11.5227 608.534 15.2617C596.442 19.0206 584.29 23.9132 572.118 29.9592C559.927 36.0053 548.431 42.9065 537.612 50.663C526.793 58.4195 517.883 66.4743 510.902 74.8075C509.37 76.677 507.58 78.984 505.532 81.7087C503.483 84.4334 501.833 87.3372 500.54 90.4C499.247 93.4628 498.631 96.446 498.631 99.3497C498.631 102.253 499.824 104.72 502.211 106.768C505.452 109.493 509.669 111.541 514.86 112.894C520.05 114.266 525.679 115.28 531.725 115.957C537.771 116.633 544.076 117.15 550.639 117.488C557.202 117.826 563.546 118.462 569.672 119.397C575.798 120.332 581.466 121.744 586.657 123.614C591.848 125.483 596.243 128.128 599.823 131.529C602.726 134.433 604.556 137.456 605.312 140.598C606.068 143.76 606.207 146.783 605.69 149.667C605.173 152.571 604.238 155.256 602.886 157.722C601.513 160.188 600.081 162.197 598.55 163.728C592.583 170.371 585.384 176.338 576.951 181.628C568.518 186.918 559.787 191.075 550.758 194.158C541.729 197.22 532.819 199.05 524.048 199.647C515.277 200.243 507.481 199.09 500.659 196.206C497.935 195.192 496.184 193.223 495.429 190.319C494.653 187.415 494.355 184.094 494.534 180.355C499.466 186.322 507.004 189.762 517.147 190.697C527.29 191.632 538.149 190.319 549.724 186.739C553.821 185.546 558.574 183.537 564.044 180.733C569.493 177.929 574.783 174.766 579.895 171.286C585.006 167.805 589.481 164.007 593.319 159.91C597.158 155.813 599.485 151.815 600.34 147.897C601.195 143.979 600.081 140.28 597.018 136.78C593.956 133.299 588.069 130.356 579.378 127.969C573.59 126.438 567.405 125.503 560.841 125.165C554.278 124.827 547.675 124.489 541.033 124.151C534.39 123.812 527.867 123.216 521.482 122.361C515.098 121.505 509.092 119.894 503.464 117.508C500.739 116.155 498.571 114.186 496.94 111.621C495.329 109.055 493.997 106.092 492.982 102.671C491.272 97.2217 491.789 91.4342 494.514 85.2887C497.238 79.163 501.534 72.9778 507.421 66.7527C513.308 60.5276 520.369 54.4418 528.642 48.4753C536.896 42.5088 545.766 36.8406 555.213 31.4906C564.66 26.1208 574.385 21.3078 584.35 17.0517C594.314 12.7956 603.86 9.25543 612.969 6.45117C622.078 3.64691 630.431 1.71774 638.008 0.703434C645.586 -0.310872 651.851 -0.231319 656.783 0.961983C664.281 2.83149 669.054 5.77497 671.103 9.77253C673.151 13.7701 673.31 18.2847 671.62 23.3165C669.909 28.3483 666.807 33.6585 662.292 39.2869C657.777 44.9153 652.626 50.2851 646.839 55.3964C641.051 60.5077 635.125 65.1417 629.078 69.3183C623.032 73.4949 617.583 76.7367 612.73 79.0238C607.878 81.3309 604.079 82.3452 601.354 82.0866C598.629 81.8281 597.854 79.9188 599.047 76.3389H599.087Z" fill="#64C4FF"/>
<path d="M641.767 155.316C643.478 157.365 646.879 158.18 651.99 157.743C657.101 157.325 663.068 156.132 669.89 154.163C676.711 152.214 683.951 149.648 691.608 146.486C699.284 143.344 706.603 140.062 713.584 136.641C720.565 133.24 726.83 129.959 732.379 126.797C737.908 123.654 741.865 121.049 744.252 119L746.042 121.566C741.945 125.146 735.899 129.283 727.904 133.956C719.889 138.65 711.377 143.165 702.347 147.5C693.318 151.836 684.448 155.674 675.776 158.996C667.085 162.317 660.025 164.326 654.556 165.002C651.652 165.34 648.887 164.962 646.242 163.849C643.597 162.735 641.35 161.164 639.46 159.115C637.591 157.067 636.179 154.68 635.244 151.955C634.309 149.231 634.19 146.426 634.866 143.523C635.88 138.411 637.591 132.962 639.977 127.174C642.364 121.387 645.128 115.639 648.291 109.931C651.433 104.223 654.754 98.7341 658.255 93.4438C661.735 88.1734 665.037 83.4797 668.1 79.3827C660.264 81.2522 652.467 83.3405 644.711 85.6475C636.954 87.9546 629.079 89.8639 621.064 91.3953C619.532 91.7334 618.12 91.6936 616.847 91.2759C615.574 90.8583 614.6 89.6252 613.904 87.5767C617.146 86.3834 622.078 84.9315 628.721 83.241C635.363 81.5306 642.145 79.7009 649.047 77.7518C655.948 75.8028 662.292 73.7941 668.08 71.7456C673.867 69.6971 677.706 67.748 679.575 65.8586C680.589 64.6653 682.817 62.2787 686.218 58.6988C689.619 55.1189 693.238 51.3401 697.077 47.3227C700.915 43.3251 704.396 39.7452 707.558 36.5829C710.7 33.4406 712.63 31.6904 713.306 31.3523C714.161 31.1932 714.957 31.1335 715.732 31.233C716.508 31.3125 717.224 31.6108 717.9 32.1279C718.238 32.8041 718.616 33.4406 719.054 34.0372C719.471 34.6339 719.531 35.2703 719.173 35.9465C719.173 36.1255 718.576 36.9608 717.383 38.5121C716.19 40.0435 714.917 41.7937 713.544 43.7427C712.172 45.7117 710.82 47.5414 709.447 49.2319C708.075 50.9423 707.24 51.9566 706.882 52.2947C705.51 51.9566 704.018 52.2947 702.407 53.309C700.776 54.3234 699.165 55.6957 697.554 57.4061C695.923 59.1165 694.452 60.807 693.079 62.5174C691.707 64.2278 690.514 65.5802 689.499 66.6144C691.707 67.1315 694.491 67.2508 697.813 66.9922C701.134 66.7337 704.376 66.6541 707.518 66.7337C710.661 66.8132 713.485 67.2906 715.951 68.1458C718.417 69.001 720.088 70.7909 720.923 73.5156C714.956 71.9842 708.692 71.6063 702.148 72.3621C695.585 73.1377 689.579 74.3708 684.13 76.0613C681.922 76.7375 679.317 78.8258 676.333 82.3262C673.35 85.8265 670.208 90.0826 666.886 95.0945C663.565 100.126 660.323 105.655 657.181 111.701C654.019 117.747 651.254 123.595 648.867 129.203C646.481 134.831 644.611 139.983 643.239 144.656C641.887 149.35 641.37 152.87 641.708 155.257L641.767 155.316Z" fill="#64C4FF"/>
<path d="M859.248 123.117C855.33 125.504 850.139 128.527 843.656 132.186C837.172 135.846 830.669 139.465 824.105 143.045C817.542 146.625 811.616 149.767 806.345 152.492C801.055 155.217 797.654 156.748 796.122 157.086C793.557 158.459 791.31 158.876 789.341 158.359C787.372 157.842 785.8 156.828 784.607 155.296C783.414 153.765 782.598 151.856 782.181 149.549C781.763 147.242 781.803 144.815 782.3 142.27C782.976 139.028 784.09 135.547 785.621 131.788C787.153 128.049 788.346 125.066 789.201 122.839C782.38 128.288 775.439 134.215 768.378 140.599C761.298 146.983 754.019 152.313 746.521 156.569C743.279 158.28 740.216 158.538 737.313 157.345C734.409 156.152 732.46 153.606 731.426 149.668C730.411 145.571 730.829 141.275 732.698 136.76C734.568 132.246 737.034 127.771 740.117 123.336C743.18 118.901 746.461 114.744 749.962 110.806C753.442 106.888 756.385 103.646 758.772 101.101C761.338 101.956 762.909 102.93 763.506 104.044C764.102 105.158 764.222 106.132 763.883 106.988C763.028 108.857 761.915 110.687 760.562 112.477C759.19 114.267 757.619 116.176 755.829 118.225C754.039 120.273 752.169 122.481 750.2 124.867C748.231 127.254 746.322 129.979 744.453 133.041C742.066 136.621 740.276 140.022 739.083 143.264C737.889 146.506 737.591 148.793 738.188 150.165C738.784 151.538 740.534 151.577 743.418 150.285C746.302 148.992 750.837 145.651 756.962 140.181C760.204 137.457 763.983 134.056 768.338 129.959C772.674 125.862 777.825 120.929 783.792 115.142C784.985 113.949 786.178 113.054 787.372 112.457C788.565 111.86 789.679 111.303 790.693 110.806C791.886 110.13 793.239 109.951 794.79 110.289C796.321 110.627 797.694 111.224 798.887 112.079C800.08 112.934 800.935 114.048 801.453 115.4C801.97 116.773 801.87 118.205 801.194 119.736C800.339 121.606 799.185 123.873 797.753 126.518C796.302 129.163 794.85 131.888 793.418 134.692C791.966 137.496 790.693 140.181 789.579 142.747C788.465 145.312 787.75 147.441 787.411 149.131C788.426 151.18 791.668 151.299 797.117 149.509C802.566 147.719 808.951 145.074 816.289 141.593C823.608 138.113 831.146 134.235 838.902 129.959C846.659 125.703 853.262 122.123 858.711 119.219L859.228 123.057L859.248 123.117Z" fill="#64C4FF"/>
<path d="M1001.09 121.567C994.449 124.133 987.627 127.156 980.647 130.636C973.666 134.137 966.586 137.498 959.426 140.74C952.266 143.981 944.987 146.865 937.568 149.431C930.15 151.977 922.712 153.607 915.214 154.284C912.648 154.622 910.441 154.542 908.571 154.025C906.702 153.508 904.952 152.792 903.341 151.857C901.71 150.923 900.059 149.729 898.349 148.277C896.638 146.826 894.769 145.334 892.72 143.802C892.382 144.32 891.01 145.453 888.623 147.243C886.237 149.033 883.631 150.942 880.827 152.991C878.023 155.039 875.338 156.988 872.772 158.878C870.207 160.747 868.516 161.941 867.661 162.458C866.129 163.472 864.419 164.466 862.55 165.401C860.68 166.336 858.711 167.032 856.663 167.45C854.614 167.867 852.486 167.828 850.278 167.33C848.071 166.813 845.684 165.54 843.119 163.492C839.877 160.767 838.385 157.068 838.644 152.374C838.902 147.681 840.354 142.748 842.979 137.558C845.625 132.367 849.165 127.255 853.58 122.224C858.015 117.192 862.689 112.936 867.641 109.455C872.573 105.975 877.486 103.628 882.339 102.435C887.191 101.241 891.487 101.918 895.246 104.483C895.584 103.469 896.062 102.534 896.658 101.679C897.255 100.824 897.812 99.9884 898.309 99.1332C905.29 86.8621 913.046 75.6252 921.558 65.4025C930.071 55.1799 940.035 45.8125 951.451 37.3003C953.837 35.4308 956.303 33.8596 958.869 32.5669C961.435 31.2741 964.06 29.9615 966.784 28.6091C968.316 27.9329 969.927 27.8334 971.637 28.3505C973.348 28.8676 974.919 29.7626 976.371 31.0355C977.823 32.3083 978.936 33.7999 979.692 35.5103C980.468 37.2207 980.587 38.8317 980.07 40.3631C978.2 48.5372 974.442 56.8108 968.833 65.144C963.205 73.4971 956.781 81.6315 949.541 89.547C942.302 97.4626 934.884 104.921 927.306 111.902C919.729 118.882 913.126 125.028 907.497 130.298C906.98 130.815 906.185 131.571 905.071 132.605C903.957 133.62 902.863 134.694 901.75 135.807C900.636 136.921 899.701 138.075 898.945 139.248C898.17 140.441 897.971 141.376 898.309 142.052C898.985 144.26 900.556 145.791 903.042 146.647C905.508 147.502 908.193 147.919 911.097 147.919C914.001 147.919 916.765 147.701 919.41 147.283C922.056 146.865 923.885 146.468 924.9 146.129C926.948 145.453 929.971 144.339 933.969 142.808C937.966 141.277 942.521 139.566 947.632 137.697C952.743 135.827 958.014 133.858 963.483 131.81C968.932 129.761 974.123 127.852 979.076 126.062C984.008 124.272 988.324 122.701 991.983 121.329C995.643 119.976 998.248 119.022 999.779 118.524C1000.12 118.365 1000.3 118.485 1000.3 118.902C1000.3 119.32 1000.55 120.215 1001.07 121.587L1001.09 121.567ZM893.496 108.282C890.93 107.427 887.828 107.805 884.168 109.435C880.509 111.066 876.75 113.393 872.931 116.456C869.113 119.519 865.433 123.138 861.933 127.315C858.433 131.492 855.469 135.668 852.983 139.845C850.517 144.021 848.807 147.979 847.872 151.738C846.937 155.477 847.156 158.56 848.508 160.946C851.571 159.236 855.37 157.148 859.885 154.681C864.399 152.215 868.795 149.491 873.051 146.507C877.307 143.524 880.966 140.282 884.049 136.802C887.112 133.321 888.723 129.781 888.902 126.201C889.061 123.298 889.657 120.275 890.692 117.132C891.706 113.99 892.641 111.046 893.496 108.322V108.282ZM970.921 36.9821C967.003 38.1754 962.528 40.4824 957.497 43.8833C952.465 47.2842 947.354 51.4608 942.163 56.413C936.972 61.3652 931.821 66.8146 926.709 72.7612C921.598 78.7278 917.004 84.8534 912.907 91.158C908.81 97.4626 905.409 103.767 902.684 110.072C899.96 116.376 898.428 122.164 898.09 127.454C902.008 124.73 906.682 120.732 912.151 115.442C917.601 110.171 923.229 104.324 929.016 97.9399C934.804 91.5557 940.472 84.9528 946.001 78.1311C951.53 71.3094 956.343 65.0048 960.44 59.2173C964.537 53.4298 967.6 48.4776 969.648 44.4004C971.697 40.3034 972.115 37.8373 970.921 36.9821Z" fill="#64C4FF"/>
<path d="M1012.85 117.489C1009.09 122.262 1005.27 127.791 1001.35 134.096C997.432 140.401 994.627 146.526 992.917 152.493C993.772 155.038 996.974 155.476 1002.5 153.766C1008.03 152.075 1014.89 149.291 1023.07 145.452C1031.24 141.614 1040.19 137.318 1049.9 132.545C1059.6 127.771 1069.15 123.515 1078.52 119.776C1079.87 119.1 1081.2 118.842 1082.47 119.001C1083.75 119.18 1084.82 120.274 1085.68 122.322C1084.66 122.66 1082.1 123.774 1078 125.643C1073.9 127.513 1069.05 129.82 1063.44 132.545C1057.81 135.269 1051.77 138.133 1045.3 141.097C1038.82 144.08 1032.69 146.944 1026.91 149.649C1021.12 152.373 1015.95 154.76 1011.45 156.808C1006.94 158.857 1003.92 160.13 1002.38 160.647C999.997 161.502 997.611 161.621 995.224 161.025C992.838 160.428 990.829 159.354 989.218 157.823C987.607 156.291 986.414 154.362 985.638 152.075C984.882 149.768 985.002 147.342 986.016 144.796C986.354 143.941 986.99 142.23 987.925 139.685C988.86 137.119 990.053 134.354 991.505 131.371C992.957 128.388 994.488 125.484 996.099 122.68C997.73 119.876 999.381 117.708 1001.09 116.157C1003.14 114.287 1005.23 113.472 1007.36 113.73C1009.48 113.989 1011.31 115.222 1012.85 117.429V117.489ZM1027.92 99.5896C1026.91 100.266 1025.75 101.26 1024.48 102.533C1023.21 103.806 1021.87 104.999 1020.52 106.113C1019.15 107.227 1017.92 108.022 1016.82 108.539C1015.71 109.056 1014.81 108.798 1014.14 107.764C1012.94 105.894 1012.94 103.587 1014.14 100.862C1015.33 98.1378 1016.86 96.2683 1018.73 95.2341C1020.26 94.3789 1021.83 94.4187 1023.47 95.3534C1025.08 96.2882 1026.57 97.7002 1027.94 99.5697L1027.92 99.5896Z" fill="#64C4FF"/>
<path d="M1164.63 122.34C1163.1 121.663 1161.43 121.365 1159.66 121.445C1157.87 121.524 1155.78 121.743 1153.4 122.081C1150.49 122.598 1147.31 123.314 1143.81 124.249C1140.31 125.184 1136.79 126.218 1133.21 127.312C1129.63 128.426 1126.13 129.519 1122.73 130.633C1119.33 131.747 1116.34 132.721 1113.78 133.577C1113.1 133.756 1111.35 135.028 1108.55 137.415C1105.74 139.802 1102.54 142.487 1098.96 145.47C1095.38 148.453 1091.76 151.357 1088.1 154.161C1084.44 156.965 1081.42 158.895 1079.03 159.909C1076.13 161.281 1073.25 161.142 1070.34 159.531C1067.44 157.92 1065.57 155.832 1064.71 153.266C1063.52 149.01 1064.63 143.561 1068.04 136.918C1071.44 130.275 1076.05 123.891 1081.84 117.745C1085.08 114.166 1088.56 110.884 1092.32 107.901C1096.06 104.917 1099.82 102.491 1103.56 100.622C1107.3 98.7521 1110.88 97.5985 1114.3 97.1809C1117.7 96.7632 1120.76 97.3997 1123.5 99.0902C1125.89 100.622 1127.46 102.332 1128.24 104.201C1129.01 106.071 1129.29 108.08 1129.13 110.208C1128.95 112.336 1128.54 114.464 1127.86 116.592C1127.18 118.72 1126.49 120.729 1125.81 122.598C1128.02 122.26 1130.84 121.703 1134.24 120.928C1137.64 120.172 1141.19 119.436 1144.84 118.76C1148.5 118.084 1152 117.566 1155.33 117.228C1158.65 116.89 1161.49 116.89 1163.88 117.228C1164.55 117.407 1165.23 117.706 1165.93 118.123C1166.6 118.541 1167.38 119.018 1168.23 119.535L1164.65 122.34H1164.63ZM1089 133.835C1093.77 132.125 1098.21 130.474 1102.28 128.843C1106.38 127.232 1109.86 125.363 1112.76 123.215C1115.67 121.087 1117.92 118.442 1119.55 115.299C1121.16 112.157 1121.89 108.02 1121.71 102.909C1116.6 104.102 1111.11 106.608 1105.23 110.446C1099.34 114.285 1093.99 118.72 1089.12 123.732C1084.26 128.764 1080.31 133.994 1077.24 139.444C1074.18 144.893 1072.91 149.746 1073.41 154.002C1077.5 152.292 1081.36 150.124 1085.04 147.479C1088.7 144.833 1091.98 142.069 1094.89 139.165C1094.03 138.151 1093.13 137.216 1092.2 136.361C1091.27 135.506 1090.19 134.651 1089 133.795V133.835Z" fill="#64C4FF"/>
</svg>
