<svg width="1066" height="183" viewBox="0 0 1066 183" fill="none" xmlns="http://www.w3.org/2000/svg">
<path d="M148.273 62.1608C152.462 59.9844 157.123 56.9194 162.256 52.9475C167.389 48.9938 172.158 44.7137 176.584 40.1252C181.009 35.5367 184.654 31.0389 187.538 26.6137C190.403 22.1884 191.619 18.4161 191.147 15.3148C190.675 12.2135 188.155 10.146 183.566 9.13033C178.978 8.1147 171.487 8.78574 161.077 11.1072C141.508 15.4599 123.045 21.7169 105.725 29.8601C88.4051 38.0214 71.9011 48.3953 56.1951 60.9638C54.6353 62.2152 53.0031 63.7205 51.2983 65.516C49.5935 67.3115 48.0337 69.252 46.6372 71.3377C45.2407 73.4415 44.1163 75.6179 43.2639 77.8668C42.4115 80.1157 41.9762 82.2558 41.9762 84.2689C43.681 86.7535 46.4015 88.2226 50.1375 88.6941C53.8736 89.1657 58.1719 88.9662 63.0687 88.1138C67.9655 87.2614 73.1343 85.9011 78.5571 84.0331C83.9979 82.1651 89.3119 80.1882 94.517 78.0844C99.7221 75.9806 104.546 73.9312 108.972 71.8999C113.397 69.8868 117.006 68.2546 119.817 67.0032C120.597 68.2546 120.905 69.0707 120.742 69.4515C120.579 69.8324 120.887 70.6485 121.667 71.8999C120.887 72.5166 118.711 73.6048 115.138 75.1645C111.565 76.7242 107.049 78.701 101.626 81.1132C96.1855 83.5253 90.128 86.3183 83.4539 89.5103C76.7797 92.7022 69.9423 96.2751 62.9417 100.229C55.9411 104.182 49.0675 108.499 42.3208 113.16C35.556 117.821 29.4622 122.718 24.0213 127.85C17.9638 133.6 13.5748 139.24 10.8544 144.753C8.13395 150.267 7.35409 155 8.53295 158.972C9.69367 162.926 13.0307 165.81 18.5623 167.587C24.0757 169.382 32.1101 169.328 42.6835 167.478C50.3008 166.227 58.6434 164.014 67.7297 160.84C76.816 157.666 85.9748 153.93 95.2243 149.65C104.474 145.37 113.469 140.763 122.265 135.776C131.043 130.807 138.969 125.801 146.042 120.741C153.115 115.699 158.937 110.839 163.525 106.177C168.114 101.516 170.871 97.327 171.796 93.5909C173.972 95.2957 175.405 96.8554 176.112 98.2519C176.819 99.6484 176.312 101.589 174.589 104.074C173.337 105.942 171.669 107.882 169.583 109.895C167.479 111.909 165.23 113.904 162.818 115.844C160.406 117.785 157.994 119.616 155.6 121.321C153.188 123.026 151.048 124.513 149.198 125.747C135.052 135.069 120.561 143.574 105.743 151.264C90.9079 158.954 75.3288 165.211 59.0243 170.017C54.8348 171.269 49.9743 172.502 44.4609 173.753C38.9475 175.005 33.4703 175.621 28.0294 175.621C22.5886 175.621 17.5467 174.696 12.8856 172.828C8.22463 170.96 4.65179 167.623 2.16712 162.799C-0.317551 157.993 -0.66214 153.042 1.11521 148C2.89257 142.958 5.66742 138.061 9.38535 133.327C13.1214 128.594 17.3109 124.277 21.9719 120.396C26.6329 116.515 30.6773 113.323 34.0869 110.839C37.823 108.191 41.5772 105.597 45.3858 103.04C49.1945 100.483 52.9668 97.8711 56.6847 95.2413C51.5522 94.933 47.1995 93.9174 43.6266 92.2125C40.0538 90.5077 37.5691 88.2951 36.1726 85.5747C34.7761 82.8542 34.6673 79.7529 35.828 76.2526C36.9887 72.7523 39.6729 68.9981 43.8624 64.9538C58.9336 50.4991 75.6734 38.5111 94.0817 28.9533C112.49 19.3955 131.714 11.9777 151.755 6.70007C154.711 5.92021 157.94 5.19476 161.422 4.48745C164.922 3.78013 168.404 3.32673 171.904 3.09096C175.405 2.85518 178.814 3.01841 182.151 3.5625C185.488 4.10659 188.644 5.15849 191.582 6.70007C195.155 8.7132 197.604 11.7964 198.927 15.9133C200.251 20.0302 199.889 23.8751 197.876 27.448C196.479 30.0959 193.867 33.3967 190.077 37.3504C186.268 41.3041 182.043 45.2034 177.382 48.9938C172.721 52.8025 168.096 56.1033 163.507 58.8962C158.919 61.6892 155.147 63.3215 152.208 63.793L148.255 62.1608H148.273Z" fill="#F5F5F5"/>
<path d="M289.972 112.27C288.575 113.358 286.272 114.682 283.098 116.223C279.906 117.783 276.224 119.288 272.035 120.757C267.845 122.245 263.42 123.641 258.759 124.947C254.098 126.271 249.546 127.287 245.121 127.976C240.695 128.683 236.615 128.991 232.879 128.901C229.143 128.828 226.114 128.157 223.792 126.924C219.44 130.188 215.087 133.453 210.734 136.717C206.382 139.982 201.557 142.702 196.28 144.879C193.015 146.13 190.023 145.731 187.302 143.718C184.582 141.705 183.457 138.912 183.929 135.321C184.237 132.365 185.325 128.828 187.193 124.711C189.061 120.594 191.238 116.405 193.722 112.125C196.207 107.844 198.764 103.782 201.412 99.8827C204.06 96.0015 206.309 92.737 208.177 90.0891C210.353 90.8689 211.55 91.6851 211.786 92.5375C212.022 93.3899 211.75 94.6776 210.97 96.3824C207.397 102.911 203.552 109.749 199.435 116.894C195.318 124.04 192.489 131.186 190.929 138.332C192.798 137.86 194.847 137.135 197.114 136.119C199.363 135.103 201.612 134.015 203.879 132.854C206.128 131.694 208.195 130.515 210.063 129.354C211.931 128.193 213.328 127.141 214.253 126.217C217.046 123.732 218.841 121.719 219.621 120.159C220.401 118.599 220.818 117.203 220.909 115.97C220.981 114.736 221.018 113.412 221.018 112.016C221.018 110.619 221.634 108.842 222.886 106.647C224.445 103.691 226.495 100.517 229.07 97.0897C231.627 93.6801 234.438 90.4155 237.467 87.2961C240.496 84.1948 243.652 81.4018 246.898 78.899C250.163 76.4143 253.427 74.4737 256.692 73.0773C260.264 71.5175 262.985 71.0641 264.853 71.6808C266.721 72.2974 267.882 73.5488 268.353 75.4168C268.825 77.2849 268.625 79.4249 267.773 81.8189C266.92 84.2311 265.56 86.4437 263.692 88.4568C261.679 90.7964 259.176 93.4262 256.238 96.3824C253.282 99.3386 250.181 102.331 246.916 105.36C243.652 108.389 240.514 111.345 237.485 114.21C234.457 117.094 231.772 119.687 229.451 122.009C233.024 122.789 237.34 122.898 242.382 122.353C247.424 121.809 252.72 120.83 258.233 119.434C263.747 118.037 269.26 116.369 274.773 114.428C280.287 112.487 285.292 110.511 289.808 108.479L290.044 112.215L289.972 112.27ZM227.982 114.591C233.114 110.238 237.957 105.577 242.545 100.608C247.134 95.6388 250.779 91.3223 253.5 87.6769C256.22 84.0316 257.689 81.3837 257.925 79.7514C258.161 78.1191 256.565 78.3912 253.155 80.5675C250.979 82.1273 248.421 84.4487 245.465 87.55C242.509 90.6513 239.716 93.9158 237.068 97.3436C234.42 100.753 232.208 104.072 230.43 107.246C228.635 110.438 227.819 112.886 227.982 114.591Z" fill="#F5F5F5"/>
<path d="M364.076 111.562C362.679 110.945 361.156 110.673 359.524 110.746C357.891 110.818 355.987 111.018 353.811 111.326C351.163 111.798 348.261 112.451 345.069 113.303C341.877 114.155 338.667 115.098 335.402 116.096C332.138 117.112 328.946 118.109 325.845 119.125C322.743 120.14 320.023 121.029 317.683 121.809C317.067 121.972 315.471 123.133 312.913 125.309C310.356 127.486 307.436 129.934 304.172 132.654C300.907 135.375 297.606 138.023 294.269 140.58C290.932 143.137 288.176 144.896 285.999 145.821C283.351 147.073 280.722 146.946 278.074 145.477C275.426 144.008 273.721 142.103 272.941 139.764C271.853 135.883 272.869 130.913 275.97 124.856C279.071 118.798 283.279 112.977 288.556 107.372C291.513 104.108 294.686 101.115 298.114 98.395C301.524 95.6746 304.952 93.4619 308.361 91.7571C311.771 90.0523 315.035 89.0004 318.155 88.6196C321.256 88.2387 324.049 88.8191 326.552 90.3606C328.728 91.7571 330.161 93.3168 330.868 95.0217C331.576 96.7265 331.83 98.5582 331.684 100.499C331.521 102.439 331.14 104.38 330.524 106.321C329.907 108.261 329.272 110.093 328.656 111.798C330.669 111.489 333.244 110.982 336.345 110.274C339.447 109.585 342.675 108.914 346.012 108.297C349.349 107.681 352.541 107.209 355.57 106.901C358.599 106.593 361.192 106.593 363.368 106.901C363.985 107.064 364.602 107.336 365.237 107.717C365.853 108.098 366.56 108.533 367.34 109.005L364.076 111.562ZM295.104 122.045C299.456 120.485 303.501 118.98 307.219 117.492C310.955 116.023 314.129 114.319 316.776 112.36C319.424 110.419 321.474 108.007 322.961 105.142C324.43 102.276 325.101 98.5038 324.938 93.8428C320.277 94.931 315.271 97.2161 309.903 100.716C304.534 104.217 299.656 108.261 295.212 112.831C290.787 117.42 287.178 122.19 284.367 127.159C281.574 132.128 280.413 136.554 280.867 140.435C284.603 138.875 288.139 136.898 291.476 134.486C294.813 132.074 297.806 129.553 300.454 126.905C299.674 125.98 298.858 125.128 298.005 124.348C297.153 123.568 296.174 122.788 295.085 122.008L295.104 122.045Z" fill="#F5F5F5"/>
<path d="M546.309 69.6137C549.102 70.0852 552.748 69.2328 557.263 67.0565C561.761 64.8801 566.549 61.9239 571.591 58.206C576.633 54.4699 581.566 50.3711 586.39 45.8552C591.196 41.3574 595.241 37.0772 598.505 33.0328C602.387 28.3718 604.799 24.3818 605.724 21.0266C606.649 17.6896 606.377 15.0054 604.908 12.9923C603.42 10.9791 600.954 9.58264 597.453 8.80278C593.953 8.02292 589.655 7.78715 584.522 8.09547C575.817 8.56701 565.951 10.5076 554.924 13.9172C543.897 17.345 532.816 21.8065 521.716 27.3199C510.599 32.8333 500.116 39.1266 490.25 46.1998C480.384 53.2729 472.259 60.6181 465.893 68.2172C464.497 69.922 462.864 72.0258 460.996 74.5105C459.128 76.9951 457.623 79.643 456.444 82.436C455.265 85.229 454.703 87.9494 454.703 90.5973C454.703 93.2452 455.791 95.4941 457.967 97.3622C460.924 99.8468 464.769 101.715 469.502 102.948C474.236 104.2 479.368 105.124 484.882 105.741C490.395 106.358 496.144 106.829 502.129 107.138C508.114 107.446 513.9 108.026 519.486 108.879C525.072 109.731 530.241 111.019 534.974 112.724C539.708 114.428 543.716 116.84 546.98 119.942C549.628 122.59 551.297 125.346 551.986 128.212C552.675 131.096 552.802 133.852 552.33 136.482C551.859 139.13 551.007 141.578 549.773 143.827C548.522 146.076 547.216 147.908 545.82 149.304C540.379 155.362 533.813 160.803 526.124 165.627C518.434 170.451 510.472 174.242 502.238 177.053C494.004 179.846 485.879 181.514 477.881 182.058C469.883 182.603 462.774 181.551 456.553 178.921C454.068 177.996 452.472 176.2 451.783 173.553C451.076 170.905 450.804 167.876 450.967 164.466C455.465 169.907 462.338 173.045 471.588 173.897C480.837 174.75 490.74 173.553 501.295 170.288C505.031 169.2 509.366 167.368 514.353 164.811C519.322 162.254 524.147 159.37 528.808 156.196C533.469 153.022 537.549 149.558 541.05 145.822C544.55 142.086 546.672 138.441 547.452 134.868C548.232 131.295 547.216 127.922 544.423 124.73C541.63 121.556 536.262 118.872 528.336 116.695C523.059 115.299 517.418 114.447 511.433 114.138C505.448 113.83 499.427 113.522 493.369 113.213C487.312 112.905 481.363 112.361 475.542 111.581C469.72 110.801 464.243 109.332 459.11 107.156C456.625 105.922 454.649 104.127 453.161 101.787C451.692 99.4478 450.477 96.7455 449.552 93.6261C447.993 88.6567 448.464 83.3791 450.949 77.775C453.433 72.189 457.351 66.5486 462.719 60.872C468.087 55.1953 474.526 49.6456 482.071 44.2048C489.597 38.7639 497.686 33.5951 506.301 28.7164C514.915 23.8196 523.784 19.4306 532.87 15.5495C541.957 11.6683 550.662 8.44006 558.968 5.88284C567.275 3.32563 574.892 1.56641 581.802 0.641464C588.712 -0.283485 594.425 -0.21094 598.923 0.877236C605.76 2.58204 610.113 5.26621 611.981 8.9116C613.849 12.557 613.994 16.6739 612.452 21.2624C610.893 25.8509 608.063 30.6932 603.946 35.8258C599.829 40.9584 595.132 45.8552 589.854 50.5162C584.577 55.1772 579.172 59.403 573.659 63.2116C568.145 67.0202 563.176 69.9764 558.751 72.0621C554.325 74.1659 550.861 75.0908 548.377 74.855C545.892 74.6193 545.185 72.8782 546.273 69.6137H546.309Z" fill="#F5F5F5"/>
<path d="M585.23 141.634C586.789 143.502 589.891 144.245 594.552 143.846C599.213 143.465 604.654 142.377 610.874 140.582C617.095 138.804 623.697 136.465 630.679 133.581C637.68 130.716 644.354 127.723 650.72 124.604C657.086 121.502 662.799 118.51 667.859 115.626C672.9 112.761 676.51 110.385 678.686 108.517L680.318 110.856C676.582 114.121 671.069 117.893 663.778 122.155C656.469 126.435 648.707 130.552 640.473 134.506C632.239 138.46 624.15 141.96 616.243 144.989C608.317 148.018 601.879 149.849 596.891 150.466C594.243 150.774 591.723 150.43 589.31 149.414C586.898 148.398 584.849 146.966 583.126 145.098C581.421 143.23 580.133 141.053 579.281 138.569C578.429 136.084 578.32 133.527 578.936 130.879C579.861 126.218 581.421 121.248 583.597 115.971C585.774 110.693 588.295 105.452 591.178 100.247C594.044 95.0415 597.073 90.0359 600.265 85.2117C603.439 80.4056 606.449 76.1254 609.242 72.3893C602.096 74.0941 594.987 75.9984 587.914 78.1022C580.841 80.206 573.659 81.9471 566.35 83.3436C564.953 83.6519 563.666 83.6157 562.505 83.2348C561.344 82.854 560.456 81.7295 559.821 79.8615C562.777 78.7733 567.275 77.4493 573.332 75.9078C579.39 74.348 585.574 72.6795 591.868 70.9022C598.161 69.1248 603.946 67.293 609.224 65.425C614.502 63.557 618.002 61.7796 619.707 60.0567C620.632 58.9685 622.663 56.7921 625.764 53.5276C628.866 50.2631 632.166 46.8172 635.667 43.1537C639.167 39.5083 642.341 36.2438 645.224 33.3601C648.09 30.4946 649.849 28.8986 650.466 28.5903C651.246 28.4452 651.971 28.3908 652.678 28.4814C653.386 28.554 654.039 28.826 654.655 29.2976C654.964 29.9142 655.308 30.4946 655.707 31.0386C656.088 31.5827 656.143 32.1631 655.816 32.7797C655.816 32.943 655.272 33.7047 654.184 35.1193C653.096 36.5158 651.935 38.1118 650.683 39.8891C649.432 41.6846 648.199 43.3532 646.947 44.8948C645.696 46.4545 644.934 47.3794 644.608 47.6877C643.356 47.3794 641.996 47.6877 640.527 48.6127C639.04 49.5376 637.571 50.789 636.102 52.3488C634.615 53.9085 633.273 55.4501 632.021 57.0098C630.77 58.5695 629.682 59.8028 628.757 60.7458C630.77 61.2174 633.309 61.3262 636.338 61.0904C639.366 60.8547 642.323 60.7821 645.188 60.8547C648.054 60.9272 650.629 61.3625 652.878 62.1423C655.127 62.9222 656.65 64.5545 657.412 67.0391C651.971 65.6426 646.258 65.298 640.291 65.9872C634.306 66.6945 628.829 67.819 623.86 69.3606C621.847 69.9772 619.471 71.8815 616.751 75.0735C614.03 78.2655 611.165 82.1466 608.136 86.717C605.107 91.3055 602.151 96.3473 599.285 101.861C596.402 107.374 593.881 112.706 591.704 117.821C589.528 122.953 587.823 127.651 586.572 131.913C585.339 136.193 584.867 139.403 585.175 141.579L585.23 141.634Z" fill="#F5F5F5"/>
<path d="M783.551 112.271C779.978 114.447 775.245 117.204 769.332 120.541C763.42 123.878 757.489 127.179 751.504 130.443C745.519 133.708 740.115 136.573 735.309 139.058C730.484 141.543 727.383 142.939 725.987 143.248C723.647 144.499 721.598 144.88 719.802 144.408C718.007 143.937 716.574 143.012 715.486 141.615C714.398 140.219 713.654 138.478 713.273 136.374C712.892 134.27 712.929 132.058 713.382 129.736C713.999 126.78 715.014 123.606 716.411 120.178C717.807 116.769 718.895 114.048 719.675 112.017C713.455 116.986 707.125 122.391 700.687 128.213C694.23 134.034 687.592 138.895 680.755 142.776C677.799 144.336 675.006 144.572 672.358 143.483C669.71 142.395 667.932 140.074 666.989 136.483C666.064 132.747 666.445 128.829 668.15 124.712C669.855 120.595 672.104 116.515 674.915 112.47C677.708 108.426 680.7 104.635 683.892 101.044C687.066 97.4716 689.75 94.5154 691.927 92.194C694.266 92.9739 695.699 93.8625 696.243 94.8782C696.787 95.8938 696.896 96.7825 696.588 97.5623C695.808 99.2671 694.792 100.936 693.559 102.568C692.308 104.2 690.875 105.941 689.243 107.809C687.61 109.677 685.906 111.69 684.11 113.867C682.315 116.043 680.574 118.528 678.869 121.321C676.692 124.585 675.06 127.687 673.972 130.643C672.884 133.599 672.612 135.685 673.156 136.936C673.7 138.188 675.296 138.224 677.926 137.045C680.555 135.866 684.69 132.819 690.276 127.832C693.233 125.347 696.678 122.246 700.65 118.51C704.604 114.774 709.301 110.276 714.742 104.998C715.83 103.91 716.919 103.094 718.007 102.55C719.095 102.006 720.111 101.498 721.036 101.044C722.124 100.428 723.357 100.265 724.772 100.573C726.168 100.881 727.419 101.425 728.508 102.205C729.596 102.985 730.376 104.001 730.847 105.234C731.319 106.485 731.228 107.791 730.611 109.188C729.832 110.892 728.78 112.96 727.474 115.372C726.15 117.784 724.826 120.269 723.52 122.826C722.196 125.383 721.035 127.832 720.02 130.171C719.004 132.511 718.351 134.451 718.043 135.993C718.968 137.861 721.924 137.97 726.893 136.338C731.863 134.705 737.685 132.293 744.377 129.119C751.051 125.946 757.925 122.409 764.998 118.51C772.071 114.629 778.092 111.364 783.062 108.716L783.533 112.216L783.551 112.271Z" fill="#F5F5F5"/>
<path d="M912.899 110.858C906.841 113.197 900.621 115.954 894.255 119.128C887.889 122.32 881.433 125.385 874.904 128.341C868.374 131.297 861.737 133.927 854.972 136.266C848.207 138.588 841.424 140.075 834.587 140.692C832.247 141 830.234 140.928 828.529 140.456C826.824 139.984 825.228 139.332 823.759 138.479C822.272 137.627 820.767 136.539 819.207 135.215C817.647 133.891 815.943 132.53 814.074 131.134C813.766 131.605 812.515 132.639 810.338 134.271C808.162 135.904 805.786 137.645 803.229 139.513C800.672 141.381 798.223 143.158 795.884 144.881C793.544 146.586 792.003 147.674 791.223 148.146C789.826 149.071 788.267 149.978 786.562 150.83C784.857 151.682 783.061 152.317 781.193 152.698C779.325 153.079 777.385 153.043 775.372 152.589C773.359 152.118 771.182 150.957 768.843 149.089C765.886 146.604 764.526 143.231 764.762 138.951C764.998 134.671 766.322 130.173 768.716 125.439C771.128 120.706 774.356 116.045 778.382 111.456C782.427 106.868 786.689 102.986 791.205 99.8126C795.702 96.6388 800.182 94.4987 804.607 93.4105C809.033 92.3223 812.95 92.939 816.378 95.2785C816.686 94.3536 817.121 93.5012 817.665 92.7213C818.21 91.9415 818.717 91.1797 819.171 90.3999C825.537 79.2098 832.61 68.9628 840.372 59.6408C848.134 50.3187 857.221 41.7766 867.631 34.0142C869.807 32.3094 872.056 30.8767 874.396 29.6978C876.735 28.519 879.129 27.322 881.614 26.0887C883.01 25.4721 884.479 25.3814 886.039 25.8529C887.599 26.3245 889.032 27.1406 890.356 28.3013C891.68 29.462 892.695 30.8223 893.384 32.382C894.092 33.9417 894.201 35.4107 893.729 36.8072C892.024 44.2612 888.596 51.8059 883.482 59.405C878.349 67.0222 872.491 74.44 865.89 81.6582C859.288 88.8764 852.523 95.6775 845.613 102.043C838.704 108.409 832.682 114.013 827.55 118.819C827.078 119.291 826.353 119.98 825.337 120.923C824.321 121.848 823.324 122.828 822.308 123.843C821.293 124.859 820.44 125.911 819.751 126.981C819.044 128.069 818.862 128.921 819.171 129.538C819.787 131.551 821.22 132.948 823.487 133.727C825.736 134.507 828.184 134.888 830.832 134.888C833.48 134.888 836.001 134.689 838.413 134.308C840.826 133.927 842.494 133.564 843.419 133.256C845.287 132.639 848.044 131.624 851.689 130.227C855.334 128.831 859.488 127.271 864.149 125.566C868.81 123.861 873.616 122.066 878.603 120.198C883.573 118.33 888.306 116.589 892.822 114.956C897.32 113.324 901.255 111.891 904.593 110.64C907.93 109.407 910.306 108.536 911.702 108.083C912.01 107.938 912.174 108.046 912.174 108.427C912.174 108.808 912.409 109.624 912.881 110.876L912.899 110.858ZM814.782 98.7426C812.442 97.9627 809.613 98.3073 806.276 99.7945C802.939 101.282 799.511 103.404 796.029 106.197C792.547 108.99 789.192 112.29 786 116.099C782.808 119.908 780.105 123.716 777.838 127.525C775.589 131.333 774.03 134.943 773.177 138.37C772.325 141.78 772.524 144.591 773.758 146.767C776.551 145.208 780.015 143.303 784.131 141.054C788.248 138.806 792.257 136.321 796.138 133.6C800.019 130.88 803.356 127.924 806.167 124.75C808.96 121.576 810.429 118.348 810.592 115.083C810.737 112.435 811.281 109.679 812.225 106.813C813.15 103.948 814.002 101.264 814.782 98.7788V98.7426ZM885.386 33.7241C881.813 34.8122 877.733 36.916 873.144 40.0173C868.556 43.1187 863.895 46.9273 859.161 51.4432C854.428 55.9591 849.73 60.9285 845.069 66.3512C840.408 71.7921 836.219 77.3781 832.483 83.1273C828.747 88.8764 825.645 94.6256 823.161 100.375C820.676 106.124 819.28 111.402 818.971 116.226C822.544 113.741 826.806 110.096 831.794 105.272C836.763 100.466 841.895 95.1334 847.173 89.3117C852.451 83.49 857.62 77.4687 862.662 71.248C867.703 65.0273 872.092 59.2781 875.828 54.0004C879.565 48.7228 882.357 44.2068 884.225 40.4889C886.094 36.7528 886.474 34.5039 885.386 33.7241Z" fill="#F5F5F5"/>
<path d="M923.617 107.139C920.189 111.491 916.707 116.533 913.134 122.283C909.561 128.032 907.004 133.618 905.444 139.059C906.224 141.38 909.144 141.779 914.186 140.219C919.228 138.678 925.485 136.139 932.939 132.638C940.393 129.138 948.554 125.221 957.405 120.868C966.255 116.515 974.961 112.634 983.503 109.224C984.736 108.608 985.951 108.372 987.112 108.517C988.273 108.68 989.252 109.678 990.032 111.546C989.107 111.854 986.767 112.87 983.031 114.575C979.295 116.279 974.87 118.383 969.755 120.868C964.623 123.353 959.109 125.964 953.215 128.666C947.303 131.387 941.717 133.999 936.439 136.465C931.162 138.95 926.446 141.126 922.347 142.994C918.23 144.862 915.474 146.023 914.077 146.494C911.901 147.274 909.724 147.383 907.548 146.839C905.372 146.295 903.54 145.316 902.071 143.919C900.602 142.523 899.514 140.763 898.806 138.678C898.117 136.574 898.226 134.361 899.151 132.04C899.459 131.26 900.04 129.7 900.892 127.379C901.744 125.039 902.833 122.518 904.157 119.798C905.481 117.077 906.877 114.43 908.346 111.872C909.833 109.315 911.339 107.338 912.898 105.924C914.766 104.219 916.671 103.475 918.611 103.711C920.552 103.947 922.22 105.071 923.617 107.084V107.139ZM937.364 90.8161C936.439 91.4327 935.387 92.3395 934.227 93.5003C933.066 94.661 931.851 95.7492 930.617 96.7648C929.366 97.7804 928.242 98.5059 927.244 98.9774C926.228 99.449 925.412 99.2132 924.796 98.2701C923.708 96.5653 923.708 94.4615 924.796 91.9768C925.884 89.4921 927.28 87.7873 928.985 86.8443C930.382 86.0644 931.814 86.1007 933.302 86.9531C934.771 87.8055 936.131 89.0931 937.382 90.798L937.364 90.8161Z" fill="#F5F5F5"/>
<path d="M1062.03 111.562C1060.64 110.945 1059.11 110.673 1057.5 110.746C1055.87 110.818 1053.96 111.018 1051.79 111.326C1049.14 111.798 1046.24 112.451 1043.04 113.303C1039.85 114.155 1036.64 115.098 1033.38 116.096C1030.11 117.112 1026.92 118.109 1023.82 119.125C1020.72 120.14 1018 121.029 1015.66 121.809C1015.04 121.972 1013.45 123.133 1010.89 125.309C1008.33 127.486 1005.41 129.934 1002.15 132.654C998.883 135.375 995.582 138.023 992.245 140.58C988.908 143.137 986.151 144.896 983.974 145.821C981.327 147.073 978.697 146.946 976.049 145.477C973.401 144.008 971.696 142.103 970.916 139.764C969.828 135.883 970.844 130.913 973.945 124.856C977.046 118.798 981.254 112.977 986.532 107.372C989.488 104.108 992.662 101.115 996.089 98.395C999.499 95.6746 1002.93 93.4619 1006.34 91.7571C1009.75 90.0523 1013.01 89.0004 1016.13 88.6196C1019.23 88.2387 1022.02 88.8191 1024.53 90.3606C1026.7 91.7571 1028.14 93.3168 1028.84 95.0217C1029.55 96.7265 1029.8 98.5582 1029.66 100.499C1029.5 102.439 1029.12 104.38 1028.5 106.321C1027.88 108.261 1027.25 110.093 1026.63 111.798C1028.64 111.489 1031.22 110.982 1034.32 110.274C1037.42 109.585 1040.65 108.914 1043.99 108.297C1047.32 107.681 1050.52 107.209 1053.55 106.901C1056.57 106.593 1059.17 106.593 1061.34 106.901C1061.96 107.064 1062.58 107.336 1063.21 107.717C1063.83 108.098 1064.54 108.533 1065.32 109.005L1062.05 111.562H1062.03ZM993.061 122.045C997.413 120.485 1001.46 118.98 1005.18 117.492C1008.91 116.023 1012.09 114.319 1014.73 112.36C1017.38 110.419 1019.43 108.007 1020.92 105.142C1022.39 102.276 1023.06 98.5038 1022.89 93.8428C1018.23 94.931 1013.23 97.2161 1007.86 100.716C1002.49 104.217 997.613 108.261 993.17 112.831C988.744 117.42 985.135 122.19 982.342 127.159C979.549 132.128 978.388 136.554 978.842 140.435C982.578 138.875 986.096 136.898 989.452 134.486C992.789 132.074 995.781 129.553 998.429 126.905C997.649 125.98 996.833 125.128 995.981 124.348C995.128 123.568 994.149 122.788 993.061 122.008V122.045Z" fill="#F5F5F5"/>
</svg>
