<svg width="497" height="239" viewBox="0 0 497 239" fill="none" xmlns="http://www.w3.org/2000/svg">
<path d="M253.442 0V23.7549H205.929V118.778H194.052C187.491 118.778 182.174 113.458 182.174 106.9V11.8775C182.174 5.31689 187.494 0 194.052 0H253.442Z" fill="#212121"/>
<path d="M300.953 11.8775V23.7549H277.198V0H289.076C295.636 0 300.953 5.32008 300.953 11.8775Z" fill="#212121"/>
<path d="M253.438 47.5129H229.684V71.2679H253.438V47.5129Z" fill="#212121"/>
<path d="M300.951 47.5129V106.903C300.951 113.461 295.631 118.781 289.074 118.781H229.684L300.951 47.5129Z" fill="#212121"/>
<path d="M216.872 220.86C216.872 218.545 216.236 216.563 214.966 214.916C213.694 213.273 210.893 212.112 206.558 211.441L199.16 210.319C192.657 209.273 187.685 207.534 184.248 205.104C180.808 202.677 179.091 198.771 179.091 193.386C179.091 189.799 180.101 186.733 182.119 184.191C184.136 181.65 186.882 179.706 190.361 178.36C193.836 177.014 197.743 176.342 202.079 176.342C207.683 176.342 212.095 177.055 215.308 178.472C218.522 179.891 220.916 181.8 222.483 184.191C224.053 186.583 225.175 189.237 225.846 192.152L216.99 193.61C215.942 190.471 214.448 188.098 212.504 186.49C210.561 184.885 207.197 184.08 202.414 184.08C197.033 184.08 193.35 184.978 191.368 186.772C189.386 188.565 188.398 190.547 188.398 192.715C188.398 195.107 189.108 196.996 190.527 198.377C191.947 199.762 194.901 200.826 199.387 201.571L207.795 202.917C214.595 204.039 219.474 205.983 222.428 208.749C225.379 211.514 226.857 215.552 226.857 220.86C226.857 225.719 224.913 229.773 221.025 233.025C217.137 236.276 211.306 237.904 203.533 237.904C198.897 237.904 194.674 237.306 190.863 236.11C187.049 234.914 183.967 232.932 181.613 230.167C179.257 227.401 177.93 223.737 177.633 219.178H187.052C187.723 223.216 189.424 226.036 192.155 227.644C194.882 229.252 198.6 230.055 203.31 230.055C208.019 230.055 211.737 229.214 213.793 227.532C215.849 225.851 216.878 223.628 216.878 220.86H216.872Z" fill="#212121"/>
<path d="M239.298 217.273V185.877H230.327V178.14H239.298V162.33H249.052V178.14H264.415V185.877H249.052V219.85C249.052 222.692 249.689 224.972 250.958 226.689C252.227 228.409 254.171 229.269 256.79 229.269C258.433 229.269 259.891 229.138 261.163 228.876C262.433 228.613 263.555 228.335 264.527 228.035L266.208 235.548C264.712 236.072 263.088 236.501 261.329 236.836C259.571 237.172 257.499 237.342 255.108 237.342C250.772 237.342 247.463 236.482 245.184 234.762C242.901 233.045 241.35 230.669 240.532 227.641C239.707 224.614 239.298 221.158 239.298 217.27V217.273Z" fill="#212121"/>
<path d="M271.138 216.597V178.138H280.893V214.691C280.893 220.072 281.791 223.886 283.585 226.127C285.379 228.369 288.218 229.491 292.105 229.491C296.514 229.491 300.44 227.921 303.881 224.781C305.748 223.138 307.171 221.402 308.142 219.567C309.114 217.735 309.6 215.363 309.6 212.447V178.135H319.355V236.103H309.712V227.131C306.947 230.869 303.9 233.599 300.575 235.316C297.247 237.036 293.678 237.896 289.867 237.896C283.288 237.896 278.524 236.103 275.57 232.515C272.616 228.928 271.142 223.621 271.142 216.593L271.138 216.597Z" fill="#212121"/>
<path d="M329.11 207.404C329.11 197.838 331.408 190.267 336.006 184.698C340.604 179.129 346.899 176.344 354.898 176.344C357.961 176.344 361.065 176.961 364.205 178.195C367.345 179.429 370.26 181.766 372.952 185.203V156.051H382.707V236.108H373.176V227.7C370.785 230.99 368.019 233.512 364.879 235.268C361.74 237.023 358.041 237.902 353.779 237.902C348.171 237.902 343.535 236.556 339.874 233.864C336.211 231.172 333.503 227.511 331.744 222.875C329.986 218.243 329.11 213.082 329.11 207.401V207.404ZM339.312 207.177C339.312 212.859 340.098 217.344 341.668 220.631C343.238 223.921 345.255 226.258 347.724 227.639C350.192 229.023 352.769 229.714 355.461 229.714C360.768 229.714 365.065 227.994 368.355 224.557C371.645 221.12 373.288 216.037 373.288 209.307V205.38C373.288 198.056 371.699 192.729 368.521 189.401C365.343 186.076 361.251 184.41 356.244 184.41C353.104 184.41 350.246 185.158 347.666 186.651C345.089 188.148 343.049 190.558 341.556 193.883C340.06 197.212 339.315 201.64 339.315 207.171L339.312 207.177Z" fill="#212121"/>
<path d="M394.477 156.05H404.455V167.374H394.477V156.05ZM394.7 178.139H404.455V236.107H394.7V178.139Z" fill="#212121"/>
<path d="M414.436 207.293C414.436 200.94 415.593 195.464 417.911 190.866C420.226 186.269 423.519 182.701 427.777 180.159C432.039 177.617 437.008 176.348 442.689 176.348C448.37 176.348 453.508 177.582 457.658 180.047C461.805 182.512 465.002 186.029 467.243 190.588C469.484 195.147 470.607 200.566 470.607 206.846C470.607 213.125 469.465 218.694 467.186 223.327C464.906 227.963 461.655 231.55 457.431 234.092C453.208 236.634 448.182 237.903 442.35 237.903C433.529 237.903 426.671 235.176 421.773 229.718C416.878 224.264 414.429 216.786 414.429 207.293H414.436ZM424.75 207.066C424.75 213.719 426.131 219.177 428.9 223.436C431.665 227.697 436.189 229.827 442.465 229.827C446.65 229.827 450.052 228.855 452.667 226.911C455.283 224.967 457.211 222.256 458.441 218.781C459.676 215.305 460.293 211.363 460.293 206.951C460.293 200.298 458.892 194.879 456.088 190.693C453.284 186.508 448.744 184.414 442.465 184.414C436.186 184.414 431.758 186.528 428.954 190.748C426.15 194.971 424.75 200.41 424.75 207.063V207.066Z" fill="#212121"/>
<path d="M13.2203 211.861C14.2882 221.456 20.6857 226.894 30.1717 226.894C36.355 226.894 39.9806 225.506 44.885 220.282L55.8641 226.251C48.6161 234.142 40.3003 238.618 29.9575 238.618C10.9823 238.618 0 225.398 0 208.232C0 191.067 10.768 177.421 28.784 177.421C46.8 177.421 56.8232 190.427 56.8232 206.634C56.8232 208.446 56.7146 209.725 56.3948 211.858H13.217L13.2203 211.861ZM13.54 201.518H43.8204C42.3273 192.883 36.1439 188.618 28.6818 188.618C20.4714 188.618 14.8221 193.842 13.54 201.518Z" fill="#212121"/>
<path d="M90.6247 237.342H78.7887L55.3342 178.703H69.194L84.8665 220.176L100.539 178.703H114.079L90.6247 237.342Z" fill="#212121"/>
<path d="M113.117 208.129C113.117 190.538 124.096 177.424 142.01 177.424C159.923 177.424 170.902 190.538 170.902 208.129C170.902 225.72 159.709 238.621 142.01 238.621C124.31 238.621 113.117 225.506 113.117 208.129ZM126.123 208.129C126.123 219.112 132.092 227.108 142.01 227.108C151.927 227.108 157.788 219.112 157.788 208.129C157.788 197.147 151.924 189.045 142.01 189.045C132.095 189.045 126.123 196.936 126.123 208.129Z" fill="#212121"/>
<path d="M496.073 227.83V235.005H481.725V220.656H488.899C492.86 220.656 496.073 223.869 496.073 227.83Z" fill="#212121"/>
</svg>
