<svg width="497" height="239" viewBox="0 0 497 239" fill="none" xmlns="http://www.w3.org/2000/svg">
<path d="M253.442 0V23.7549H205.929V118.778H194.052C187.491 118.778 182.174 113.458 182.174 106.9V11.8775C182.174 5.31689 187.494 0 194.052 0H253.442Z" fill="#356BFF"/>
<path d="M300.953 11.8775V23.7549H277.198V0H289.076C295.636 0 300.953 5.32008 300.953 11.8775Z" fill="#356BFF"/>
<path d="M253.439 47.5125H229.684V71.2674H253.439V47.5125Z" fill="#356BFF"/>
<path d="M300.952 47.5125V106.903C300.952 113.46 295.631 118.78 289.074 118.78H229.684L300.952 47.5125Z" fill="#356BFF"/>
<path d="M216.872 220.858C216.872 218.543 216.236 216.561 214.966 214.914C213.694 213.271 210.893 212.11 206.558 211.439L199.16 210.317C192.656 209.271 187.685 207.532 184.248 205.102C180.808 202.676 179.091 198.769 179.091 193.385C179.091 189.797 180.101 186.731 182.119 184.189C184.136 181.648 186.882 179.704 190.361 178.358C193.836 177.012 197.743 176.34 202.079 176.34C207.683 176.34 212.095 177.053 215.308 178.47C218.522 179.889 220.916 181.798 222.483 184.189C224.053 186.581 225.175 189.235 225.846 192.15L216.99 193.608C215.941 190.469 214.448 188.096 212.504 186.488C210.561 184.883 207.197 184.078 202.414 184.078C197.033 184.078 193.35 184.976 191.368 186.77C189.386 188.563 188.398 190.545 188.398 192.713C188.398 195.105 189.108 196.994 190.527 198.375C191.947 199.76 194.901 200.824 199.387 201.569L207.795 202.915C214.595 204.037 219.474 205.981 222.428 208.747C225.379 211.512 226.857 215.55 226.857 220.858C226.857 225.717 224.913 229.771 221.025 233.023C217.137 236.275 211.306 237.902 203.533 237.902C198.897 237.902 194.674 237.304 190.863 236.108C187.049 234.913 183.967 232.93 181.614 230.165C179.257 227.399 177.93 223.735 177.633 219.176H187.052C187.723 223.214 189.424 226.034 192.155 227.642C194.882 229.25 198.6 230.053 203.309 230.053C208.019 230.053 211.737 229.212 213.793 227.53C215.849 225.849 216.878 223.627 216.878 220.858H216.872Z" fill="#356BFF"/>
<path d="M239.298 217.271V185.875H230.327V178.138H239.298V162.328H249.052V178.138H264.415V185.875H249.052V219.848C249.052 222.69 249.689 224.97 250.958 226.687C252.227 228.407 254.171 229.267 256.79 229.267C258.433 229.267 259.891 229.136 261.163 228.874C262.433 228.612 263.555 228.333 264.527 228.033L266.208 235.546C264.712 236.07 263.088 236.499 261.33 236.835C259.571 237.17 257.499 237.34 255.108 237.34C250.773 237.34 247.463 236.48 245.184 234.76C242.901 233.043 241.351 230.667 240.532 227.64C239.707 224.612 239.298 221.156 239.298 217.268V217.271Z" fill="#356BFF"/>
<path d="M271.138 216.596V178.137H280.893V214.69C280.893 220.071 281.791 223.885 283.585 226.126C285.379 228.368 288.218 229.49 292.105 229.49C296.514 229.49 300.44 227.92 303.881 224.78C305.748 223.137 307.171 221.401 308.142 219.566C309.114 217.734 309.6 215.362 309.6 212.446V178.134H319.355V236.102H309.712V227.13C306.947 230.868 303.9 233.598 300.575 235.315C297.246 237.035 293.678 237.895 289.867 237.895C283.288 237.895 278.524 236.102 275.57 232.514C272.615 228.927 271.142 223.62 271.142 216.592L271.138 216.596Z" fill="#356BFF"/>
<path d="M329.108 207.404C329.108 197.838 331.407 190.267 336.004 184.698C340.602 179.128 346.897 176.344 354.896 176.344C357.959 176.344 361.064 176.961 364.203 178.195C367.343 179.429 370.259 181.766 372.951 185.203V156.051H382.705V236.108H373.174V227.7C370.783 230.99 368.017 233.512 364.878 235.267C361.738 237.023 358.039 237.902 353.777 237.902C348.169 237.902 343.534 236.556 339.873 233.864C336.209 231.172 333.501 227.511 331.742 222.875C329.984 218.243 329.108 213.082 329.108 207.401V207.404ZM339.31 207.177C339.31 212.859 340.097 217.344 341.666 220.631C343.236 223.921 345.254 226.258 347.722 227.639C350.19 229.023 352.767 229.714 355.459 229.714C360.766 229.714 365.063 227.994 368.353 224.557C371.643 221.12 373.286 216.036 373.286 209.306V205.38C373.286 198.056 371.697 192.729 368.519 189.401C365.341 186.076 361.249 184.41 356.242 184.41C353.103 184.41 350.244 185.158 347.664 186.651C345.087 188.148 343.048 190.558 341.555 193.883C340.058 197.212 339.313 201.64 339.313 207.171L339.31 207.177Z" fill="#356BFF"/>
<path d="M394.477 156.048H404.455V167.372H394.477V156.048ZM394.7 178.137H404.455V236.105H394.7V178.137Z" fill="#356BFF"/>
<path d="M414.436 207.292C414.436 200.939 415.593 195.462 417.911 190.865C420.226 186.267 423.519 182.699 427.777 180.157C432.039 177.616 437.008 176.346 442.689 176.346C448.37 176.346 453.508 177.58 457.658 180.045C461.805 182.51 465.002 186.027 467.243 190.586C469.484 195.146 470.607 200.565 470.607 206.844C470.607 213.123 469.465 218.693 467.186 223.325C464.906 227.961 461.655 231.549 457.431 234.09C453.208 236.632 448.182 237.901 442.35 237.901C433.529 237.901 426.671 235.174 421.773 229.717C416.878 224.262 414.429 216.784 414.429 207.292H414.436ZM424.75 207.065C424.75 213.718 426.131 219.176 428.9 223.434C431.665 227.696 436.189 229.825 442.465 229.825C446.65 229.825 450.052 228.853 452.667 226.909C455.283 224.966 457.21 222.254 458.441 218.779C459.675 215.304 460.293 211.362 460.293 206.95C460.293 200.296 458.892 194.877 456.088 190.692C453.284 186.507 448.744 184.413 442.465 184.413C436.186 184.413 431.758 186.526 428.954 190.746C426.15 194.97 424.75 200.408 424.75 207.061V207.065Z" fill="#356BFF"/>
<path d="M13.2203 211.859C14.2882 221.454 20.6857 226.892 30.1717 226.892C36.355 226.892 39.9805 225.505 44.885 220.281L55.8641 226.25C48.6161 234.14 40.3003 238.617 29.9574 238.617C10.9822 238.617 0 225.396 0 208.231C0 191.065 10.7681 177.42 28.7841 177.42C46.8001 177.42 56.8232 190.426 56.8232 206.632C56.8232 208.445 56.7145 209.724 56.3948 211.856H13.2171L13.2203 211.859ZM13.54 201.517H43.8204C42.3273 192.881 36.1439 188.616 28.6818 188.616C20.4714 188.616 14.8221 193.84 13.54 201.517Z" fill="#356BFF"/>
<path d="M90.6245 237.341H78.7886L55.3342 178.702H69.1939L84.8664 220.175L100.539 178.702H114.079L90.6245 237.341Z" fill="#356BFF"/>
<path d="M113.117 208.128C113.117 190.537 124.096 177.422 142.01 177.422C159.923 177.422 170.902 190.537 170.902 208.128C170.902 225.719 159.709 238.619 142.01 238.619C124.31 238.619 113.117 225.504 113.117 208.128ZM126.123 208.128C126.123 219.11 132.092 227.106 142.01 227.106C151.927 227.106 157.788 219.11 157.788 208.128C157.788 197.146 151.924 189.044 142.01 189.044C132.095 189.044 126.123 196.935 126.123 208.128Z" fill="#356BFF"/>
<path d="M496.074 227.829V235.003H481.725V220.654H488.899C492.86 220.654 496.074 223.868 496.074 227.829Z" fill="#356BFF"/>
</svg>
