<svg width="497" height="239" viewBox="0 0 497 239" fill="none" xmlns="http://www.w3.org/2000/svg">
<path d="M253.442 0V23.7549H205.929V118.778H194.052C187.491 118.778 182.174 113.458 182.174 106.9V11.8775C182.174 5.31689 187.494 0 194.052 0H253.442Z" fill="#64C4FF"/>
<path d="M300.953 11.8775V23.7549H277.198V0H289.076C295.636 0 300.953 5.32008 300.953 11.8775Z" fill="#64C4FF"/>
<path d="M253.438 47.5128H229.684V71.2678H253.438V47.5128Z" fill="#64C4FF"/>
<path d="M300.951 47.5128V106.903C300.951 113.461 295.631 118.781 289.074 118.781H229.684L300.951 47.5128Z" fill="#64C4FF"/>
<path d="M216.872 220.859C216.872 218.544 216.236 216.562 214.966 214.915C213.694 213.272 210.893 212.112 206.558 211.44L199.16 210.318C192.657 209.272 187.685 207.533 184.248 205.103C180.808 202.677 179.091 198.77 179.091 193.386C179.091 189.799 180.101 186.732 182.119 184.191C184.136 181.649 186.882 179.705 190.361 178.359C193.836 177.013 197.743 176.342 202.079 176.342C207.683 176.342 212.095 177.055 215.308 178.471C218.522 179.891 220.916 181.799 222.483 184.191C224.053 186.582 225.175 189.236 225.846 192.152L216.99 193.61C215.942 190.47 214.448 188.098 212.504 186.489C210.561 184.884 207.197 184.079 202.414 184.079C197.033 184.079 193.35 184.977 191.368 186.771C189.386 188.564 188.398 190.547 188.398 192.714C188.398 195.106 189.108 196.995 190.527 198.377C191.947 199.761 194.901 200.826 199.387 201.57L207.795 202.917C214.595 204.039 219.474 205.983 222.428 208.748C225.379 211.514 226.857 215.552 226.857 220.859C226.857 225.719 224.913 229.773 221.025 233.024C217.137 236.276 211.306 237.903 203.533 237.903C198.897 237.903 194.674 237.305 190.863 236.109C187.049 234.914 183.967 232.931 181.613 230.166C179.257 227.4 177.93 223.736 177.633 219.177H187.052C187.723 223.215 189.424 226.035 192.155 227.643C194.882 229.252 198.6 230.054 203.31 230.054C208.019 230.054 211.737 229.213 213.793 227.531C215.849 225.85 216.878 223.628 216.878 220.859H216.872Z" fill="#64C4FF"/>
<path d="M239.298 217.273V185.876H230.327V178.139H239.298V162.329H249.052V178.139H264.415V185.876H249.052V219.849C249.052 222.692 249.689 224.971 250.958 226.688C252.227 228.408 254.171 229.268 256.79 229.268C258.433 229.268 259.891 229.137 261.163 228.875C262.433 228.613 263.555 228.335 264.527 228.034L266.208 235.548C264.712 236.072 263.088 236.5 261.329 236.836C259.571 237.172 257.499 237.341 255.108 237.341C250.772 237.341 247.463 236.481 245.184 234.761C242.901 233.044 241.35 230.669 240.532 227.641C239.707 224.613 239.298 221.157 239.298 217.269V217.273Z" fill="#64C4FF"/>
<path d="M271.138 216.597V178.138H280.893V214.692C280.893 220.072 281.791 223.887 283.585 226.128C285.379 228.369 288.218 229.491 292.105 229.491C296.514 229.491 300.44 227.921 303.881 224.782C305.748 223.138 307.171 221.402 308.142 219.567C309.114 217.735 309.6 215.363 309.6 212.447V178.135H319.355V236.103H309.712V227.132C306.947 230.869 303.9 233.6 300.575 235.316C297.247 237.037 293.678 237.897 289.867 237.897C283.288 237.897 278.524 236.103 275.57 232.516C272.616 228.929 271.142 223.621 271.142 216.594L271.138 216.597Z" fill="#64C4FF"/>
<path d="M329.11 207.404C329.11 197.839 331.408 190.268 336.006 184.698C340.604 179.129 346.899 176.344 354.898 176.344C357.961 176.344 361.065 176.961 364.205 178.195C367.345 179.429 370.26 181.766 372.952 185.203V156.052H382.707V236.109H373.176V227.7C370.785 230.99 368.019 233.513 364.879 235.268C361.74 237.023 358.041 237.902 353.779 237.902C348.171 237.902 343.535 236.556 339.874 233.864C336.211 231.172 333.503 227.511 331.744 222.876C329.986 218.243 329.11 213.083 329.11 207.401V207.404ZM339.312 207.178C339.312 212.859 340.098 217.345 341.668 220.631C343.238 223.921 345.255 226.258 347.724 227.639C350.192 229.024 352.769 229.714 355.461 229.714C360.768 229.714 365.065 227.994 368.355 224.557C371.645 221.12 373.288 216.037 373.288 209.307V205.381C373.288 198.056 371.699 192.73 368.521 189.401C365.343 186.076 361.251 184.41 356.244 184.41C353.104 184.41 350.246 185.159 347.666 186.652C345.089 188.148 343.049 190.559 341.556 193.884C340.06 197.212 339.315 201.64 339.315 207.171L339.312 207.178Z" fill="#64C4FF"/>
<path d="M394.477 156.049H404.455V167.373H394.477V156.049ZM394.7 178.138H404.455V236.106H394.7V178.138Z" fill="#64C4FF"/>
<path d="M414.436 207.292C414.436 200.94 415.593 195.463 417.911 190.865C420.226 186.268 423.519 182.7 427.777 180.158C432.039 177.616 437.008 176.347 442.689 176.347C448.37 176.347 453.508 177.581 457.658 180.046C461.805 182.511 465.002 186.028 467.243 190.587C469.484 195.146 470.607 200.566 470.607 206.845C470.607 213.124 469.465 218.693 467.186 223.326C464.906 227.962 461.655 231.549 457.431 234.091C453.208 236.633 448.182 237.902 442.35 237.902C433.529 237.902 426.671 235.175 421.773 229.717C416.878 224.263 414.429 216.785 414.429 207.292H414.436ZM424.75 207.065C424.75 213.719 426.131 219.176 428.9 223.435C431.665 227.697 436.189 229.826 442.465 229.826C446.65 229.826 450.052 228.854 452.667 226.91C455.283 224.966 457.211 222.255 458.441 218.78C459.676 215.305 460.293 211.362 460.293 206.95C460.293 200.297 458.892 194.878 456.088 190.693C453.284 186.508 448.744 184.413 442.465 184.413C436.186 184.413 431.758 186.527 428.954 190.747C426.15 194.971 424.75 200.409 424.75 207.062V207.065Z" fill="#64C4FF"/>
<path d="M13.2203 211.859C14.2882 221.454 20.6857 226.893 30.1717 226.893C36.355 226.893 39.9806 225.505 44.885 220.281L55.8641 226.25C48.6161 234.14 40.3003 238.617 29.9575 238.617C10.9823 238.617 0 225.396 0 208.231C0 191.065 10.768 177.42 28.784 177.42C46.8 177.42 56.8232 190.426 56.8232 206.632C56.8232 208.445 56.7146 209.724 56.3948 211.856H13.217L13.2203 211.859ZM13.54 201.517H43.8204C42.3273 192.881 36.1439 188.616 28.6818 188.616C20.4714 188.616 14.8221 193.84 13.54 201.517Z" fill="#64C4FF"/>
<path d="M90.6247 237.341H78.7887L55.3342 178.702H69.194L84.8665 220.176L100.539 178.702H114.079L90.6247 237.341Z" fill="#64C4FF"/>
<path d="M113.117 208.127C113.117 190.536 124.096 177.421 142.01 177.421C159.923 177.421 170.902 190.536 170.902 208.127C170.902 225.718 159.709 238.618 142.01 238.618C124.31 238.618 113.117 225.503 113.117 208.127ZM126.123 208.127C126.123 219.109 132.092 227.105 142.01 227.105C151.927 227.105 157.788 219.109 157.788 208.127C157.788 197.145 151.924 189.043 142.01 189.043C132.095 189.043 126.123 196.934 126.123 208.127Z" fill="#64C4FF"/>
<path d="M496.073 227.83V235.004H481.725V220.655H488.899C492.86 220.655 496.073 223.868 496.073 227.83Z" fill="#64C4FF"/>
</svg>
