<svg width="406" height="406" viewBox="0 0 406 406" fill="none" xmlns="http://www.w3.org/2000/svg">
<path d="M218.47 123.065V154.868H154.866V282.079H138.965C130.183 282.079 123.063 274.958 123.063 266.177V138.966C123.063 130.185 130.183 123.065 138.965 123.065H218.47Z" fill="#64C4FF"/>
<path d="M282.073 138.966V154.868H250.27V123.065H266.171C274.953 123.065 282.073 130.185 282.073 138.966Z" fill="#64C4FF"/>
<path d="M218.471 186.668H186.667V218.471H218.471V186.668Z" fill="#64C4FF"/>
<path d="M282.074 186.668V266.173C282.074 274.955 274.954 282.075 266.173 282.075H186.667L282.074 186.668Z" fill="#64C4FF"/>
<path d="M202.569 358.85C181.472 358.85 161.007 354.716 141.736 346.568C123.127 338.696 106.413 327.429 92.0596 313.075C77.7092 298.725 66.4395 282.012 58.567 263.399C50.4156 244.128 46.285 223.664 46.285 202.566C46.285 181.468 50.4187 161.003 58.567 141.732C66.4395 123.123 77.7061 106.41 92.0596 92.0561C106.41 77.7057 123.123 66.4359 141.736 58.5634C161.007 50.412 181.472 46.2814 202.569 46.2814C223.667 46.2814 244.132 50.4151 263.403 58.5634C282.012 66.4359 298.725 77.7025 313.079 92.0561C327.429 106.406 338.699 123.12 346.572 141.732C354.723 161.003 358.854 181.468 358.854 202.566C358.854 223.664 354.72 244.128 346.572 263.399C338.699 282.008 327.433 298.722 313.079 313.075C298.729 327.426 282.015 338.696 263.403 346.568C244.132 354.719 223.667 358.85 202.569 358.85ZM202.569 53.0821C120.143 53.0821 53.0857 120.139 53.0857 202.566C53.0857 284.992 120.143 352.049 202.569 352.049C284.996 352.049 352.053 284.992 352.053 202.566C352.053 120.139 284.996 53.0821 202.569 53.0821Z" fill="#64C4FF"/>
<path d="M104.458 59.2972C103.644 57.9966 103.183 56.7555 103.079 55.574C102.973 54.3925 103.174 53.3207 103.681 52.3617C104.186 51.4027 104.954 50.6004 105.982 49.958C107.138 49.234 108.225 48.8799 109.241 48.8987C110.259 48.9175 111.196 49.2277 112.061 49.8357C112.923 50.4437 113.685 51.2742 114.346 52.3304L114.945 53.2862L106.615 58.498C107.433 59.6764 108.351 60.4442 109.369 60.8046C110.388 61.1619 111.425 61.0114 112.481 60.3502C113.422 59.761 114.001 59.153 114.221 58.5231C114.44 57.8931 114.431 57.2287 114.196 56.5299L116.016 55.3891C116.499 56.5769 116.549 57.727 116.17 58.8396C115.791 59.9522 114.876 60.9613 113.431 61.867C111.739 62.9263 110.109 63.2209 108.539 62.7539C106.969 62.287 105.609 61.1368 104.462 59.3003L104.458 59.2972ZM105.088 54.9942C105.195 55.6806 105.424 56.3669 105.775 57.0564L112.152 53.0668C111.378 51.9606 110.588 51.2335 109.777 50.8856C108.965 50.5377 107.997 50.7164 106.868 51.4215C106.101 51.901 105.587 52.4463 105.323 53.0512C105.06 53.6592 104.982 54.3079 105.088 54.9942Z" fill="#64C4FF"/>
<path d="M123.061 53.0157L121.629 41.6332L123.804 40.4924L125.233 54.6799L123.127 55.7862L112.293 46.5285L114.581 45.3281L123.061 53.0157Z" fill="#64C4FF"/>
<path d="M127.667 46.0215C127.096 44.6896 126.849 43.436 126.921 42.2639C126.993 41.0918 127.366 40.0482 128.03 39.1331C128.698 38.218 129.626 37.5034 130.817 36.9957C132.039 36.4724 133.198 36.2843 134.289 36.4285C135.38 36.5726 136.367 37.0239 137.247 37.7792C138.128 38.5345 138.849 39.5718 139.413 40.8881C139.983 42.22 140.237 43.4768 140.175 44.652C140.112 45.8304 139.751 46.874 139.093 47.7859C138.435 48.6979 137.495 49.4156 136.27 49.939C134.417 50.7319 132.734 50.7726 131.218 50.0675C129.701 49.3623 128.516 48.0147 127.664 46.0215H127.667ZM129.811 45.05C130.409 46.4446 131.186 47.4663 132.148 48.1119C133.111 48.7575 134.251 48.7982 135.568 48.2341C136.445 47.858 137.072 47.3503 137.448 46.7079C137.824 46.0654 137.984 45.3227 137.931 44.4828C137.877 43.6429 137.652 42.7591 137.257 41.8346C136.661 40.44 135.881 39.4277 134.916 38.8009C133.954 38.1741 132.813 38.1428 131.493 38.7069C130.193 39.2647 129.438 40.1109 129.228 41.2485C129.018 42.3861 129.212 43.6523 129.811 45.05Z" fill="#64C4FF"/>
<path d="M150.878 40.3639C150.709 39.8625 150.43 39.4802 150.035 39.2169C149.64 38.9537 148.951 38.9066 147.963 39.0727L146.28 39.3673C144.798 39.6118 143.595 39.5961 142.676 39.3172C141.755 39.0414 141.1 38.3206 140.711 37.1548C140.451 36.3775 140.448 35.6411 140.702 34.9453C140.956 34.2496 141.407 33.6291 142.062 33.0869C142.717 32.5447 143.513 32.1153 144.45 31.802C145.663 31.3945 146.669 31.2316 147.468 31.3037C148.267 31.3789 148.922 31.6171 149.436 32.0213C149.95 32.4256 150.383 32.9176 150.74 33.5006L148.929 34.4564C148.474 33.8516 147.979 33.4473 147.443 33.2404C146.907 33.0336 146.121 33.1025 145.083 33.4504C143.917 33.839 143.187 34.2997 142.889 34.8325C142.592 35.3653 142.52 35.8636 142.676 36.3337C142.849 36.8508 143.14 37.208 143.548 37.4055C143.955 37.6029 144.673 37.6186 145.694 37.4556L147.612 37.1391C149.167 36.8884 150.361 36.9573 151.201 37.3397C152.041 37.7251 152.652 38.4898 153.037 39.64C153.388 40.693 153.263 41.7084 152.658 42.6956C152.053 43.6797 150.909 44.4537 149.226 45.0179C148.223 45.3532 147.268 45.5287 146.356 45.5475C145.444 45.5663 144.632 45.3595 143.924 44.9301C143.215 44.5039 142.661 43.805 142.266 42.8398L144.303 42.1566C144.742 42.9808 145.312 43.4697 146.02 43.6201C146.729 43.7705 147.59 43.6765 148.609 43.3349C149.678 42.9777 150.37 42.542 150.696 42.0312C151.019 41.5172 151.082 40.9625 150.881 40.3639H150.878Z" fill="#64C4FF"/>
<path d="M155.976 38.0229L154.133 31.1L152.155 31.6265L151.701 29.9216L153.679 29.3951L152.751 25.907L154.901 25.3335L155.828 28.8185L159.216 27.9159L159.671 29.6208L156.283 30.5233L158.276 38.0166C158.442 38.6434 158.718 39.1072 159.097 39.4144C159.48 39.7184 159.956 39.7936 160.536 39.64C160.899 39.5429 161.213 39.43 161.476 39.2984C161.739 39.1668 161.971 39.0383 162.168 38.9161L162.98 40.4737C162.682 40.6774 162.347 40.8685 161.98 41.044C161.614 41.2227 161.166 41.3794 160.639 41.5204C159.683 41.7743 158.903 41.7805 158.298 41.5329C157.693 41.2885 157.214 40.856 156.853 40.2355C156.493 39.6149 156.201 38.8785 155.973 38.0198L155.976 38.0229Z" fill="#64C4FF"/>
<path d="M163.415 35.8949L161.719 27.2828L163.904 26.8535L165.515 35.0394C165.753 36.2428 166.12 37.0576 166.621 37.4807C167.122 37.9038 167.806 38.0292 168.677 37.8568C169.664 37.6625 170.473 37.1391 171.106 36.2836C171.45 35.8323 171.692 35.381 171.83 34.9297C171.968 34.4784 171.971 33.9237 171.842 33.2718L170.328 25.5905L172.513 25.1611L175.067 38.1389L172.908 38.5651L172.513 36.5562C172.058 37.5152 171.497 38.2611 170.827 38.7907C170.156 39.3235 169.398 39.6714 168.542 39.8406C167.069 40.1321 165.922 39.9378 165.104 39.2671C164.283 38.5933 163.719 37.4713 163.412 35.8981L163.415 35.8949Z" fill="#64C4FF"/>
<path d="M176.55 31.2501C176.309 29.0814 176.638 27.3045 177.54 25.9255C178.443 24.5466 179.8 23.7537 181.615 23.5531C182.31 23.4748 183.028 23.5374 183.771 23.738C184.513 23.9386 185.234 24.393 185.933 25.1076L185.193 18.4949L187.406 18.2473L189.434 36.4023L187.271 36.6437L187.058 34.7351C186.598 35.5405 186.037 36.183 185.369 36.6625C184.701 37.1388 183.883 37.4334 182.918 37.54C181.646 37.681 180.562 37.493 179.662 36.9759C178.763 36.4588 178.054 35.6972 177.54 34.6912C177.023 33.6852 176.694 32.5382 176.55 31.2501ZM178.86 30.9399C179.004 32.2279 179.295 33.2245 179.734 33.9328C180.173 34.6379 180.69 35.1174 181.285 35.3681C181.881 35.6189 182.483 35.7097 183.094 35.6439C184.297 35.5092 185.228 35.0109 185.886 34.149C186.544 33.2872 186.789 32.09 186.619 30.5669L186.519 29.6769C186.334 28.0159 185.839 26.8469 185.034 26.1731C184.228 25.4993 183.26 25.2266 182.122 25.352C181.411 25.4303 180.781 25.6748 180.232 26.0791C179.684 26.4834 179.283 27.0819 179.029 27.8748C178.775 28.6677 178.716 29.6894 178.857 30.9461L178.86 30.9399Z" fill="#64C4FF"/>
<path d="M191.391 18.0568L193.666 17.9377L193.801 20.517L191.526 20.6361L191.391 18.0568ZM191.707 23.09L193.929 22.974L194.625 36.1837L192.403 36.2996L191.707 23.09Z" fill="#64C4FF"/>
<path d="M197.146 29.3265C197.168 27.8786 197.453 26.6313 197.998 25.5909C198.544 24.5504 199.308 23.7481 200.289 23.184C201.27 22.6199 202.411 22.3472 203.705 22.3691C205.037 22.3911 206.169 22.6919 207.106 23.2686C208.043 23.8452 208.76 24.6601 209.255 25.7099C209.751 26.7598 209.986 28.0009 209.964 29.4331C209.942 30.8841 209.66 32.1314 209.124 33.1813C208.585 34.2312 207.83 35.0366 206.858 35.6007C205.883 36.1648 204.733 36.4375 203.404 36.4156C201.392 36.3842 199.838 35.7355 198.741 34.4725C197.644 33.2095 197.115 31.4952 197.149 29.3297L197.146 29.3265ZM199.503 29.314C199.478 30.8308 199.772 32.0813 200.39 33.0654C201.004 34.0463 202.029 34.5508 203.461 34.5728C204.417 34.5885 205.194 34.3785 205.799 33.946C206.404 33.5135 206.852 32.9024 207.146 32.1126C207.441 31.3229 207.595 30.4266 207.613 29.4206C207.638 27.9037 207.338 26.6627 206.714 25.6943C206.09 24.729 205.062 24.2339 203.63 24.2119C202.213 24.19 201.179 24.6538 200.524 25.6065C199.869 26.5593 199.528 27.794 199.506 29.314H199.503Z" fill="#64C4FF"/>
<path d="M211.983 33.2563L214.537 33.413L214.355 36.3997L211.801 36.243L211.983 33.2563Z" fill="#64C4FF"/>
<path d="M223.33 28.5647L230.783 29.5926L230.479 31.7989L223.026 30.771L223.33 28.5647Z" fill="#64C4FF"/>
<path d="M238.326 33.0149C238.689 31.5231 239.257 30.3259 240.028 29.4265C240.799 28.527 241.704 27.9222 242.745 27.6119C243.785 27.3017 244.895 27.2923 246.07 27.5775C247.396 27.9003 248.408 28.4299 249.107 29.1695C249.806 29.9091 250.238 30.7992 250.407 31.8428C250.577 32.8832 250.514 34.0115 250.219 35.2212L249.953 36.3149L240.404 33.9958C240.131 35.403 240.222 36.597 240.679 37.5779C241.134 38.5557 241.968 39.195 243.177 39.4865C244.255 39.7498 245.095 39.7372 245.7 39.4552C246.305 39.1731 246.775 38.703 247.107 38.048L249.194 38.5557C248.681 39.7309 247.894 40.5709 246.831 41.0754C245.769 41.58 244.409 41.6333 242.751 41.229C240.811 40.7589 239.46 39.7968 238.699 38.3489C237.937 36.901 237.812 35.124 238.323 33.018L238.326 33.0149ZM241.842 30.4576C241.425 31.0154 241.093 31.6579 240.846 32.3881L248.154 34.165C248.405 32.8394 248.373 31.7644 248.054 30.9433C247.734 30.1191 246.932 29.5519 245.637 29.2385C244.76 29.0253 244.011 29.0379 243.39 29.2729C242.77 29.508 242.253 29.906 241.839 30.4638L241.842 30.4576Z" fill="#64C4FF"/>
<path d="M255.824 41.9427L262.972 32.9702L265.307 33.7317L256.147 44.6598L253.884 43.9234L252.947 29.7046L255.404 30.5069L255.821 41.9458L255.824 41.9427Z" fill="#64C4FF"/>
<path d="M264.039 40.3545C264.596 39.0163 265.32 37.9632 266.211 37.1986C267.101 36.4339 268.107 35.97 269.229 35.8071C270.347 35.6441 271.507 35.8133 272.704 36.3116C273.933 36.8225 274.876 37.5182 275.534 38.402C276.192 39.2858 276.559 40.3043 276.631 41.4639C276.703 42.6203 276.465 43.8614 275.916 45.1839C275.359 46.5221 274.638 47.5814 273.751 48.3586C272.864 49.1358 271.864 49.6059 270.752 49.772C269.639 49.9381 268.467 49.7657 267.238 49.2549C265.38 48.4808 264.173 47.3056 263.619 45.7261C263.064 44.1465 263.205 42.3571 264.036 40.3576L264.039 40.3545ZM266.232 41.2132C265.65 42.614 265.462 43.8864 265.671 45.0272C265.881 46.1679 266.646 47.0141 267.972 47.5626C268.852 47.9292 269.655 48.0233 270.379 47.8415C271.099 47.6597 271.742 47.2586 272.306 46.6349C272.87 46.0112 273.347 45.234 273.732 44.3032C274.315 42.9024 274.494 41.6362 274.271 40.508C274.049 39.3798 273.274 38.543 271.952 37.9914C270.645 37.4493 269.511 37.4994 268.548 38.1419C267.586 38.7875 266.815 39.8091 266.232 41.21V41.2132Z" fill="#64C4FF"/>
<path d="M284.298 53.0287C284.539 52.5586 284.618 52.0916 284.533 51.6247C284.445 51.1577 283.997 50.6312 283.189 50.042L281.803 49.0423C280.594 48.1522 279.766 47.2779 279.321 46.4286C278.876 45.5761 278.936 44.6046 279.497 43.514C279.87 42.7869 280.396 42.2698 281.07 41.9627C281.744 41.6587 282.505 41.549 283.352 41.6399C284.198 41.7307 285.06 42.0003 285.94 42.4547C287.078 43.0407 287.899 43.6456 288.403 44.2693C288.908 44.8929 289.193 45.5291 289.262 46.1778C289.331 46.8266 289.281 47.4816 289.115 48.146L287.166 47.516C287.281 46.7702 287.225 46.1308 286.999 45.6043C286.774 45.0747 286.175 44.5607 285.204 44.0624C284.11 43.5014 283.27 43.2977 282.681 43.4544C282.092 43.6111 281.684 43.912 281.459 44.3507C281.208 44.8365 281.155 45.2941 281.299 45.7234C281.443 46.1528 281.932 46.6761 282.762 47.2967L284.329 48.4468C285.592 49.3839 286.379 50.2865 286.689 51.1577C286.999 52.0258 286.877 53.0005 286.322 54.0786C285.815 55.0658 284.997 55.6831 283.869 55.9401C282.74 56.194 281.387 55.9151 279.81 55.1034C278.87 54.6207 278.074 54.0566 277.425 53.4173C276.776 52.778 276.357 52.054 276.168 51.2455C275.98 50.44 276.093 49.5562 276.507 48.6004L278.419 49.5845C278.133 50.4745 278.184 51.2235 278.569 51.8346C278.955 52.4458 279.625 52.9973 280.581 53.4894C281.581 54.0033 282.38 54.1976 282.972 54.0723C283.565 53.9469 284.007 53.6022 284.295 53.0412L284.298 53.0287Z" fill="#64C4FF"/>
<path d="M289.536 55.0475L293.206 48.8924L291.448 47.8425L292.35 46.3257L294.109 47.3725L295.954 44.273L297.866 45.4137L296.02 48.5132L299.032 50.309L298.129 51.8258L295.118 50.03L291.147 56.6897C290.815 57.2476 290.674 57.7678 290.721 58.2536C290.768 58.7393 291.05 59.1342 291.564 59.4413C291.887 59.6325 292.187 59.7798 292.466 59.8769C292.745 59.9741 292.999 60.0493 293.225 60.1057L292.676 61.7761C292.322 61.704 291.952 61.5975 291.57 61.4596C291.188 61.3217 290.762 61.1117 290.291 60.8328C289.442 60.3251 288.894 59.7704 288.649 59.1687C288.402 58.567 288.377 57.9182 288.568 57.2288C288.759 56.5393 289.085 55.8122 289.539 55.0507L289.536 55.0475Z" fill="#64C4FF"/>
<path d="M296.248 58.8763L301.222 51.6463L303.055 52.9092L298.326 59.782C297.631 60.7943 297.305 61.6279 297.352 62.2798C297.399 62.9348 297.787 63.5114 298.517 64.016C299.348 64.5864 300.288 64.7995 301.341 64.6522C301.905 64.5832 302.397 64.4422 302.817 64.2228C303.237 64.0035 303.635 63.6211 304.011 63.0727L308.449 56.623L310.282 57.886L302.783 68.7827L300.971 67.5354L302.131 65.8494C301.128 66.1941 300.2 66.3132 299.354 66.2066C298.508 66.1001 297.725 65.7992 297.007 65.3072C295.769 64.4579 295.108 63.502 295.017 62.4459C294.926 61.3897 295.333 60.202 296.242 58.8794L296.248 58.8763Z" fill="#64C4FF"/>
<path d="M308.751 65.0296C310.133 63.3404 311.631 62.3344 313.248 62.0147C314.865 61.695 316.379 62.1118 317.792 63.2683C318.334 63.7102 318.792 64.268 319.168 64.9387C319.544 65.6093 319.723 66.443 319.701 67.4396L323.913 62.2905L325.636 63.7008L314.072 77.8443L312.389 76.4685L313.605 74.983C312.706 75.2181 311.853 75.2651 311.045 75.1209C310.236 74.9767 309.456 74.5975 308.704 73.9833C307.713 73.1747 307.09 72.2659 306.829 71.263C306.572 70.257 306.62 69.2197 306.98 68.1478C307.34 67.076 307.929 66.0387 308.751 65.0327V65.0296ZM310.587 66.4618C309.766 67.4646 309.258 68.3704 309.061 69.1789C308.863 69.9875 308.882 70.6926 309.117 71.2912C309.352 71.8929 309.71 72.385 310.186 72.7767C311.123 73.5445 312.132 73.8611 313.21 73.7294C314.288 73.5978 315.313 72.9365 316.285 71.7488L316.852 71.0562C317.911 69.7618 318.4 68.5929 318.319 67.5461C318.237 66.4994 317.754 65.6156 316.871 64.8917C316.316 64.4372 315.702 64.1583 315.031 64.0486C314.36 63.9421 313.652 64.0706 312.906 64.4435C312.16 64.8164 311.389 65.4902 310.59 66.468L310.587 66.4618Z" fill="#64C4FF"/>
<path d="M325.19 70.1646L326.829 71.672L317.869 81.4061L316.23 79.8987L325.19 70.1646ZM328.565 66.4226L330.242 67.9645L328.493 69.8668L326.816 68.3249L328.565 66.4226Z" fill="#64C4FF"/>
<path d="M324.501 78.4794C325.545 77.4734 326.626 76.7934 327.748 76.4455C328.87 76.0976 329.976 76.0725 331.07 76.3671C332.164 76.6649 333.16 77.2791 334.06 78.2099C334.984 79.1658 335.573 80.1812 335.824 81.253C336.078 82.3248 336.006 83.406 335.614 84.4966C335.222 85.5872 334.508 86.6309 333.477 87.6243C332.433 88.6303 331.352 89.3167 330.23 89.6771C329.108 90.0375 328.002 90.072 326.917 89.7805C325.83 89.489 324.824 88.8654 323.902 87.9095C322.505 86.4616 321.865 84.9041 321.984 83.2337C322.104 81.5664 322.943 79.9775 324.501 78.4732V78.4794ZM326.175 80.1373C325.081 81.1934 324.407 82.2841 324.144 83.4123C323.884 84.5405 324.25 85.6217 325.244 86.6528C325.908 87.3391 326.607 87.7434 327.34 87.8656C328.074 87.9879 328.823 87.875 329.591 87.524C330.355 87.1762 331.101 86.6528 331.825 85.9539C332.916 84.9009 333.583 83.8103 333.828 82.6883C334.069 81.5633 333.696 80.4883 332.699 79.4572C331.715 78.4387 330.656 78.0344 329.518 78.2444C328.381 78.4544 327.265 79.0843 326.175 80.1404V80.1373Z" fill="#64C4FF"/>
<path d="M332.076 91.7705L333.746 93.7073L331.48 95.6629L329.81 93.7261L332.076 91.7705Z" fill="#64C4FF"/>
<path d="M343.357 96.6164L347.826 102.668L346.037 103.991L341.568 97.939L343.357 96.6164Z" fill="#64C4FF"/>
<path d="M350.651 110.458C351.97 109.674 353.224 109.245 354.408 109.167C355.593 109.088 356.659 109.314 357.605 109.844C358.551 110.373 359.335 111.157 359.952 112.2C360.648 113.373 360.974 114.469 360.933 115.485C360.893 116.5 360.557 117.434 359.93 118.28C359.304 119.13 358.454 119.869 357.383 120.505L356.414 121.079L351.403 112.627C350.206 113.416 349.416 114.316 349.034 115.328C348.651 116.337 348.777 117.378 349.413 118.45C349.977 119.402 350.572 119.998 351.199 120.233C351.823 120.468 352.487 120.474 353.192 120.255L354.289 122.104C353.089 122.558 351.939 122.58 350.836 122.173C349.733 121.765 348.745 120.828 347.874 119.362C346.856 117.644 346.599 116.008 347.103 114.451C347.608 112.893 348.789 111.561 350.654 110.455L350.651 110.458ZM354.935 111.191C354.245 111.282 353.553 111.495 352.857 111.827L356.696 118.296C357.821 117.55 358.564 116.776 358.934 115.974C359.301 115.171 359.144 114.197 358.467 113.053C358.006 112.276 357.473 111.746 356.872 111.47C356.27 111.191 355.624 111.097 354.935 111.191Z" fill="#64C4FF"/>
<path d="M356.486 129.209L367.899 128.049L368.987 130.252L354.768 131.343L353.715 129.209L363.227 118.6L364.371 120.916L356.482 129.209H356.486Z" fill="#64C4FF"/>
<path d="M363.372 133.985C364.72 133.446 365.977 133.23 367.149 133.33C368.318 133.431 369.355 133.826 370.255 134.515C371.154 135.201 371.843 136.148 372.326 137.351C372.821 138.586 372.981 139.749 372.809 140.836C372.636 141.924 372.163 142.898 371.386 143.76C370.609 144.622 369.556 145.318 368.227 145.851C366.879 146.39 365.619 146.612 364.444 146.521C363.269 146.43 362.232 146.045 361.338 145.365C360.442 144.685 359.746 143.726 359.254 142.491C358.508 140.623 358.505 138.937 359.248 137.439C359.991 135.938 361.367 134.788 363.379 133.985H363.372ZM364.294 136.151C362.884 136.715 361.846 137.47 361.175 138.417C360.508 139.363 360.439 140.501 360.969 141.833C361.323 142.72 361.818 143.359 362.451 143.748C363.084 144.136 363.821 144.315 364.664 144.284C365.503 144.249 366.393 144.049 367.327 143.673C368.738 143.108 369.766 142.353 370.418 141.404C371.066 140.454 371.126 139.316 370.593 137.984C370.067 136.668 369.239 135.894 368.108 135.659C366.976 135.424 365.704 135.587 364.294 136.148V136.151Z" fill="#64C4FF"/>
<path d="M368.471 157.323C368.975 157.167 369.364 156.897 369.64 156.508C369.912 156.12 369.978 155.43 369.834 154.44L369.58 152.751C369.37 151.262 369.417 150.062 369.715 149.15C370.012 148.238 370.749 147.599 371.924 147.238C372.708 146.997 373.444 147.012 374.134 147.282C374.823 147.552 375.431 148.018 375.958 148.686C376.484 149.354 376.895 150.159 377.186 151.105C377.562 152.328 377.703 153.337 377.609 154.133C377.515 154.929 377.261 155.578 376.844 156.082C376.428 156.584 375.926 157.007 375.334 157.351L374.422 155.518C375.036 155.079 375.453 154.594 375.672 154.061C375.892 153.528 375.842 152.741 375.519 151.698C375.158 150.526 374.713 149.783 374.19 149.47C373.667 149.159 373.168 149.075 372.695 149.222C372.172 149.382 371.808 149.664 371.605 150.068C371.398 150.469 371.363 151.187 371.504 152.215L371.777 154.139C371.99 155.697 371.893 156.891 371.489 157.721C371.084 158.552 370.304 159.144 369.144 159.501C368.085 159.827 367.07 159.677 366.098 159.047C365.127 158.417 364.381 157.254 363.861 155.559C363.55 154.547 363.397 153.588 363.4 152.676C363.403 151.764 363.629 150.958 364.074 150.259C364.519 149.56 365.227 149.024 366.202 148.652L366.835 150.704C366.001 151.121 365.5 151.682 365.33 152.384C365.164 153.086 365.239 153.951 365.553 154.979C365.885 156.054 366.302 156.759 366.806 157.094C367.311 157.43 367.866 157.505 368.467 157.32L368.471 157.323Z" fill="#64C4FF"/>
<path d="M370.689 162.476L377.655 160.799L377.176 158.809L378.893 158.396L379.373 160.386L382.88 159.543L383.4 161.708L379.893 162.551L380.714 165.958L378.997 166.372L378.176 162.962L370.639 164.776C370.009 164.927 369.535 165.19 369.222 165.563C368.909 165.936 368.821 166.412 368.962 166.995C369.05 167.359 369.156 167.675 369.281 167.945C369.407 168.211 369.529 168.446 369.648 168.647L368.072 169.421C367.874 169.117 367.693 168.779 367.526 168.409C367.357 168.036 367.21 167.584 367.081 167.055C366.85 166.093 366.865 165.312 367.125 164.717C367.385 164.118 367.827 163.648 368.457 163.304C369.084 162.959 369.83 162.683 370.692 162.476H370.689Z" fill="#64C4FF"/>
<path d="M372.639 169.963L381.288 168.475L381.668 170.668L373.447 172.085C372.238 172.295 371.413 172.643 370.981 173.132C370.545 173.621 370.404 174.304 370.555 175.178C370.724 176.168 371.232 176.993 372.068 177.645C372.51 178.002 372.955 178.253 373.407 178.4C373.855 178.547 374.409 178.566 375.064 178.453L382.78 177.124L383.159 179.318L370.122 181.562L369.749 179.393L371.768 179.045C370.821 178.569 370.088 177.989 369.574 177.306C369.06 176.626 368.728 175.855 368.58 174.996C368.326 173.517 368.546 172.376 369.238 171.574C369.931 170.772 371.069 170.233 372.648 169.96L372.639 169.963Z" fill="#64C4FF"/>
<path d="M376.965 183.204C379.14 183.013 380.907 183.386 382.264 184.32C383.621 185.254 384.38 186.63 384.54 188.447C384.602 189.143 384.524 189.861 384.305 190.6C384.088 191.34 383.615 192.048 382.885 192.728L389.513 192.146L389.708 194.364L371.509 195.963L371.317 193.797L373.229 193.628C372.433 193.148 371.803 192.572 371.343 191.892C370.882 191.212 370.606 190.391 370.521 189.422C370.409 188.147 370.622 187.065 371.161 186.182C371.7 185.295 372.477 184.605 373.496 184.113C374.514 183.621 375.667 183.32 376.962 183.204H376.965ZM377.219 185.517C375.928 185.63 374.925 185.9 374.207 186.32C373.489 186.743 373 187.247 372.734 187.836C372.468 188.426 372.364 189.024 372.418 189.635C372.524 190.842 373 191.785 373.847 192.462C374.693 193.142 375.884 193.415 377.413 193.28L378.306 193.202C379.97 193.054 381.152 192.587 381.844 191.801C382.537 191.011 382.835 190.049 382.735 188.911C382.672 188.197 382.446 187.564 382.054 187.006C381.663 186.448 381.073 186.034 380.287 185.762C379.5 185.489 378.479 185.408 377.222 185.517H377.219Z" fill="#64C4FF"/>
<path d="M384.766 198.554L384.832 200.779L371.61 201.165L371.544 198.94L384.766 198.554ZM389.806 198.357L389.872 200.632L387.289 200.707L387.223 198.432L389.806 198.357Z" fill="#64C4FF"/>
<path d="M378.337 203.866C379.785 203.906 381.029 204.207 382.06 204.768C383.094 205.326 383.884 206.1 384.439 207.091C384.99 208.081 385.247 209.222 385.21 210.516C385.172 211.845 384.855 212.976 384.266 213.907C383.677 214.838 382.853 215.543 381.8 216.022C380.744 216.505 379.503 216.724 378.07 216.684C376.619 216.643 375.375 216.345 374.335 215.794C373.291 215.242 372.495 214.477 371.944 213.496C371.392 212.515 371.135 211.362 371.173 210.03C371.232 208.018 371.9 206.47 373.175 205.392C374.451 204.311 376.174 203.803 378.34 203.866H378.337ZM378.321 206.219C376.804 206.175 375.551 206.454 374.56 207.056C373.57 207.658 373.053 208.676 373.012 210.109C372.984 211.064 373.185 211.845 373.611 212.456C374.037 213.064 374.642 213.521 375.425 213.825C376.209 214.129 377.105 214.296 378.111 214.327C379.628 214.371 380.875 214.086 381.847 213.474C382.822 212.863 383.329 211.842 383.37 210.409C383.411 208.993 382.959 207.952 382.013 207.285C381.066 206.617 379.838 206.263 378.318 206.216L378.321 206.219Z" fill="#64C4FF"/>
<path d="M374.128 218.58L373.912 221.128L370.928 220.874L371.145 218.323L374.128 218.577V218.58Z" fill="#64C4FF"/>
<path d="M378.553 230.028L377.349 237.452L375.152 237.095L376.356 229.671L378.553 230.028Z" fill="#64C4FF"/>
<path d="M373.745 244.92C375.227 245.318 376.409 245.913 377.293 246.706C378.173 247.499 378.756 248.42 379.041 249.467C379.327 250.514 379.311 251.623 378.997 252.792C378.643 254.108 378.089 255.108 377.333 255.788C376.578 256.468 375.676 256.879 374.632 257.023C373.585 257.167 372.463 257.076 371.26 256.753L370.172 256.462L372.72 246.972C371.319 246.665 370.122 246.731 369.132 247.16C368.141 247.593 367.486 248.411 367.164 249.611C366.875 250.683 366.866 251.523 367.135 252.134C367.405 252.745 367.863 253.225 368.511 253.576L367.953 255.65C366.791 255.108 365.97 254.303 365.49 253.228C365.011 252.153 364.992 250.793 365.434 249.144C365.951 247.217 366.944 245.888 368.411 245.161C369.878 244.434 371.658 244.349 373.751 244.913L373.745 244.92ZM376.215 248.495C375.666 248.066 375.033 247.718 374.309 247.455L372.36 254.719C373.679 255.002 374.754 254.995 375.585 254.698C376.415 254.4 377.004 253.607 377.349 252.322C377.584 251.448 377.59 250.699 377.368 250.075C377.145 249.451 376.763 248.922 376.215 248.495Z" fill="#64C4FF"/>
<path d="M364.4 262.196L373.2 269.557L372.382 271.873L361.676 262.456L362.469 260.212L376.707 259.616L375.848 262.055L364.403 262.196H364.4Z" fill="#64C4FF"/>
<path d="M365.789 270.448C367.115 271.037 368.149 271.786 368.892 272.695C369.634 273.603 370.076 274.619 370.211 275.744C370.346 276.869 370.151 278.022 369.625 279.207C369.086 280.423 368.365 281.351 367.466 281.987C366.566 282.623 365.538 282.965 364.379 283.008C363.219 283.052 361.984 282.786 360.677 282.203C359.352 281.614 358.311 280.868 357.556 279.962C356.801 279.056 356.353 278.047 356.215 276.932C356.077 275.816 356.277 274.65 356.816 273.434C357.634 271.595 358.838 270.416 360.43 269.902C362.022 269.385 363.808 269.567 365.786 270.448H365.789ZM364.88 272.619C363.492 272.002 362.226 271.786 361.082 271.967C359.938 272.149 359.073 272.895 358.493 274.205C358.105 275.076 357.992 275.875 358.155 276.603C358.318 277.327 358.703 277.982 359.314 278.561C359.925 279.141 360.69 279.633 361.611 280.044C363 280.661 364.26 280.871 365.391 280.674C366.522 280.476 367.381 279.724 367.961 278.414C368.534 277.12 368.512 275.985 367.892 275.011C367.271 274.036 366.265 273.24 364.88 272.622V272.619Z" fill="#64C4FF"/>
<path d="M352.637 290.394C353.1 290.648 353.567 290.736 354.034 290.661C354.501 290.586 355.04 290.15 355.648 289.354L356.682 287.994C357.601 286.806 358.494 285.997 359.356 285.574C360.218 285.151 361.189 285.233 362.267 285.819C362.985 286.211 363.489 286.746 363.778 287.43C364.066 288.113 364.157 288.874 364.047 289.717C363.938 290.561 363.646 291.416 363.173 292.284C362.562 293.406 361.938 294.215 361.302 294.704C360.666 295.193 360.023 295.465 359.371 295.518C358.72 295.572 358.068 295.506 357.41 295.324L358.083 293.39C358.826 293.522 359.465 293.481 359.998 293.268C360.531 293.055 361.061 292.469 361.584 291.51C362.173 290.432 362.393 289.595 362.251 289.003C362.107 288.411 361.819 287.994 361.387 287.759C360.907 287.499 360.453 287.433 360.02 287.568C359.588 287.699 359.052 288.176 358.412 288.994L357.225 290.532C356.256 291.773 355.335 292.538 354.457 292.826C353.58 293.115 352.611 292.971 351.546 292.391C350.571 291.861 349.973 291.027 349.744 289.893C349.518 288.759 349.828 287.414 350.675 285.856C351.179 284.929 351.762 284.148 352.417 283.512C353.072 282.879 353.805 282.478 354.617 282.309C355.429 282.14 356.306 282.271 357.253 282.71L356.225 284.597C355.341 284.289 354.592 284.324 353.972 284.694C353.351 285.064 352.784 285.722 352.27 286.665C351.731 287.652 351.518 288.445 351.631 289.041C351.743 289.636 352.076 290.084 352.63 290.388L352.637 290.394Z" fill="#64C4FF"/>
<path d="M350.494 295.59L356.558 299.404L357.649 297.671L359.144 298.611L358.053 300.344L361.109 302.265L359.924 304.149L356.869 302.227L355.004 305.195L353.509 304.255L355.374 301.287L348.811 297.16C348.263 296.815 347.746 296.662 347.26 296.696C346.774 296.734 346.373 297.003 346.053 297.508C345.853 297.824 345.702 298.122 345.599 298.401C345.496 298.677 345.414 298.927 345.351 299.153L343.697 298.564C343.778 298.21 343.891 297.846 344.041 297.464C344.189 297.085 344.408 296.662 344.699 296.201C345.226 295.364 345.793 294.828 346.404 294.596C347.012 294.364 347.661 294.352 348.344 294.562C349.031 294.772 349.745 295.11 350.497 295.583L350.494 295.59Z" fill="#64C4FF"/>
<path d="M346.5 302.213L353.611 307.359L352.307 309.161L345.55 304.272C344.557 303.552 343.729 303.207 343.074 303.238C342.419 303.27 341.833 303.646 341.313 304.363C340.724 305.178 340.489 306.115 340.608 307.168C340.661 307.732 340.793 308.227 341.003 308.654C341.213 309.077 341.586 309.484 342.125 309.876L348.468 314.467L347.164 316.269L336.446 308.513L337.737 306.729L339.395 307.93C339.076 306.917 338.978 305.99 339.104 305.147C339.232 304.301 339.549 303.526 340.06 302.821C340.94 301.605 341.909 300.963 342.968 300.897C344.027 300.831 345.206 301.267 346.503 302.207L346.5 302.213Z" fill="#64C4FF"/>
<path d="M340.056 314.568C341.714 315.991 342.683 317.514 342.965 319.138C343.247 320.761 342.792 322.265 341.604 323.65C341.15 324.18 340.583 324.628 339.903 324.989C339.223 325.349 338.386 325.506 337.389 325.462L342.438 329.793L340.987 331.482L327.122 319.586L328.539 317.934L329.996 319.185C329.783 318.282 329.755 317.426 329.918 316.624C330.081 315.822 330.479 315.048 331.112 314.311C331.946 313.34 332.867 312.738 333.876 312.503C334.885 312.268 335.923 312.343 336.988 312.729C338.051 313.114 339.075 313.728 340.059 314.571L340.056 314.568ZM338.577 316.37C337.593 315.527 336.7 314.994 335.898 314.778C335.095 314.562 334.39 314.565 333.785 314.784C333.18 315.007 332.676 315.352 332.278 315.816C331.488 316.734 331.15 317.734 331.256 318.815C331.363 319.896 331.999 320.936 333.165 321.936L333.845 322.519C335.114 323.607 336.27 324.124 337.32 324.067C338.367 324.011 339.263 323.55 340.009 322.682C340.476 322.137 340.771 321.532 340.896 320.864C341.022 320.197 340.906 319.485 340.551 318.73C340.197 317.978 339.542 317.188 338.583 316.367L338.577 316.37Z" fill="#64C4FF"/>
<path d="M334.536 330.873L332.991 332.475L323.473 323.289L325.018 321.688L334.536 330.873ZM338.199 334.336L336.617 335.975L334.758 334.18L336.341 332.541L338.199 334.336Z" fill="#64C4FF"/>
<path d="M326.241 329.99C327.222 331.056 327.874 332.156 328.197 333.284C328.52 334.415 328.517 335.522 328.197 336.606C327.874 337.69 327.238 338.674 326.282 339.552C325.304 340.454 324.276 341.019 323.198 341.244C322.12 341.473 321.042 341.376 319.961 340.956C318.88 340.536 317.855 339.799 316.883 338.746C315.902 337.681 315.244 336.581 314.909 335.45C314.574 334.318 314.567 333.215 314.884 332.134C315.2 331.056 315.846 330.065 316.827 329.163C318.306 327.8 319.879 327.198 321.547 327.358C323.211 327.517 324.778 328.392 326.245 329.987L326.241 329.99ZM324.543 331.62C323.515 330.504 322.44 329.802 321.315 329.514C320.193 329.226 319.102 329.567 318.049 330.539C317.347 331.184 316.927 331.874 316.786 332.604C316.648 333.334 316.742 334.086 317.075 334.86C317.404 335.634 317.911 336.393 318.591 337.132C319.619 338.248 320.691 338.941 321.81 339.21C322.929 339.48 324.013 339.129 325.066 338.157C326.107 337.198 326.536 336.148 326.354 335.005C326.172 333.864 325.568 332.732 324.54 331.617L324.543 331.62Z" fill="#64C4FF"/>
<path d="M312.773 337.25L310.795 338.877L308.893 336.564L310.871 334.938L312.773 337.25Z" fill="#64C4FF"/>
<path d="M307.665 348.411L301.51 352.736L300.232 350.915L306.387 346.59L307.665 348.411Z" fill="#64C4FF"/>
<path d="M293.651 355.374C294.403 356.712 294.804 357.975 294.851 359.16C294.901 360.345 294.65 361.404 294.099 362.341C293.547 363.275 292.745 364.04 291.689 364.632C290.498 365.299 289.398 365.6 288.383 365.534C287.367 365.469 286.443 365.111 285.609 364.466C284.775 363.817 284.055 362.952 283.447 361.865L282.895 360.884L291.463 356.073C290.702 354.857 289.821 354.045 288.821 353.638C287.822 353.231 286.778 353.334 285.69 353.942C284.725 354.484 284.117 355.064 283.867 355.684C283.619 356.302 283.594 356.966 283.794 357.674L281.92 358.728C281.497 357.518 281.5 356.368 281.933 355.274C282.365 354.18 283.324 353.215 284.813 352.381C286.552 351.403 288.198 351.187 289.743 351.726C291.288 352.268 292.591 353.481 293.651 355.371V355.374ZM292.817 359.639C292.742 358.947 292.548 358.251 292.231 357.549L285.672 361.232C286.389 362.372 287.148 363.137 287.941 363.522C288.734 363.908 289.711 363.776 290.871 363.124C291.661 362.683 292.2 362.162 292.491 361.57C292.783 360.975 292.892 360.332 292.817 359.643V359.639Z" fill="#64C4FF"/>
<path d="M274.765 360.765L275.652 372.204L273.424 373.238L272.675 359L274.834 357.997L285.214 367.76L282.87 368.85L274.765 360.765Z" fill="#64C4FF"/>
<path d="M269.827 367.534C270.331 368.891 270.519 370.157 270.391 371.323C270.262 372.492 269.842 373.517 269.131 374.397C268.423 375.281 267.46 375.949 266.244 376.4C264.997 376.864 263.831 376.999 262.747 376.801C261.663 376.604 260.7 376.105 259.857 375.309C259.014 374.513 258.344 373.442 257.845 372.1C257.341 370.74 257.147 369.474 257.266 368.302C257.385 367.13 257.795 366.102 258.494 365.224C259.196 364.344 260.168 363.673 261.415 363.209C263.302 362.507 264.985 362.545 266.467 363.322C267.949 364.099 269.068 365.503 269.823 367.534H269.827ZM267.636 368.402C267.106 366.979 266.376 365.923 265.445 365.231C264.514 364.538 263.377 364.444 262.036 364.942C261.139 365.275 260.49 365.754 260.086 366.378C259.682 367.001 259.484 367.735 259.497 368.575C259.51 369.414 259.691 370.308 260.042 371.251C260.572 372.674 261.302 373.721 262.236 374.394C263.17 375.065 264.308 375.153 265.649 374.654C266.978 374.159 267.771 373.351 268.034 372.226C268.297 371.1 268.166 369.825 267.636 368.402Z" fill="#64C4FF"/>
<path d="M246.375 372.069C246.519 372.577 246.782 372.975 247.162 373.257C247.544 373.539 248.23 373.62 249.224 373.498L250.919 373.285C252.411 373.113 253.611 373.185 254.517 373.504C255.423 373.824 256.043 374.576 256.375 375.758C256.598 376.544 256.567 377.281 256.281 377.964C255.996 378.647 255.514 379.246 254.833 379.757C254.153 380.267 253.339 380.656 252.386 380.926C251.154 381.273 250.142 381.389 249.349 381.277C248.556 381.164 247.911 380.894 247.419 380.465C246.927 380.036 246.516 379.525 246.187 378.926L248.042 378.058C248.465 378.682 248.942 379.111 249.468 379.343C249.995 379.575 250.784 379.544 251.834 379.246C253.016 378.914 253.768 378.487 254.094 377.97C254.417 377.453 254.514 376.958 254.379 376.482C254.232 375.955 253.959 375.585 253.561 375.369C253.163 375.153 252.449 375.103 251.417 375.216L249.487 375.441C247.923 375.617 246.732 375.491 245.911 375.068C245.09 374.645 244.516 373.849 244.187 372.683C243.887 371.615 244.062 370.605 244.714 369.65C245.366 368.694 246.547 367.976 248.252 367.493C249.271 367.205 250.236 367.077 251.145 367.102C252.057 367.127 252.856 367.371 253.545 367.835C254.235 368.296 254.752 369.02 255.1 370.001L253.031 370.584C252.633 369.737 252.085 369.223 251.386 369.042C250.687 368.857 249.819 368.91 248.785 369.205C247.701 369.512 246.986 369.913 246.638 370.408C246.29 370.906 246.203 371.458 246.375 372.066V372.069Z" fill="#64C4FF"/>
<path d="M241.161 374.166L242.669 381.171L244.671 380.738L245.044 382.465L243.042 382.897L243.8 386.423L241.625 386.893L240.867 383.367L237.441 384.107L237.068 382.38L240.494 381.641L238.861 374.063C238.723 373.43 238.472 372.95 238.106 372.627C237.739 372.305 237.266 372.207 236.68 372.333C236.313 372.411 235.993 372.511 235.724 372.63C235.454 372.75 235.216 372.866 235.012 372.978L234.276 371.383C234.583 371.195 234.928 371.02 235.301 370.86C235.677 370.7 236.131 370.562 236.664 370.449C237.632 370.239 238.41 370.274 239.002 370.546C239.594 370.819 240.052 371.277 240.381 371.91C240.71 372.546 240.967 373.298 241.155 374.163L241.161 374.166Z" fill="#64C4FF"/>
<path d="M233.643 375.932L234.924 384.613L232.721 384.939L231.502 376.688C231.323 375.472 230.994 374.641 230.512 374.196C230.032 373.751 229.352 373.591 228.475 373.72C227.478 373.867 226.644 374.353 225.974 375.177C225.607 375.61 225.344 376.052 225.187 376.497C225.03 376.942 224.999 377.493 225.096 378.151L226.24 385.895L224.037 386.221L222.103 373.134L224.281 372.811L224.579 374.836C225.077 373.898 225.676 373.181 226.369 372.683C227.061 372.184 227.838 371.871 228.7 371.742C230.186 371.523 231.32 371.767 232.107 372.479C232.893 373.19 233.404 374.34 233.636 375.926L233.643 375.932Z" fill="#64C4FF"/>
<path d="M220.3 379.945C220.441 382.123 220.027 383.881 219.062 385.216C218.097 386.551 216.702 387.278 214.881 387.394C214.183 387.438 213.468 387.344 212.735 387.109C212.001 386.874 211.302 386.385 210.641 385.639L211.067 392.277L208.845 392.418L207.68 374.184L209.851 374.047L209.974 375.961C210.472 375.178 211.064 374.564 211.754 374.116C212.443 373.671 213.274 373.417 214.242 373.354C215.518 373.272 216.596 373.511 217.467 374.072C218.341 374.633 219.012 375.426 219.479 376.457C219.946 377.488 220.222 378.647 220.303 379.942L220.3 379.945ZM217.978 380.145C217.896 378.851 217.652 377.842 217.244 377.115C216.84 376.388 216.345 375.886 215.762 375.607C215.179 375.328 214.584 375.209 213.969 375.247C212.76 375.325 211.807 375.78 211.108 376.61C210.409 377.441 210.108 378.622 210.206 380.155L210.262 381.048C210.368 382.715 210.807 383.906 211.581 384.617C212.352 385.329 213.311 385.649 214.449 385.573C215.163 385.526 215.803 385.316 216.37 384.937C216.934 384.558 217.364 383.981 217.655 383.201C217.946 382.421 218.053 381.402 217.971 380.142L217.978 380.145Z" fill="#64C4FF"/>
<path d="M204.812 387.37L202.586 387.407L202.373 374.182L204.598 374.144L204.812 387.37ZM204.946 392.409L202.668 392.447L202.627 389.864L204.906 389.827L204.946 392.409Z" fill="#64C4FF"/>
<path d="M199.607 380.831C199.531 382.279 199.202 383.514 198.62 384.532C198.037 385.551 197.244 386.325 196.244 386.855C195.241 387.381 194.094 387.613 192.8 387.544C191.471 387.475 190.349 387.133 189.434 386.522C188.519 385.911 187.832 385.071 187.375 384.006C186.917 382.94 186.729 381.693 186.801 380.261C186.877 378.813 187.202 377.575 187.779 376.547C188.356 375.519 189.139 374.739 190.13 374.212C191.123 373.683 192.283 373.454 193.611 373.523C195.62 373.629 197.153 374.331 198.203 375.635C199.253 376.936 199.723 378.669 199.607 380.834V380.831ZM197.253 380.759C197.331 379.242 197.084 377.982 196.504 376.979C195.924 375.977 194.918 375.434 193.489 375.362C192.536 375.312 191.75 375.494 191.129 375.905C190.509 376.315 190.039 376.911 189.716 377.688C189.393 378.465 189.205 379.355 189.152 380.361C189.073 381.878 189.327 383.128 189.916 384.116C190.506 385.103 191.515 385.635 192.947 385.711C194.36 385.786 195.413 385.357 196.103 384.429C196.792 383.501 197.178 382.279 197.256 380.762L197.253 380.759Z" fill="#64C4FF"/>
<path d="M184.996 376.275L182.451 375.999L182.774 373.021L185.319 373.297L184.996 376.275Z" fill="#64C4FF"/>
<path d="M173.451 380.427L166.055 379.045L166.462 376.858L173.858 378.24L173.451 380.427Z" fill="#64C4FF"/>
<path d="M158.671 375.266C158.239 376.739 157.615 377.908 156.8 378.77C155.985 379.632 155.051 380.193 153.998 380.453C152.945 380.713 151.836 380.669 150.673 380.328C149.363 379.942 148.379 379.362 147.718 378.591C147.057 377.817 146.665 376.908 146.549 375.859C146.43 374.809 146.549 373.69 146.9 372.496L147.216 371.415L156.643 374.188C156.982 372.794 156.947 371.596 156.54 370.597C156.133 369.597 155.33 368.92 154.136 368.569C153.074 368.256 152.234 368.227 151.617 368.481C150.999 368.735 150.507 369.183 150.144 369.819L148.081 369.211C148.652 368.061 149.479 367.262 150.564 366.808C151.648 366.353 153.008 366.369 154.647 366.848C156.562 367.413 157.866 368.434 158.558 369.92C159.251 371.405 159.292 373.185 158.68 375.263L158.671 375.266ZM155.036 377.648C155.478 377.112 155.841 376.485 156.123 375.768L148.906 373.643C148.592 374.956 148.573 376.031 148.849 376.868C149.128 377.704 149.905 378.312 151.181 378.689C152.049 378.945 152.798 378.967 153.425 378.764C154.055 378.557 154.591 378.187 155.033 377.651L155.036 377.648Z" fill="#64C4FF"/>
<path d="M141.628 365.509L134.056 374.128L131.759 373.256L141.431 362.78L143.656 363.626L143.91 377.873L141.493 376.954L141.625 365.509H141.628Z" fill="#64C4FF"/>
<path d="M133.339 366.698C132.718 368.008 131.944 369.026 131.019 369.747C130.092 370.471 129.067 370.885 127.939 370.994C126.811 371.101 125.664 370.878 124.491 370.327C123.288 369.756 122.379 369.017 121.765 368.102C121.151 367.187 120.834 366.152 120.815 364.993C120.796 363.833 121.094 362.605 121.708 361.31C122.329 360 123.1 358.979 124.021 358.245C124.946 357.512 125.964 357.089 127.083 356.976C128.202 356.863 129.365 357.092 130.565 357.663C132.386 358.524 133.533 359.756 134.009 361.357C134.486 362.959 134.263 364.742 133.335 366.701L133.339 366.698ZM131.189 365.739C131.837 364.366 132.085 363.106 131.931 361.956C131.778 360.806 131.051 359.925 129.756 359.314C128.895 358.907 128.095 358.775 127.368 358.919C126.638 359.063 125.977 359.436 125.385 360.032C124.792 360.627 124.278 361.383 123.849 362.291C123.2 363.664 122.959 364.918 123.131 366.055C123.301 367.193 124.034 368.067 125.328 368.678C126.607 369.283 127.744 369.286 128.735 368.691C129.725 368.092 130.546 367.108 131.195 365.736L131.189 365.739Z" fill="#64C4FF"/>
<path d="M113.716 353.077C113.453 353.535 113.353 353.999 113.416 354.469C113.481 354.939 113.901 355.488 114.682 356.114L116.017 357.18C117.183 358.126 117.969 359.038 118.37 359.91C118.775 360.781 118.668 361.749 118.054 362.815C117.646 363.523 117.098 364.015 116.408 364.288C115.719 364.56 114.954 364.632 114.114 364.501C113.275 364.372 112.425 364.059 111.567 363.564C110.457 362.924 109.667 362.282 109.194 361.636C108.721 360.991 108.464 360.339 108.426 359.687C108.389 359.035 108.47 358.383 108.668 357.728L110.586 358.449C110.435 359.189 110.46 359.828 110.661 360.367C110.861 360.906 111.435 361.448 112.381 361.994C113.447 362.608 114.274 362.849 114.873 362.721C115.468 362.592 115.891 362.313 116.139 361.884C116.412 361.411 116.487 360.956 116.361 360.521C116.239 360.085 115.775 359.54 114.973 358.878L113.463 357.653C112.247 356.656 111.504 355.716 111.234 354.832C110.965 353.949 111.134 352.983 111.739 351.934C112.294 350.971 113.14 350.392 114.277 350.191C115.415 349.991 116.753 350.335 118.292 351.219C119.207 351.746 119.975 352.347 120.592 353.018C121.21 353.689 121.595 354.431 121.746 355.246C121.896 356.061 121.742 356.935 121.282 357.872L119.42 356.801C119.746 355.926 119.734 355.174 119.376 354.544C119.019 353.914 118.377 353.334 117.446 352.795C116.471 352.234 115.685 352.003 115.086 352.1C114.487 352.197 114.033 352.52 113.716 353.068V353.077Z" fill="#64C4FF"/>
<path d="M108.576 350.81L104.618 356.783L106.323 357.915L105.348 359.388L103.643 358.256L101.65 361.265L99.7946 360.036L101.788 357.028L98.8638 355.091L99.8384 353.618L102.762 355.555L107.043 349.092C107.401 348.55 107.567 348.039 107.542 347.551C107.517 347.065 107.257 346.654 106.758 346.325C106.445 346.118 106.153 345.959 105.878 345.849C105.602 345.739 105.354 345.651 105.132 345.586L105.758 343.943C106.109 344.031 106.473 344.156 106.849 344.313C107.225 344.47 107.642 344.699 108.096 345.003C108.921 345.548 109.441 346.131 109.66 346.745C109.877 347.359 109.873 348.008 109.648 348.685C109.422 349.365 109.065 350.073 108.576 350.813V350.81Z" fill="#64C4FF"/>
<path d="M102.05 346.661L96.7382 353.646L94.9675 352.299L100.016 345.658C100.759 344.68 101.123 343.865 101.107 343.207C101.091 342.552 100.731 341.957 100.023 341.421C99.2203 340.813 98.2927 340.556 97.2334 340.65C96.6661 340.69 96.1678 340.81 95.7385 341.007C95.3091 341.204 94.8923 341.571 94.4912 342.098L89.7526 348.331L87.9819 346.984L95.9892 336.453L97.7411 337.785L96.5032 339.415C97.5217 339.117 98.4525 339.042 99.2924 339.189C100.135 339.337 100.9 339.672 101.593 340.198C102.787 341.107 103.404 342.091 103.445 343.151C103.486 344.21 103.022 345.379 102.05 346.654V346.661Z" fill="#64C4FF"/>
<path d="M89.8524 339.923C88.392 341.547 86.8469 342.48 85.2173 342.722C83.5876 342.963 82.0927 342.477 80.7388 341.255C80.2186 340.788 79.7861 340.208 79.4414 339.522C79.0966 338.832 78.9587 337.993 79.0277 336.999L74.5775 341.945L72.9227 340.456L85.142 326.876L86.7592 328.331L85.4742 329.757C86.3831 329.562 87.2355 329.559 88.0378 329.738C88.837 329.92 89.6017 330.333 90.3225 330.985C91.2721 331.841 91.855 332.778 92.065 333.793C92.2749 334.809 92.1778 335.843 91.7672 336.899C91.3567 337.952 90.7205 338.961 89.8524 339.926V339.923ZM88.088 338.403C88.9561 337.438 89.5077 336.557 89.7427 335.761C89.9777 334.962 89.9934 334.26 89.7866 333.649C89.5797 333.038 89.2475 332.527 88.79 332.116C87.8905 331.305 86.8971 330.941 85.8158 331.023C84.7346 331.104 83.6785 331.715 82.6505 332.856L82.052 333.52C80.9331 334.762 80.391 335.909 80.4223 336.958C80.4536 338.008 80.8955 338.914 81.7448 339.679C82.2776 340.158 82.8762 340.468 83.5437 340.606C84.2081 340.747 84.9227 340.647 85.6842 340.312C86.4458 339.976 87.2481 339.337 88.0942 338.4L88.088 338.403Z" fill="#64C4FF"/>
<path d="M70.1316 337.601L68.5302 335.981L70.3667 334.163L71.9681 335.783L70.1316 337.601ZM73.6824 334.022L72.1185 332.439L81.5267 323.141L83.0905 324.724L73.6824 334.022Z" fill="#64C4FF"/>
<path d="M74.7566 325.747C73.666 326.703 72.5535 327.329 71.4158 327.624C70.2782 327.918 69.1719 327.893 68.0938 327.546C67.0158 327.198 66.0505 326.536 65.1949 325.562C64.3174 324.562 63.7784 323.522 63.5747 322.437C63.3741 321.353 63.4932 320.278 63.9382 319.206C64.3832 318.134 65.1416 317.128 66.2197 316.182C67.3103 315.226 68.4229 314.593 69.5605 314.286C70.6982 313.979 71.8044 313.997 72.8763 314.339C73.9481 314.681 74.9227 315.351 75.8002 316.351C77.129 317.865 77.6932 319.451 77.4957 321.112C77.2983 322.773 76.3832 324.318 74.7566 325.747ZM73.1646 324.014C74.3053 323.011 75.0324 321.955 75.3458 320.836C75.6592 319.72 75.3458 318.623 74.3994 317.548C73.7694 316.831 73.0894 316.395 72.3623 316.238C71.6352 316.081 70.8799 316.16 70.0996 316.473C69.3192 316.784 68.5483 317.272 67.793 317.937C66.6522 318.94 65.9345 319.996 65.6368 321.105C65.3422 322.215 65.665 323.308 66.6115 324.386C67.5454 325.452 68.5859 325.903 69.7329 325.75C70.8799 325.593 72.0238 325.016 73.1646 324.014Z" fill="#64C4FF"/>
<path d="M67.8214 312.112L66.245 310.097L68.6017 308.251L70.1781 310.267L67.8214 312.112Z" fill="#64C4FF"/>
<path d="M56.7797 306.742L52.6022 300.486L54.4543 299.252L58.6319 305.507L56.7797 306.742Z" fill="#64C4FF"/>
<path d="M50.1511 292.563C48.7941 293.284 47.5248 293.654 46.3371 293.673C45.1524 293.695 44.0963 293.419 43.1749 292.845C42.2535 292.272 41.5076 291.451 40.9404 290.382C40.301 289.175 40.0253 288.066 40.1161 287.054C40.207 286.041 40.5862 285.126 41.2506 284.308C41.9182 283.49 42.8019 282.792 43.902 282.209L44.8954 281.682L49.4992 290.363C50.734 289.633 51.5645 288.771 51.9939 287.781C52.4232 286.79 52.348 285.744 51.7651 284.644C51.2448 283.663 50.6807 283.042 50.0665 282.779C49.4522 282.516 48.7909 282.475 48.0764 282.66L47.0704 280.761C48.2895 280.366 49.4397 280.397 50.524 280.855C51.6084 281.312 52.5486 282.296 53.3477 283.804C54.2816 285.568 54.4634 287.214 53.8836 288.746C53.307 290.279 52.0597 291.551 50.1479 292.566L50.1511 292.563ZM45.9046 291.629C46.5972 291.57 47.2992 291.391 48.0106 291.093L44.4849 284.449C43.3253 285.142 42.545 285.878 42.1407 286.662C41.7364 287.445 41.8461 288.426 42.4697 289.602C42.8928 290.401 43.4005 290.952 43.9866 291.259C44.5726 291.567 45.2151 291.689 45.9077 291.632L45.9046 291.629Z" fill="#64C4FF"/>
<path d="M45.2157 273.556L33.7579 274.17L32.777 271.92L47.0302 271.513L47.9798 273.694L37.9699 283.835L36.9357 281.466L45.2125 273.559L45.2157 273.556Z" fill="#64C4FF"/>
<path d="M38.5668 268.46C37.1973 268.933 35.9281 269.09 34.7654 268.933C33.6027 268.777 32.5873 268.332 31.7223 267.601C30.8573 266.871 30.2117 265.893 29.7886 264.668C29.3561 263.411 29.2496 262.242 29.4721 261.164C29.6946 260.086 30.2148 259.133 31.0328 258.312C31.8508 257.488 32.9351 256.842 34.289 256.376C35.6585 255.902 36.9309 255.739 38.0999 255.887C39.2689 256.034 40.2843 256.466 41.1492 257.19C42.0111 257.911 42.6598 258.902 43.0954 260.161C43.7504 262.064 43.6752 263.747 42.8604 265.21C42.0487 266.674 40.6165 267.758 38.57 268.463L38.5668 268.46ZM37.752 266.251C39.1874 265.755 40.2623 265.05 40.9737 264.138C41.6883 263.226 41.8105 262.092 41.3435 260.735C41.0333 259.832 40.5695 259.171 39.9552 258.751C39.3409 258.331 38.6139 258.118 37.7708 258.112C36.9278 258.105 36.0346 258.265 35.0819 258.594C33.6465 259.09 32.581 259.795 31.8884 260.713C31.1926 261.628 31.0798 262.766 31.5468 264.12C32.0075 265.458 32.8004 266.273 33.9192 266.564C35.038 266.856 36.3167 266.752 37.752 266.257V266.251Z" fill="#64C4FF"/>
<path d="M34.5932 244.903C34.0824 245.034 33.6781 245.288 33.3866 245.661C33.0952 246.034 32.998 246.72 33.0952 247.717L33.2676 249.416C33.4054 250.914 33.302 252.111 32.9604 253.007C32.6188 253.903 31.851 254.505 30.6632 254.812C29.8703 255.016 29.137 254.966 28.4601 254.665C27.7831 254.364 27.1971 253.866 26.705 253.173C26.2099 252.481 25.8401 251.656 25.5956 250.697C25.2791 249.456 25.1851 248.444 25.3167 247.651C25.4483 246.861 25.7335 246.222 26.1754 245.739C26.6142 245.257 27.1375 244.859 27.7455 244.545L28.5697 246.42C27.9367 246.83 27.4948 247.294 27.2504 247.814C27.0059 248.334 27.0184 249.124 27.288 250.18C27.592 251.371 27.9994 252.133 28.5102 252.468C29.0179 252.803 29.5131 252.91 29.9926 252.788C30.5222 252.653 30.8983 252.39 31.1239 251.995C31.3496 251.603 31.4185 250.889 31.3276 249.854L31.149 247.921C31.0111 246.354 31.1647 245.166 31.6097 244.354C32.0547 243.546 32.8633 242.991 34.0354 242.69C35.1103 242.414 36.1163 242.615 37.0565 243.289C37.9967 243.962 38.6862 245.16 39.1249 246.88C39.3882 247.905 39.4947 248.873 39.4477 249.782C39.4007 250.694 39.1375 251.487 38.658 252.164C38.1816 252.841 37.4451 253.342 36.4548 253.668L35.922 251.587C36.7776 251.211 37.3041 250.675 37.5047 249.98C37.7052 249.287 37.6708 248.419 37.4044 247.379C37.1255 246.288 36.74 245.564 36.2511 245.204C35.7622 244.843 35.2137 244.743 34.6026 244.9L34.5932 244.903Z" fill="#64C4FF"/>
<path d="M32.6267 239.649L25.5878 240.991L25.9702 243.003L24.2371 243.332L23.8548 241.32L20.3102 241.994L19.8934 239.806L23.4379 239.132L22.7829 235.688L24.516 235.359L25.171 238.803L32.7865 237.352C33.4227 237.23 33.9085 236.992 34.2376 236.631C34.5698 236.274 34.6795 235.801 34.5666 235.215C34.4977 234.845 34.4037 234.525 34.2908 234.253C34.178 233.98 34.0683 233.739 33.9586 233.535L35.5695 232.836C35.7513 233.15 35.9174 233.494 36.0678 233.874C36.2182 234.253 36.3436 234.71 36.447 235.246C36.6319 236.218 36.5818 236.995 36.2934 237.581C36.0051 238.167 35.5382 238.615 34.8957 238.929C34.2532 239.242 33.4948 239.483 32.6236 239.649H32.6267Z" fill="#64C4FF"/>
<path d="M31.0328 232.078L22.3236 233.153L22.0509 230.943L30.3308 229.922C31.5499 229.771 32.3867 229.461 32.8443 228.991C33.3018 228.521 33.4773 227.847 33.3676 226.966C33.2454 225.967 32.7784 225.123 31.973 224.431C31.5499 224.055 31.1143 223.782 30.6724 223.613C30.2305 223.444 29.679 223.4 29.0177 223.481L21.2486 224.44L20.976 222.231L34.1041 220.611L34.3736 222.795L32.3428 223.046C33.2673 223.566 33.9693 224.18 34.452 224.885C34.9346 225.59 35.2292 226.374 35.3358 227.239C35.5207 228.728 35.248 229.859 34.5178 230.627C33.7876 231.395 32.628 231.877 31.036 232.075L31.0328 232.078Z" fill="#64C4FF"/>
<path d="M27.3419 218.646C25.1607 218.734 23.4151 218.279 22.102 217.283C20.7888 216.286 20.0962 214.876 20.0242 213.052C19.9959 212.353 20.1088 211.641 20.3595 210.911C20.6102 210.184 21.1179 209.498 21.8763 208.852L15.2292 209.122L15.1383 206.897L33.3936 206.16L33.4814 208.332L31.5634 208.41C32.3343 208.924 32.9361 209.532 33.3654 210.231C33.7948 210.93 34.0298 211.767 34.0674 212.738C34.1176 214.017 33.8543 215.086 33.2745 215.947C32.6947 216.806 31.8862 217.458 30.8426 217.903C29.8021 218.345 28.6331 218.593 27.3388 218.646H27.3419ZM27.1978 216.32C28.4921 216.267 29.5075 216.048 30.244 215.659C30.9805 215.271 31.4944 214.788 31.7859 214.214C32.0774 213.638 32.2121 213.045 32.187 212.431C32.1369 211.221 31.7076 210.256 30.8927 209.539C30.0779 208.821 28.9058 208.492 27.3702 208.554L26.4738 208.592C24.8034 208.661 23.6031 209.072 22.8761 209.827C22.1458 210.582 21.8042 211.532 21.8512 212.673C21.8795 213.387 22.0769 214.033 22.4404 214.606C22.804 215.18 23.3744 215.622 24.1453 215.932C24.9163 216.242 25.9348 216.371 27.1947 216.32H27.1978Z" fill="#64C4FF"/>
<path d="M15.2299 202.913L15.2706 200.635L17.853 200.679L17.8122 202.957L15.2299 202.913ZM20.2724 202.951L20.31 200.726L33.5353 200.958L33.4977 203.183L20.2724 202.951Z" fill="#64C4FF"/>
<path d="M26.9422 197.94C25.4975 197.83 24.2721 197.473 23.2661 196.865C22.2601 196.257 21.5048 195.449 21.0002 194.433C20.4957 193.421 20.292 192.268 20.3923 190.973C20.4925 189.648 20.8592 188.532 21.4923 187.632C22.1253 186.73 22.9809 186.066 24.0559 185.633C25.1339 185.201 26.3844 185.041 27.8135 185.15C29.2582 185.26 30.4899 185.614 31.5053 186.216C32.5207 186.815 33.2791 187.617 33.7868 188.623C34.2914 189.629 34.4951 190.795 34.3917 192.12C34.2381 194.126 33.4985 195.64 32.1728 196.661C30.8472 197.68 29.1015 198.109 26.9422 197.943V197.94ZM27.0707 195.59C28.5844 195.706 29.8505 195.486 30.8691 194.928C31.8876 194.374 32.4486 193.38 32.5583 191.951C32.6304 190.998 32.4674 190.209 32.0725 189.579C31.6745 188.949 31.0916 188.466 30.3238 188.125C29.5528 187.783 28.669 187.576 27.663 187.498C26.1493 187.382 24.8926 187.607 23.8898 188.172C22.89 188.736 22.3322 189.735 22.2256 191.161C22.1191 192.575 22.5202 193.634 23.4322 194.345C24.3442 195.057 25.557 195.471 27.0707 195.586V195.59Z" fill="#64C4FF"/>
<path d="M31.8381 183.446L32.1766 180.91L35.1445 181.305L34.806 183.84L31.8381 183.446Z" fill="#64C4FF"/>
<path d="M27.9661 171.796L29.5236 164.437L31.7017 164.898L30.1442 172.256L27.9661 171.796Z" fill="#64C4FF"/>
<path d="M33.4771 157.149C32.0135 156.679 30.8634 156.03 30.0203 155.193C29.1773 154.36 28.6383 153.413 28.4064 152.351C28.1744 151.291 28.2403 150.185 28.6101 149.032C29.0269 147.731 29.6286 146.763 30.4184 146.117C31.2081 145.475 32.1264 145.105 33.1762 145.014C34.2261 144.92 35.3449 145.064 36.5327 145.444L37.6045 145.788L34.6053 155.143C35.9905 155.516 37.1877 155.51 38.1968 155.127C39.206 154.742 39.9017 153.958 40.2809 152.774C40.6194 151.718 40.6695 150.878 40.4314 150.254C40.1932 149.63 39.7576 149.129 39.1276 148.747L39.7826 146.7C40.9171 147.296 41.6975 148.142 42.1268 149.239C42.5562 150.336 42.5092 151.696 41.9889 153.319C41.381 155.218 40.3248 156.5 38.8236 157.155C37.3225 157.813 35.5424 157.81 33.4802 157.149H33.4771ZM31.183 153.46C31.7096 153.915 32.3269 154.294 33.0383 154.592L35.3355 147.427C34.0318 147.083 32.9569 147.036 32.1138 147.296C31.2708 147.553 30.644 148.317 30.2397 149.583C29.9639 150.445 29.9201 151.191 30.1112 151.827C30.3024 152.46 30.6597 153.006 31.1862 153.46H31.183Z" fill="#64C4FF"/>
<path d="M43.6392 140.349L35.2025 132.574L36.1302 130.299L46.372 140.218L45.4725 142.421L31.2224 142.333L32.1971 139.939L43.636 140.346L43.6392 140.349Z" fill="#64C4FF"/>
<path d="M42.6474 132.028C41.3531 131.377 40.3534 130.581 39.6545 129.637C38.9556 128.694 38.5639 127.657 38.4824 126.528C38.4009 125.4 38.6516 124.256 39.2345 123.097C39.8331 121.909 40.5947 121.016 41.5223 120.423C42.45 119.831 43.4936 119.54 44.6532 119.549C45.8127 119.558 47.0318 119.887 48.3136 120.53C49.608 121.182 50.614 121.978 51.3254 122.918C52.0368 123.858 52.4348 124.889 52.5194 126.011C52.604 127.133 52.3502 128.287 51.7516 129.477C50.849 131.276 49.5892 132.395 47.9752 132.834C46.3612 133.273 44.5873 133.006 42.6506 132.032L42.6474 132.028ZM43.6597 129.904C45.0167 130.587 46.2703 130.863 47.4236 130.734C48.5769 130.609 49.4732 129.904 50.1157 128.622C50.545 127.769 50.6954 126.977 50.5669 126.243C50.4385 125.51 50.0843 124.839 49.5014 124.234C48.9185 123.626 48.1789 123.097 47.2794 122.645C45.9224 121.965 44.6751 121.696 43.5343 121.837C42.3936 121.978 41.5004 122.689 40.8579 123.971C40.2217 125.237 40.1904 126.372 40.7639 127.375C41.3374 128.381 42.3027 129.224 43.6597 129.904Z" fill="#64C4FF"/>
<path d="M56.7389 112.734C56.2876 112.458 55.827 112.349 55.3537 112.402C54.8836 112.455 54.3227 112.863 53.6802 113.631L52.5833 114.941C51.6086 116.084 50.681 116.849 49.7972 117.228C48.9166 117.611 47.9513 117.482 46.9014 116.843C46.2026 116.417 45.7231 115.856 45.4692 115.163C45.2122 114.467 45.159 113.703 45.3094 112.866C45.4598 112.029 45.792 111.186 46.306 110.343C46.9704 109.249 47.6317 108.475 48.2898 108.018C48.9479 107.56 49.6029 107.319 50.2548 107.297C50.9066 107.275 51.5585 107.369 52.2072 107.585L51.4394 109.484C50.7029 109.315 50.0636 109.328 49.5183 109.516C48.973 109.704 48.4183 110.265 47.851 111.199C47.2117 112.248 46.9516 113.073 47.0644 113.671C47.1804 114.27 47.4468 114.699 47.8698 114.956C48.3368 115.241 48.7881 115.326 49.2268 115.213C49.6656 115.1 50.2234 114.652 50.9004 113.866L52.1602 112.386C53.185 111.192 54.144 110.471 55.0309 110.224C55.921 109.976 56.8831 110.168 57.9173 110.797C58.8638 111.374 59.4247 112.233 59.5971 113.377C59.7695 114.521 59.3965 115.849 58.472 117.366C57.9236 118.269 57.3031 119.021 56.6199 119.623C55.9335 120.224 55.1814 120.591 54.3634 120.723C53.5454 120.854 52.6742 120.679 51.7497 120.196L52.8654 118.36C53.7335 118.708 54.4825 118.711 55.1218 118.369C55.758 118.027 56.3566 117.398 56.9144 116.479C57.5005 115.517 57.7512 114.737 57.6666 114.135C57.582 113.537 57.2717 113.07 56.7327 112.744L56.7389 112.734Z" fill="#64C4FF"/>
<path d="M59.1203 107.655L53.2441 103.559L52.072 105.239L50.6241 104.23L51.7962 102.55L48.8378 100.488L50.1102 98.6608L53.0686 100.723L55.0743 97.8459L56.5222 98.8551L54.5165 101.732L60.8753 106.167C61.4081 106.536 61.9158 106.715 62.4047 106.703C62.8936 106.69 63.3073 106.436 63.6489 105.947C63.862 105.64 64.0281 105.349 64.1472 105.076C64.2631 104.803 64.3571 104.559 64.4292 104.336L66.0557 105.001C65.9586 105.349 65.827 105.709 65.6609 106.082C65.4948 106.455 65.2566 106.865 64.9432 107.314C64.3759 108.125 63.7836 108.633 63.1662 108.834C62.5457 109.037 61.9001 109.015 61.2263 108.774C60.5525 108.533 59.8505 108.16 59.1234 107.652L59.1203 107.655Z" fill="#64C4FF"/>
<path d="M63.4264 101.226L56.5693 95.7513L57.9577 94.0119L64.4763 99.2174C65.4353 99.9852 66.2439 100.368 66.8989 100.368C67.5539 100.368 68.1587 100.02 68.7134 99.3271C69.3402 98.5405 69.6191 97.616 69.5502 96.5567C69.522 95.9894 69.4154 95.488 69.2274 95.0555C69.0394 94.623 68.6852 94.1968 68.165 93.7831L62.0475 88.8973L63.4358 87.1579L73.7748 95.4128L72.4021 97.1333L70.8038 95.8547C71.0764 96.8795 71.1297 97.8134 70.9636 98.6502C70.7975 99.4869 70.4402 100.248 69.8981 100.929C68.961 102.101 67.9644 102.696 66.902 102.712C65.8427 102.727 64.6863 102.235 63.4327 101.236L63.4264 101.226Z" fill="#64C4FF"/>
<path d="M70.4468 89.1949C68.8579 87.6969 67.9616 86.1299 67.7579 84.494C67.5542 82.8581 68.0775 81.3788 69.3311 80.05C69.8106 79.5423 70.3998 79.1224 71.0956 78.7964C71.7913 78.4674 72.6375 78.3514 73.6278 78.4423L68.789 73.8761L70.3152 72.2559L83.6032 84.7949L82.1114 86.3775L80.7168 85.0612C80.8892 85.9732 80.8735 86.8288 80.6729 87.6248C80.4724 88.4208 80.0399 89.173 79.3723 89.8813C78.4948 90.812 77.5452 91.3699 76.5236 91.5579C75.5019 91.746 74.4708 91.6206 73.4272 91.185C72.3836 90.7525 71.3901 90.0881 70.4468 89.1981V89.1949ZM72.0075 87.465C72.9509 88.355 73.819 88.9254 74.6087 89.1824C75.4016 89.4362 76.1036 89.4676 76.721 89.2733C77.3384 89.079 77.8555 88.7593 78.2755 88.3143C79.1059 87.4336 79.4946 86.4496 79.4382 85.3652C79.3817 84.2809 78.7957 83.2122 77.68 82.1592L77.0281 81.5449C75.8122 80.3979 74.6808 79.8275 73.6309 79.8338C72.5811 79.8401 71.6628 80.26 70.8793 81.0905C70.3873 81.6107 70.0645 82.2031 69.9078 82.8643C69.7511 83.5256 69.8326 84.2433 70.1522 85.0111C70.4688 85.7789 71.0893 86.5969 72.0075 87.465Z" fill="#64C4FF"/>
<path d="M73.2386 69.528L74.8965 67.9673L76.6703 69.8477L75.0125 71.4084L73.2386 69.528ZM76.733 73.1603L78.3533 71.634L87.4261 81.2616L85.8058 82.7878L76.733 73.1603Z" fill="#64C4FF"/>
<path d="M84.9773 74.438C84.0465 73.3254 83.4479 72.1972 83.1784 71.0533C82.9089 69.9094 82.9622 68.8031 83.3351 67.7345C83.708 66.6658 84.3912 65.7162 85.3878 64.8826C86.4095 64.0301 87.4625 63.513 88.55 63.3375C89.6375 63.162 90.7124 63.3093 91.7717 63.7763C92.831 64.2464 93.8213 65.0298 94.7427 66.1299C95.6735 67.2424 96.2784 68.3706 96.5573 69.5145C96.8362 70.6584 96.7923 71.7647 96.4257 72.8271C96.059 73.8896 95.3664 74.8485 94.3447 75.7041C92.7997 76.9953 91.2013 77.5249 89.5466 77.2868C87.8919 77.0486 86.3688 76.099 84.9773 74.438ZM86.7511 72.8867C87.7258 74.0525 88.7663 74.8047 89.8757 75.1431C90.982 75.4847 92.0882 75.1933 93.1851 74.275C93.9185 73.6608 94.3698 72.9932 94.5421 72.2693C94.7145 71.5453 94.655 70.7901 94.3635 70.0003C94.0689 69.2105 93.602 68.4302 92.9532 67.6592C91.9786 66.4965 90.9412 65.7507 89.8349 65.431C88.7318 65.1082 87.6286 65.4091 86.5317 66.3273C85.4474 67.2362 84.9679 68.2641 85.0964 69.4143C85.2249 70.5644 85.7765 71.7209 86.7511 72.8836V72.8867Z" fill="#64C4FF"/>
<path d="M98.774 67.8209L100.824 66.2915L102.613 68.6921L100.564 70.2215L98.774 67.8209Z" fill="#64C4FF"/>
<path d="M202.57 405.14C175.226 405.14 148.697 399.784 123.719 389.219C99.5972 379.015 77.9353 364.411 59.3321 345.807C40.7289 327.204 26.1247 305.542 15.9205 281.42C5.35594 256.443 0 229.914 0 202.57C0 175.226 5.35594 148.697 15.9205 123.719C26.1247 99.5972 40.7289 77.9353 59.3321 59.3321C77.9353 40.7289 99.5972 26.1247 123.719 15.9205C148.694 5.35594 175.223 0 202.57 0C229.917 0 256.443 5.35594 281.42 15.9205C305.542 26.1247 327.204 40.7289 345.807 59.3321C364.411 77.9353 379.015 99.5972 389.219 123.719C399.784 148.694 405.14 175.223 405.14 202.57C405.14 229.917 399.784 256.443 389.219 281.42C379.015 305.542 364.411 327.204 345.807 345.807C327.204 364.411 305.542 379.015 281.42 389.219C256.446 399.784 229.917 405.14 202.57 405.14ZM202.57 6.79756C94.6205 6.79756 6.79756 94.6205 6.79756 202.57C6.79756 310.519 94.6205 398.342 202.57 398.342C310.519 398.342 398.342 310.519 398.342 202.57C398.342 94.6205 310.519 6.79756 202.57 6.79756Z" fill="#64C4FF"/>
</svg>
