<svg width="396" height="66" viewBox="0 0 396 66" fill="none" xmlns="http://www.w3.org/2000/svg">
<path d="M172.857 51.655C172.857 49.8084 172.349 48.229 171.336 46.9194C170.323 45.6098 168.089 44.6853 164.634 44.1482L158.736 43.2555C153.551 42.4217 149.588 41.0361 146.849 39.1011C144.107 37.1661 142.738 34.0516 142.738 29.7623C142.738 26.9028 143.543 24.4602 145.152 22.4345C146.76 20.4088 148.948 18.8588 151.719 17.7871C154.49 16.7154 157.603 16.1783 161.058 16.1783C165.526 16.1783 169.041 16.7449 171.603 17.8754C174.164 19.0084 176.072 20.5265 177.322 22.4345C178.573 24.3424 179.468 26.4564 180.003 28.7789L172.942 29.9413C172.106 27.4398 170.917 25.549 169.367 24.2664C167.817 22.9863 165.136 22.3462 161.323 22.3462C157.034 22.3462 154.098 23.0623 152.519 24.492C150.939 25.9218 150.15 27.5012 150.15 29.2277C150.15 31.1356 150.716 32.639 151.847 33.7401C152.977 34.8437 155.332 35.6922 158.907 36.2857L165.61 37.3574C171.029 38.2501 174.919 39.8 177.273 42.0048C179.625 44.2095 180.802 47.4271 180.802 51.6575C180.802 55.5299 179.252 58.7621 176.155 61.3543C173.058 63.9465 168.41 65.2414 162.215 65.2414C158.52 65.2414 155.155 64.7632 152.116 63.8117C149.078 62.8601 146.621 61.2808 144.742 59.076C142.866 56.8738 141.806 53.9529 141.569 50.3185H149.075C149.613 53.536 150.966 55.7849 153.142 57.0651C155.317 58.3477 158.279 58.9853 162.034 58.9853C165.789 58.9853 168.751 58.3158 170.389 56.9743C172.028 55.6353 172.847 53.8622 172.847 51.6575L172.857 51.655Z" fill="#212121"/>
<path d="M190.73 23.7731H183.581V17.6053H190.73V5.00476H198.504V17.6053H210.747V23.7731H198.504V50.8527C198.504 53.1188 199.009 54.9335 200.025 56.3044C201.038 57.6754 202.585 58.3596 204.672 58.3596C205.982 58.3596 207.144 58.2566 208.157 58.0457C209.17 57.8372 210.063 57.614 210.838 57.3762L212.177 63.365C210.985 63.7819 209.687 64.1252 208.289 64.3925C206.889 64.6598 205.236 64.7947 203.331 64.7947C199.875 64.7947 197.239 64.108 195.422 62.7396C193.604 61.3711 192.368 59.4779 191.714 57.0647C191.056 54.6515 190.73 51.8974 190.73 48.7976V23.7731Z" fill="#212121"/>
<path d="M216.109 17.6055H223.883V46.7402C223.883 51.0295 224.599 54.068 226.029 55.8558C227.458 57.6436 229.722 58.5363 232.819 58.5363C236.334 58.5363 239.463 57.2856 242.202 54.7841C243.691 53.4745 244.824 52.0889 245.599 50.6297C246.374 49.1705 246.761 47.2773 246.761 44.9548V17.6079H254.536V63.8115H246.85V56.6627C244.645 59.6424 242.217 61.8177 239.566 63.1861C236.915 64.557 234.07 65.2412 231.032 65.2412C225.788 65.2412 221.989 63.8115 219.638 60.952C217.283 58.0924 216.109 53.862 216.109 48.2607V17.6055Z" fill="#212121"/>
<path d="M262.313 40.9309C262.313 33.3063 264.144 27.2733 267.808 22.8345C271.472 18.3956 276.49 16.1762 282.866 16.1762C285.309 16.1762 287.781 16.6666 290.282 17.6501C292.784 18.6335 295.109 20.4949 297.252 23.2342V0H305.026V63.8095H297.429V57.107C295.521 59.7287 293.318 61.7396 290.814 63.14C288.313 64.5378 285.363 65.2392 281.969 65.2392C277.5 65.2392 273.805 64.1675 270.886 62.0217C267.965 59.8758 265.807 56.9574 264.407 53.2641C263.007 49.5707 262.308 45.4605 262.308 40.9309H262.313ZM270.445 40.7518C270.445 45.2815 271.07 48.8546 272.321 51.4763C273.572 54.0979 275.18 55.9593 277.147 57.0629C279.114 58.1665 281.169 58.7158 283.315 58.7158C287.545 58.7158 290.969 57.3449 293.593 54.6056C296.215 51.8662 297.527 47.8148 297.527 42.4514V39.3221C297.527 33.4829 296.259 29.2402 293.728 26.5867C291.195 23.9356 287.933 22.6088 283.943 22.6088C281.439 22.6088 279.161 23.2048 277.105 24.3967C275.05 25.5885 273.427 27.5112 272.235 30.1623C271.043 32.8134 270.447 36.3448 270.447 40.7518H270.445Z" fill="#212121"/>
<path d="M314.416 0H322.369V9.02735H314.416V0ZM314.595 17.6059H322.369V63.8095H314.595V17.6059Z" fill="#212121"/>
<path d="M330.324 40.8399C330.324 35.7756 331.246 31.4103 333.096 27.7464C334.942 24.0825 337.564 21.2377 340.96 19.212C344.357 17.1863 348.318 16.1735 352.847 16.1735C357.377 16.1735 361.47 17.1569 364.778 19.1237C368.084 21.0906 370.632 23.8912 372.418 27.5233C374.205 31.1577 375.098 35.4764 375.098 40.4818C375.098 45.4872 374.188 49.9261 372.371 53.6194C370.554 57.3152 367.961 60.1748 364.597 62.198C361.23 64.2237 357.225 65.2365 352.578 65.2365C345.546 65.2365 340.08 63.0613 336.178 58.7131C332.276 54.365 330.324 48.4056 330.324 40.8399ZM338.545 40.6609C338.545 45.9654 339.646 50.3136 341.851 53.7077C344.053 57.1043 347.66 58.8014 352.663 58.8014C355.999 58.8014 358.711 58.0289 360.796 56.479C362.88 54.929 364.415 52.7709 365.399 49.9997C366.382 47.2284 366.873 44.0869 366.873 40.5726C366.873 35.2704 365.757 30.9517 363.523 27.614C361.288 24.2787 357.669 22.6086 352.663 22.6086C347.658 22.6086 344.129 24.2934 341.895 27.6581C339.661 31.0253 338.542 35.3587 338.542 40.6609H338.545Z" fill="#212121"/>
<path d="M10.5356 44.4815C11.3866 52.1306 16.4851 56.464 24.0459 56.464C28.9753 56.464 31.8643 55.3604 35.7735 51.1962L44.5261 55.9539C38.7482 62.2419 32.1217 65.8102 23.8767 65.8102C8.75265 65.8102 0 55.2722 0 41.5926C0 27.913 8.58342 17.0365 22.9423 17.0365C37.3012 17.0365 45.2913 27.4029 45.2913 40.3198C45.2913 41.7642 45.2054 42.7844 44.9504 44.484H10.5356V44.4815ZM10.7906 36.2389H34.9249C33.7355 29.355 28.8061 25.9559 22.859 25.9559C16.3159 25.9559 11.8108 30.1202 10.7906 36.2389Z" fill="#212121"/>
<path d="M72.2291 64.7901H62.7971L44.1023 18.0543H55.1504L67.6406 51.108L80.1308 18.0543H90.9239L72.2291 64.7901Z" fill="#212121"/>
<path d="M90.1575 41.507C90.1575 27.4865 98.9101 17.0343 113.186 17.0343C127.461 17.0343 136.214 27.4865 136.214 41.507C136.214 55.5275 127.292 65.8105 113.186 65.8105C99.0793 65.8105 90.1575 55.3582 90.1575 41.507ZM100.524 41.507C100.524 50.2597 105.282 56.6311 113.186 56.6311C121.09 56.6311 125.762 50.2572 125.762 41.507C125.762 32.7568 121.087 26.2971 113.186 26.2971C105.284 26.2971 100.524 32.5851 100.524 41.507Z" fill="#212121"/>
<path d="M395.385 57.2101V62.9292H383.947V51.4911H389.666C392.824 51.4911 395.385 54.0514 395.385 57.2101Z" fill="#356BFF"/>
</svg>
