<svg width="396" height="66" viewBox="0 0 396 66" fill="none" xmlns="http://www.w3.org/2000/svg">
<path d="M172.857 51.6555C172.857 49.8088 172.349 48.2295 171.336 46.9199C170.323 45.6103 168.089 44.6857 164.634 44.1487L158.736 43.256C153.551 42.4222 149.588 41.0365 146.849 39.1016C144.107 37.1666 142.738 34.0521 142.738 29.7628C142.738 26.9033 143.543 24.4607 145.152 22.435C146.76 20.4093 148.948 18.8593 151.719 17.7876C154.49 16.7159 157.603 16.1788 161.058 16.1788C165.526 16.1788 169.041 16.7453 171.603 17.8759C174.164 19.0089 176.072 20.527 177.322 22.435C178.573 24.3429 179.468 26.4569 180.003 28.7794L172.942 29.9418C172.106 27.4403 170.917 25.5495 169.367 24.2669C167.817 22.9867 165.136 22.3467 161.323 22.3467C157.034 22.3467 154.098 23.0628 152.519 24.4925C150.939 25.9223 150.15 27.5016 150.15 29.2282C150.15 31.1361 150.716 32.6395 151.847 33.7406C152.977 34.8442 155.332 35.6927 158.907 36.2862L165.61 37.3579C171.029 38.2506 174.919 39.8005 177.273 42.0052C179.625 44.21 180.802 47.4275 180.802 51.658C180.802 55.5303 179.252 58.7626 176.155 61.3548C173.058 63.947 168.41 65.2419 162.215 65.2419C158.52 65.2419 155.155 64.7637 152.116 63.8122C149.078 62.8606 146.621 61.2813 144.742 59.0765C142.866 56.8743 141.806 53.9534 141.569 50.3189H149.075C149.613 53.5365 150.966 55.7854 153.142 57.0656C155.317 58.3482 158.279 58.9858 162.034 58.9858C165.789 58.9858 168.751 58.3163 170.389 56.9748C172.028 55.6358 172.847 53.8627 172.847 51.658L172.857 51.6555Z" fill="#356BFF"/>
<path d="M190.73 23.7736H183.581V17.6058H190.73V5.00525H198.504V17.6058H210.747V23.7736H198.504V50.8532C198.504 53.1192 199.009 54.934 200.025 56.3049C201.038 57.6758 202.585 58.3601 204.672 58.3601C205.982 58.3601 207.144 58.2571 208.157 58.0462C209.17 57.8377 210.063 57.6145 210.838 57.3766L212.177 63.3654C210.985 63.7824 209.687 64.1257 208.289 64.393C206.889 64.6603 205.236 64.7952 203.331 64.7952C199.875 64.7952 197.239 64.1085 195.422 62.7401C193.604 61.3716 192.368 59.4784 191.714 57.0652C191.056 54.652 190.73 51.8979 190.73 48.7981V23.7736Z" fill="#356BFF"/>
<path d="M216.109 17.606H223.883V46.7407C223.883 51.03 224.599 54.0685 226.029 55.8563C227.458 57.6441 229.722 58.5368 232.819 58.5368C236.334 58.5368 239.463 57.2861 242.202 54.7846C243.691 53.475 244.824 52.0894 245.599 50.6302C246.374 49.171 246.761 47.2778 246.761 44.9553V17.6084H254.536V63.812H246.85V56.6632C244.645 59.6429 242.217 61.8181 239.566 63.1866C236.915 64.5575 234.07 65.2417 231.032 65.2417C225.788 65.2417 221.989 63.812 219.638 60.9524C217.283 58.0929 216.109 53.8625 216.109 48.2612V17.606Z" fill="#356BFF"/>
<path d="M262.313 40.9309C262.313 33.3063 264.144 27.2733 267.808 22.8345C271.472 18.3956 276.49 16.1762 282.866 16.1762C285.309 16.1762 287.781 16.6666 290.282 17.6501C292.784 18.6335 295.109 20.4949 297.252 23.2342V0H305.026V63.8095H297.429V57.107C295.521 59.7287 293.318 61.7396 290.814 63.14C288.313 64.5378 285.363 65.2392 281.969 65.2392C277.5 65.2392 273.805 64.1675 270.886 62.0217C267.965 59.8758 265.807 56.9574 264.407 53.2641C263.007 49.5707 262.308 45.4605 262.308 40.9309H262.313ZM270.445 40.7518C270.445 45.2815 271.07 48.8546 272.321 51.4763C273.572 54.0979 275.18 55.9593 277.147 57.0629C279.114 58.1665 281.169 58.7158 283.315 58.7158C287.545 58.7158 290.969 57.3449 293.593 54.6056C296.215 51.8662 297.527 47.8148 297.527 42.4514V39.3221C297.527 33.4829 296.259 29.2402 293.728 26.5867C291.195 23.9356 287.933 22.6088 283.943 22.6088C281.439 22.6088 279.161 23.2048 277.105 24.3967C275.05 25.5885 273.427 27.5112 272.235 30.1623C271.043 32.8134 270.447 36.3448 270.447 40.7518H270.445Z" fill="#356BFF"/>
<path d="M314.416 0H322.369V9.02735H314.416V0ZM314.595 17.6059H322.369V63.8095H314.595V17.6059Z" fill="#356BFF"/>
<path d="M330.324 40.8399C330.324 35.7756 331.246 31.4103 333.096 27.7464C334.942 24.0825 337.564 21.2377 340.96 19.212C344.357 17.1863 348.318 16.1735 352.847 16.1735C357.377 16.1735 361.47 17.1569 364.778 19.1237C368.084 21.0906 370.632 23.8912 372.418 27.5233C374.205 31.1577 375.098 35.4765 375.098 40.4818C375.098 45.4872 374.188 49.9261 372.371 53.6194C370.554 57.3152 367.961 60.1748 364.597 62.198C361.23 64.2237 357.225 65.2365 352.578 65.2365C345.546 65.2365 340.08 63.0613 336.178 58.7131C332.276 54.365 330.324 48.4056 330.324 40.8399ZM338.545 40.6609C338.545 45.9654 339.646 50.3136 341.851 53.7077C344.053 57.1043 347.66 58.8014 352.663 58.8014C355.999 58.8014 358.711 58.0289 360.796 56.479C362.88 54.929 364.415 52.7709 365.399 49.9997C366.382 47.2284 366.873 44.0869 366.873 40.5726C366.873 35.2704 365.757 30.9517 363.523 27.614C361.288 24.2787 357.669 22.6086 352.663 22.6086C347.658 22.6086 344.129 24.2934 341.895 27.6581C339.661 31.0253 338.542 35.3587 338.542 40.6609H338.545Z" fill="#356BFF"/>
<path d="M10.5356 44.4807C11.3866 52.1298 16.4851 56.4632 24.0459 56.4632C28.9753 56.4632 31.8643 55.3596 35.7735 51.1954L44.5261 55.9531C38.7482 62.2411 32.1217 65.8093 23.8767 65.8093C8.75265 65.8093 0 55.2713 0 41.5917C0 27.9121 8.58342 17.0356 22.9423 17.0356C37.3012 17.0356 45.2913 27.402 45.2913 40.3189C45.2913 41.7634 45.2054 42.7836 44.9504 44.4831H10.5356V44.4807ZM10.7906 36.2381H34.9249C33.7355 29.3541 28.8061 25.9551 22.859 25.9551C16.3159 25.9551 11.8108 30.1193 10.7906 36.2381Z" fill="#356BFF"/>
<path d="M72.2291 64.7892H62.7971L44.1023 18.0535H55.1504L67.6406 51.1072L80.1308 18.0535H90.9239L72.2291 64.7892Z" fill="#356BFF"/>
<path d="M90.1575 41.506C90.1575 27.4855 98.9101 17.0333 113.186 17.0333C127.461 17.0333 136.214 27.4855 136.214 41.506C136.214 55.5265 127.292 65.8095 113.186 65.8095C99.0793 65.8095 90.1575 55.3573 90.1575 41.506ZM100.524 41.506C100.524 50.2587 105.282 56.6301 113.186 56.6301C121.09 56.6301 125.762 50.2562 125.762 41.506C125.762 32.7558 121.087 26.2961 113.186 26.2961C105.284 26.2961 100.524 32.5841 100.524 41.506Z" fill="#356BFF"/>
<path d="M395.385 57.2101V62.9292H383.947V51.4911H389.666C392.824 51.4911 395.385 54.0514 395.385 57.2101Z" fill="#356BFF"/>
</svg>
