<svg width="396" height="66" viewBox="0 0 396 66" fill="none" xmlns="http://www.w3.org/2000/svg">
<path d="M172.857 51.655C172.857 49.8084 172.349 48.229 171.336 46.9194C170.323 45.6098 168.089 44.6853 164.634 44.1482L158.736 43.2555C153.551 42.4217 149.588 41.0361 146.849 39.1011C144.107 37.1661 142.738 34.0516 142.738 29.7623C142.738 26.9028 143.543 24.4602 145.152 22.4345C146.76 20.4088 148.948 18.8588 151.719 17.7871C154.49 16.7154 157.603 16.1783 161.058 16.1783C165.526 16.1783 169.041 16.7449 171.603 17.8754C174.164 19.0084 176.072 20.5265 177.322 22.4345C178.573 24.3424 179.468 26.4564 180.003 28.7789L172.942 29.9413C172.106 27.4398 170.917 25.549 169.367 24.2664C167.817 22.9863 165.136 22.3462 161.323 22.3462C157.034 22.3462 154.098 23.0623 152.519 24.492C150.939 25.9218 150.15 27.5012 150.15 29.2277C150.15 31.1356 150.716 32.639 151.847 33.7401C152.977 34.8437 155.332 35.6922 158.907 36.2857L165.61 37.3574C171.029 38.2501 174.919 39.8 177.273 42.0048C179.625 44.2095 180.802 47.4271 180.802 51.6575C180.802 55.5299 179.252 58.7621 176.155 61.3543C173.058 63.9465 168.41 65.2414 162.215 65.2414C158.52 65.2414 155.155 64.7632 152.116 63.8117C149.078 62.8601 146.621 61.2808 144.742 59.076C142.866 56.8738 141.806 53.9529 141.569 50.3185H149.075C149.613 53.536 150.966 55.7849 153.142 57.0651C155.317 58.3477 158.279 58.9853 162.034 58.9853C165.789 58.9853 168.751 58.3158 170.389 56.9743C172.028 55.6353 172.847 53.8622 172.847 51.6575L172.857 51.655Z" fill="#64C4FF"/>
<path d="M190.73 23.774H183.581V17.6061H190.73V5.00562H198.504V17.6061H210.747V23.774H198.504V50.8536C198.504 53.1196 199.009 54.9344 200.025 56.3053C201.038 57.6762 202.585 58.3604 204.672 58.3604C205.982 58.3604 207.144 58.2574 208.157 58.0465C209.17 57.8381 210.063 57.6149 210.838 57.377L212.177 63.3658C210.985 63.7827 209.687 64.1261 208.289 64.3934C206.889 64.6607 205.236 64.7956 203.331 64.7956C199.875 64.7956 197.239 64.1089 195.422 62.7404C193.604 61.372 192.368 59.4787 191.714 57.0656C191.056 54.6524 190.73 51.8983 190.73 48.7984V23.774Z" fill="#64C4FF"/>
<path d="M216.109 17.6055H223.883V46.7402C223.883 51.0295 224.599 54.068 226.029 55.8558C227.458 57.6436 229.722 58.5363 232.819 58.5363C236.334 58.5363 239.463 57.2856 242.202 54.7841C243.691 53.4745 244.824 52.0889 245.599 50.6297C246.374 49.1705 246.761 47.2773 246.761 44.9548V17.6079H254.536V63.8115H246.85V56.6627C244.645 59.6424 242.217 61.8177 239.566 63.1861C236.915 64.557 234.07 65.2412 231.032 65.2412C225.788 65.2412 221.989 63.8115 219.638 60.952C217.283 58.0924 216.109 53.862 216.109 48.2607V17.6055Z" fill="#64C4FF"/>
<path d="M262.313 40.9309C262.313 33.3063 264.144 27.2733 267.808 22.8345C271.472 18.3956 276.49 16.1762 282.866 16.1762C285.309 16.1762 287.781 16.6666 290.282 17.6501C292.784 18.6335 295.109 20.4949 297.252 23.2342V0H305.026V63.8095H297.429V57.107C295.521 59.7287 293.318 61.7396 290.814 63.14C288.313 64.5378 285.363 65.2392 281.969 65.2392C277.5 65.2392 273.805 64.1675 270.886 62.0217C267.965 59.8758 265.807 56.9574 264.407 53.2641C263.007 49.5707 262.308 45.4605 262.308 40.9309H262.313ZM270.445 40.7518C270.445 45.2815 271.07 48.8546 272.321 51.4763C273.572 54.0979 275.18 55.9593 277.147 57.0629C279.114 58.1665 281.169 58.7158 283.315 58.7158C287.545 58.7158 290.969 57.3449 293.593 54.6056C296.215 51.8662 297.527 47.8148 297.527 42.4514V39.3221C297.527 33.4829 296.259 29.2402 293.728 26.5867C291.195 23.9356 287.933 22.6088 283.943 22.6088C281.439 22.6088 279.161 23.2048 277.105 24.3967C275.05 25.5885 273.427 27.5112 272.235 30.1623C271.043 32.8134 270.447 36.3448 270.447 40.7518H270.445Z" fill="#64C4FF"/>
<path d="M314.416 0H322.369V9.02735H314.416V0ZM314.595 17.6059H322.369V63.8095H314.595V17.6059Z" fill="#64C4FF"/>
<path d="M330.324 40.8404C330.324 35.7761 331.246 31.4108 333.096 27.7469C334.942 24.083 337.564 21.2382 340.96 19.2125C344.357 17.1868 348.318 16.174 352.847 16.174C357.377 16.174 361.47 17.1574 364.778 19.1242C368.084 21.091 370.632 23.8917 372.418 27.5237C374.205 31.1582 375.098 35.4769 375.098 40.4823C375.098 45.4877 374.188 49.9266 372.371 53.6199C370.554 57.3157 367.961 60.1752 364.597 62.1985C361.23 64.2242 357.225 65.237 352.578 65.237C345.546 65.237 340.08 63.0617 336.178 58.7136C332.276 54.3655 330.324 48.4061 330.324 40.8404ZM338.545 40.6614C338.545 45.9659 339.646 50.3141 341.851 53.7082C344.053 57.1048 347.66 58.8019 352.663 58.8019C355.999 58.8019 358.711 58.0294 360.796 56.4795C362.88 54.9295 364.415 52.7714 365.399 50.0002C366.382 47.2289 366.873 44.0874 366.873 40.5731C366.873 35.2709 365.757 30.9522 363.523 27.6145C361.288 24.2792 357.669 22.6091 352.663 22.6091C347.658 22.6091 344.129 24.2939 341.895 27.6586C339.661 31.0258 338.542 35.3592 338.542 40.6614H338.545Z" fill="#64C4FF"/>
<path d="M10.5356 44.481C11.3866 52.1301 16.4851 56.4635 24.0459 56.4635C28.9753 56.4635 31.8643 55.36 35.7735 51.1957L44.5261 55.9534C38.7482 62.2414 32.1217 65.8097 23.8767 65.8097C8.75265 65.8097 0 55.2717 0 41.5921C0 27.9125 8.58342 17.036 22.9423 17.036C37.3012 17.036 45.2913 27.4024 45.2913 40.3193C45.2913 41.7637 45.2054 42.784 44.9504 44.4835H10.5356V44.481ZM10.7906 36.2384H34.9249C33.7355 29.3545 28.8061 25.9555 22.859 25.9555C16.3159 25.9555 11.8108 30.1197 10.7906 36.2384Z" fill="#64C4FF"/>
<path d="M72.2271 64.7904H62.7951L44.1003 18.0547H55.1484L67.6386 51.1084L80.1289 18.0547H90.9219L72.2271 64.7904Z" fill="#64C4FF"/>
<path d="M90.1575 41.5069C90.1575 27.4864 98.9101 17.0342 113.186 17.0342C127.461 17.0342 136.214 27.4864 136.214 41.5069C136.214 55.5273 127.292 65.8103 113.186 65.8103C99.0793 65.8103 90.1575 55.3581 90.1575 41.5069ZM100.524 41.5069C100.524 50.2595 105.282 56.6309 113.186 56.6309C121.09 56.6309 125.762 50.2571 125.762 41.5069C125.762 32.7566 121.087 26.297 113.186 26.297C105.284 26.297 100.524 32.585 100.524 41.5069Z" fill="#64C4FF"/>
<path d="M395.385 57.2095V62.9286H383.947V51.4905H389.666C392.824 51.4905 395.385 54.0508 395.385 57.2095Z" fill="#64C4FF"/>
</svg>
