<svg width="396" height="66" viewBox="0 0 396 66" fill="none" xmlns="http://www.w3.org/2000/svg">
<path d="M172.857 51.655C172.857 49.8083 172.349 48.229 171.336 46.9194C170.323 45.6098 168.089 44.6853 164.634 44.1482L158.736 43.2555C153.551 42.4216 149.588 41.036 146.849 39.1011C144.107 37.1661 142.738 34.0516 142.738 29.7623C142.738 26.9028 143.543 24.4602 145.152 22.4345C146.76 20.4088 148.948 18.8589 151.719 17.7871C154.49 16.7154 157.603 16.1783 161.058 16.1783C165.526 16.1783 169.041 16.7448 171.603 17.8754C174.164 19.0084 176.072 20.5265 177.322 22.4345C178.573 24.3424 179.468 26.4565 180.003 28.7789L172.942 29.9413C172.106 27.4399 170.917 25.549 169.367 24.2664C167.817 22.9863 165.136 22.3462 161.323 22.3462C157.034 22.3462 154.098 23.0623 152.519 24.4921C150.939 25.9218 150.15 27.5011 150.15 29.2276C150.15 31.1356 150.716 32.639 151.847 33.7401C152.977 34.8437 155.332 35.6922 158.907 36.2857L165.61 37.3575C171.03 38.2501 174.919 39.8 177.273 42.0048C179.625 44.2095 180.802 47.427 180.802 51.6575C180.802 55.5298 179.252 58.7621 176.155 61.3543C173.058 63.9465 168.41 65.2414 162.216 65.2414C158.52 65.2414 155.155 64.7632 152.116 63.8117C149.078 62.8601 146.621 61.2807 144.742 59.076C142.866 56.8737 141.806 53.9529 141.569 50.3184H149.075C149.613 53.536 150.966 55.7849 153.142 57.065C155.317 58.3477 158.279 58.9853 162.034 58.9853C165.789 58.9853 168.751 58.3158 170.389 56.9743C172.028 55.6353 172.847 53.8622 172.847 51.6575L172.857 51.655Z" fill="#F5F5F5"/>
<path d="M190.73 23.7736H183.581V17.6058H190.73V5.00525H198.504V17.6058H210.747V23.7736H198.504V50.8532C198.504 53.1193 199.009 54.934 200.025 56.305C201.038 57.6758 202.585 58.36 204.672 58.36C205.982 58.36 207.144 58.257 208.157 58.0461C209.17 57.8377 210.063 57.6145 210.837 57.3766L212.176 63.3654C210.985 63.7823 209.687 64.1257 208.289 64.393C206.889 64.6603 205.236 64.7952 203.331 64.7952C199.875 64.7952 197.239 64.1085 195.422 62.7401C193.604 61.3716 192.368 59.4783 191.714 57.0652C191.056 54.652 190.73 51.8979 190.73 48.7981V23.7736Z" fill="#F5F5F5"/>
<path d="M216.109 17.606H223.883V46.7407C223.883 51.03 224.599 54.0685 226.029 55.8563C227.458 57.6441 229.722 58.5368 232.819 58.5368C236.334 58.5368 239.463 57.286 242.202 54.7846C243.691 53.475 244.824 52.0894 245.599 50.6302C246.374 49.171 246.761 47.2778 246.761 44.9553V17.6084H254.536V63.8119H246.85V56.6632C244.645 59.6429 242.217 61.8181 239.566 63.1866C236.915 64.5575 234.07 65.2417 231.032 65.2417C225.788 65.2417 221.99 63.812 219.638 60.9524C217.283 58.0929 216.109 53.8625 216.109 48.2612V17.606Z" fill="#F5F5F5"/>
<path d="M262.314 40.9308C262.314 33.3063 264.146 27.2734 267.81 22.8345C271.474 18.3956 276.491 16.1761 282.868 16.1761C285.31 16.1761 287.782 16.6666 290.284 17.65C292.785 18.6335 295.11 20.4949 297.254 23.2342V0H305.028V63.8095H297.43V57.107C295.522 59.7287 293.32 61.7396 290.816 63.14C288.315 64.5378 285.364 65.2392 281.97 65.2392C277.502 65.2392 273.806 64.1675 270.888 62.0216C267.967 59.8758 265.809 56.9574 264.408 53.2641C263.008 49.5707 262.309 45.4605 262.309 40.9308H262.314ZM270.446 40.7518C270.446 45.2814 271.072 48.8546 272.322 51.4762C273.573 54.0979 275.182 55.9593 277.149 57.0629C279.116 58.1664 281.171 58.7158 283.316 58.7158C287.547 58.7158 290.971 57.3449 293.595 54.6055C296.216 51.8662 297.528 47.8148 297.528 42.4514V39.3221C297.528 33.4829 296.26 29.2402 293.729 26.5866C291.196 23.9356 287.934 22.6088 283.944 22.6088C281.44 22.6088 279.162 23.2048 277.107 24.3967C275.052 25.5885 273.428 27.5112 272.237 30.1623C271.045 32.8134 270.449 36.3448 270.449 40.7518H270.446Z" fill="#F5F5F5"/>
<path d="M314.416 0H322.369V9.02737H314.416V0ZM314.595 17.6059H322.369V63.8095H314.595V17.6059Z" fill="#F5F5F5"/>
<path d="M330.322 40.8404C330.322 35.7761 331.244 31.4108 333.093 27.7469C334.94 24.083 337.562 21.2382 340.958 19.2125C344.355 17.1868 348.316 16.174 352.845 16.174C357.375 16.174 361.468 17.1574 364.776 19.1242C368.082 21.0911 370.63 23.8917 372.416 27.5237C374.203 31.1582 375.096 35.477 375.096 40.4823C375.096 45.4877 374.186 49.9266 372.369 53.6199C370.552 57.3157 367.96 60.1753 364.595 62.1985C361.228 64.2242 357.223 65.237 352.576 65.237C345.544 65.237 340.078 63.0617 336.176 58.7136C332.274 54.3654 330.322 48.4061 330.322 40.8404ZM338.543 40.6614C338.543 45.966 339.644 50.3141 341.849 53.7082C344.051 57.1048 347.658 58.8019 352.661 58.8019C355.997 58.8019 358.709 58.0294 360.794 56.4795C362.878 54.9295 364.413 52.7714 365.397 50.0001C366.38 47.2289 366.871 44.0874 366.871 40.5731C366.871 35.2709 365.755 30.9523 363.521 27.6145C361.286 24.2792 357.667 22.6091 352.661 22.6091C347.656 22.6091 344.127 24.2939 341.893 27.6586C339.659 31.0258 338.54 35.3592 338.54 40.6614H338.543Z" fill="#F5F5F5"/>
<path d="M10.5356 44.4822C11.3866 52.1313 16.4852 56.4648 24.046 56.4648C28.9753 56.4648 31.8643 55.3612 35.7734 51.197L44.5261 55.9546C38.7482 62.2426 32.1218 65.811 23.8767 65.811C8.75268 65.811 0 55.2729 0 41.5933C0 27.9137 8.58347 17.0372 22.9424 17.0372C37.3013 17.0372 45.2913 27.4036 45.2913 40.3205C45.2913 41.7649 45.2054 42.7851 44.9504 44.4847H10.5356V44.4822ZM10.7906 36.2397H34.9249C33.7355 29.3557 28.8061 25.9567 22.859 25.9567C16.3159 25.9567 11.8108 30.1209 10.7906 36.2397Z" fill="#F5F5F5"/>
<path d="M72.2291 64.7912H62.7971L44.1023 18.0555H55.1504L67.6406 51.1092L80.1308 18.0555H90.9239L72.2291 64.7912Z" fill="#F5F5F5"/>
<path d="M90.1575 41.5077C90.1575 27.4873 98.9101 17.035 113.186 17.035C127.461 17.035 136.214 27.4873 136.214 41.5077C136.214 55.5282 127.292 65.8112 113.186 65.8112C99.0794 65.8112 90.1575 55.359 90.1575 41.5077ZM100.524 41.5077C100.524 50.2604 105.282 56.6318 113.186 56.6318C121.09 56.6318 125.762 50.258 125.762 41.5077C125.762 32.7575 121.087 26.2978 113.186 26.2978C105.284 26.2978 100.524 32.5858 100.524 41.5077Z" fill="#F5F5F5"/>
<path d="M395.385 57.211V62.9301H383.947V51.4919H389.666C392.825 51.4919 395.385 54.0523 395.385 57.211Z" fill="#F5F5F5"/>
</svg>
